<svg width="96" height="96" viewBox="0 0 96 96" fill="none" xmlns="http://www.w3.org/2000/svg">
<circle cx="48" cy="48" r="47.5" fill="white" stroke="#F4B92F"/>
<path d="M63.2812 70H32.0938V63.8125L46.8125 48.125C48.8333 45.9167 50.3229 43.9896 51.2812 42.3438C52.2604 40.6979 52.75 39.1354 52.75 37.6562C52.75 35.6354 52.2396 34.0521 51.2188 32.9062C50.1979 31.7396 48.7396 31.1562 46.8438 31.1562C44.8021 31.1562 43.1875 31.8646 42 33.2812C40.8333 34.6771 40.25 36.5208 40.25 38.8125H31.1875C31.1875 36.0417 31.8438 33.5104 33.1562 31.2188C34.4896 28.9271 36.3646 27.1354 38.7812 25.8438C41.1979 24.5312 43.9375 23.875 47 23.875C51.6875 23.875 55.3229 25 57.9062 27.25C60.5104 29.5 61.8125 32.6771 61.8125 36.7812C61.8125 39.0312 61.2292 41.3229 60.0625 43.6562C58.8958 45.9896 56.8958 48.7083 54.0625 51.8125L43.7188 62.7188H63.2812V70Z" fill="#F4B92F"/>
</svg>
