<svg width="96" height="96" viewBox="0 0 96 96" fill="none" xmlns="http://www.w3.org/2000/svg">
<circle cx="48" cy="48" r="47.5" fill="white" stroke="#F4B92F"/>
<path d="M41.2812 43.25H46.0938C48.3854 43.25 50.0833 42.6771 51.1875 41.5312C52.2917 40.3854 52.8438 38.8646 52.8438 36.9688C52.8438 35.1354 52.2917 33.7083 51.1875 32.6875C50.1042 31.6667 48.6042 31.1562 46.6875 31.1562C44.9583 31.1562 43.5104 31.6354 42.3438 32.5938C41.1771 33.5312 40.5938 34.7604 40.5938 36.2812H31.5625C31.5625 33.9062 32.1979 31.7812 33.4688 29.9062C34.7604 28.0104 36.5521 26.5312 38.8438 25.4688C41.1562 24.4062 43.6979 23.875 46.4688 23.875C51.2812 23.875 55.0521 25.0312 57.7812 27.3438C60.5104 29.6354 61.875 32.8021 61.875 36.8438C61.875 38.9271 61.2396 40.8438 59.9688 42.5938C58.6979 44.3438 57.0312 45.6875 54.9688 46.625C57.5312 47.5417 59.4375 48.9167 60.6875 50.75C61.9583 52.5833 62.5938 54.75 62.5938 57.25C62.5938 61.2917 61.1146 64.5312 58.1562 66.9688C55.2188 69.4062 51.3229 70.625 46.4688 70.625C41.9271 70.625 38.2083 69.4271 35.3125 67.0312C32.4375 64.6354 31 61.4688 31 57.5312H40.0312C40.0312 59.2396 40.6667 60.6354 41.9375 61.7188C43.2292 62.8021 44.8125 63.3438 46.6875 63.3438C48.8333 63.3438 50.5104 62.7812 51.7188 61.6562C52.9479 60.5104 53.5625 59 53.5625 57.125C53.5625 52.5833 51.0625 50.3125 46.0625 50.3125H41.2812V43.25Z" fill="#F4B92F"/>
</svg>
