<svg width="97" height="41" viewBox="0 0 97 41" fill="none" xmlns="http://www.w3.org/2000/svg">
<path d="M23.9629 11.1035C23.9629 13.055 23.4437 14.7917 22.4053 16.3135C21.3848 17.8353 19.9972 19.0259 18.2427 19.8853C20.2837 20.7625 21.895 22.0426 23.0767 23.7256C24.2762 25.4085 24.876 27.3153 24.876 29.4458C24.876 32.8296 23.7301 35.5241 21.4385 37.5293C19.1647 39.5345 16.1659 40.5371 12.4419 40.5371C8.68213 40.5371 5.66536 39.5345 3.3916 37.5293C1.13574 35.5062 0.0078125 32.8117 0.0078125 29.4458C0.0078125 27.3332 0.580729 25.4264 1.72656 23.7256C2.8903 22.0247 4.49268 20.7357 6.53369 19.8584C4.79704 18.999 3.42741 17.8084 2.4248 16.2866C1.4222 14.7648 0.920898 13.0371 0.920898 11.1035C0.920898 7.80924 1.97721 5.19531 4.08984 3.26172C6.20247 1.32812 8.98649 0.361328 12.4419 0.361328C15.8794 0.361328 18.6545 1.32812 20.7671 3.26172C22.8976 5.19531 23.9629 7.80924 23.9629 11.1035ZM19.9077 29.3384C19.9077 27.1541 19.2095 25.3727 17.813 23.9941C16.4344 22.6156 14.6261 21.9263 12.3882 21.9263C10.1502 21.9263 8.35091 22.6066 6.99023 23.9673C5.64746 25.328 4.97607 27.1183 4.97607 29.3384C4.97607 31.5584 5.62956 33.304 6.93652 34.5752C8.26139 35.8464 10.0965 36.4819 12.4419 36.4819C14.7694 36.4819 16.5955 35.8464 17.9204 34.5752C19.2453 33.2861 19.9077 31.5405 19.9077 29.3384ZM12.4419 4.44336C10.4904 4.44336 8.90592 5.05208 7.68848 6.26953C6.48893 7.46908 5.88916 9.10726 5.88916 11.1841C5.88916 13.1714 6.47998 14.7827 7.66162 16.0181C8.86117 17.2355 10.4546 17.8442 12.4419 17.8442C14.4292 17.8442 16.0137 17.2355 17.1953 16.0181C18.3949 14.7827 18.9946 13.1714 18.9946 11.1841C18.9946 9.19678 18.377 7.5765 17.1416 6.32324C15.9062 5.06999 14.3397 4.44336 12.4419 4.44336ZM33.416 20.3955L35.4033 0.898438H55.4375V5.49072H39.6196L38.438 16.1523C40.3537 15.0244 42.529 14.4604 44.9639 14.4604C48.5267 14.4604 51.3555 15.6421 53.4502 18.0054C55.5449 20.3507 56.5923 23.5286 56.5923 27.5391C56.5923 31.5674 55.5002 34.7453 53.3159 37.0728C51.1496 39.3823 48.1149 40.5371 44.2119 40.5371C40.7565 40.5371 37.9367 39.5793 35.7524 37.6636C33.5682 35.7479 32.3239 33.0981 32.0195 29.7144H36.7192C37.0236 31.9523 37.8203 33.6442 39.1094 34.79C40.3984 35.918 42.0993 36.4819 44.2119 36.4819C46.5215 36.4819 48.3298 35.6942 49.6367 34.1187C50.9616 32.5431 51.624 30.3678 51.624 27.5928C51.624 24.9788 50.9079 22.8841 49.4756 21.3086C48.0612 19.7152 46.1724 18.9185 43.8091 18.9185C41.6427 18.9185 39.9419 19.3929 38.7065 20.3418L37.3906 21.416L33.416 20.3955ZM61.5874 8.41797C61.5874 6.07259 62.3304 4.139 63.8164 2.61719C65.3203 1.09538 67.245 0.334473 69.5903 0.334473C71.9715 0.334473 73.8962 1.10433 75.3643 2.64404C76.8503 4.16585 77.5933 6.14421 77.5933 8.5791V10.4858C77.5933 12.8491 76.8413 14.7827 75.3374 16.2866C73.8514 17.7726 71.9536 18.5156 69.644 18.5156C67.3166 18.5156 65.3919 17.7726 63.8701 16.2866C62.3483 14.7827 61.5874 12.7865 61.5874 10.2979V8.41797ZM65.2935 10.4858C65.2935 11.8823 65.6873 13.0371 66.4751 13.9502C67.2629 14.8454 68.3192 15.293 69.644 15.293C70.9152 15.293 71.9357 14.8543 72.7056 13.9771C73.4933 13.0998 73.8872 11.9002 73.8872 10.3784V8.41797C73.8872 7.02148 73.5023 5.8667 72.7324 4.95361C71.9626 4.04053 70.9152 3.58398 69.5903 3.58398C68.2655 3.58398 67.2181 4.04053 66.4482 4.95361C65.6784 5.8667 65.2935 7.05729 65.2935 8.52539V10.4858ZM80.6279 30.4126C80.6279 28.0672 81.3709 26.1426 82.8569 24.6387C84.3608 23.1169 86.2855 22.356 88.6309 22.356C90.9762 22.356 92.9009 23.1079 94.4048 24.6118C95.9087 26.1157 96.6606 28.112 96.6606 30.6006V32.5073C96.6606 34.8527 95.9087 36.7863 94.4048 38.3081C92.9188 39.812 91.012 40.564 88.6846 40.564C86.3571 40.564 84.4325 39.821 82.9106 38.335C81.3888 36.8311 80.6279 34.8348 80.6279 32.3462V30.4126ZM84.334 32.5073C84.334 33.9217 84.7279 35.0854 85.5156 35.9985C86.3034 36.8937 87.3597 37.3413 88.6846 37.3413C89.9736 37.3413 91.0031 36.9027 91.7729 36.0254C92.5428 35.1302 92.9277 33.9217 92.9277 32.3999V30.4126C92.9277 28.9982 92.5339 27.8434 91.7461 26.9482C90.9762 26.0531 89.9378 25.6055 88.6309 25.6055C87.3597 25.6055 86.3213 26.0531 85.5156 26.9482C84.7279 27.8255 84.334 29.0161 84.334 30.52V32.5073ZM70.772 37.0459L67.9521 35.2734L87.0464 4.71191L89.8662 6.48438L70.772 37.0459Z" fill="black"/>
</svg>
