<svg width="76" height="76" viewBox="0 0 76 76" fill="none" xmlns="http://www.w3.org/2000/svg">
<path d="M67.6875 27.1299C70.3107 27.1299 72.4375 29.2561 72.4375 31.8799V72.2549H3.5625V31.8799C3.5625 29.2561 5.68933 27.1299 8.3125 27.1299H67.6875Z" fill="#E0E0E0"/>
<path d="M9.5 34.2549H66.5V62.7549H9.5V34.2549Z" fill="#A6E7FF"/>
<path d="M43.9375 67.5049C43.9375 68.8165 42.8741 69.8799 41.5625 69.8799H34.4375C33.1259 69.8799 32.0625 68.8165 32.0625 67.5049H1.1875V69.8799C1.1875 72.5031 3.31433 74.6299 5.9375 74.6299H70.0625C72.6857 74.6299 74.8125 72.5031 74.8125 69.8799V67.5049H43.9375Z" fill="#EEEEEE"/>
<path d="M61.75 3.97363L58.3574 1.59863L54.9648 3.97363L51.5722 1.59863L48.1807 3.97363L44.7875 1.59863L41.3949 3.97363L38.0023 1.59863L34.6097 3.97363L31.2171 1.59863L27.8233 3.97363L24.4307 1.59863L21.0375 3.97363L17.6438 1.59863L14.25 3.97363V62.7549H61.75V3.97363Z" fill="#FFE082"/>
<path d="M22.3838 41.1015L27.4214 36.0634L34.1393 42.7807L29.1012 47.8189L22.3838 41.1015Z" fill="#FF7043"/>
<path d="M27.4219 36.0633L34.1398 42.7807L36.6586 40.2619L47.574 36.0633L34.1398 22.6292L29.9407 33.5445L27.4219 36.0633Z" fill="#FF8A65"/>
<path d="M30.7803 46.1396L34.1387 42.7812L39.1768 47.8194C40.1046 48.7466 40.1046 50.2507 39.1768 51.1778C38.2497 52.1056 36.7456 52.1056 35.8179 51.1778L30.7803 46.1396Z" fill="#90A4AE"/>
<path d="M44.2168 24.3078L49.2544 19.2708L50.9336 20.95L45.896 25.9876L44.2168 24.3078Z" fill="white"/>
<path d="M48.9463 29.8795L55.8295 28.035L56.4441 30.3294L49.5609 32.1733L48.9463 29.8795Z" fill="white"/>
<path d="M38.0303 20.6427L39.8747 13.7606L42.1685 14.3752L40.3247 21.2573L38.0303 20.6427Z" fill="white"/>
<path d="M19 9.31738H21.375V23.5674H19V9.31738Z" fill="white"/>
<path d="M23.75 9.31738H26.125V18.8174H23.75V9.31738Z" fill="white"/>
<path d="M28.5 9.31738H30.875V14.0674H28.5V9.31738Z" fill="white"/>
<path d="M54.625 44.9424H57V59.1924H54.625V44.9424Z" fill="white"/>
<path d="M49.875 49.6924H52.25V59.1924H49.875V49.6924Z" fill="white"/>
<path d="M45.125 54.4424H47.5V59.1924H45.125V54.4424Z" fill="white"/>
<path d="M73.625 66.3174V31.8799C73.6209 28.6021 70.9653 25.9458 67.6875 25.9424H62.9375V3.35492L58.3574 0.148438L54.9648 2.52344L51.5733 0.148438L48.179 2.52344L44.7875 0.148438L41.3949 2.52344L38 0.148438L34.6086 2.52344L31.2148 0.148438L27.8222 2.52344L24.4278 0.148438L21.0352 2.52344L17.6403 0.148438L13.0625 3.35492V25.9424H8.3125C5.0347 25.9458 2.37906 28.6021 2.375 31.8799V66.3174H0V69.8799C0.00405885 73.1571 2.6597 75.8133 5.9375 75.8174H70.0625C73.3403 75.8133 75.9959 73.1571 76 69.8799V66.3174H73.625ZM62.9375 35.4424H65.3125V61.5674H62.9375V35.4424ZM15.4375 4.59229L17.6426 3.04819L21.0375 5.42319L24.4307 3.04819L27.8245 5.42319L31.2171 3.04819L34.6109 5.42319L38.0023 3.04819L41.3949 5.42319L44.7875 3.04819L48.179 5.42319L51.5733 3.04819L54.9648 5.42319L58.3574 3.04819L60.5625 4.59229V61.5674H15.4375V4.59229ZM4.75 31.8799C4.75 29.9119 6.34512 28.3174 8.3125 28.3174H13.0625V33.0674H8.3125V63.9424H67.6875V33.0674H62.9375V28.3174H67.6875C69.6549 28.3174 71.25 29.9119 71.25 31.8799V66.3174H42.75V67.5049C42.75 68.1606 42.2183 68.6924 41.5625 68.6924H34.4375C33.7817 68.6924 33.25 68.1606 33.25 67.5049V66.3174H4.75V31.8799ZM13.0625 35.4424V61.5674H10.6875V35.4424H13.0625ZM73.625 69.8799C73.625 71.8472 72.0299 73.4424 70.0625 73.4424H5.9375C3.97012 73.4424 2.375 71.8472 2.375 69.8799V68.6924H31.0779C31.583 70.1147 32.9282 71.065 34.4375 71.0674H41.5625C43.0718 71.065 44.417 70.1147 44.9221 68.6924H73.625V69.8799Z" fill="black"/>
<path d="M49.7049 36.511L33.687 20.4977L28.9213 32.8841L26.5817 35.2237L20.7051 41.1027L29.1005 49.4987L30.7797 47.8195L34.9789 52.0175C36.3699 53.4091 38.6254 53.4096 40.0176 52.0186C41.4092 50.6276 41.4098 48.3715 40.0188 46.9799L35.8208 42.7819L37.3231 41.2801L49.7049 36.511ZM29.1005 46.1403L24.0635 41.1027L27.4213 37.7437L32.4601 42.7819L29.1005 46.1403ZM38.3372 48.6591C38.6457 48.9571 38.7698 49.3989 38.6608 49.8141C38.5524 50.2292 38.2277 50.5534 37.8125 50.6618C37.3973 50.7708 36.9561 50.6467 36.6581 50.3383L32.4589 46.1403L34.1393 44.4669L38.3372 48.6591ZM34.1393 41.1015L29.1005 36.0633L30.9577 34.2061L34.5915 24.7606L45.4431 35.6116L35.9953 39.242L34.1393 41.1015Z" fill="black"/>
<path d="M19.0254 46.1403L20.7046 44.4611L25.7433 49.4987L24.0641 51.1779L19.0254 46.1403Z" fill="black"/>
</svg>
