<svg width="55" height="55" viewBox="0 0 55 55" fill="none" xmlns="http://www.w3.org/2000/svg">
<g clip-path="url(#clip0)">
<path d="M27.5 50.4167C14.8958 50.4167 4.58331 40.1042 4.58331 27.5C4.58331 14.8959 14.8958 4.58337 27.5 4.58337C40.1042 4.58337 50.4167 14.8959 50.4167 27.5C50.4167 40.1042 40.1042 50.4167 27.5 50.4167ZM27.5 6.87504C16.0416 6.87504 6.87498 16.0417 6.87498 27.5C6.87498 38.9584 16.0416 48.125 27.5 48.125C38.9583 48.125 48.125 38.9584 48.125 27.5C48.125 16.0417 38.9583 6.87504 27.5 6.87504Z" fill="black"/>
<path d="M27.5 11.4583C26.8125 11.4583 26.3542 11 26.3542 10.3125V1.14583C26.3542 0.458333 26.8125 0 27.5 0C28.1875 0 28.6459 0.458333 28.6459 1.14583V10.3125C28.6459 11 28.1875 11.4583 27.5 11.4583Z" fill="black"/>
<path d="M27.5 11.4583C26.8125 11.4583 26.3542 11 26.3542 10.3125V1.14583C26.3542 0.458333 26.8125 0 27.5 0C28.1875 0 28.6459 0.458333 28.6459 1.14583V10.3125C28.6459 11 28.1875 11.4583 27.5 11.4583Z" fill="black"/>
<path d="M53.8542 28.6458H44.6875C44 28.6458 43.5417 28.1875 43.5417 27.5C43.5417 26.8125 44 26.3541 44.6875 26.3541H53.8542C54.5417 26.3541 55 26.8125 55 27.5C55 28.1875 54.5417 28.6458 53.8542 28.6458Z" fill="black"/>
<path d="M27.5 54.9999C26.8125 54.9999 26.3542 54.5416 26.3542 53.8541V44.6875C26.3542 44 26.8125 43.5416 27.5 43.5416C28.1875 43.5416 28.6459 44 28.6459 44.6875V53.8541C28.6459 54.5416 28.1875 54.9999 27.5 54.9999Z" fill="black"/>
<path d="M10.3125 28.6458H1.14583C0.458333 28.6458 0 28.1875 0 27.5C0 26.8125 0.458333 26.3541 1.14583 26.3541H10.3125C11 26.3541 11.4583 26.8125 11.4583 27.5C11.4583 28.1875 11 28.6458 10.3125 28.6458Z" fill="black"/>
</g>
<defs>
<clipPath id="clip0">
<rect width="55" height="55" fill="white"/>
</clipPath>
</defs>
</svg>
