<svg width="76" height="76" viewBox="0 0 76 76" fill="none" xmlns="http://www.w3.org/2000/svg">
<path d="M59.375 21.375C50.9129 21.375 41.8211 30.2099 38 34.3876C34.1789 30.2099 25.0871 21.375 16.625 21.375C6.21524 21.375 0 27.5902 0 38C0 48.4098 6.21524 54.625 16.625 54.625C25.0871 54.625 34.1789 45.7901 38 41.6124C41.8211 45.7901 50.9129 54.625 59.375 54.625C69.7848 54.625 76 48.4098 76 38C76 27.5902 69.7848 21.375 59.375 21.375ZM16.625 49.875C8.74738 49.875 4.75 45.8805 4.75 38C4.75 30.1195 8.74738 26.125 16.625 26.125C22.9307 26.125 31.0101 33.6872 34.877 38C31.0153 42.318 22.9446 49.875 16.625 49.875ZM59.375 49.875C53.0693 49.875 44.9899 42.3128 41.123 38C44.9847 33.682 53.0554 26.125 59.375 26.125C67.2526 26.125 71.25 30.1195 71.25 38C71.25 45.8805 67.2526 49.875 59.375 49.875Z" fill="#FFCB5A"/>
</svg>
