<svg width="76" height="76" viewBox="0 0 76 76" fill="none" xmlns="http://www.w3.org/2000/svg">
<g clip-path="url(#clip0)">
<path d="M17.0092 72.0789H3.83569V55.188C3.83569 54.7662 4.17769 54.4243 4.5994 54.4243H16.2454C16.6672 54.4243 17.0091 54.7663 17.0091 55.188V72.0789H17.0092Z" fill="#8AC9FE"/>
<path d="M17.0088 55.1886V70.7839H13.2773V55.1886C13.2773 54.7654 12.9351 54.4249 12.5135 54.4249H16.2451C16.6667 54.4249 17.0088 54.7656 17.0088 55.1886Z" fill="#60B7FF"/>
<path d="M53.7794 72.0791H40.6058V32.6582C40.6058 32.2364 40.9478 31.8945 41.3696 31.8945H53.0156C53.4374 31.8945 53.7793 32.2365 53.7793 32.6582V72.0791H53.7794Z" fill="#FB2B3A"/>
<path d="M53.7791 32.6587V70.784H50.0475V32.6587C50.0475 32.2355 49.7054 31.895 49.2838 31.895H53.0154C53.437 31.895 53.7791 32.2357 53.7791 32.6587Z" fill="#E41F2D"/>
<path d="M72.1644 72.079H58.9908V18.5546C58.9908 18.1327 59.3328 17.7909 59.7546 17.7909H71.4005C71.8224 17.7909 72.1643 18.1329 72.1643 18.5546V72.079H72.1644Z" fill="#FEC165"/>
<path d="M72.1643 18.5552V70.784H68.4327V18.5552C68.4327 18.132 68.0905 17.7915 67.6689 17.7915H71.4005C71.8221 17.7914 72.1643 18.132 72.1643 18.5552Z" fill="#FDB441"/>
<path d="M35.3942 72.0789H22.2207V41.101C22.2207 40.6791 22.5627 40.3373 22.9844 40.3373H34.6304C35.0522 40.3373 35.3941 40.6793 35.3941 41.101V72.0789H35.3942Z" fill="#00C27A"/>
<path d="M35.394 41.1016V70.7839H31.6624V41.1016C31.6624 40.6784 31.3202 40.3379 30.8987 40.3379H34.6303C35.0518 40.3377 35.394 40.6784 35.394 41.1016Z" fill="#08B865"/>
<path d="M56.3459 0.0763671L47.9862 1.55169C46.5885 1.7984 45.5995 3.15097 45.7883 4.55771C45.993 6.08262 47.4 7.11144 48.9151 6.84411L50.3569 6.58968L43.7753 16.9676C43.2544 17.7887 42.1665 18.0323 41.3454 17.5115L29.9732 11.5748C28.5549 10.6753 26.6758 11.0957 25.776 12.5137L15.4802 27.9422C14.612 29.3102 15.0175 31.1231 16.3858 31.9909C17.7538 32.8585 19.5661 32.4528 20.4337 31.0848L28.2678 19.5258C28.7887 18.7046 29.8766 18.461 30.6978 18.9819L42.0763 24.9225C43.4949 25.8222 45.3744 25.4015 46.2741 23.9829L55.3208 9.71802L55.645 11.5549C55.9028 13.016 57.2964 13.9915 58.7575 13.7336C60.2187 13.4757 61.1942 12.082 60.9361 10.6208L59.4584 2.2547C59.2004 0.793768 57.807 -0.18147 56.3459 0.0763671Z" fill="#8AC9FE"/>
<path d="M60.9362 10.6204L59.4589 2.25501C59.2008 0.794381 57.8064 -0.181599 56.3458 0.0763865L56.2117 0.0995428C56.4681 1.11857 56.7857 2.12424 56.9033 3.17503C57.0226 4.23889 57.6851 6.15003 56.4881 6.84116C55.7553 7.2642 54.9118 6.80033 54.1517 7.27816C53.4831 7.69839 53.123 8.31975 52.7081 8.97287C51.6858 10.5824 50.6668 12.1903 49.6478 13.7982C48.1788 16.1141 46.7966 18.4873 45.241 20.7476C44.1453 22.3394 43.2356 22.5049 41.0425 21.2917L29.6631 15.3514C28.8426 14.8304 27.7542 15.0735 27.233 15.8939L19.3998 27.849C18.5313 29.217 16.7201 29.6224 15.3519 28.7555C15.2857 28.7125 15.2213 28.6694 15.16 28.6215C14.7647 29.8621 15.2343 31.26 16.3858 31.9912C16.8738 32.3005 17.4164 32.4478 17.954 32.4478C18.9251 32.4478 19.8745 31.9647 20.4337 31.0847L28.2669 19.525C28.7881 18.7045 29.8764 18.4613 30.697 18.9825L42.0764 24.9228C43.4941 25.8228 45.3734 25.401 46.2732 23.9832L55.32 9.71729L55.6442 11.5551C55.9024 13.0157 57.2952 13.9917 58.7574 13.7337C60.061 13.5038 60.9773 12.369 60.9773 11.0903C60.9776 10.9348 60.9644 10.7776 60.9362 10.6204Z" fill="#60B7FF"/>
<path d="M75.2363 75.9651H0.763714C0.341853 75.9651 0 75.6231 0 75.2014V71.5481C0 71.1263 0.342001 70.7844 0.763714 70.7844H75.2361C75.658 70.7844 75.9999 71.1264 75.9999 71.5481V75.2014C76 75.6231 75.6581 75.9651 75.2363 75.9651Z" fill="#5A5A5A"/>
</g>
<defs>
<clipPath id="clip0">
<rect width="76" height="76" fill="white"/>
</clipPath>
</defs>
</svg>
