<svg width="76" height="76" viewBox="0 0 76 76" fill="none" xmlns="http://www.w3.org/2000/svg">
<g clip-path="url(#clip0)">
<path d="M68.2776 15.1642C70.9379 15.1642 73.0945 13.0076 73.0945 10.3473C73.0945 7.687 70.9379 5.5304 68.2776 5.5304C65.6173 5.5304 63.4607 7.687 63.4607 10.3473C63.4607 13.0076 65.6173 15.1642 68.2776 15.1642Z" fill="#FFC682"/>
<path d="M63.3607 30.0994H73.1182C74.6465 30.0994 76.0001 28.773 76.0001 27.2447V26.6331C76.0001 22.4304 72.4786 19.038 68.2758 19.038H68.2032C64.0005 19.038 60.5935 22.4448 60.5935 26.6476V27.3322C60.5935 28.8605 61.8324 30.0994 63.3607 30.0994Z" fill="#50758D"/>
<path d="M68.2776 55.5344C70.9379 55.5344 73.0945 53.3778 73.0945 50.7175C73.0945 48.0572 70.9379 45.9006 68.2776 45.9006C65.6173 45.9006 63.4607 48.0572 63.4607 50.7175C63.4607 53.3778 65.6173 55.5344 68.2776 55.5344Z" fill="#FFC682"/>
<path d="M63.3607 70.4696H73.1182C74.6465 70.4696 76.0001 69.1432 76.0001 67.615V67.0033C76.0001 62.8007 72.4786 59.4082 68.2758 59.4082H68.2032C64.0005 59.4082 60.5935 62.8151 60.5935 67.0178V67.7024C60.5935 69.2307 61.8324 70.4696 63.3607 70.4696Z" fill="#50758D"/>
<path d="M43.1228 11.6981V23.9315C43.1228 24.7761 42.4382 25.4607 41.5936 25.4607H33.7948L32.2656 17.9442L33.7948 10.1689H41.5936C42.4382 10.1689 43.1228 10.8536 43.1228 11.6981Z" fill="#F5F5F5"/>
<path d="M43.1228 52.0685V64.3019C43.1228 65.1464 42.4382 65.8311 41.5936 65.8311H33.7948L32.2656 58.1852L33.7948 50.5393H41.5936C42.4382 50.5393 43.1228 51.2239 43.1228 52.0685Z" fill="#F5F5F5"/>
<path d="M33.7948 50.5392V65.831H28.0711C12.7717 65.831 0.00764588 53.3132 0 38.0138V38L7.62798 36.4708L15.2917 38C15.2917 41.4621 16.6955 44.5969 18.9648 46.8662C21.2341 49.1355 24.3689 50.5392 27.831 50.5392H33.7948Z" fill="#FD646F"/>
<path d="M33.7948 10.1689V25.4607H27.831C27.7331 25.4607 27.6353 25.4622 27.5374 25.4653C20.7478 25.6197 15.2917 31.1722 15.2917 37.9999H0C0 22.6531 12.4842 10.1689 27.831 10.1689H33.7948Z" fill="#2EDFFC"/>
<path d="M55.8148 66.9778H47.5573C46.9237 66.9778 46.4104 66.4645 46.4104 65.831C46.4104 65.1974 46.9237 64.6841 47.5573 64.6841H55.8148C56.4484 64.6841 56.9617 65.1974 56.9617 65.831C56.9617 66.4645 56.4484 66.9778 55.8148 66.9778Z" fill="#FAD207"/>
<path d="M54.2857 51.6861H47.8632C47.2297 51.6861 46.7163 51.1727 46.7163 50.5392C46.7163 49.9057 47.2297 49.3923 47.8632 49.3923H54.2857C54.9193 49.3923 55.4326 49.9057 55.4326 50.5392C55.4326 51.1727 54.9193 51.6861 54.2857 51.6861Z" fill="#FAD207"/>
<path d="M59.6379 59.332H54.821C54.1874 59.332 53.6741 58.8186 53.6741 58.1851C53.6741 57.5516 54.1874 57.0382 54.821 57.0382H59.6379C60.2714 57.0382 60.7847 57.5516 60.7847 58.1851C60.7847 58.8186 60.2714 59.332 59.6379 59.332Z" fill="#FAD207"/>
<path d="M49.9275 59.332H48.4748C47.8412 59.332 47.3279 58.8186 47.3279 58.1851C47.3279 57.5516 47.8412 57.0382 48.4748 57.0382H49.9275C50.561 57.0382 51.0744 57.5516 51.0744 58.1851C51.0744 58.8186 50.561 59.332 49.9275 59.332Z" fill="#FAD207"/>
<path d="M55.8148 11.3159H47.5573C46.9237 11.3159 46.4104 10.8025 46.4104 10.169C46.4104 9.53544 46.9237 9.02209 47.5573 9.02209H55.8148C56.4484 9.02209 56.9617 9.53544 56.9617 10.169C56.9617 10.8025 56.4484 11.3159 55.8148 11.3159Z" fill="#FAD207"/>
<path d="M54.2857 26.6076H47.8632C47.2297 26.6076 46.7163 26.0943 46.7163 25.4607C46.7163 24.8272 47.2297 24.3138 47.8632 24.3138H54.2857C54.9193 24.3138 55.4326 24.8272 55.4326 25.4607C55.4326 26.0943 54.9193 26.6076 54.2857 26.6076Z" fill="#FAD207"/>
<path d="M59.6377 18.9617H56.35C55.7165 18.9617 55.2031 18.4484 55.2031 17.8148C55.2031 17.1813 55.7165 16.668 56.35 16.668H59.6377C60.2713 16.668 60.7846 17.1813 60.7846 17.8148C60.7846 18.4484 60.2713 18.9617 59.6377 18.9617Z" fill="#FAD207"/>
<path d="M51.4566 18.9617H48.4748C47.8412 18.9617 47.3279 18.4484 47.3279 17.8148C47.3279 17.1813 47.8412 16.668 48.4748 16.668H51.4566C52.0902 16.668 52.6035 17.1813 52.6035 17.8148C52.6035 18.4484 52.0902 18.9617 51.4566 18.9617Z" fill="#FAD207"/>
<path d="M43.1228 21.6378V23.9316C43.1228 24.7761 42.4382 25.4608 41.5936 25.4608H33.7948L32.2656 23.5493L33.7948 21.6378H43.1228Z" fill="#E6E6E6"/>
<path d="M33.7946 21.6378V25.4608H27.8308C27.733 25.4608 27.6351 25.4623 27.5372 25.4653C20.7477 25.6198 15.2916 31.1722 15.2916 38C15.1953 37.3776 15.2916 34.8254 15.2916 34.1771C15.2916 27.2514 22.5873 21.6378 29.5129 21.6378H33.7946Z" fill="#27BDF3"/>
<path d="M43.1228 62.0079V64.3017C43.1228 65.1463 42.4382 65.8309 41.5936 65.8309H33.7948L32.2656 63.9194L33.7948 62.0079H43.1228Z" fill="#E6E6E6"/>
<path d="M33.7947 62.008V65.8309C28.6189 65.8953 22.7331 66.0123 17.9158 63.9131C7.52119 59.9536 -0.00770183 49.45 0.00147322 38.2706C2.03528 51.654 13.8512 62.008 27.7652 62.008H33.7947Z" fill="#FC4755"/>
<path d="M66.4197 30.0987H63.3613C61.8321 30.0987 60.5935 28.8601 60.5935 27.3325V26.6474C60.5935 22.4452 64.0005 19.0382 68.2027 19.0382H68.2761C68.7868 19.0382 69.2869 19.0887 69.7716 19.185C66.282 19.8762 63.6519 22.9544 63.6519 26.6474V27.3325C63.6519 28.8601 64.8905 30.0987 66.4197 30.0987Z" fill="#2B597F"/>
<path d="M66.4197 70.469H63.3613C61.8321 70.469 60.5935 69.2303 60.5935 67.7027V67.0176C60.5935 62.8155 64.0005 59.4084 68.2027 59.4084H68.2761C68.7868 59.4084 69.2869 59.4589 69.7716 59.5552C66.282 60.2464 63.6519 63.3247 63.6519 67.0176V67.7027C63.6519 69.2303 64.8905 70.469 66.4197 70.469Z" fill="#2B597F"/>
<path d="M71.128 14.2305C70.3298 14.8177 69.345 15.1648 68.2776 15.1648C65.6168 15.1648 63.4607 13.0072 63.4607 10.3479C63.4607 7.82326 65.4012 5.75276 67.8739 5.54785C66.6811 6.42254 65.9074 7.83703 65.9074 9.43043C65.9074 12.0897 68.0635 14.2473 70.7243 14.2473C70.8604 14.2473 70.995 14.2412 71.128 14.2305Z" fill="#FFAC5C"/>
<path d="M71.128 54.6001C70.3298 55.1873 69.345 55.5345 68.2776 55.5345C65.6168 55.5345 63.4607 53.3768 63.4607 50.7176C63.4607 48.1929 65.4012 46.1224 67.8739 45.9175C66.6811 46.7922 65.9074 48.2067 65.9074 49.8001C65.9074 52.4593 68.0635 54.617 70.7243 54.617C70.8604 54.617 70.995 54.6108 71.128 54.6001Z" fill="#FFAC5C"/>
<path d="M55.8148 66.9778H47.5573C46.9237 66.9778 46.4104 66.4645 46.4104 65.831C46.4104 65.1974 46.9237 64.6841 47.5573 64.6841H55.8148C56.4484 64.6841 56.9617 65.1974 56.9617 65.831C56.9617 66.4645 56.4484 66.9778 55.8148 66.9778Z" fill="#FAD207"/>
<path d="M54.2857 51.6861H47.8632C47.2297 51.6861 46.7163 51.1728 46.7163 50.5392C46.7163 49.9057 47.2297 49.3923 47.8632 49.3923H54.2857C54.9193 49.3923 55.4326 49.9057 55.4326 50.5392C55.4326 51.1728 54.9193 51.6861 54.2857 51.6861Z" fill="#FAD207"/>
<path d="M59.6379 59.332H54.821C54.1874 59.332 53.6741 58.8186 53.6741 58.1851C53.6741 57.5516 54.1874 57.0382 54.821 57.0382H59.6379C60.2714 57.0382 60.7847 57.5516 60.7847 58.1851C60.7847 58.8186 60.2714 59.332 59.6379 59.332Z" fill="#FAD207"/>
<path d="M49.9275 59.332H48.4748C47.8412 59.332 47.3279 58.8186 47.3279 58.1851C47.3279 57.5516 47.8412 57.0382 48.4748 57.0382H49.9275C50.561 57.0382 51.0744 57.5516 51.0744 58.1851C51.0744 58.8186 50.561 59.332 49.9275 59.332Z" fill="#FAD207"/>
<path d="M55.8148 11.3159H47.5573C46.9237 11.3159 46.4104 10.8025 46.4104 10.169C46.4104 9.53544 46.9237 9.02209 47.5573 9.02209H55.8148C56.4484 9.02209 56.9617 9.53544 56.9617 10.169C56.9617 10.8025 56.4484 11.3159 55.8148 11.3159Z" fill="#FAD207"/>
<path d="M54.2857 26.6076H47.8632C47.2297 26.6076 46.7163 26.0943 46.7163 25.4607C46.7163 24.8272 47.2297 24.3138 47.8632 24.3138H54.2857C54.9193 24.3138 55.4326 24.8272 55.4326 25.4607C55.4326 26.0943 54.9193 26.6076 54.2857 26.6076Z" fill="#FAD207"/>
<path d="M59.6377 18.9617H56.35C55.7165 18.9617 55.2031 18.4484 55.2031 17.8148C55.2031 17.1813 55.7165 16.668 56.35 16.668H59.6377C60.2713 16.668 60.7846 17.1813 60.7846 17.8148C60.7846 18.4484 60.2713 18.9617 59.6377 18.9617Z" fill="#FAD207"/>
<path d="M51.4566 18.9617H48.4748C47.8412 18.9617 47.3279 18.4484 47.3279 17.8148C47.3279 17.1813 47.8412 16.668 48.4748 16.668H51.4566C52.0902 16.668 52.6035 17.1813 52.6035 17.8148C52.6035 18.4484 52.0902 18.9617 51.4566 18.9617Z" fill="#FAD207"/>
</g>
<defs>
<clipPath id="clip0">
<rect width="76" height="76" fill="white"/>
</clipPath>
</defs>
</svg>
