<svg width="76" height="76" viewBox="0 0 76 76" fill="none" xmlns="http://www.w3.org/2000/svg">
<path d="M47.5 72.4375H28.5L30.875 58.1875V53.4375H45.125V58.1875L47.5 72.4375Z" fill="#757C80"/>
<path d="M70.0625 3.5625H5.9375C4.62582 3.5625 3.5625 4.62582 3.5625 5.9375V55.8125C3.5625 57.1242 4.62582 58.1875 5.9375 58.1875H70.0625C71.3742 58.1875 72.4375 57.1242 72.4375 55.8125V5.9375C72.4375 4.62582 71.3742 3.5625 70.0625 3.5625Z" fill="#B5B8B9"/>
<path d="M5.9375 3.5625H70.0625C70.6924 3.5625 71.2965 3.81272 71.7419 4.25812C72.1873 4.70352 72.4375 5.30761 72.4375 5.9375V13.0625H3.5625V5.9375C3.5625 5.30761 3.81272 4.70352 4.25812 4.25812C4.70352 3.81272 5.30761 3.5625 5.9375 3.5625Z" fill="#2B70A8"/>
<path d="M51.0625 72.4375H24.9375C24.6226 72.4375 24.3205 72.3124 24.0978 72.0897C23.8751 71.867 23.75 71.5649 23.75 71.25C23.75 70.9351 23.8751 70.633 24.0978 70.4103C24.3205 70.1876 24.6226 70.0625 24.9375 70.0625H51.0625C51.3774 70.0625 51.6795 70.1876 51.9022 70.4103C52.1249 70.633 52.25 70.9351 52.25 71.25C52.25 71.5649 52.1249 71.867 51.9022 72.0897C51.6795 72.3124 51.3774 72.4375 51.0625 72.4375Z" fill="#99A2A7"/>
<path d="M40.375 52.25H35.625C35.3101 52.25 35.008 52.1249 34.7853 51.9022C34.5626 51.6795 34.4375 51.3774 34.4375 51.0625C34.4375 50.7476 34.5626 50.4455 34.7853 50.2228C35.008 50.0001 35.3101 49.875 35.625 49.875H40.375C40.6899 49.875 40.992 50.0001 41.2147 50.2228C41.4374 50.4455 41.5625 50.7476 41.5625 51.0625C41.5625 51.3774 41.4374 51.6795 41.2147 51.9022C40.992 52.1249 40.6899 52.25 40.375 52.25Z" fill="#757C80"/>
<path d="M8.3125 9.5C8.96834 9.5 9.5 8.96834 9.5 8.3125C9.5 7.65666 8.96834 7.125 8.3125 7.125C7.65666 7.125 7.125 7.65666 7.125 8.3125C7.125 8.96834 7.65666 9.5 8.3125 9.5Z" fill="#B01641"/>
<path d="M13.0625 9.5C13.7183 9.5 14.25 8.96834 14.25 8.3125C14.25 7.65666 13.7183 7.125 13.0625 7.125C12.4067 7.125 11.875 7.65666 11.875 8.3125C11.875 8.96834 12.4067 9.5 13.0625 9.5Z" fill="#FCB442"/>
<path d="M17.8125 9.5C18.4683 9.5 19 8.96834 19 8.3125C19 7.65666 18.4683 7.125 17.8125 7.125C17.1567 7.125 16.625 7.65666 16.625 8.3125C16.625 8.96834 17.1567 9.5 17.8125 9.5Z" fill="#8E9C4C"/>
<path d="M3.5625 13.0625H72.4375V46.3125H3.5625V13.0625Z" fill="#FAE8D8"/>
<path d="M17.8125 19H15.4375C15.1226 19 14.8205 18.8749 14.5978 18.6522C14.3751 18.4295 14.25 18.1274 14.25 17.8125C14.25 17.4976 14.3751 17.1955 14.5978 16.9728C14.8205 16.7501 15.1226 16.625 15.4375 16.625H17.8125C18.1274 16.625 18.4295 16.7501 18.6522 16.9728C18.8749 17.1955 19 17.4976 19 17.8125C19 18.1274 18.8749 18.4295 18.6522 18.6522C18.4295 18.8749 18.1274 19 17.8125 19Z" fill="#E2D2C2"/>
<path d="M24.9375 19H22.5625C22.2476 19 21.9455 18.8749 21.7228 18.6522C21.5001 18.4295 21.375 18.1274 21.375 17.8125C21.375 17.4976 21.5001 17.1955 21.7228 16.9728C21.9455 16.7501 22.2476 16.625 22.5625 16.625H24.9375C25.2524 16.625 25.5545 16.7501 25.7772 16.9728C25.9999 17.1955 26.125 17.4976 26.125 17.8125C26.125 18.1274 25.9999 18.4295 25.7772 18.6522C25.5545 18.8749 25.2524 19 24.9375 19Z" fill="#E2D2C2"/>
<path d="M17.8125 42.75H15.4375C15.1226 42.75 14.8205 42.6249 14.5978 42.4022C14.3751 42.1795 14.25 41.8774 14.25 41.5625C14.25 41.2476 14.3751 40.9455 14.5978 40.7228C14.8205 40.5001 15.1226 40.375 15.4375 40.375H17.8125C18.1274 40.375 18.4295 40.5001 18.6522 40.7228C18.8749 40.9455 19 41.2476 19 41.5625C19 41.8774 18.8749 42.1795 18.6522 42.4022C18.4295 42.6249 18.1274 42.75 17.8125 42.75Z" fill="#E2D2C2"/>
<path d="M24.9375 42.75H22.5625C22.2476 42.75 21.9455 42.6249 21.7228 42.4022C21.5001 42.1795 21.375 41.8774 21.375 41.5625C21.375 41.2476 21.5001 40.9455 21.7228 40.7228C21.9455 40.5001 22.2476 40.375 22.5625 40.375H24.9375C25.2524 40.375 25.5545 40.5001 25.7772 40.7228C25.9999 40.9455 26.125 41.2476 26.125 41.5625C26.125 41.8774 25.9999 42.1795 25.7772 42.4022C25.5545 42.6249 25.2524 42.75 24.9375 42.75Z" fill="#E2D2C2"/>
<path d="M32.0625 28.5C31.7476 28.5 31.4455 28.3749 31.2228 28.1522C31.0001 27.9295 30.875 27.6274 30.875 27.3125V24.9375C30.875 24.6226 31.0001 24.3205 31.2228 24.0978C31.4455 23.8751 31.7476 23.75 32.0625 23.75C32.3774 23.75 32.6795 23.8751 32.9022 24.0978C33.1249 24.3205 33.25 24.6226 33.25 24.9375V27.3125C33.25 27.6274 33.1249 27.9295 32.9022 28.1522C32.6795 28.3749 32.3774 28.5 32.0625 28.5Z" fill="#E2D2C2"/>
<path d="M32.0625 35.625C31.7476 35.625 31.4455 35.4999 31.2228 35.2772C31.0001 35.0545 30.875 34.7524 30.875 34.4375V32.0625C30.875 31.7476 31.0001 31.4455 31.2228 31.2228C31.4455 31.0001 31.7476 30.875 32.0625 30.875C32.3774 30.875 32.6795 31.0001 32.9022 31.2228C33.1249 31.4455 33.25 31.7476 33.25 32.0625V34.4375C33.25 34.7524 33.1249 35.0545 32.9022 35.2772C32.6795 35.4999 32.3774 35.625 32.0625 35.625Z" fill="#E2D2C2"/>
<path d="M8.3125 28.5C7.99756 28.5 7.69551 28.3749 7.47281 28.1522C7.25011 27.9295 7.125 27.6274 7.125 27.3125V24.9375C7.125 24.6226 7.25011 24.3205 7.47281 24.0978C7.69551 23.8751 7.99756 23.75 8.3125 23.75C8.62744 23.75 8.92949 23.8751 9.15219 24.0978C9.37489 24.3205 9.5 24.6226 9.5 24.9375V27.3125C9.5 27.6274 9.37489 27.9295 9.15219 28.1522C8.92949 28.3749 8.62744 28.5 8.3125 28.5Z" fill="#E2D2C2"/>
<path d="M8.3125 35.625C7.99756 35.625 7.69551 35.4999 7.47281 35.2772C7.25011 35.0545 7.125 34.7524 7.125 34.4375V32.0625C7.125 31.7476 7.25011 31.4455 7.47281 31.2228C7.69551 31.0001 7.99756 30.875 8.3125 30.875C8.62744 30.875 8.92949 31.0001 9.15219 31.2228C9.37489 31.4455 9.5 31.7476 9.5 32.0625V34.4375C9.5 34.7524 9.37489 35.0545 9.15219 35.2772C8.92949 35.4999 8.62744 35.625 8.3125 35.625Z" fill="#E2D2C2"/>
<path d="M10.6875 16.625H8.3125C7.99756 16.625 7.69551 16.7501 7.47281 16.9728C7.25011 17.1955 7.125 17.4976 7.125 17.8125V20.1875C7.125 20.5024 7.25011 20.8045 7.47281 21.0272C7.69551 21.2499 7.99756 21.375 8.3125 21.375C8.62744 21.375 8.92949 21.2499 9.15219 21.0272C9.37489 20.8045 9.5 20.5024 9.5 20.1875V19H10.6875C11.0024 19 11.3045 18.8749 11.5272 18.6522C11.7499 18.4295 11.875 18.1274 11.875 17.8125C11.875 17.4976 11.7499 17.1955 11.5272 16.9728C11.3045 16.7501 11.0024 16.625 10.6875 16.625Z" fill="#E2D2C2"/>
<path d="M10.6875 40.375H9.5V39.1875C9.5 38.8726 9.37489 38.5705 9.15219 38.3478C8.92949 38.1251 8.62744 38 8.3125 38C7.99756 38 7.69551 38.1251 7.47281 38.3478C7.25011 38.5705 7.125 38.8726 7.125 39.1875V41.5625C7.125 41.8774 7.25011 42.1795 7.47281 42.4022C7.69551 42.6249 7.99756 42.75 8.3125 42.75H10.6875C11.0024 42.75 11.3045 42.6249 11.5272 42.4022C11.7499 42.1795 11.875 41.8774 11.875 41.5625C11.875 41.2476 11.7499 40.9455 11.5272 40.7228C11.3045 40.5001 11.0024 40.375 10.6875 40.375Z" fill="#E2D2C2"/>
<path d="M32.0625 16.625H29.6875C29.3726 16.625 29.0705 16.7501 28.8478 16.9728C28.6251 17.1955 28.5 17.4976 28.5 17.8125C28.5 18.1274 28.6251 18.4295 28.8478 18.6522C29.0705 18.8749 29.3726 19 29.6875 19H30.875V20.1875C30.875 20.5024 31.0001 20.8045 31.2228 21.0272C31.4455 21.2499 31.7476 21.375 32.0625 21.375C32.3774 21.375 32.6795 21.2499 32.9022 21.0272C33.1249 20.8045 33.25 20.5024 33.25 20.1875V17.8125C33.25 17.4976 33.1249 17.1955 32.9022 16.9728C32.6795 16.7501 32.3774 16.625 32.0625 16.625Z" fill="#E2D2C2"/>
<path d="M32.0625 38C31.7476 38 31.4455 38.1251 31.2228 38.3478C31.0001 38.5705 30.875 38.8726 30.875 39.1875V40.375H29.6875C29.3726 40.375 29.0705 40.5001 28.8478 40.7228C28.6251 40.9455 28.5 41.2476 28.5 41.5625C28.5 41.8774 28.6251 42.1795 28.8478 42.4022C29.0705 42.6249 29.3726 42.75 29.6875 42.75H32.0625C32.3774 42.75 32.6795 42.6249 32.9022 42.4022C33.1249 42.1795 33.25 41.8774 33.25 41.5625V39.1875C33.25 38.8726 33.1249 38.5705 32.9022 38.3478C32.6795 38.1251 32.3774 38 32.0625 38Z" fill="#E2D2C2"/>
<path d="M13.0625 22.5625H27.3125V36.8125H13.0625V22.5625Z" fill="#FCB442"/>
<path d="M43.9375 30.875H36.8125C36.4976 30.875 36.1955 30.7499 35.9728 30.5272C35.7501 30.3045 35.625 30.0024 35.625 29.6875C35.625 29.3726 35.7501 29.0705 35.9728 28.8478C36.1955 28.6251 36.4976 28.5 36.8125 28.5H43.9375C44.2524 28.5 44.5545 28.6251 44.7772 28.8478C44.9999 29.0705 45.125 29.3726 45.125 29.6875C45.125 30.0024 44.9999 30.3045 44.7772 30.5272C44.5545 30.7499 44.2524 30.875 43.9375 30.875Z" fill="#E2D2C2"/>
<path d="M67.6875 30.875H48.6875C48.3726 30.875 48.0705 30.7499 47.8478 30.5272C47.6251 30.3045 47.5 30.0024 47.5 29.6875C47.5 29.3726 47.6251 29.0705 47.8478 28.8478C48.0705 28.6251 48.3726 28.5 48.6875 28.5H67.6875C68.0024 28.5 68.3045 28.6251 68.5272 28.8478C68.7499 29.0705 68.875 29.3726 68.875 29.6875C68.875 30.0024 68.7499 30.3045 68.5272 30.5272C68.3045 30.7499 68.0024 30.875 67.6875 30.875Z" fill="#E2D2C2"/>
<path d="M67.6875 35.625H51.0625C50.7476 35.625 50.4455 35.4999 50.2228 35.2772C50.0001 35.0545 49.875 34.7524 49.875 34.4375C49.875 34.1226 50.0001 33.8205 50.2228 33.5978C50.4455 33.3751 50.7476 33.25 51.0625 33.25H67.6875C68.0024 33.25 68.3045 33.3751 68.5272 33.5978C68.7499 33.8205 68.875 34.1226 68.875 34.4375C68.875 34.7524 68.7499 35.0545 68.5272 35.2772C68.3045 35.4999 68.0024 35.625 67.6875 35.625Z" fill="#E2D2C2"/>
<path d="M48.1846 49.181L51.5428 45.8228L71.2252 65.5052C71.6705 65.9505 71.9207 66.5545 71.9207 67.1843C71.9207 67.8141 71.6706 68.4181 71.2252 68.8634C70.7799 69.3087 70.1759 69.5589 69.5461 69.5589C68.9163 69.5589 68.3123 69.3087 67.867 68.8634L48.1846 49.181Z" fill="#2B70A8"/>
<path d="M42.8425 43.8364L46.2008 40.4782L56.114 50.3914L52.7558 53.7497L42.8425 43.8364Z" fill="#FCB442"/>
<path d="M36.8125 17.8125H67.6875V24.9375H36.8125V17.8125Z" fill="#FCB442"/>
<path d="M36.8125 34.4375L38.6775 42.5189C38.8743 43.372 39.3032 44.1541 39.9167 44.7789C40.5301 45.4036 41.3043 45.8466 42.1537 46.059L46.049 47.0329L49.4079 43.674L48.434 39.7787C48.2216 38.9293 47.7786 38.1551 47.1539 37.5417C46.5291 36.9282 45.747 36.4993 44.8939 36.3025L36.8125 34.4375Z" fill="#976048"/>
</svg>
