<svg width="76" height="76" viewBox="0 0 76 76" fill="none" xmlns="http://www.w3.org/2000/svg">
<path d="M55.9693 43.7345C55.9693 58.8833 43.6891 71.1621 28.5418 71.1621C13.393 71.1621 1.11426 58.8833 1.11426 43.7345C1.11426 28.5871 13.393 16.307 28.5418 16.307H28.5808C39.8302 16.3229 49.493 23.1112 53.7086 32.8143C55.1623 36.1608 55.9693 39.8539 55.9693 43.7345Z" fill="#FF5D49"/>
<path d="M53.7081 32.8143C51.2206 34.2971 50.0787 36.5333 50.0787 39.7585V47.0522C50.0787 48.0859 49.6758 49.0589 48.9468 49.7923C48.2091 50.53 47.2346 50.9342 46.1981 50.9342C41.955 50.9342 38.5046 47.4823 38.5046 43.2407V36.0973C38.5046 35.6021 38.1017 35.2008 37.608 35.2008H29.1695C26.5059 35.2008 24.3389 33.0337 24.3389 30.3701V28.5208C24.3389 26.898 25.1444 25.4586 26.3774 24.5823C26.2748 24.2026 26.2215 23.8042 26.2215 23.3955V21.331C26.2215 19.5828 27.1945 18.0567 28.6268 17.267C28.5965 17.0577 28.5806 16.8439 28.5806 16.6274V16.3069C39.8298 16.3229 49.4925 23.1113 53.7081 32.8143Z" fill="#EA2E1F"/>
<path d="M74.8863 7.37659H66.4551V28.2469H74.8863V7.37659Z" fill="#FFBF00"/>
<path d="M71.8077 7.37659H66.4551V28.2469H71.8077V7.37659Z" fill="#F79800"/>
<path d="M26.5039 30.3698V28.5215C26.5039 27.0503 27.6965 25.8578 29.1676 25.8578H30.6812C29.4004 25.7662 28.3868 24.7001 28.3868 23.3952V21.3306C28.3868 19.9656 29.4934 18.859 30.8583 18.859H32.977C31.7442 18.859 30.7457 17.8604 30.7457 16.6277V14.8483C30.7457 13.616 31.7446 12.617 32.977 12.617H35.0296C33.7968 12.617 32.7983 11.617 32.7983 10.3842V9.05541C32.7983 7.82412 33.7968 6.8241 35.0296 6.8241H65.008V28.3999C61.5469 28.3999 58.7646 28.7483 56.5347 29.3519C49.3979 31.2784 47.9129 35.7966 47.9129 39.7591C47.9129 41.8073 47.9129 47.0521 47.9129 47.0521C47.9129 47.5251 47.7207 47.9546 47.4113 48.2655C47.1005 48.5763 46.6726 48.7685 46.1981 48.7685C43.144 48.7685 40.6694 46.2939 40.6694 43.2413V36.0969C40.6694 34.406 39.2986 33.0352 37.6078 33.0352H29.1691C27.6972 33.0352 26.5039 31.8419 26.5039 30.3698Z" fill="#FFC197"/>
<path d="M57.1211 29.2034C59.2475 28.6919 61.8436 28.3999 65.0088 28.3999V6.8241H57.1211V29.2034Z" fill="#FF9E5C"/>
<path d="M69.7307 4.87598H59.0254V30.7472H69.7307V4.87598Z" fill="#FFD96E"/>
<path d="M19.3128 57.5234C19.5282 57.8403 19.8782 58.011 20.2345 58.011C20.45 58.011 20.6676 57.9485 20.8592 57.8183C25.5975 54.5977 31.4844 54.5977 36.2227 57.8183C36.7312 58.1639 37.4237 58.0319 37.7692 57.5235C38.115 57.015 37.9828 56.3227 37.4744 55.977C34.795 54.1556 31.7059 53.1929 28.541 53.1929C25.3762 53.1929 22.2871 54.1556 19.6076 55.977C19.0992 56.3225 18.9671 57.0148 19.3128 57.5234Z" fill="black"/>
<path d="M20.2334 40.6394C20.8482 40.6394 21.3467 40.1409 21.3467 39.5261V38.683C21.3467 38.0682 20.8482 37.5697 20.2334 37.5697C19.6186 37.5697 19.1201 38.0682 19.1201 38.683V39.5261C19.1201 40.1409 19.6186 40.6394 20.2334 40.6394Z" fill="black"/>
<path d="M37.8818 39.5261V38.683C37.8818 38.0682 37.3834 37.5697 36.7686 37.5697C36.1537 37.5697 35.6553 38.0682 35.6553 38.683V39.5261C35.6553 40.1409 36.1537 40.6394 36.7686 40.6394C37.3834 40.6394 37.8818 40.1409 37.8818 39.5261Z" fill="black"/>
<path d="M74.8867 13.9768C75.5015 13.9768 76 13.4784 76 12.8635V7.37581C76 6.76098 75.5015 6.26253 74.8867 6.26253H70.8448V4.87598C70.8448 4.26115 70.3463 3.7627 69.7315 3.7627H59.0262C58.4113 3.7627 57.9129 4.26115 57.9129 4.87598V5.71034H54.0565C53.4417 5.71034 52.9432 6.2088 52.9432 6.82363C52.9432 7.43845 53.4417 7.93691 54.0565 7.93691H57.9129V27.8948C50.5397 29.3291 46.8009 33.316 46.8009 39.7591V47.0518C46.8009 47.2135 46.7387 47.3644 46.6236 47.4789C46.5574 47.5449 46.414 47.656 46.1967 47.656C43.7634 47.656 41.7837 45.6757 41.7837 43.2414V36.0956C41.7837 33.7941 39.9105 31.9216 37.6081 31.9216H29.168C28.3127 31.9216 27.6168 31.2257 27.6168 30.3704V28.5224C27.6168 27.6662 28.3127 26.9697 29.168 26.9697H30.6697C30.6736 26.9697 30.6773 26.9703 30.6811 26.9703H32.9408C33.5556 26.9703 34.0541 26.4719 34.0541 25.857C34.0541 25.2422 33.5556 24.7437 32.9408 24.7437H30.7408C30.0439 24.685 29.5005 24.0967 29.5005 23.3953V21.3304C29.5005 20.5816 30.1091 19.9722 30.8572 19.9722H32.7989C32.8038 19.9722 32.8084 19.973 32.8133 19.973H35.073C35.6878 19.973 36.1862 19.4745 36.1862 18.8597C36.1862 18.2449 35.6878 17.7464 35.073 17.7464H32.9913C32.9864 17.7464 32.9818 17.7457 32.9769 17.7457C32.3597 17.7457 31.8577 17.2442 31.8577 16.6279V14.8482C31.8577 14.2318 32.3597 13.7304 32.9769 13.7304H34.6572C34.6683 13.7307 34.679 13.7321 34.6903 13.7321H36.9501C37.5649 13.7321 38.0634 13.2336 38.0634 12.6188C38.0634 12.0039 37.5649 11.5055 36.9501 11.5055H35.0629C35.0517 11.5052 35.041 11.5039 35.0298 11.5039C34.4135 11.5039 33.912 11.0018 33.912 10.3846V9.05612C33.912 8.43892 34.4135 7.93691 35.0298 7.93691H49.5529C50.1677 7.93691 50.6662 7.43845 50.6662 6.82363C50.6662 6.2088 50.1677 5.71034 49.5529 5.71034H35.0298C33.1857 5.71034 31.6855 7.21119 31.6855 9.05612V10.3846C31.6855 10.839 31.7765 11.2724 31.9412 11.6679C30.6017 12.1047 29.6311 13.3654 29.6311 14.8482V15.2152C29.2667 15.2014 28.9023 15.194 28.5401 15.194C12.803 15.1942 0 27.9978 0 43.7356C0 50.8074 2.60612 57.5921 7.3383 62.8399C12.0352 68.0485 18.444 71.3377 25.3841 72.1014C25.4256 72.106 25.4665 72.1081 25.5074 72.1081C26.0676 72.1081 26.5498 71.6862 26.6126 71.1165C26.6799 70.5054 26.2389 69.9554 25.6277 69.8882C12.2869 68.4201 2.22656 57.177 2.22656 43.7356C2.22656 29.2255 14.0308 17.4206 28.5401 17.4206C28.9373 17.4206 29.3373 17.4307 29.7369 17.4485C29.7746 17.5968 29.8186 17.7425 29.8754 17.8824C28.3755 18.3105 27.2741 19.6942 27.2741 21.3304V23.3952C27.2741 23.9885 27.4212 24.5517 27.6815 25.0479C26.3355 25.6265 25.3904 26.966 25.3904 28.5222V30.3703C25.3904 32.4533 27.0851 34.148 29.1681 34.148H37.6083C38.683 34.148 39.5573 35.0217 39.5573 36.0955V43.2413C39.5573 46.9031 42.5358 49.8824 46.1969 49.8824C46.9529 49.8824 47.6636 49.5879 48.1963 49.055C48.7323 48.5215 49.0276 47.81 49.0276 47.0517V39.7589C49.0276 37.4574 49.4775 34.5898 52.325 32.4718C53.9815 35.968 54.8552 39.836 54.8552 43.7356C54.8552 57.7334 43.916 69.2754 29.9511 70.0121C29.3372 70.0445 28.8656 70.5686 28.898 71.1826C28.9293 71.7766 29.4208 72.2372 30.0087 72.2372C30.0285 72.2372 30.0484 72.2368 30.0682 72.2357C45.2158 71.4367 57.0816 58.9179 57.0816 43.7357C57.0816 39.4411 56.1045 35.1802 54.2523 31.3406C55.2671 30.8706 56.4754 30.4708 57.9129 30.165V30.7469C57.9129 31.3617 58.4113 31.8601 59.0262 31.8601H69.7315C70.3463 31.8601 70.8448 31.3617 70.8448 30.7469V29.3597H74.8867C75.5015 29.3597 76 28.8613 76 28.2464V17.366C76 16.7511 75.5015 16.2527 74.8867 16.2527C74.2719 16.2527 73.7734 16.7511 73.7734 17.366V27.1331H70.8448V8.48939H73.7734V12.8638C73.7734 13.4784 74.2719 13.9768 74.8867 13.9768ZM68.6182 29.6334H60.1395V5.98926H68.6182V29.6334Z" fill="black"/>
<path d="M64.3789 9.10719C64.9937 9.10719 65.4922 8.60874 65.4922 7.99391V7.7478C65.4922 7.13297 64.9937 6.63452 64.3789 6.63452C63.7641 6.63452 63.2656 7.13297 63.2656 7.7478V7.99391C63.2656 8.60874 63.7641 9.10719 64.3789 9.10719Z" fill="black"/>
<path d="M64.3789 11.8916C64.9937 11.8916 65.4922 11.3932 65.4922 10.7783V10.5322C65.4922 9.9174 64.9937 9.41895 64.3789 9.41895C63.7641 9.41895 63.2656 9.9174 63.2656 10.5322V10.7783C63.2656 11.3932 63.7641 11.8916 64.3789 11.8916Z" fill="black"/>
</svg>
