<svg width="76" height="76" viewBox="0 0 76 76" fill="none" xmlns="http://www.w3.org/2000/svg">
<path d="M74.7333 10.1334C74.7333 7.33529 72.4646 5.06665 69.6666 5.06665H6.3333C3.53524 5.06665 1.2666 7.33529 1.2666 10.1334V48.1334H74.7333V10.1334Z" fill="#4398D1"/>
<path d="M1.2666 48.1333V51.9333C1.2666 54.7313 3.53524 57 6.3333 57H69.6667C72.4647 57 74.7334 54.7313 74.7334 51.9333V48.1333H1.2666Z" fill="#DADDDF"/>
<path d="M69.6667 5.06665H63.3334L20.2667 48.1332H74.7335V10.1332C74.7333 7.33516 72.4648 5.06665 69.6667 5.06665Z" fill="#3E8CC7"/>
<path d="M46.6361 69.6667L44.3333 57H31.6667L29.3639 69.6667H25.3334V72.2001H50.6666V69.6667H46.6361Z" fill="#DADDDF"/>
<path d="M21.8424 35.6364L36.7333 13.3001C37.1969 12.6008 38.1406 12.4096 38.8398 12.8732C39.0095 12.986 39.1539 13.1304 39.2667 13.3001L54.1576 35.6365C54.6237 36.3345 54.435 37.2781 53.737 37.7442C53.4862 37.9114 53.1923 38 52.891 38H23.1066C22.2668 38 21.5865 37.3198 21.5865 36.48C21.5865 36.1798 21.6753 35.8859 21.8424 35.6364Z" fill="#FDB62F"/>
<path d="M39.2666 20.2666H36.7333V29.1333H39.2666V20.2666Z" fill="#126099"/>
<path d="M39.2666 31.6667H36.7333V34.2001H39.2666V31.6667Z" fill="#126099"/>
<path d="M45.0237 60.8001L44.3333 57H31.6667L30.9763 60.8001H45.0237Z" fill="#C7CACC"/>
<path d="M69.6667 3.80005H6.33331C2.83728 3.80391 0.00385692 6.63745 0 10.1334V51.9333C0.00385692 55.4294 2.83728 58.2629 6.33331 58.2666H30.1467L28.0732 69.6666H25.3334V72.2H50.6667V69.6666H47.9244L45.8533 58.2666H69.6667C73.1627 58.2628 75.9963 55.4294 76 51.9333V10.1334C75.9961 6.63745 73.1626 3.80391 69.6667 3.80005ZM2.53335 10.1334C2.53335 8.03456 4.23451 6.3334 6.33331 6.3334H69.6667C71.7655 6.3334 73.4666 8.03456 73.4666 10.1334V46.8666H2.53335V10.1334ZM45.3467 69.6668H30.6533L32.7257 58.2668H43.2795L45.3467 69.6668ZM73.4666 51.9334C73.4666 54.0324 71.7655 55.7334 69.6667 55.7334H6.33331C4.23451 55.7334 2.53335 54.0323 2.53335 51.9334V49.4001H73.4666V51.9334Z" fill="black"/>
<path d="M40.3192 12.5945C39.4655 11.3139 37.7365 10.9669 36.4546 11.8205C36.1481 12.0244 35.8846 12.288 35.6807 12.5945L20.7885 34.9346C19.9347 36.2153 20.2818 37.9455 21.5624 38.7993C22.0197 39.1033 22.5567 39.2667 23.1065 39.2667H52.8934C54.4325 39.2667 55.68 38.0178 55.6788 36.4788C55.6788 35.9291 55.5154 35.3921 55.2113 34.9348L40.3192 12.5945ZM53.1164 36.6066C53.0746 36.6915 52.9871 36.7434 52.8934 36.7395H23.1065C22.9671 36.7395 22.8531 36.6255 22.8531 36.4863C22.8531 36.4369 22.8683 36.3875 22.8961 36.3456L37.7883 14.0003C37.8656 13.8838 38.0227 13.8508 38.1392 13.9281C38.1684 13.9471 38.1924 13.9711 38.2114 14.0003L53.1036 36.3392C53.162 36.4179 53.167 36.523 53.1164 36.6066Z" fill="black"/>
<path d="M39.2666 20.2666H36.7333V29.1333H39.2666V20.2666Z" fill="black"/>
<path d="M39.2666 31.6667H36.7333V34.2001H39.2666V31.6667Z" fill="black"/>
</svg>
