<svg width="76" height="76" viewBox="0 0 76 76" fill="none" xmlns="http://www.w3.org/2000/svg">
<path d="M38 76C58.9868 76 76 58.9868 76 38C76 17.0132 58.9868 0 38 0C17.0132 0 0 17.0132 0 38C0 58.9868 17.0132 76 38 76Z" fill="#2C5871"/>
<path d="M38 0C36.8224 0 35.6581 0.0564062 34.5078 0.161203C53.8574 1.92464 69.0157 18.1907 69.0157 38C69.0157 57.8093 53.8574 74.0754 34.5078 75.8388C35.6581 75.9436 36.8224 76 38 76C58.9868 76 76 58.9868 76 38C76 17.0132 58.9868 0 38 0Z" fill="#1C4754"/>
<path d="M38 70.8136C56.1224 70.8136 70.8136 56.1224 70.8136 38C70.8136 19.8775 56.1224 5.1864 38 5.1864C19.8775 5.1864 5.1864 19.8775 5.1864 38C5.1864 56.1224 19.8775 70.8136 38 70.8136Z" fill="#E6F1FF"/>
<path d="M38 5.18628C36.8202 5.18628 35.6554 5.24996 34.5078 5.37138C50.9882 7.11493 63.8294 21.0572 63.8294 38C63.8294 54.9428 50.9882 68.8851 34.5078 70.6287C35.6554 70.7501 36.8202 70.8138 38 70.8138C56.1225 70.8138 70.8137 56.1226 70.8137 38C70.8137 19.8774 56.1225 5.18628 38 5.18628Z" fill="#BFCFD6"/>
<path d="M23.7212 24.2271L34.6289 41.371L51.7735 52.2793C52.1039 52.4896 52.4894 52.1041 52.2791 51.7737L41.3708 34.6291L24.2269 23.7214C23.8963 23.5109 23.5108 23.8964 23.7212 24.2271Z" fill="#66C1FF"/>
<path d="M23.7214 24.2273L34.629 41.3711L41.3709 34.6292L24.2273 23.7216C23.8967 23.5111 23.5111 23.8967 23.7214 24.2273Z" fill="#FF4C4C"/>
<path d="M38.0001 42.9029C40.7078 42.9029 42.9029 40.7078 42.9029 38.0001C42.9029 35.2923 40.7078 33.0972 38.0001 33.0972C35.2923 33.0972 33.0972 35.2923 33.0972 38.0001C33.0972 40.7078 35.2923 42.9029 38.0001 42.9029Z" fill="#555A66"/>
<path d="M55.9855 21.1636C55.6915 21.1636 55.3972 21.0514 55.173 20.8269C54.7241 20.3782 54.7241 19.6505 55.173 19.2017L57.0148 17.3599C57.4635 16.9111 58.1911 16.9111 58.64 17.3599C59.0889 17.8086 59.0889 18.5362 58.64 18.9851L56.7982 20.8269C56.5738 21.0514 56.2797 21.1636 55.9855 21.1636Z" fill="#2C5871"/>
<path d="M18.1724 58.9768C17.8783 58.9768 17.5841 58.8646 17.3598 58.6402C16.911 58.1914 16.911 57.4638 17.3598 57.0149L19.2017 55.1731C19.6504 54.7244 20.378 54.7244 20.8269 55.1731C21.2758 55.6218 21.2758 56.3495 20.8269 56.7983L18.9851 58.6402C18.7607 58.8644 18.4666 58.9768 18.1724 58.9768Z" fill="#2C5871"/>
<path d="M57.8276 58.9768C57.5335 58.9768 57.2393 58.8646 57.015 58.6402L55.1732 56.7983C54.7243 56.3496 54.7243 55.622 55.1732 55.1731C55.6219 54.7244 56.3496 54.7244 56.7984 55.1731L58.6402 57.0149C59.0891 57.4636 59.0891 58.1913 58.6402 58.6402C58.4157 58.8644 58.1216 58.9768 57.8276 58.9768Z" fill="#2C5871"/>
<path d="M20.0144 21.1636C19.7203 21.1636 19.4261 21.0514 19.2018 20.8269L17.3598 18.9851C16.911 18.5364 16.911 17.8087 17.3598 17.3599C17.8086 16.9111 18.5362 16.9111 18.9851 17.3599L20.8269 19.2017C21.2758 19.6504 21.2758 20.378 20.8269 20.8269C20.6025 21.0514 20.3084 21.1636 20.0144 21.1636Z" fill="#2C5871"/>
<path d="M17.021 40.9059C16.9158 41.2215 16.5266 41.3688 16.127 41.3688C15.7378 41.3688 15.3275 41.2215 15.2538 40.9059L14.5807 38.0659L13.897 40.9059C13.8234 41.2215 13.4131 41.3688 13.0239 41.3688C12.6241 41.3688 12.2244 41.2215 12.1297 40.9059L10.047 34.2896C10.0364 34.258 10.0259 34.2055 10.0259 34.1634C10.0259 33.8584 10.5098 33.6165 10.899 33.6165C11.1093 33.6165 11.2987 33.6901 11.3513 33.8899L13.0133 39.5911L13.9074 35.9306C13.9705 35.6676 14.2755 35.5519 14.5805 35.5519C14.875 35.5519 15.1801 35.6677 15.2433 35.9306L16.1373 39.5911L17.7994 33.8899C17.8519 33.6901 18.0414 33.6165 18.2517 33.6165C18.6409 33.6165 19.1248 33.8584 19.1248 34.1634C19.1248 34.2055 19.1143 34.2582 19.1037 34.2896L17.021 40.9059Z" fill="#2C5871"/>
<path d="M62.4919 36.9194H64.0908C64.3642 36.9194 64.522 37.1824 64.522 37.4664C64.522 37.7083 64.3853 37.9923 64.0908 37.9923H62.4919V40.1065H65.4687C65.7421 40.1065 65.8999 40.3904 65.8999 40.7165C65.8999 41.0005 65.7632 41.3055 65.4687 41.3055H61.7239C61.4189 41.3055 61.1244 41.1583 61.1244 40.8743V34.0475C61.1244 33.7636 61.4189 33.6163 61.7239 33.6163H65.4687C65.7632 33.6163 65.8999 33.9214 65.8999 34.2053C65.8999 34.5315 65.7421 34.8154 65.4687 34.8154H62.4919V36.9194Z" fill="#2C5871"/>
<path d="M39.0779 16.088L36.8165 11.8594V16.088C36.8165 16.3719 36.4693 16.5192 36.1328 16.5192C35.7858 16.5192 35.4491 16.3719 35.4491 16.088V9.26117C35.4491 8.96667 35.7858 8.82996 36.1328 8.82996C36.6272 8.82996 36.827 8.9352 37.1532 9.55582L39.1832 13.4793V9.25078C39.1832 8.95628 39.5198 8.82996 39.8669 8.82996C40.2035 8.82996 40.5506 8.95613 40.5506 9.25078V16.088C40.5506 16.3719 40.2034 16.5192 39.8669 16.5192C39.5409 16.5192 39.2568 16.4141 39.0779 16.088Z" fill="#2C5871"/>
<path d="M39.0729 64.041C39.0729 62.4631 35.6964 62.947 35.6964 60.4541C35.6964 58.8868 37.0428 58.3503 38.2525 58.3503C38.8731 58.3503 40.251 58.4976 40.251 59.1918C40.251 59.4338 40.0827 59.9177 39.704 59.9177C39.3779 59.9177 39.136 59.518 38.2525 59.518C37.4951 59.518 37.0638 59.823 37.0638 60.328C37.0638 61.6323 40.4403 61.18 40.4403 63.9043C40.4403 65.4085 39.3883 66.187 37.9367 66.187C36.5588 66.187 35.507 65.4927 35.507 64.8826C35.507 64.5881 35.7805 64.1462 36.1065 64.1462C36.5377 64.1462 36.8218 64.9563 37.8947 64.9563C38.5259 64.9561 39.0729 64.6721 39.0729 64.041Z" fill="#2C5871"/>
</svg>
