<svg width="76" height="76" viewBox="0 0 76 76" fill="none" xmlns="http://www.w3.org/2000/svg">
<path d="M76 38.0008C76 17.0122 58.9868 0.000366211 38.0006 0.000366211C17.0134 0.000366211 0 17.0122 0 38.0008C0 58.9862 17.0134 75.9995 38.0006 75.9995C58.9868 75.9995 76 58.9862 76 38.0008Z" fill="#25B7D3"/>
<path d="M21.1714 26.5904C21.1714 24.4589 21.8556 22.2991 23.2244 20.1115C24.5927 17.9238 26.5902 16.112 29.2153 14.6758C31.8406 13.2401 34.9034 12.5219 38.4036 12.5219C41.6568 12.5219 44.5292 13.1225 47.0199 14.3224C49.5105 15.523 51.4341 17.1555 52.792 19.2195C54.1493 21.2842 54.8282 23.5276 54.8282 25.9509C54.8282 27.8582 54.4411 29.5302 53.667 30.9657C52.8928 32.4019 51.9725 33.6416 50.907 34.6847C49.8411 35.7282 47.9283 37.484 45.1686 39.9522C44.4056 40.6479 43.7938 41.2595 43.3343 41.7866C42.8741 42.314 42.5318 42.7964 42.3077 43.2337C42.0831 43.6713 41.9089 44.1088 41.7859 44.5464C41.6623 44.9837 41.4773 45.7527 41.2307 46.8519C40.8042 49.1857 39.469 50.3523 37.2256 50.3523C36.0587 50.3523 35.0768 49.971 34.2806 49.2079C33.4839 48.4452 33.0858 47.312 33.0858 45.8086C33.0858 43.9237 33.3771 42.2913 33.9609 40.9115C34.5442 39.5314 35.3182 38.3198 36.2832 37.2766C37.2476 36.2332 38.5493 34.9937 40.1874 33.5575C41.6231 32.3011 42.6612 31.353 43.3007 30.7135C43.9402 30.0739 44.4786 29.362 44.9163 28.5762C45.3537 27.791 45.5726 26.9386 45.5726 26.0183C45.5726 24.2233 44.9048 22.7089 43.57 21.4746C42.2348 20.2409 40.5124 19.6234 38.4036 19.6234C35.935 19.6234 34.1176 20.2461 32.9512 21.4914C31.7843 22.7368 30.7972 24.5711 29.9893 26.9943C29.2264 29.5302 27.779 30.7976 25.6475 30.7976C24.3906 30.7976 23.3304 30.3547 22.467 29.4681C21.6032 28.5818 21.1714 27.6227 21.1714 26.5904ZM37.5959 63.4785C36.227 63.4785 35.0322 63.035 34.0114 62.1489C32.9902 61.2629 32.48 60.0233 32.48 58.4299C32.48 57.0162 32.9732 55.8273 33.9609 54.8623C34.948 53.8977 36.1596 53.4151 37.5958 53.4151C39.0095 53.4151 40.1984 53.8977 41.1634 54.8623C42.1278 55.8273 42.6107 57.0162 42.6107 58.4299C42.6107 60.0007 42.1058 61.2349 41.096 62.1322C40.0863 63.0295 38.9197 63.4785 37.5959 63.4785Z" fill="white"/>
</svg>
