<svg width="76" height="72" viewBox="0 0 76 72" fill="none" xmlns="http://www.w3.org/2000/svg">
<path d="M46.9053 4.3892C45.482 4.2431 44.0453 4.1593 42.5827 4.21105C31.1805 4.59523 21.1915 10.928 15.6448 16.7284L15.6426 45.395L17.5777 45.6002C23.4115 46.222 27.4493 47.9557 29.5823 50.7563C31.9393 53.8516 31.311 57.4814 31.0631 58.522C30.2373 61.9785 32.4177 65.4973 36.1532 66.1698C38.2646 66.5479 40.3868 66.7347 42.4937 66.7347C43.9774 66.7347 45.4466 66.609 46.9055 66.4272C63.3992 64.3697 76.1346 51.2546 75.9988 35.288C75.8498 18.3098 61.1757 5.8528 46.9053 4.3892Z" fill="#FABE2C"/>
<path d="M75.9991 35.288C75.8502 18.3098 61.1762 5.85276 46.9058 4.38916V66.4271C63.3995 64.3696 76.1349 51.2546 75.9991 35.288Z" fill="#FF9100"/>
<path d="M50.3239 28.1829C47.7212 25.7462 47.7212 21.7851 50.3216 19.3504C52.9308 16.9156 57.1665 16.9156 59.7714 19.3504C62.3763 21.7851 62.3763 25.7462 59.7714 28.1808V28.1829C57.1669 30.6134 52.9289 30.6136 50.3239 28.1829Z" fill="#00C8C8"/>
<path d="M31.3917 21.0696C30.4439 17.7795 32.511 14.3262 36.1143 13.4257C39.6628 12.5376 43.3397 14.5131 44.2941 17.84C45.2505 21.1682 43.1404 24.5928 39.5715 25.4858C35.9947 26.3818 32.3437 24.3982 31.3917 21.0696Z" fill="#474F54"/>
<path d="M23.5181 37.2594C19.9587 36.3672 17.8409 32.9366 18.7953 29.6137C19.7438 26.2977 23.3907 24.3001 26.9731 25.1995C30.541 26.0911 32.6564 29.51 31.698 32.8452C30.7399 36.1908 27.0691 38.1486 23.5181 37.2594Z" fill="#FF435B"/>
<path d="M57.9296 45.8766C54.371 44.9863 52.2466 41.5724 53.207 38.231C54.1644 34.8878 57.8358 32.9263 61.3868 33.8168C64.9462 34.709 67.0641 38.1395 66.1095 41.4624C65.1556 44.7976 61.4891 46.7715 57.9296 45.8766Z" fill="#99341F"/>
<path d="M13.5077 0.0198975C7.98711 0.0198975 6.82812 19.3991 6.82812 35.538C6.82812 36.2634 6.83792 36.9289 6.84386 37.6192L11.5594 39.7003H13.5077H16.6618L20.1726 37.6192C20.1781 36.9287 20.1873 36.275 20.1873 35.538C20.1873 19.3989 19.0283 0.0198975 13.5077 0.0198975Z" fill="#B35324"/>
<path d="M20.1727 37.6192C20.1782 36.9287 20.1874 36.275 20.1874 35.538C20.1874 19.3991 19.0284 0.0198975 13.5078 0.0198975V39.7003H16.6619L20.1727 37.6192Z" fill="#99341F"/>
<path d="M13.5076 37.6193H6.84375C6.92331 46.8227 7.48766 52.8687 7.51943 53.425H13.5076H19.4958C19.5543 52.4089 20.0989 47.2213 20.1725 37.6193H13.5076Z" fill="#FFF7E6"/>
<path d="M20.1727 37.6193H13.5078V53.425H19.496C19.5543 52.4088 20.0991 47.2211 20.1727 37.6193Z" fill="#FFCCB3"/>
<path d="M13.5076 50.1061C8.59575 50.1061 4.6015 53.8395 4.6015 58.4307V62.5929C4.6015 64.8875 2.45483 66.894 0 66.894V71.0563H9.05456C10.6237 71.0563 12.1079 70.7558 13.5076 70.2893C18.6799 68.5656 22.4138 63.8497 22.4138 58.4307C22.4138 53.8395 18.4195 50.1061 13.5076 50.1061Z" fill="#474F54"/>
<path d="M22.4139 58.4306C22.4139 53.8395 18.4197 50.1061 13.5078 50.1061V70.2892C18.68 68.5655 22.4139 63.8496 22.4139 58.4306Z" fill="#32393F"/>
<path d="M46.9057 58.4307C50.5947 58.4307 53.5853 55.6354 53.5853 52.1872C53.5853 48.739 50.5947 45.9437 46.9057 45.9437C43.2166 45.9437 40.2261 48.739 40.2261 52.1872C40.2261 55.6354 43.2166 58.4307 46.9057 58.4307Z" fill="#FFF7E6"/>
<path d="M53.5854 52.1872C53.5854 48.739 50.5948 45.9437 46.9058 45.9437V58.4307C50.5948 58.4307 53.5854 55.6354 53.5854 52.1872Z" fill="#FFE6CC"/>
</svg>
