<svg width="76" height="76" viewBox="0 0 76 76" fill="none" xmlns="http://www.w3.org/2000/svg">
<g clip-path="url(#clip0)">
<path d="M73.8603 72.1406H2.13973C0.958016 72.1406 0 71.1826 0 70.0009V65.1151C0 63.9334 0.958016 62.9753 2.13973 62.9753H73.8603C75.042 62.9753 76 63.9334 76 65.1151V70.0009C76 71.1826 75.042 72.1406 73.8603 72.1406Z" fill="#F3F3F3"/>
<path d="M71.4126 62.9753V72.1406H73.8593C75.0416 72.1406 76.0002 71.1832 76.0002 70.0021V65.1139C76.0002 63.9328 75.0417 62.9753 73.8593 62.9753H71.4126Z" fill="#E4E4E4"/>
<path d="M34.4905 72.1406H2.13973C0.958016 72.1406 0 71.1826 0 70.0009V65.1151C0 63.9334 0.958016 62.9753 2.13973 62.9753H34.4906V72.1406H34.4905Z" fill="#F78E36"/>
<path d="M29.903 62.9753H34.4904V72.1406H29.903V62.9753Z" fill="#F86F1B"/>
<path d="M18.4206 72.1406H2.13973C0.958016 72.1406 0 71.1826 0 70.0009V65.1151C0 63.9334 0.958016 62.9753 2.13973 62.9753H18.4206V72.1406Z" fill="#29CEF6"/>
<path d="M13.8331 62.9753H18.4206V72.1406H13.8331V62.9753Z" fill="#22B5ED"/>
<path d="M32.2167 3.85938C17.0153 3.85938 4.69153 16.1699 4.69153 31.3552C4.69153 46.5405 17.0151 58.851 32.2167 58.851C46.0838 58.851 57.554 48.6069 59.4619 35.2809C59.5092 34.9501 59.2773 34.644 58.9456 34.6037L32.2169 31.3553L55.1836 17.3166C55.4692 17.142 55.5533 16.7666 55.372 16.4853C50.4732 8.88962 41.9329 3.85938 32.2167 3.85938Z" fill="#F3F3F3"/>
<path d="M55.6967 17.0023L55.6965 17.0025C55.6976 17.0041 55.6986 17.0056 55.6995 17.0072C55.6986 17.0056 55.6977 17.004 55.6967 17.0023Z" fill="#E4E4E4"/>
<path d="M52.2712 19.0962L55.1827 17.3164C55.4681 17.1419 55.5525 16.7665 55.3711 16.4852C50.4731 8.88992 41.9333 3.85938 32.2163 3.85938C31.4437 3.85938 30.6791 3.89277 29.9225 3.95512C39.7326 4.7638 48.0825 10.7114 52.2712 19.0962Z" fill="#E4E4E4"/>
<path d="M32.2171 58.851C46.0844 58.851 57.5551 48.6065 59.4622 35.2806C59.5096 34.9498 59.2777 34.6438 58.946 34.6035L55.0158 34.1258C53.7002 47.2579 43.135 57.6662 29.9235 58.7551C30.6799 58.8176 31.4445 58.851 32.2171 58.851Z" fill="#E4E4E4"/>
<path d="M55.183 17.3164L32.2163 31.3552V3.85938C41.9326 3.85938 50.4743 8.88963 55.3715 16.4852C55.5528 16.7665 55.4685 17.1419 55.183 17.3164Z" fill="#F78E36"/>
<path d="M32.2163 4.24323C41.0244 5.71959 48.4131 11.3733 52.2713 19.0963L55.183 17.3164C55.4685 17.1419 55.5528 16.7665 55.3715 16.4852C50.4743 8.88963 41.9326 3.85938 32.2163 3.85938V4.24323Z" fill="#F86F1B"/>
<path d="M72.7168 28.4293C72.7168 29.4482 72.6616 30.4534 72.5532 31.4435C72.5347 31.6126 72.38 31.7334 72.2109 31.7129L46.0634 28.5353C45.7757 28.5003 45.6935 28.1225 45.9406 27.9714L68.4089 14.2374C68.5537 14.1488 68.7445 14.1943 68.8318 14.3401C71.2994 18.4604 72.7168 23.2802 72.7168 28.4293Z" fill="#29CEF6"/>
<path d="M65.2466 16.1705C67.0905 19.8614 68.1292 24.0239 68.1292 28.4293C68.1292 29.3646 68.0814 30.2887 67.9902 31.1999L72.211 31.7129C72.3799 31.7334 72.5347 31.6126 72.5533 31.4435C72.6615 30.4533 72.7169 29.4482 72.7169 28.4293C72.7169 23.2802 71.2994 18.4604 68.8319 14.34C68.7447 14.1943 68.5541 14.1488 68.409 14.2372L65.2466 16.1705Z" fill="#22B5ED"/>
<path d="M59.4626 35.2823C59.122 37.6598 58.4777 39.938 57.5686 42.0785L32.2163 31.355L58.9468 34.6035C59.2792 34.644 59.5101 34.9508 59.4626 35.2823Z" fill="#FFC328"/>
<path d="M53.6254 40.4108L57.5683 42.0786C58.4776 39.938 59.1217 37.6598 59.4624 35.2824C59.5099 34.9509 59.2789 34.6441 58.9466 34.6037L55.0147 34.1259C54.7964 36.3059 54.3235 38.411 53.6254 40.4108Z" fill="#FFB200"/>
<path d="M7.40302 72.1406H2.13973C0.958016 72.1406 0 71.1826 0 70.0009V65.1151C0 63.9334 0.958016 62.9753 2.13973 62.9753H7.40317V72.1406H7.40302Z" fill="#FFC328"/>
</g>
<defs>
<clipPath id="clip0">
<rect width="76" height="76" fill="white"/>
</clipPath>
</defs>
</svg>
