<svg width="313" height="388" viewBox="0 0 313 388" fill="none" xmlns="http://www.w3.org/2000/svg">
<path d="M90.4266 318.064H106.172V336.165H90.4266C88.027 336.165 85.7257 335.212 84.0289 333.515C82.3321 331.819 81.3789 329.517 81.3789 327.118C81.3782 325.929 81.6116 324.752 82.066 323.654C82.5204 322.555 83.1867 321.557 84.0269 320.716C84.8672 319.876 85.8648 319.209 86.9629 318.754C88.061 318.299 89.238 318.064 90.4266 318.064V318.064Z" fill="#9297AB"/>
<path d="M106.149 338.971H90.4041C87.2581 338.971 84.2409 337.722 82.0163 335.497C79.7917 333.273 78.542 330.255 78.542 327.109C78.542 323.963 79.7917 320.946 82.0163 318.722C84.2409 316.497 87.2581 315.247 90.4041 315.247H106.149C106.895 315.247 107.61 315.543 108.137 316.071C108.664 316.598 108.961 317.313 108.961 318.059V336.16C108.961 336.906 108.664 337.621 108.137 338.148C107.61 338.675 106.895 338.971 106.149 338.971ZM90.4041 320.87C88.7494 320.87 87.1625 321.528 85.9925 322.698C84.8225 323.868 84.1652 325.455 84.1652 327.109C84.1652 328.764 84.8225 330.351 85.9925 331.521C87.1625 332.691 88.7494 333.348 90.4041 333.348H103.337V320.876L90.4041 320.87Z" fill="#323C6B"/>
<path d="M223.555 318.064C225.956 318.064 228.258 319.018 229.955 320.715C231.652 322.413 232.606 324.715 232.606 327.115C232.606 329.515 231.652 331.817 229.955 333.515C228.258 335.212 225.956 336.165 223.555 336.165H207.811V318.064H223.555Z" fill="#9297AB"/>
<path d="M223.556 338.971H207.811C207.065 338.971 206.35 338.675 205.823 338.148C205.295 337.621 204.999 336.905 204.999 336.16V318.064C204.999 317.319 205.295 316.604 205.823 316.076C206.35 315.549 207.065 315.253 207.811 315.253H223.556C226.702 315.253 229.719 316.503 231.943 318.727C234.168 320.952 235.418 323.969 235.418 327.115C235.418 330.261 234.168 333.278 231.943 335.503C229.719 337.727 226.702 338.977 223.556 338.977V338.971ZM210.622 333.348H223.556C225.21 333.348 226.797 332.691 227.967 331.521C229.137 330.351 229.794 328.764 229.794 327.109C229.794 325.455 229.137 323.868 227.967 322.698C226.797 321.528 225.21 320.87 223.556 320.87H210.622V333.348Z" fill="#323C6B"/>
<path d="M124.396 363.224L129.159 377.344C129.952 379.64 131.443 381.631 133.423 383.037C135.404 384.444 137.774 385.196 140.203 385.188H173.791C176.215 385.192 178.579 384.434 180.55 383.021C182.52 381.609 183.997 379.613 184.773 377.316L189.597 363.196" fill="#707583"/>
<path d="M173.79 388H140.203C137.192 388.001 134.254 387.065 131.8 385.32C129.345 383.576 127.494 381.11 126.505 378.266L121.742 364.118C121.536 363.421 121.608 362.671 121.944 362.025C122.279 361.38 122.852 360.89 123.541 360.658C124.23 360.426 124.983 360.469 125.64 360.78C126.298 361.091 126.809 361.645 127.067 362.324L131.83 376.444C132.438 378.18 133.571 379.684 135.073 380.747C136.574 381.81 138.369 382.38 140.209 382.377H173.796C175.634 382.388 177.428 381.819 178.923 380.749C180.418 379.68 181.536 378.165 182.118 376.422L186.937 362.313C187.193 361.627 187.706 361.068 188.368 360.754C189.03 360.44 189.788 360.397 190.481 360.634C191.174 360.87 191.747 361.368 192.079 362.021C192.41 362.674 192.474 363.43 192.257 364.13L187.432 378.249C186.454 381.091 184.615 383.558 182.17 385.306C179.725 387.053 176.796 387.995 173.79 388V388Z" fill="#323C6B"/>
<path d="M95.7744 292.445H218.202V330.733C218.202 339.99 214.525 348.868 207.98 355.414C201.434 361.959 192.556 365.637 183.299 365.637H130.683C121.426 365.637 112.549 361.959 106.003 355.414C99.4573 348.868 95.78 339.99 95.78 330.733V292.445H95.7744Z" fill="#9297AB"/>
<path d="M218.179 292.462V330.756C218.179 340.002 214.506 348.87 207.968 355.408C201.43 361.947 192.562 365.62 183.315 365.62H167.458C176.711 365.624 185.587 361.954 192.135 355.417C198.683 348.879 202.368 340.009 202.378 330.756V292.462H218.179Z" fill="#84879C"/>
<path d="M217.808 292.445C223.266 270.468 233.697 250.037 248.297 232.727C262.896 215.175 272.185 193.822 275.073 171.175C277.961 148.528 274.329 125.527 264.602 104.873C254.875 84.2184 239.458 66.7674 220.161 54.5685C200.863 42.3695 178.485 35.929 155.655 36.0029C132.825 36.0769 110.49 42.6623 91.2718 54.986C72.0535 67.3097 56.7498 84.8602 47.1571 105.577C37.5644 126.294 34.081 149.318 37.1157 171.946C40.1504 194.573 49.5773 215.866 64.2898 233.323C79.2194 250.328 89.9988 270.567 95.7797 292.445H217.808Z" fill="#FCD462"/>
<path d="M260.073 169.708C260.123 197.366 251.424 224.332 235.218 246.746H238.03C241.193 241.888 244.628 237.213 248.32 232.744C268.175 208.943 278.04 178.378 275.848 147.461C273.655 116.544 259.574 87.678 236.559 66.918C213.544 46.1579 183.383 35.1177 152.405 36.1133C121.426 37.1089 92.0368 50.063 70.4023 72.258C88.5722 59.1033 110.096 51.3633 132.482 49.9339C148.849 48.8956 165.255 51.2232 180.686 56.773C196.118 62.3228 210.249 70.9769 222.205 82.201C234.162 93.4251 243.691 106.981 250.204 122.032C256.717 137.082 260.075 153.308 260.073 169.708V169.708Z" fill="#F7BE56"/>
<path d="M95.7574 311.3C95.0118 311.337 94.2818 311.077 93.7282 310.576C93.1745 310.075 92.8426 309.374 92.8053 308.629C92.768 307.883 93.0285 307.153 93.5294 306.599C94.0303 306.046 94.7306 305.714 95.4763 305.677L217.899 293.322C218.268 293.285 218.641 293.322 218.996 293.429C219.351 293.536 219.682 293.712 219.969 293.947C220.256 294.182 220.494 294.471 220.67 294.798C220.845 295.125 220.955 295.484 220.991 295.853C221.028 296.222 220.992 296.595 220.885 296.95C220.778 297.305 220.602 297.636 220.367 297.923C220.132 298.21 219.843 298.449 219.516 298.624C219.189 298.799 218.83 298.909 218.461 298.946L96.0442 311.317L95.7574 311.3Z" fill="#323C6B"/>
<path d="M95.7574 329.125C95.0118 329.162 94.2818 328.902 93.7282 328.401C93.1745 327.9 92.8426 327.2 92.8053 326.454C92.768 325.709 93.0285 324.979 93.5294 324.425C94.0303 323.871 94.7306 323.539 95.4763 323.502L217.899 311.148C218.268 311.111 218.641 311.147 218.996 311.254C219.351 311.361 219.682 311.538 219.969 311.773C220.256 312.008 220.494 312.297 220.67 312.624C220.845 312.951 220.955 313.309 220.991 313.678C221.028 314.048 220.992 314.42 220.885 314.776C220.778 315.131 220.602 315.462 220.367 315.749C220.132 316.036 219.843 316.274 219.516 316.449C219.189 316.625 218.83 316.734 218.461 316.771L96.0442 329.142L95.7574 329.125Z" fill="#323C6B"/>
<path d="M98.3492 346.67C97.98 346.688 97.6108 346.633 97.2628 346.508C96.9147 346.384 96.5946 346.192 96.3208 345.943C96.0469 345.695 95.8246 345.395 95.6666 345.061C95.5086 344.727 95.4179 344.365 95.3999 343.996C95.3818 343.627 95.4366 343.257 95.5612 342.909C95.6857 342.561 95.8776 342.241 96.1259 341.967C96.3742 341.693 96.674 341.471 97.0082 341.313C97.3424 341.155 97.7045 341.065 98.0737 341.046L217.848 329.013C218.587 328.949 219.323 329.177 219.897 329.648C220.472 330.118 220.84 330.794 220.923 331.532C220.997 332.274 220.773 333.015 220.301 333.592C219.828 334.168 219.146 334.534 218.404 334.608L98.6304 346.641L98.3492 346.67Z" fill="#323C6B"/>
<path d="M112.182 363.089C111.437 363.126 110.707 362.865 110.154 362.363C109.601 361.862 109.269 361.161 109.233 360.415C109.196 359.67 109.458 358.94 109.959 358.387C110.46 357.834 111.161 357.503 111.907 357.466L211.999 347.401C212.739 347.339 213.473 347.567 214.048 348.037C214.622 348.507 214.99 349.183 215.075 349.92C215.149 350.662 214.925 351.403 214.453 351.979C213.98 352.556 213.298 352.922 212.556 352.996L112.463 363.061L112.182 363.089Z" fill="#323C6B"/>
<path d="M156.044 24.5733C155.298 24.5733 154.583 24.2771 154.056 23.7498C153.529 23.2226 153.232 22.5074 153.232 21.7617V2.81159C153.232 2.06591 153.529 1.35077 154.056 0.823497C154.583 0.296221 155.298 0 156.044 0C156.79 0 157.505 0.296221 158.032 0.823497C158.559 1.35077 158.856 2.06591 158.856 2.81159V21.7617C158.856 22.5074 158.559 23.2226 158.032 23.7498C157.505 24.2771 156.79 24.5733 156.044 24.5733Z" fill="#323C6B"/>
<path d="M88.9021 42.5619C88.4076 42.5629 87.9216 42.4334 87.4932 42.1866C87.0647 41.9398 86.7089 41.5843 86.4616 41.1561L76.9866 24.742C76.6196 24.0966 76.5228 23.3322 76.7174 22.6157C76.9119 21.8992 77.3819 21.2887 78.0249 20.9175C78.6679 20.5462 79.4316 20.4444 80.1494 20.6342C80.8672 20.8239 81.4808 21.2899 81.8563 21.9304L91.3313 38.3389C91.5781 38.7663 91.708 39.2511 91.708 39.7447C91.708 40.2382 91.5781 40.723 91.3313 41.1504C91.0846 41.5779 90.7297 41.9328 90.3023 42.1796C89.8749 42.4263 89.39 42.5563 88.8965 42.5563L88.9021 42.5619Z" fill="#323C6B"/>
<path d="M39.744 91.7142C39.2504 91.7142 38.7656 91.5843 38.3382 91.3375L21.9297 81.868C21.2892 81.4925 20.8232 80.879 20.6334 80.1612C20.4437 79.4434 20.5455 78.6797 20.9167 78.0367C21.288 77.3937 21.8985 76.9237 22.615 76.7291C23.3315 76.5346 24.0959 76.6314 24.7413 76.9984L41.1498 86.4734C41.6857 86.7829 42.1046 87.2606 42.3414 87.8324C42.5783 88.4042 42.6198 89.0381 42.4596 89.636C42.2994 90.2338 41.9465 90.762 41.4555 91.1388C40.9645 91.5156 40.3629 91.7198 39.744 91.7199V91.7142Z" fill="#323C6B"/>
<path d="M21.7561 158.855H2.81159C2.06591 158.855 1.35077 158.559 0.823495 158.032C0.296219 157.504 0 156.789 0 156.043C0 155.298 0.296219 154.583 0.823495 154.055C1.35077 153.528 2.06591 153.232 2.81159 153.232H21.7617C22.5074 153.232 23.2226 153.528 23.7498 154.055C24.2771 154.583 24.5733 155.298 24.5733 156.043C24.5733 156.789 24.2771 157.504 23.7498 158.032C23.2226 158.559 22.5074 158.855 21.7617 158.855H21.7561Z" fill="#323C6B"/>
<path d="M23.3359 235.477C22.717 235.477 22.1154 235.272 21.6244 234.896C21.1334 234.519 20.7804 233.991 20.6202 233.393C20.46 232.795 20.5016 232.161 20.7384 231.589C20.9752 231.017 21.3941 230.54 21.9301 230.23L38.3386 220.755C38.984 220.388 39.7483 220.291 40.4649 220.486C41.1814 220.68 41.7919 221.151 42.1631 221.793C42.5343 222.436 42.6362 223.2 42.4464 223.918C42.2566 224.636 41.7906 225.249 41.1502 225.625L24.7417 235.1C24.3143 235.347 23.8294 235.477 23.3359 235.477V235.477Z" fill="#323C6B"/>
<path d="M223.185 42.5619C222.691 42.5619 222.206 42.432 221.779 42.1852C221.351 41.9384 220.996 41.5835 220.75 41.1561C220.503 40.7287 220.373 40.2438 220.373 39.7503C220.373 39.2568 220.503 38.7719 220.75 38.3445L230.225 21.9304C230.6 21.2899 231.214 20.8239 231.932 20.6342C232.649 20.4444 233.413 20.5462 234.056 20.9175C234.699 21.2887 235.169 21.8992 235.364 22.6157C235.558 23.3322 235.461 24.0966 235.094 24.742L225.625 41.1561C225.378 41.5843 225.022 41.9398 224.594 42.1866C224.165 42.4334 223.679 42.5629 223.185 42.5619V42.5619Z" fill="#323C6B"/>
<path d="M272.342 91.7142C271.723 91.7142 271.121 91.5099 270.63 91.1332C270.139 90.7564 269.786 90.2281 269.626 89.6303C269.466 89.0325 269.507 88.3985 269.744 87.8267C269.981 87.2549 270.4 86.7772 270.936 86.4678L287.344 76.9927C287.99 76.6257 288.754 76.5289 289.471 76.7235C290.187 76.918 290.798 77.388 291.169 78.031C291.54 78.674 291.642 79.4377 291.452 80.1555C291.262 80.8733 290.796 81.4869 290.156 81.8624L273.748 91.3374C273.32 91.5842 272.835 91.7142 272.342 91.7142Z" fill="#323C6B"/>
<path d="M309.275 158.855H290.325C289.58 158.855 288.864 158.559 288.337 158.032C287.81 157.504 287.514 156.789 287.514 156.043C287.514 155.298 287.81 154.583 288.337 154.055C288.864 153.528 289.58 153.232 290.325 153.232H309.275C310.021 153.232 310.736 153.528 311.264 154.055C311.791 154.583 312.087 155.298 312.087 156.043C312.087 156.789 311.791 157.504 311.264 158.032C310.736 158.559 310.021 158.855 309.275 158.855Z" fill="#323C6B"/>
<path d="M288.751 235.477C288.257 235.477 287.772 235.347 287.345 235.1L270.937 225.625C270.296 225.249 269.83 224.636 269.64 223.918C269.451 223.2 269.552 222.436 269.924 221.793C270.295 221.151 270.905 220.68 271.622 220.486C272.338 220.291 273.103 220.388 273.748 220.755L290.157 230.23C290.693 230.54 291.111 231.017 291.348 231.589C291.585 232.161 291.627 232.795 291.466 233.393C291.306 233.991 290.953 234.519 290.462 234.896C289.971 235.272 289.37 235.477 288.751 235.477V235.477Z" fill="#323C6B"/>
<path d="M96.3702 175.938C97.7062 181.19 99.7512 186.236 102.449 190.935L87.7611 209.346L106.239 228.06L124.829 213.608C129.49 216.372 134.505 218.489 139.736 219.9L142.374 243.299L168.634 243.462L171.563 220.097C176.816 218.752 181.862 216.697 186.561 213.99L204.965 228.678L223.679 210.2L209.228 191.61C211.986 186.943 214.095 181.923 215.497 176.686L238.918 174.049L239.081 147.789L215.694 144.859C214.364 139.619 212.327 134.585 209.638 129.896L224.326 111.463L205.848 92.7489L187.235 107.2C182.582 104.442 177.574 102.331 172.351 100.925L169.713 77.5044L143.453 77.3414L140.523 100.728C135.279 102.064 130.241 104.109 125.549 106.807L107.122 92.1191L88.4078 110.597L102.859 129.21C100.102 133.867 97.9925 138.878 96.5895 144.105L73.1689 146.743L73.0059 173.003L96.3702 175.938ZM119.425 160.193C119.473 152.96 121.665 145.903 125.723 139.915C129.781 133.927 135.523 129.277 142.224 126.552C148.925 123.827 156.283 123.15 163.368 124.606C170.454 126.063 176.948 129.587 182.031 134.734C187.114 139.881 190.556 146.42 191.923 153.523C193.29 160.626 192.52 167.975 189.711 174.641C186.902 181.307 182.18 186.99 176.141 190.973C170.102 194.955 163.018 197.057 155.785 197.014C150.98 196.981 146.229 196.002 141.802 194.132C137.376 192.263 133.361 189.539 129.988 186.118C126.614 182.697 123.947 178.644 122.14 174.192C120.332 169.74 119.419 164.976 119.453 160.171L119.425 160.193Z" fill="#EEEFEE"/>
<path d="M215.739 144.853C214.375 139.611 212.327 134.571 209.65 129.862L224.32 111.429L205.831 92.732L187.241 107.195C182.573 104.435 177.548 102.33 172.306 100.942L169.708 77.4763L143.436 77.3188L141.986 88.6552L160.047 88.762L162.696 112.177C167.914 113.589 172.92 115.692 177.58 118.43L196.249 104.029L214.738 122.726L200.062 141.142C202.751 145.84 204.78 150.887 206.09 156.139L229.505 159.052L229.398 175.1L238.958 174.043L239.115 147.772L215.739 144.853ZM209.222 191.627C210.07 190.22 210.847 188.771 211.55 187.286L205.927 187.921C204.521 193.165 202.4 198.191 199.623 202.857L213.288 220.44L223.668 210.217L209.222 191.627ZM161.987 231.355L160.503 243.433L168.662 243.484L170.518 228.442C167.748 229.626 164.892 230.6 161.976 231.355H161.987ZM125.532 106.841L107.122 92.0966L88.4248 110.586L89.2177 111.592L97.5344 103.382L115.967 118.053C120.657 115.376 125.678 113.329 130.902 111.963L131.96 103.647C129.741 104.55 127.592 105.617 125.532 106.841V106.841Z" fill="#E1E6E9"/>
<path d="M217.809 295.257H95.7856C95.1512 295.257 94.5354 295.043 94.0382 294.649C93.541 294.255 93.1917 293.704 93.0471 293.086C87.3305 271.651 76.7536 251.821 62.1364 235.134C42.2175 211.548 31.9389 181.31 33.3569 150.471C34.9513 120.309 47.5121 91.7685 68.6763 70.219C89.8405 48.6696 118.149 35.5961 148.278 33.458C165.045 32.3372 181.862 34.6971 197.672 40.3892C213.483 46.0814 227.945 54.9827 240.15 66.5336C262.939 87.9563 276.695 117.268 278.61 148.486C280.526 179.705 270.456 210.478 250.457 234.526C236.117 251.492 225.88 271.534 220.542 293.097C220.395 293.712 220.046 294.26 219.55 294.651C219.054 295.043 218.441 295.256 217.809 295.257V295.257ZM97.9786 289.634H215.604C221.309 268.043 231.738 247.99 246.138 230.922C260.397 213.782 269.469 192.931 272.292 170.815C275.114 148.7 271.569 126.238 262.072 106.066C252.575 85.8953 237.521 68.8519 218.677 56.9369C199.833 45.022 177.981 38.7302 155.686 38.7999C133.391 38.8697 111.579 45.2982 92.8099 57.3308C74.0407 69.3634 59.0937 86.5007 49.7234 106.731C40.3531 126.961 36.9484 149.445 39.9091 171.542C42.8698 193.64 52.0729 214.434 66.4382 231.484C81.1039 248.31 91.8754 268.165 97.9842 289.634H97.9786Z" fill="#323C6B"/>
<path d="M105.682 265.156C104.96 265.156 104.255 264.942 103.654 264.542C103.054 264.142 102.586 263.573 102.308 262.907C102.063 262.199 101.772 261.507 101.436 260.837C101.021 259.961 100.971 258.956 101.297 258.043C101.622 257.129 102.298 256.383 103.174 255.968C104.05 255.552 105.055 255.502 105.969 255.828C106.882 256.154 107.628 256.829 108.044 257.705C108.426 258.477 108.762 259.272 109.05 260.084C109.28 260.639 109.37 261.243 109.311 261.841C109.252 262.44 109.047 263.014 108.714 263.515C108.38 264.015 107.929 264.425 107.399 264.709C106.869 264.994 106.277 265.143 105.676 265.145L105.682 265.156Z" fill="white"/>
<path d="M97.883 250.372C97.2707 250.372 96.6685 250.217 96.1319 249.922C95.5953 249.627 95.1416 249.202 94.8128 248.686C89.9113 241.011 84.6263 233.588 78.9779 226.446C74.6335 221.298 70.7161 215.805 67.2648 210.02C67.0049 209.608 66.8302 209.148 66.7509 208.667C66.6716 208.186 66.6892 207.694 66.8028 207.22C66.9165 206.746 67.1237 206.3 67.4125 205.907C67.7012 205.514 68.0656 205.183 68.4841 204.933C68.9027 204.684 69.367 204.52 69.8497 204.452C70.3324 204.385 70.8238 204.414 71.2949 204.539C71.766 204.664 72.2074 204.882 72.593 205.181C72.9786 205.479 73.3006 205.851 73.5402 206.275C76.7888 211.717 80.4748 216.885 84.5617 221.728C90.4038 229.116 95.869 236.793 100.936 244.732C101.289 245.284 101.487 245.919 101.509 246.573C101.532 247.227 101.379 247.875 101.066 248.45C100.753 249.024 100.291 249.504 99.7294 249.839C99.1676 250.175 98.526 250.353 97.8718 250.356L97.883 250.372Z" fill="white"/>
<path d="M168.651 246.296L142.39 246.133C141.702 246.129 141.039 245.872 140.527 245.412C140.015 244.952 139.69 244.32 139.613 243.636L137.189 222.105C132.99 220.831 128.935 219.119 125.093 216.999L107.988 230.298C107.444 230.721 106.765 230.93 106.078 230.886C105.39 230.841 104.744 230.546 104.26 230.056L85.7536 211.325C85.2688 210.835 84.9809 210.184 84.9446 209.496C84.9083 208.807 85.1262 208.129 85.5568 207.591L99.0524 190.654C96.9888 186.784 95.3377 182.707 94.1265 178.491L72.6066 175.798C71.9229 175.712 71.2943 175.379 70.8403 174.86C70.3862 174.342 70.1383 173.675 70.1436 172.986L70.3067 146.726C70.3125 146.036 70.5718 145.372 71.0353 144.861C71.4988 144.35 72.1341 144.027 72.8203 143.954L94.374 141.53C95.6348 137.34 97.331 133.294 99.4348 129.457L86.136 112.329C85.7127 111.786 85.5035 111.106 85.5481 110.419C85.5927 109.732 85.8879 109.085 86.3778 108.601L105.092 90.1172C105.581 89.6339 106.231 89.3469 106.918 89.3107C107.606 89.2744 108.282 89.4913 108.82 89.9204L125.779 103.416C129.643 101.355 133.712 99.7039 137.92 98.4901L140.613 76.9702C140.709 76.2908 141.046 75.6684 141.562 75.2164C142.078 74.7643 142.739 74.5126 143.425 74.5072L169.685 74.6703C170.374 74.6742 171.037 74.9306 171.549 75.3907C172.061 75.8509 172.386 76.4829 172.463 77.167L174.887 98.7207C179.077 99.9814 183.123 101.678 186.96 103.782L204.116 90.5333C204.659 90.11 205.339 89.9009 206.026 89.9454C206.713 89.99 207.36 90.2852 207.844 90.7751L226.333 109.478C226.817 109.968 227.104 110.617 227.14 111.305C227.176 111.992 226.959 112.668 226.53 113.206L213.034 130.166C215.096 134.029 216.747 138.098 217.96 142.306L239.48 144.999C240.164 145.085 240.793 145.418 241.247 145.937C241.701 146.455 241.949 147.122 241.943 147.811L241.78 174.071C241.776 174.76 241.52 175.423 241.06 175.935C240.6 176.447 239.968 176.772 239.284 176.849L217.73 179.273C216.471 183.471 214.775 187.525 212.669 191.368L225.968 208.474C226.391 209.017 226.6 209.697 226.556 210.384C226.511 211.071 226.216 211.718 225.726 212.202L207.012 230.686C206.522 231.17 205.871 231.458 205.183 231.495C204.494 231.531 203.817 231.313 203.278 230.882L186.341 217.387C182.472 219.459 178.395 221.117 174.178 222.335L171.485 243.833C171.399 244.52 171.062 245.152 170.539 245.607C170.016 246.061 169.344 246.307 168.651 246.296V246.296ZM144.91 240.504L166.176 240.633L168.797 219.749C168.867 219.189 169.104 218.663 169.477 218.24C169.85 217.817 170.342 217.516 170.889 217.376C175.895 216.092 180.704 214.135 185.183 211.556C185.672 211.273 186.236 211.144 186.799 211.186C187.363 211.228 187.901 211.439 188.343 211.792L204.791 224.928L219.974 209.953L207.04 193.336C206.693 192.891 206.488 192.351 206.452 191.788C206.416 191.224 206.55 190.662 206.838 190.176C209.464 185.729 211.473 180.944 212.81 175.955C212.956 175.41 213.264 174.921 213.692 174.553C214.12 174.185 214.649 173.955 215.211 173.891L236.157 171.535L236.286 150.268L215.379 147.648C214.82 147.578 214.294 147.341 213.871 146.967C213.448 146.594 213.146 146.103 213.006 145.556C211.732 140.558 209.783 135.757 207.214 131.285C206.933 130.796 206.805 130.233 206.847 129.671C206.889 129.108 207.099 128.571 207.451 128.13L220.581 111.648L205.606 96.4658L188.967 109.399C188.521 109.746 187.981 109.95 187.417 109.985C186.854 110.02 186.293 109.884 185.807 109.596C181.366 106.972 176.59 104.963 171.608 103.624C171.061 103.478 170.571 103.17 170.202 102.741C169.832 102.311 169.602 101.78 169.539 101.217L167.177 80.2991L145.922 80.1641L143.301 101.071C143.231 101.631 142.994 102.157 142.621 102.58C142.248 103.003 141.756 103.304 141.209 103.444C136.212 104.719 131.41 106.667 126.938 109.236C126.449 109.518 125.887 109.646 125.324 109.604C124.762 109.562 124.225 109.351 123.783 109L107.302 95.8753L92.1191 110.85L105.052 127.489C105.399 127.935 105.603 128.475 105.638 129.039C105.673 129.602 105.538 130.164 105.249 130.649C102.625 135.09 100.616 139.866 99.2774 144.848C99.1307 145.393 98.8232 145.882 98.3949 146.25C97.9666 146.618 97.4375 146.848 96.8763 146.911L75.9299 149.267L75.8006 170.534L96.7076 173.155C97.2673 173.225 97.793 173.462 98.2162 173.835C98.6394 174.208 98.9405 174.7 99.0806 175.247C100.355 180.252 102.303 185.06 104.872 189.541C105.155 190.03 105.284 190.594 105.242 191.157C105.2 191.721 104.989 192.259 104.636 192.701L91.5118 209.154L106.486 224.337L123.103 211.404C123.548 211.056 124.088 210.851 124.652 210.815C125.215 210.779 125.777 210.914 126.263 211.201C130.71 213.835 135.494 215.852 140.484 217.196C141.029 217.342 141.518 217.65 141.886 218.078C142.254 218.506 142.485 219.036 142.548 219.597L144.91 240.504ZM156.043 197.441H155.807C145.987 197.41 136.581 193.479 129.659 186.512C126.231 183.063 123.517 178.972 121.67 174.474C119.824 169.975 118.881 165.157 118.897 160.295C118.912 155.432 119.885 150.62 121.761 146.133C123.636 141.647 126.376 137.573 129.826 134.146C136.792 127.224 146.223 123.353 156.043 123.384H156.28C161.142 123.399 165.954 124.373 170.441 126.248C174.928 128.123 179.001 130.864 182.428 134.313C185.856 137.762 188.57 141.853 190.417 146.351C192.263 150.85 193.206 155.668 193.19 160.531C193.175 165.393 192.202 170.205 190.326 174.692C188.451 179.179 185.711 183.252 182.261 186.679C178.812 190.107 174.721 192.821 170.223 194.668C165.724 196.514 160.906 197.457 156.043 197.441V197.441ZM121.815 160.188H124.627C124.583 166.401 126.384 172.487 129.8 177.677C133.216 182.867 138.095 186.927 143.818 189.344C149.542 191.76 155.854 192.426 161.956 191.255C168.058 190.084 173.676 187.13 178.098 182.766C182.521 178.402 185.551 172.825 186.803 166.739C188.056 160.654 187.476 154.333 185.136 148.577C182.796 142.822 178.802 137.889 173.658 134.403C168.515 130.918 162.453 129.036 156.24 128.996C147.916 128.954 139.914 132.213 133.989 138.06C128.063 143.907 124.697 151.864 124.627 160.188H121.815Z" fill="#323C6B"/>
<path d="M183.299 368.448H130.683C120.683 368.438 111.096 364.461 104.024 357.391C96.9529 350.32 92.9748 340.733 92.9629 330.733V292.445C92.9629 291.699 93.2591 290.984 93.7864 290.457C94.3137 289.93 95.0288 289.634 95.7745 289.634H218.203C218.948 289.634 219.663 289.93 220.191 290.457C220.718 290.984 221.014 291.699 221.014 292.445V330.733C221.002 340.732 217.025 350.318 209.955 357.389C202.884 364.459 193.298 368.436 183.299 368.448V368.448ZM98.5861 295.257V330.733C98.5965 339.242 101.982 347.4 107.999 353.416C114.016 359.432 122.174 362.816 130.683 362.825H183.299C191.808 362.816 199.965 359.432 205.982 353.416C211.998 347.399 215.382 339.242 215.391 330.733V295.257H98.5861Z" fill="#323C6B"/>
</svg>
