<svg width="1440" height="995" viewBox="0 0 1440 995" fill="none" xmlns="http://www.w3.org/2000/svg">
<rect x="-7" y="-12" width="1470" height="695" fill="url(#paint0_linear)"/>
<path d="M1853.84 940.538C1833.66 1052.82 1866.77 940.538 1666.4 940.538C1330.4 940.538 1013.55 813.473 1033.73 701.189C1053.92 588.904 1325.18 604.734 1522.4 640.187C1719.61 675.639 1874.03 828.253 1853.84 940.538Z" fill="#FBCF56"/>
<path d="M534.895 692.988C516.036 797.897 318.024 809.787 124.512 775C-68.9992 740.213 -184.731 671.921 -165.871 567.012C-147.012 462.103 25.1488 405.258 218.66 440.045C412.172 474.832 553.755 588.079 534.895 692.988Z" fill="#F4B92F"/>
<path d="M364.808 805.336C362.156 820.089 239.56 804.728 115.715 782.465C-8.12906 760.201 -86.3249 739.466 -83.6727 724.713C-81.0206 709.96 21.5253 716.048 145.37 738.312C269.214 760.575 367.46 790.583 364.808 805.336Z" fill="black" fill-opacity="0.3"/>
<path d="M1600.3 934.336C1597.64 949.089 1475.05 933.728 1351.2 911.465C1227.36 889.201 1149.16 868.466 1151.82 853.713C1154.47 838.96 1257.01 845.048 1380.86 867.312C1504.7 889.575 1602.95 919.583 1600.3 934.336Z" fill="black" fill-opacity="0.3"/>
<defs>
<linearGradient id="paint0_linear" x1="-87.3279" y1="97.0001" x2="1435.34" y2="673.11" gradientUnits="userSpaceOnUse">
<stop offset="0.512482" stop-color="#F4B92F"/>
<stop offset="1" stop-color="#FDD45E"/>
</linearGradient>
</defs>
</svg>
