<svg width="1440" height="1119" viewBox="0 0 1440 1119" fill="none" xmlns="http://www.w3.org/2000/svg">
<rect x="-43.4878" width="1464" height="695" fill="url(#paint0_linear)"/>
<path d="M1821.35 994.538C1801.17 1106.82 1834.28 994.538 1633.91 994.538C1297.91 994.538 981.06 867.473 1001.25 755.189C1021.43 642.904 1292.7 658.734 1489.91 694.187C1687.12 729.639 1841.54 882.253 1821.35 994.538Z" fill="#FBCF56"/>
<path d="M1508.3 974.336C1505.64 989.089 1383.05 973.728 1259.2 951.465C1135.36 929.201 1057.16 908.466 1059.82 893.713C1062.47 878.96 1165.01 885.048 1288.86 907.312C1412.7 929.575 1510.95 959.583 1508.3 974.336Z" fill="black" fill-opacity="0.3"/>
<path d="M498.895 704.988C480.036 809.897 282.024 821.787 88.5121 787C-104.999 752.213 -220.731 683.921 -201.871 579.012C-183.012 474.103 -10.8512 417.258 182.66 452.045C376.172 486.832 517.755 600.079 498.895 704.988Z" fill="#F4B92F"/>
<path d="M328.808 817.336C326.156 832.089 203.56 816.728 79.7155 794.465C-44.129 772.201 -122.325 751.466 -119.673 736.713C-117.02 721.96 -14.4746 728.048 109.37 750.312C233.214 772.575 331.46 802.583 328.808 817.336Z" fill="black" fill-opacity="0.3"/>
<path d="M593.315 673.337C593.315 672.645 593.071 672.116 592.583 671.75C592.095 671.376 591.216 670.985 589.946 670.578C588.677 670.163 587.672 669.756 586.931 669.357C584.913 668.267 583.904 666.798 583.904 664.951C583.904 663.99 584.172 663.136 584.709 662.387C585.255 661.63 586.032 661.04 587.041 660.617C588.058 660.194 589.198 659.982 590.459 659.982C591.728 659.982 592.86 660.214 593.852 660.678C594.845 661.134 595.614 661.781 596.16 662.619C596.713 663.457 596.99 664.41 596.99 665.476H593.328C593.328 664.662 593.071 664.031 592.559 663.583C592.046 663.128 591.326 662.9 590.398 662.9C589.503 662.9 588.807 663.091 588.31 663.474C587.814 663.848 587.566 664.344 587.566 664.963C587.566 665.541 587.855 666.025 588.433 666.416C589.018 666.806 589.877 667.172 591.008 667.514C593.092 668.141 594.609 668.918 595.561 669.846C596.514 670.773 596.99 671.929 596.99 673.312C596.99 674.851 596.408 676.059 595.244 676.938C594.08 677.809 592.514 678.244 590.544 678.244C589.177 678.244 587.932 677.996 586.809 677.5C585.686 676.995 584.827 676.307 584.233 675.437C583.647 674.566 583.354 673.557 583.354 672.409H587.029C587.029 674.37 588.201 675.351 590.544 675.351C591.415 675.351 592.095 675.176 592.583 674.826C593.071 674.468 593.315 673.972 593.315 673.337ZM610.173 670.297H603.142V675.058H611.394V678H599.48V660.227H611.37V663.193H603.142V667.429H610.173V670.297ZM628.142 669.516C628.142 671.266 627.833 672.8 627.214 674.118C626.596 675.437 625.709 676.454 624.553 677.17C623.406 677.886 622.087 678.244 620.598 678.244C619.125 678.244 617.811 677.89 616.655 677.182C615.5 676.474 614.604 675.465 613.97 674.155C613.335 672.836 613.013 671.323 613.005 669.614V668.735C613.005 666.985 613.319 665.447 613.945 664.121C614.58 662.786 615.471 661.765 616.619 661.057C617.774 660.34 619.093 659.982 620.574 659.982C622.055 659.982 623.369 660.34 624.517 661.057C625.672 661.765 626.563 662.786 627.19 664.121C627.825 665.447 628.142 666.981 628.142 668.723V669.516ZM624.431 668.71C624.431 666.847 624.097 665.431 623.43 664.462C622.763 663.494 621.811 663.01 620.574 663.01C619.345 663.01 618.397 663.49 617.729 664.45C617.062 665.402 616.724 666.802 616.716 668.649V669.516C616.716 671.331 617.05 672.739 617.717 673.74C618.385 674.741 619.345 675.241 620.598 675.241C621.827 675.241 622.771 674.761 623.43 673.801C624.089 672.832 624.423 671.424 624.431 669.577V668.71ZM649.675 663.193H644.231V678H640.569V663.193H635.198V660.227H649.675V663.193ZM662.468 670.297H655.437V675.058H663.689V678H651.775V660.227H663.664V663.193H655.437V667.429H662.468V670.297ZM675.872 674.338H669.451L668.23 678H664.336L670.952 660.227H674.346L680.998 678H677.104L675.872 674.338ZM670.439 671.372H674.883L672.649 664.719L670.439 671.372ZM687.444 660.227L692.009 673.117L696.55 660.227H701.36V678H697.685V673.142L698.052 664.755L693.254 678H690.74L685.955 664.768L686.321 673.142V678H682.659V660.227H687.444Z" fill="#F4B92F"/>
<path d="M633.453 1054.73C633.453 1054.24 633.263 1053.86 632.882 1053.58C632.501 1053.3 631.997 1053.16 631.37 1053.16C630.808 1053.16 630.339 1053.3 629.964 1053.58C629.595 1053.86 629.41 1054.22 629.41 1054.67H626.773C626.773 1053.97 626.967 1053.35 627.354 1052.8C627.746 1052.25 628.3 1051.81 629.015 1051.5C629.735 1051.19 630.521 1051.04 631.37 1051.04C632.847 1051.04 634.004 1051.35 634.842 1051.99C635.68 1052.62 636.099 1053.51 636.099 1054.67C636.099 1055.24 635.926 1055.77 635.58 1056.26C635.24 1056.74 634.754 1057.13 634.121 1057.43C634.824 1057.67 635.363 1058.05 635.738 1058.55C636.113 1059.05 636.301 1059.67 636.301 1060.41C636.301 1061.56 635.85 1062.48 634.947 1063.16C634.051 1063.83 632.858 1064.17 631.37 1064.17C630.438 1064.17 629.601 1064.01 628.856 1063.69C628.112 1063.37 627.547 1062.93 627.16 1062.38C626.779 1061.83 626.589 1061.18 626.589 1060.45H629.243C629.243 1060.91 629.442 1061.29 629.841 1061.6C630.239 1061.91 630.749 1062.06 631.37 1062.06C632.073 1062.06 632.627 1061.9 633.031 1061.58C633.441 1061.27 633.646 1060.87 633.646 1060.38C633.646 1059.71 633.465 1059.23 633.102 1058.95C632.738 1058.65 632.208 1058.51 631.511 1058.51H629.938V1056.44H631.563C632.823 1056.42 633.453 1055.85 633.453 1054.73ZM643.596 1064C643.479 1063.77 643.394 1063.49 643.341 1063.15C642.726 1063.83 641.926 1064.18 640.941 1064.18C640.01 1064.18 639.236 1063.91 638.621 1063.37C638.012 1062.83 637.707 1062.15 637.707 1061.33C637.707 1060.32 638.079 1059.55 638.823 1059.01C639.573 1058.47 640.654 1058.2 642.066 1058.19H643.235V1057.65C643.235 1057.21 643.121 1056.85 642.893 1056.59C642.67 1056.33 642.315 1056.2 641.829 1056.2C641.401 1056.2 641.064 1056.3 640.818 1056.5C640.578 1056.71 640.458 1056.99 640.458 1057.35H637.918C637.918 1056.8 638.088 1056.29 638.428 1055.82C638.768 1055.35 639.248 1054.98 639.869 1054.72C640.49 1054.45 641.188 1054.31 641.961 1054.31C643.133 1054.31 644.062 1054.61 644.747 1055.2C645.438 1055.79 645.784 1056.61 645.784 1057.68V1061.8C645.79 1062.71 645.916 1063.39 646.162 1063.85V1064H643.596ZM641.495 1062.23C641.87 1062.23 642.216 1062.15 642.532 1061.99C642.849 1061.82 643.083 1061.59 643.235 1061.31V1059.68H642.286C641.015 1059.68 640.338 1060.12 640.256 1060.99L640.247 1061.14C640.247 1061.46 640.358 1061.72 640.581 1061.93C640.804 1062.13 641.108 1062.23 641.495 1062.23ZM651.462 1060.49H650.442V1064H647.902V1054.49H650.442V1058.07H651.348L653.422 1054.49H656.63L653.519 1059.02L656.92 1064H653.536L651.462 1060.49ZM663.389 1064C663.271 1063.77 663.187 1063.49 663.134 1063.15C662.519 1063.83 661.719 1064.18 660.734 1064.18C659.803 1064.18 659.029 1063.91 658.414 1063.37C657.805 1062.83 657.5 1062.15 657.5 1061.33C657.5 1060.32 657.872 1059.55 658.616 1059.01C659.366 1058.47 660.447 1058.2 661.859 1058.19H663.028V1057.65C663.028 1057.21 662.914 1056.85 662.686 1056.59C662.463 1056.33 662.108 1056.2 661.622 1056.2C661.194 1056.2 660.857 1056.3 660.611 1056.5C660.371 1056.71 660.251 1056.99 660.251 1057.35H657.711C657.711 1056.8 657.881 1056.29 658.221 1055.82C658.561 1055.35 659.041 1054.98 659.662 1054.72C660.283 1054.45 660.98 1054.31 661.754 1054.31C662.926 1054.31 663.854 1054.61 664.54 1055.2C665.231 1055.79 665.577 1056.61 665.577 1057.68V1061.8C665.583 1062.71 665.709 1063.39 665.955 1063.85V1064H663.389ZM661.288 1062.23C661.663 1062.23 662.009 1062.15 662.325 1061.99C662.642 1061.82 662.876 1061.59 663.028 1061.31V1059.68H662.079C660.808 1059.68 660.131 1060.12 660.049 1060.99L660.04 1061.14C660.04 1061.46 660.151 1061.72 660.374 1061.93C660.597 1062.13 660.901 1062.23 661.288 1062.23ZM672.521 1057.29C672.521 1056.96 672.409 1056.7 672.187 1056.52C671.97 1056.33 671.659 1056.24 671.255 1056.24C670.839 1056.24 670.499 1056.33 670.235 1056.5C669.978 1056.67 669.849 1056.92 669.849 1057.23H667.309C667.309 1056.37 667.666 1055.67 668.381 1055.13C669.096 1054.59 670.01 1054.32 671.123 1054.32C672.348 1054.32 673.309 1054.56 674.006 1055.04C674.709 1055.52 675.061 1056.21 675.061 1057.09C675.061 1057.51 674.932 1057.9 674.674 1058.26C674.422 1058.61 674.064 1058.89 673.602 1059.1C674.686 1059.49 675.228 1060.22 675.228 1061.31C675.228 1062.18 674.853 1062.88 674.103 1063.4C673.358 1063.92 672.365 1064.18 671.123 1064.18C669.969 1064.18 669.02 1063.91 668.275 1063.37C667.531 1062.83 667.159 1062.1 667.159 1061.19H669.699C669.699 1061.51 669.843 1061.77 670.13 1061.97C670.417 1062.17 670.792 1062.27 671.255 1062.27C671.706 1062.27 672.058 1062.16 672.31 1061.95C672.562 1061.74 672.688 1061.47 672.688 1061.13C672.688 1060.71 672.567 1060.41 672.327 1060.24C672.087 1060.06 671.727 1059.97 671.246 1059.97H669.866V1058.31H671.334C672.125 1058.29 672.521 1057.95 672.521 1057.29ZM682.285 1064C682.168 1063.77 682.083 1063.49 682.03 1063.15C681.415 1063.83 680.615 1064.18 679.631 1064.18C678.699 1064.18 677.926 1063.91 677.311 1063.37C676.701 1062.83 676.396 1062.15 676.396 1061.33C676.396 1060.32 676.769 1059.55 677.513 1059.01C678.263 1058.47 679.344 1058.2 680.756 1058.19H681.925V1057.65C681.925 1057.21 681.811 1056.85 681.582 1056.59C681.359 1056.33 681.005 1056.2 680.519 1056.2C680.091 1056.2 679.754 1056.3 679.508 1056.5C679.268 1056.71 679.147 1056.99 679.147 1057.35H676.607C676.607 1056.8 676.777 1056.29 677.117 1055.82C677.457 1055.35 677.938 1054.98 678.559 1054.72C679.18 1054.45 679.877 1054.31 680.65 1054.31C681.822 1054.31 682.751 1054.61 683.437 1055.2C684.128 1055.79 684.474 1056.61 684.474 1057.68V1061.8C684.479 1062.71 684.605 1063.39 684.852 1063.85V1064H682.285ZM680.185 1062.23C680.56 1062.23 680.905 1062.15 681.222 1061.99C681.538 1061.82 681.772 1061.59 681.925 1061.31V1059.68H680.976C679.704 1059.68 679.027 1060.12 678.945 1060.99L678.937 1061.14C678.937 1061.46 679.048 1061.72 679.271 1061.93C679.493 1062.13 679.798 1062.23 680.185 1062.23ZM694.177 1056.53H691.127V1064H688.578V1056.53H685.581V1054.49H694.177V1056.53ZM698.176 1057.28H699.995C700.815 1057.28 701.536 1057.41 702.157 1057.69C702.778 1057.96 703.253 1058.36 703.581 1058.88C703.915 1059.39 704.082 1059.98 704.082 1060.66C704.082 1061.66 703.71 1062.47 702.966 1063.09C702.228 1063.7 701.22 1064 699.942 1064H695.627V1054.49H698.176V1057.28ZM698.176 1059.32V1061.97H699.978C700.481 1061.97 700.868 1061.85 701.138 1061.62C701.407 1061.38 701.542 1061.06 701.542 1060.66C701.542 1060.25 701.41 1059.92 701.146 1059.68C700.883 1059.44 700.493 1059.32 699.978 1059.32H698.176Z" fill="#202020"/>
<defs>
<linearGradient id="paint0_linear" x1="-123.488" y1="109" x2="1394.51" y2="681" gradientUnits="userSpaceOnUse">
<stop offset="0.512482" stop-color="#F4B92F"/>
<stop offset="1" stop-color="#FDD45E"/>
</linearGradient>
</defs>
</svg>
