<svg width="14" height="14" viewBox="0 0 14 14" fill="none" xmlns="http://www.w3.org/2000/svg">
<g clip-path="url(#clip0)">
<path d="M13.6326 10.8018L10.799 8.91211C10.4394 8.67423 9.95735 8.7525 9.6915 9.09198L8.86609 10.1533C8.76001 10.2931 8.56718 10.3337 8.41373 10.2484L8.25671 10.1619C7.73622 9.87819 7.0886 9.52499 5.78376 8.21968C4.47892 6.91437 4.125 6.26626 3.8413 5.74672L3.75521 5.58971C3.66879 5.43628 3.70859 5.24263 3.84852 5.13571L4.90908 4.31054C5.24842 4.04466 5.3268 3.56277 5.08919 3.20306L3.19947 0.369413C2.95596 0.00311572 2.4674 -0.106845 2.09041 0.119774L0.905482 0.831563C0.53317 1.05044 0.260019 1.40493 0.143306 1.82074C-0.283385 3.37544 0.0376104 6.05861 3.99016 10.0116C7.13434 13.1556 9.47503 14.001 11.0839 14.001C11.4541 14.0026 11.8229 13.9545 12.1804 13.8578C12.5963 13.7412 12.9508 13.4681 13.1695 13.0956L13.882 11.9114C14.109 11.5343 13.9991 11.0455 13.6326 10.8018ZM13.48 11.672L12.7692 12.857C12.6121 13.1258 12.3571 13.3234 12.0576 13.4085C10.6224 13.8025 8.11488 13.4761 4.32026 9.68153C0.525652 5.88692 0.199298 3.37965 0.593344 1.94418C0.678535 1.64432 0.87642 1.38899 1.14555 1.23168L2.33048 0.52082C2.49405 0.422397 2.7061 0.470105 2.81177 0.629058L3.83829 2.17022L4.69987 3.46246C4.80305 3.61849 4.76915 3.82761 4.62196 3.94307L3.56115 4.76823C3.23832 5.01508 3.14613 5.46173 3.34489 5.81622L3.42913 5.96927C3.72729 6.51611 4.09799 7.19641 5.45136 8.54956C6.80473 9.90268 7.48481 10.2734 8.03141 10.5715L8.18467 10.656C8.53913 10.8547 8.98581 10.7626 9.23266 10.4397L10.0578 9.37894C10.1733 9.23182 10.3823 9.19795 10.5384 9.30102L13.3718 11.1907C13.5309 11.2963 13.5786 11.5085 13.48 11.672Z" fill="#202020"/>
<path d="M7.933 2.33456C10.1224 2.33699 11.8966 4.11126 11.8991 6.30065C11.8991 6.4295 12.0035 6.53394 12.1324 6.53394C12.2612 6.53394 12.3657 6.4295 12.3657 6.30065C12.363 3.85366 10.38 1.87066 7.933 1.86798C7.80415 1.86798 7.69971 1.97242 7.69971 2.10127C7.69971 2.23012 7.80415 2.33456 7.933 2.33456Z" fill="#202020"/>
<path d="M7.933 3.73434C9.34963 3.73601 10.4976 4.884 10.4993 6.30064C10.4993 6.42949 10.6038 6.53392 10.7326 6.53392C10.8614 6.53392 10.9659 6.42949 10.9659 6.30064C10.9639 4.62641 9.6072 3.26968 7.933 3.26776C7.80415 3.26776 7.69971 3.3722 7.69971 3.50105C7.69971 3.6299 7.80415 3.73434 7.933 3.73434Z" fill="#202020"/>
<path d="M7.933 5.13412C8.5769 5.13489 9.09871 5.65669 9.0995 6.30062C9.0995 6.42948 9.20396 6.53391 9.33279 6.53391C9.46161 6.53391 9.56608 6.42948 9.56608 6.30062C9.56504 5.39912 8.8345 4.66855 7.933 4.66754C7.80415 4.66754 7.69971 4.77198 7.69971 4.90083C7.69971 5.02968 7.80415 5.13412 7.933 5.13412Z" fill="#202020"/>
</g>
<defs>
<clipPath id="clip0">
<rect width="14" height="14" fill="white"/>
</clipPath>
</defs>
</svg>
