<svg width="20" height="20" viewBox="0 0 20 20" fill="none" xmlns="http://www.w3.org/2000/svg">
<g clip-path="url(#clip0)">
<path d="M19.4752 15.4315L15.4271 12.7319C14.9134 12.392 14.2248 12.5038 13.845 12.9888L12.6658 14.5049C12.5143 14.7047 12.2388 14.7627 12.0196 14.6409L11.7953 14.5173C11.0517 14.112 10.1266 13.6074 8.26251 11.7427C6.39845 9.87794 5.89286 8.95207 5.48757 8.20987L5.36458 7.98557C5.24112 7.76638 5.29799 7.48974 5.49788 7.33699L7.01297 6.15818C7.49774 5.77836 7.60972 5.08994 7.27027 4.57607L4.57068 0.528003C4.2228 0.00472133 3.52485 -0.152365 2.9863 0.171376L1.29355 1.18822C0.761671 1.50091 0.371456 2.00731 0.204723 2.60133C-0.404835 4.82233 0.0537292 8.65543 5.70023 14.3026C10.1919 18.7939 13.5357 20.0018 15.8341 20.0018C16.363 20.004 16.8899 19.9352 17.4005 19.7971C17.9947 19.6306 18.5011 19.2403 18.8136 18.7083L19.8315 17.0166C20.1557 16.4779 19.9987 15.7795 19.4752 15.4315ZM19.2572 16.6746L18.2417 18.3673C18.0173 18.7514 17.653 19.0337 17.2252 19.1552C15.1748 19.7182 11.5927 19.2519 6.1718 13.831C0.750931 8.41015 0.284711 4.82834 0.847635 2.77767C0.969336 2.3493 1.25203 1.98454 1.6365 1.75981L3.32926 0.744299C3.56293 0.603695 3.86586 0.671849 4.01681 0.898925L5.48327 3.10059L6.71411 4.94664C6.86151 5.16954 6.81308 5.46829 6.6028 5.63322L5.08736 6.81203C4.62617 7.16467 4.49448 7.80274 4.77842 8.30915L4.89875 8.52779C5.3247 9.30901 5.85427 10.2809 7.78766 12.2139C9.72104 14.147 10.6926 14.6766 11.4734 15.1025L11.6924 15.2231C12.1988 15.507 12.8369 15.3754 13.1895 14.9142L14.3683 13.3987C14.5333 13.1886 14.8319 13.1402 15.0549 13.2874L19.1026 15.987C19.3299 16.1379 19.398 16.441 19.2572 16.6746Z" fill="#202020"/>
<path d="M11.3328 3.33506C14.4605 3.33854 16.9951 5.8732 16.9986 9.0009C16.9986 9.18497 17.1478 9.33417 17.3319 9.33417C17.516 9.33417 17.6652 9.18497 17.6652 9.0009C17.6613 5.50521 14.8285 2.67235 11.3328 2.66852C11.1487 2.66852 10.9995 2.81771 10.9995 3.00179C10.9995 3.18586 11.1487 3.33506 11.3328 3.33506Z" fill="#202020"/>
<path d="M11.3328 5.33475C13.3565 5.33714 14.9965 6.97713 14.9989 9.00089C14.9989 9.18496 15.1482 9.33416 15.3322 9.33416C15.5163 9.33416 15.6655 9.18496 15.6655 9.00089C15.6627 6.60914 13.7245 4.67095 11.3328 4.66821C11.1487 4.66821 10.9995 4.81741 10.9995 5.00148C10.9995 5.18556 11.1487 5.33475 11.3328 5.33475Z" fill="#202020"/>
<path d="M11.3328 7.33445C12.2526 7.33554 12.9981 8.08098 12.9992 9.00088C12.9992 9.18496 13.1484 9.33415 13.3325 9.33415C13.5165 9.33415 13.6658 9.18496 13.6658 9.00088C13.6643 7.71303 12.6206 6.66935 11.3328 6.66791C11.1487 6.66791 10.9995 6.8171 10.9995 7.00118C10.9995 7.18525 11.1487 7.33445 11.3328 7.33445Z" fill="#202020"/>
</g>
<defs>
<clipPath id="clip0">
<rect width="20" height="20" fill="white"/>
</clipPath>
</defs>
</svg>
