<svg width="76" height="76" viewBox="0 0 76 76" fill="none" xmlns="http://www.w3.org/2000/svg">
<path d="M43.9375 41.5625V17.8125H48.6875L38 2.375L27.3125 17.8125H32.0625V41.5625" fill="#508C45"/>
<path d="M43.9375 51.0625V66.5H32.0625V51.0625H28.5V39.1875C28.5 37.9277 29.0004 36.7195 29.8912 35.8287C30.782 34.9379 31.9902 34.4375 33.25 34.4375H42.75C44.0098 34.4375 45.218 34.9379 46.1088 35.8287C46.9996 36.7195 47.5 37.9277 47.5 39.1875V51.0625H43.9375Z" fill="#BCBDBC"/>
<path d="M47.5 39.1875C47.5 37.9277 46.9996 36.7195 46.1088 35.8287C45.218 34.9379 44.0098 34.4375 42.75 34.4375H33.25C32.5777 34.4392 31.9137 34.585 31.3025 34.865C31.0225 35.4762 30.8767 36.1402 30.875 36.8125V45.125C30.875 46.0698 31.2503 46.976 31.9184 47.6441C32.5865 48.3122 33.4927 48.6875 34.4375 48.6875C34.4375 48.6875 34.4375 50.1814 34.4375 52.2393C34.4378 54.9778 35.3832 57.6323 37.114 59.7545C38.8448 61.8767 41.255 63.3365 43.9375 63.8875V51.0625H47.5V39.1875Z" fill="#DFE0DF"/>
<path d="M42.75 40.375H45.125V51.0625H42.75V40.375Z" fill="#747574"/>
<path d="M30.875 40.375H33.25V51.0625H30.875V40.375Z" fill="#747574"/>
<path d="M36.8125 51.0613H39.1875V66.5H36.8125V51.0613Z" fill="#747574"/>
<path d="M73.625 73.625L59.375 53.4375V29.6875H64.125L53.4375 14.25L42.75 29.6875H47.5V53.4375L53.4387 73.625H73.625Z" fill="#FCE95F"/>
<path d="M22.5613 73.625L28.5 53.4375V29.6875H33.25L22.5625 14.25L11.875 29.6875H16.625V53.4375L2.375 73.625H22.5625H22.5613Z" fill="#3377CC"/>
<path d="M38 33.25C41.2792 33.25 43.9375 30.5917 43.9375 27.3125C43.9375 24.0333 41.2792 21.375 38 21.375C34.7208 21.375 32.0625 24.0333 32.0625 27.3125C32.0625 30.5917 34.7208 33.25 38 33.25Z" fill="#BCBDBC"/>
<path d="M38 21.375C37.5401 21.3794 37.0822 21.4372 36.6356 21.5472C35.5838 22.3878 34.8509 23.5626 34.5585 24.8768C34.266 26.191 34.4315 27.5658 35.0275 28.7731C35.6235 29.9803 36.6143 30.9477 37.8355 31.5146C39.0567 32.0816 40.435 32.2141 41.7418 31.8903C42.6947 31.1202 43.385 30.0732 43.7172 28.8939C44.0495 27.7146 44.0073 26.4612 43.5966 25.3069C43.1858 24.1526 42.4268 23.1543 41.4242 22.45C40.4217 21.7457 39.2252 21.37 38 21.375Z" fill="#DFE0DF"/>
</svg>
