<svg width="55" height="55" viewBox="0 0 55 55" fill="none" xmlns="http://www.w3.org/2000/svg">
<path d="M46.9454 8.05449C41.7513 2.86054 34.8455 0 27.5 0C20.1544 0 13.2484 2.86054 8.05449 8.05449C2.86043 13.2486 0 20.1545 0 27.5C0 34.8455 2.86043 41.7513 8.05449 46.9454C13.2486 52.1395 20.1544 55 27.5 55C34.8455 55 41.7513 52.1395 46.9454 46.9454C52.1395 41.7513 55 34.8455 55 27.5C55 20.1545 52.1395 13.2487 46.9454 8.05449ZM27.5 51.7773C14.1134 51.7773 3.22266 40.8866 3.22266 27.5C3.22266 14.1134 14.1134 3.22266 27.5 3.22266C40.8866 3.22266 51.7773 14.1134 51.7773 27.5C51.7773 40.8866 40.8866 51.7773 27.5 51.7773Z" fill="#3DC442"/>
<path d="M40.6381 18.6761C40.009 18.0471 38.9887 18.0471 38.3595 18.6762L24.1305 32.9052L16.6403 25.415C16.0112 24.7858 14.9909 24.7858 14.3616 25.415C13.7323 26.0442 13.7323 27.0645 14.3616 27.6937L22.9911 36.3233C23.3058 36.6379 23.7181 36.7952 24.1304 36.7952C24.5427 36.7952 24.9552 36.6378 25.2697 36.3233L40.6381 20.9549C41.2674 20.3257 41.2674 19.3054 40.6381 18.6761Z" fill="#3DC442"/>
</svg>
