<svg width="76" height="76" viewBox="0 0 76 76" fill="none" xmlns="http://www.w3.org/2000/svg">
<path d="M38 76C58.9868 76 76 58.9868 76 38C76 17.0132 58.9868 0 38 0C17.0132 0 0 17.0132 0 38C0 58.9868 17.0132 76 38 76Z" fill="#EAB14D"/>
<path d="M38.0005 0C37.3222 0 36.6481 0.0185547 35.9785 0.0535859C56.0253 1.10482 71.9566 17.6915 71.9566 38C71.9566 58.3085 56.0253 74.8952 35.9785 75.9464C36.6481 75.9814 37.3222 76 38.0005 76C58.9874 76 76.0005 58.9868 76.0005 38C76.0005 17.0132 58.9874 0 38.0005 0Z" fill="#E49542"/>
<path d="M38 67.6114C54.3539 67.6114 67.6114 54.3539 67.6114 38C67.6114 21.6461 54.3539 8.38867 38 8.38867C21.6461 8.38867 8.38867 21.6461 8.38867 38C8.38867 54.3539 21.6461 67.6114 38 67.6114Z" fill="#F4FBFF"/>
<path d="M38.0005 8.38867C37.1804 8.38867 36.3686 8.42355 35.5654 8.48887C50.7801 9.72743 62.7418 22.4662 62.7418 38C62.7418 53.5339 50.7801 66.2725 35.5654 67.5112C36.3686 67.5766 37.1804 67.6115 38.0005 67.6115C54.3545 67.6115 67.6119 54.354 67.6119 38.0002C67.6119 21.6464 54.3545 8.38867 38.0005 8.38867Z" fill="#DAF1F4"/>
<path d="M38.0003 17.5025C37.367 17.5025 36.8535 16.989 36.8535 16.3556V14.6723C36.8535 14.039 37.367 13.5255 38.0003 13.5255C38.6337 13.5255 39.1473 14.039 39.1473 14.6723V16.3556C39.1473 16.989 38.6337 17.5025 38.0003 17.5025Z" fill="#2B4D66"/>
<path d="M53.2426 23.8679C52.949 23.8679 52.6556 23.7558 52.4316 23.532C51.9837 23.084 51.9837 22.358 52.4317 21.91L53.622 20.7198C54.0699 20.2719 54.796 20.272 55.244 20.7198C55.6918 21.1678 55.6918 21.8938 55.2439 22.3418L54.0535 23.5321C53.8295 23.7558 53.5361 23.8679 53.2426 23.8679Z" fill="#2B4D66"/>
<path d="M61.2032 39.147H59.5199C58.8863 39.147 58.373 38.6336 58.373 38.0002C58.373 37.3668 58.8865 36.8534 59.5199 36.8534H61.2032C61.8367 36.8534 62.35 37.3668 62.35 38.0002C62.35 38.6336 61.8365 39.147 61.2032 39.147Z" fill="#2B4D66"/>
<path d="M54.3449 55.5799C54.0515 55.5799 53.7578 55.4679 53.5339 55.244L52.3437 54.0538C51.8959 53.6059 51.8959 52.8798 52.3437 52.4317C52.7917 51.984 53.5177 51.984 53.9658 52.4317L55.156 53.6219C55.6038 54.0699 55.6038 54.7959 55.156 55.244C54.932 55.4679 54.6384 55.5799 54.3449 55.5799Z" fill="#2B4D66"/>
<path d="M37.8753 62.3502C37.242 62.3502 36.7285 61.8368 36.7285 61.2034V59.5201C36.7285 58.8866 37.242 58.3733 37.8753 58.3733C38.5087 58.3733 39.0222 58.8867 39.0222 59.5201V61.2034C39.0222 61.8368 38.5087 62.3502 37.8753 62.3502Z" fill="#2B4D66"/>
<path d="M21.4427 55.4916C21.1493 55.4916 20.8557 55.3795 20.6318 55.1555C20.1838 54.7077 20.184 53.9815 20.6318 53.5335L21.8222 52.3434C22.2701 51.8957 22.9961 51.8955 23.4441 52.3435C23.892 52.7914 23.892 53.5175 23.444 53.9655L22.2537 55.1557C22.0298 55.3797 21.7362 55.4916 21.4427 55.4916Z" fill="#2B4D66"/>
<path d="M16.3555 39.0222H14.6722C14.0388 39.0222 13.5254 38.5087 13.5254 37.8754C13.5254 37.242 14.0388 36.7285 14.6722 36.7285H16.3555C16.9889 36.7285 17.5023 37.242 17.5023 37.8754C17.5025 38.5087 16.9889 39.0222 16.3555 39.0222Z" fill="#2B4D66"/>
<path d="M22.721 23.7795C22.4275 23.7795 22.1341 23.6676 21.9101 23.4436L20.7197 22.2535C20.2719 21.8055 20.2718 21.0795 20.7196 20.6315C21.1676 20.1836 21.8936 20.1835 22.3416 20.6313L23.5319 21.8217C23.9797 22.2695 23.9799 22.9956 23.532 23.4436C23.3079 23.6675 23.0144 23.7795 22.721 23.7795Z" fill="#2B4D66"/>
<path d="M37.9996 39.1469H28.2591C27.6258 39.1469 27.1123 38.6334 27.1123 38C27.1123 37.3666 27.6258 36.8531 28.2591 36.8531H36.8526V22.2622C36.8526 21.6288 37.3661 21.1154 37.9995 21.1154C38.6328 21.1154 39.1463 21.6288 39.1463 22.2622V38C39.1464 38.6334 38.633 39.1469 37.9996 39.1469Z" fill="#2B4D66"/>
<path d="M49.7657 45.198C49.589 45.198 49.41 45.157 49.2421 45.0708L37.4752 39.0198C36.9119 38.7302 36.6901 38.0388 36.9797 37.4755C37.2693 36.9122 37.9607 36.6903 38.5242 36.98L50.2911 43.0308C50.8544 43.3205 51.0764 44.012 50.7866 44.5751C50.5831 44.9707 50.1817 45.198 49.7657 45.198Z" fill="#DA4A54"/>
<path d="M38.0005 41.061C39.6911 41.061 41.0616 39.6905 41.0616 37.9999C41.0616 36.3093 39.6911 34.9388 38.0005 34.9388C36.3099 34.9388 34.9395 36.3093 34.9395 37.9999C34.9395 39.6905 36.3099 41.061 38.0005 41.061Z" fill="#365E7D"/>
</svg>
