<svg width="27" height="27" viewBox="0 0 27 27" fill="none" xmlns="http://www.w3.org/2000/svg">
<path d="M22.6631 1.81939H4.31057C2.39174 1.81939 0.830566 3.38025 0.830566 5.29939V16.5307C0.830566 18.4455 2.38494 20.0039 4.29821 20.0107V25.1074L11.6227 20.0107H22.6631C24.5819 20.0107 26.1431 18.4495 26.1431 16.5307V5.29939C26.1431 3.38025 24.5819 1.81939 22.6631 1.81939ZM24.6599 16.5307C24.6599 17.6317 23.7641 18.5276 22.6631 18.5276H11.1573L5.78137 22.2685V18.5276H4.31057C3.20948 18.5276 2.31372 17.6317 2.31372 16.5307V5.29939C2.31372 4.19815 3.20948 3.30254 4.31057 3.30254H22.6631C23.7641 3.30254 24.6599 4.19815 24.6599 5.29939V16.5307Z" fill="#C5C5C5"/>
<path d="M7.60522 7.06002H19.3682V8.54317H7.60522V7.06002Z" fill="#C5C5C5"/>
<path d="M7.60522 10.2241H19.3682V11.7072H7.60522V10.2241Z" fill="#C5C5C5"/>
<path d="M7.60522 13.3881H19.3682V14.8713H7.60522V13.3881Z" fill="#C5C5C5"/>
</svg>
