<svg width="76" height="76" viewBox="0 0 76 76" fill="none" xmlns="http://www.w3.org/2000/svg">
<path d="M27.3125 7.125C27.3125 5.15749 25.7175 3.5625 23.75 3.5625C21.7825 3.5625 20.1875 5.15749 20.1875 7.125V9.5C20.1875 11.4675 21.7825 13.0625 23.75 13.0625C25.7175 13.0625 27.3125 11.4675 27.3125 9.5V7.125Z" fill="#FEC9A3"/>
<path d="M26.125 26.125H32.0625L36.8125 34.4375L39.1875 35.625L33.25 39.1875L28.5 30.875H20.1875L15.4375 36.8125H5.9375L3.5625 39.1875V32.0625H11.875L16.625 26.125H26.125Z" fill="#4D5E78"/>
<path d="M40.375 7.125H35.625L34.4375 13.0625H28.5H19H9.5L5.9375 23.75H10.6875L13.0625 17.8125H18.2084L16.625 26.125H26.125L27.7084 17.8125H38L40.375 7.125Z" fill="#F35244"/>
<path d="M27.3125 40.375C27.3125 38.4075 25.7175 36.8125 23.75 36.8125C21.7825 36.8125 20.1875 38.4075 20.1875 40.375V42.75C20.1875 44.7175 21.7825 46.3125 23.75 46.3125C25.7175 46.3125 27.3125 44.7175 27.3125 42.75V40.375Z" fill="#FEC9A3"/>
<path d="M26.125 59.375H32.0625L36.8125 67.6875L39.1875 68.875L33.25 72.4375L28.5 64.125H20.1875L15.4375 70.0625H5.9375L3.5625 72.4375V65.3125H11.875L16.625 59.375H26.125Z" fill="#4D5E78"/>
<path d="M40.375 40.375H35.625L34.4375 46.3125H28.5H19H9.5L5.9375 57H10.6875L13.0625 51.0625H18.2084L16.625 59.375H26.125L27.7084 51.0625H38L40.375 40.375Z" fill="#348FD9"/>
<path d="M71.6996 68.1371L60.5625 57L57 60.5625L68.1371 71.6996C68.3704 71.9363 68.6483 72.1245 68.9546 72.2533C69.261 72.3821 69.5898 72.4491 69.9221 72.4503C70.2545 72.4515 70.5838 72.3869 70.891 72.2603C71.1983 72.1336 71.4775 71.9474 71.7125 71.7125C71.9475 71.4775 72.1336 71.1983 72.2603 70.891C72.3869 70.5837 72.4515 70.2544 72.4503 69.9221C72.4491 69.5898 72.3822 69.261 72.2533 68.9546C72.1245 68.6483 71.9363 68.3704 71.6996 68.1371Z" fill="#DE4132"/>
<path d="M47.5 66.5C57.3376 66.5 65.3125 58.5251 65.3125 48.6875C65.3125 38.8499 57.3376 30.875 47.5 30.875C37.6624 30.875 29.6875 38.8499 29.6875 48.6875C29.6875 58.5251 37.6624 66.5 47.5 66.5Z" fill="#F35244"/>
<path d="M47.5 61.75C54.7142 61.75 60.5625 55.9017 60.5625 48.6875C60.5625 41.4733 54.7142 35.625 47.5 35.625C40.2858 35.625 34.4375 41.4733 34.4375 48.6875C34.4375 55.9017 40.2858 61.75 47.5 61.75Z" fill="#5AC6D4"/>
<path d="M47.5 58.1875C52.7467 58.1875 57 53.9342 57 48.6875C57 43.4408 52.7467 39.1875 47.5 39.1875C42.2533 39.1875 38 43.4408 38 48.6875C38 53.9342 42.2533 58.1875 47.5 58.1875Z" fill="#60D1E0"/>
<path d="M34.4375 48.6875C40.7551 40.7708 54.2449 40.7708 60.5625 48.6875C54.2449 56.6041 40.7551 56.6041 34.4375 48.6875Z" fill="#E0E0DE"/>
<path d="M53.4375 48.6874C53.4375 50.0906 52.9406 51.4485 52.0348 52.5202C51.1291 53.5918 49.8731 54.3081 48.4895 54.542C47.106 54.7758 45.6843 54.5121 44.4767 53.7976C43.269 53.0831 42.3534 51.964 41.8923 50.6388C41.4312 49.3136 41.4543 47.8678 41.9575 46.558C42.4608 45.2482 43.4116 44.1589 44.6415 43.4834C45.8714 42.8079 47.3007 42.5897 48.6761 42.8677C50.0515 43.1456 51.284 43.9017 52.155 45.0017C52.9856 46.0507 53.4375 47.3495 53.4375 48.6874Z" fill="#348FD9"/>
<path d="M53.437 48.6875C53.4373 49.9606 53.0284 51.2 52.2707 52.223C51.5129 53.2459 50.4465 53.9983 49.2286 54.369C48.0108 54.7398 46.706 54.7093 45.5068 54.282C44.3076 53.8548 43.2775 53.0535 42.5684 51.9962C45.9577 49.943 49.1649 47.603 52.1545 45.0018C52.9869 46.0498 53.4391 47.3492 53.437 48.6875Z" fill="#3086CD"/>
<path d="M47.5 51.0625C48.8117 51.0625 49.875 49.9992 49.875 48.6875C49.875 47.3758 48.8117 46.3125 47.5 46.3125C46.1883 46.3125 45.125 47.3758 45.125 48.6875C45.125 49.9992 46.1883 51.0625 47.5 51.0625Z" fill="#2A71AD"/>
<path d="M72.4375 8.3125V27.3125C72.4375 28.5723 71.9371 29.7805 71.0463 30.6713C70.1555 31.5621 68.9473 32.0625 67.6875 32.0625H59.375L52.25 39.1875V32.0625H43.9375C43.3134 32.0636 42.6953 31.9415 42.1185 31.7032C41.5417 31.4648 41.0176 31.115 40.5763 30.6737C40.135 30.2324 39.7852 29.7083 39.5469 29.1315C39.3085 28.5548 39.1864 27.9366 39.1875 27.3125V8.3125C39.1875 7.05272 39.688 5.84454 40.5788 4.95374C41.4695 4.06295 42.6777 3.5625 43.9375 3.5625H67.6875C68.3114 3.56215 68.9292 3.68477 69.5057 3.92336C70.0821 4.16194 70.6059 4.51181 71.047 4.95296C71.4882 5.39411 71.8381 5.91788 72.0767 6.49434C72.3152 7.07079 72.4379 7.68862 72.4375 8.3125Z" fill="#FFB531"/>
<path d="M72.4371 8.31246V27.3125C72.4371 28.5722 71.9367 29.7804 71.0459 30.6712C70.1551 31.562 68.9469 32.0625 67.6871 32.0625H59.3746L52.2496 39.1875V32.0625H43.9371C43.4954 32.0626 43.0559 32.0016 42.6309 31.8814C51.7538 26.0211 62.0346 17.1682 70.123 4.2334C70.8286 4.65508 71.4127 5.25259 71.8183 5.96755C72.2239 6.68251 72.4371 7.49046 72.4371 8.31246Z" fill="#FFA912"/>
<path d="M68.875 27.3125H43.9375C43.6226 27.3125 43.3205 27.1874 43.0978 26.9647C42.8751 26.742 42.75 26.4399 42.75 26.125V8.3125H45.125V24.9375H68.875V27.3125Z" fill="#F79D16"/>
<path d="M61.7508 22.5625C61.5767 22.5624 61.4047 22.524 61.247 22.4502C61.0893 22.3763 60.9498 22.2688 60.8382 22.1352L55.9188 16.232L52.0513 22.0338C51.9461 22.1921 51.8043 22.3227 51.638 22.4147C51.4718 22.5067 51.2858 22.5574 51.0958 22.5625C50.9055 22.571 50.7161 22.532 50.5447 22.4491C50.3732 22.3661 50.2251 22.2419 50.1136 22.0875L47.5008 18.604L44.8883 22.0875L42.9883 20.6625L46.5508 15.9125C46.6661 15.7721 46.8111 15.659 46.9754 15.5814C47.1396 15.5037 47.3191 15.4634 47.5008 15.4634C47.6825 15.4634 47.8619 15.5037 48.0262 15.5814C48.1904 15.659 48.3355 15.7721 48.4508 15.9125L51.0067 19.3196L54.8256 13.5914C54.928 13.4377 55.0648 13.31 55.2253 13.2185C55.3857 13.127 55.5653 13.0743 55.7497 13.0644C55.9347 13.052 56.1199 13.0842 56.2898 13.1583C56.4597 13.2323 56.6094 13.3461 56.7262 13.49L61.554 19.2843L66.6507 10.1108L68.7264 11.2648L62.7889 21.9523C62.6953 22.1208 62.5619 22.264 62.4005 22.3695C62.2391 22.475 62.0544 22.5395 61.8624 22.5576C61.8251 22.5609 61.7879 22.5625 61.7508 22.5625Z" fill="#F98500"/>
</svg>
