<svg width="76" height="76" viewBox="0 0 76 76" fill="none" xmlns="http://www.w3.org/2000/svg">
<g clip-path="url(#clip0)">
<path d="M30.645 11.0323V1.22583H57.6128V11.0323H46.5805L39.2257 17.1613V11.0323H30.645Z" fill="#E6E9ED"/>
<path d="M46.5809 62.5161V74.7742H41.6777L39.226 69.871H19.6131L17.1615 74.7742H12.2583V57.6129H46.5809V62.5161Z" fill="#E6E9ED"/>
<path d="M46.5809 52.7097V57.6129H12.2583V52.7097H46.5809Z" fill="#E6E9ED"/>
<path d="M50.2583 47.8064V52.7096H9.80664V47.8064H50.2583Z" fill="#AAB2BD"/>
<path d="M39.2257 69.871L41.6773 74.7742H17.1611L19.6127 69.871H39.2257Z" fill="#838F9B"/>
<path d="M60.0644 62.5161L61.2902 74.7742H56.3869L55.1611 62.5161H60.0644Z" fill="#838F9B"/>
<path d="M67.4193 40.4517V55.1613C67.4193 59.2188 64.1219 62.5162 60.0644 62.5162H46.5806V57.6129H57.6128C60.3218 57.6129 62.5161 55.4187 62.5161 52.7097V40.4517H67.4193Z" fill="#CF9E76"/>
<path d="M59.3043 38.7602C59.7945 38.27 60.0644 37.608 60.0644 36.9215C60.0644 36.2104 59.77 35.5484 59.3043 35.0828C58.9242 34.7147 58.4466 34.4453 57.6128 34.3346V34.3226H59.3043C59.8071 34.3226 60.2973 34.4328 60.7384 34.6656C61.8295 35.2055 62.516 36.3206 62.516 37.5344V52.7097C62.516 55.4187 60.3218 57.613 57.6128 57.613H46.5806V52.7097H50.258V47.8065H49.7552C50.0742 47.8065 50.3927 47.6718 50.6135 47.451L59.3043 38.7602Z" fill="#FCD770"/>
<path d="M36.774 47.8064H14.7095V41.9958C14.7095 40.3534 15.8006 38.9193 17.3819 38.4656L23.2901 36.7742C23.2901 36.7742 24.5159 39.2258 26.9675 39.2258C29.4192 39.2258 30.645 36.7742 30.645 36.7742L36.5531 38.4656C38.1345 38.9193 39.2256 40.3534 39.2256 41.9958V42.9032H36.774C36.1 42.9032 35.4871 43.1731 35.0454 43.6262C34.5923 44.068 34.3224 44.6809 34.3224 45.3548C34.3224 46.7033 35.4255 47.8064 36.774 47.8064Z" fill="#69D6F4"/>
<path d="M57.6131 34.3346C58.4468 34.4453 58.9245 34.7147 59.3045 35.0828C59.7702 35.5484 60.0647 36.2104 60.0647 36.9215C60.0647 37.608 59.7948 38.27 59.3045 38.7602L50.6138 47.451C50.3929 47.6718 50.0745 47.8065 49.7555 47.8065H36.7744C35.4259 47.8065 34.3228 46.7034 34.3228 45.3549C34.3228 44.6809 34.5927 44.068 35.0458 43.6263C35.4875 43.1732 36.1004 42.9033 36.7744 42.9033H47.8066L55.6271 35.0828C56.1173 34.5926 56.7793 34.3226 57.4658 34.3226C57.5149 34.3226 57.564 34.3226 57.6131 34.3346Z" fill="#F0D0B4"/>
<path d="M62.5164 25.7419V28.1936C62.5164 31.5765 59.7703 34.3226 56.3873 34.3226C53.0044 34.3226 50.2583 31.5765 50.2583 28.1936V25.7419C50.2583 22.359 53.0044 19.6129 56.3873 19.6129C58.0788 19.6129 59.6111 20.2994 60.7267 21.4025C61.8298 22.5182 62.5164 24.0505 62.5164 25.7419Z" fill="#F0D0B4"/>
<path d="M23.2905 33.0968C24.308 33.8689 25.5829 34.3226 26.9679 34.3226C28.353 34.3226 29.6279 33.8689 30.6454 33.0968V36.7742C30.6454 36.7742 29.4196 39.2258 26.9679 39.2258C24.5163 39.2258 23.2905 36.7742 23.2905 36.7742V33.0968Z" fill="#F0D0B4"/>
<path d="M33.0969 25.7419V28.1936C33.0969 30.1915 32.1285 31.9811 30.6453 33.0968C29.6278 33.8689 28.3529 34.3226 26.9679 34.3226C25.5829 34.3226 24.308 33.8689 23.2905 33.0968C21.8073 31.9811 20.8389 30.1915 20.8389 28.1936V25.7419C20.8389 22.359 23.585 19.6129 26.9679 19.6129C28.6594 19.6129 30.1916 20.2994 31.3073 21.4025C32.4104 22.5182 33.0969 24.0505 33.0969 25.7419Z" fill="#F0D0B4"/>
<path d="M38.0001 19.7781L47.0242 12.2581H58.8388V0H29.4194V12.2581H38.0001V19.7781ZM31.871 9.80645V2.45161H56.3872V9.80645H46.1372L40.4517 14.5445V9.80645H31.871Z" fill="black"/>
<path d="M34.3228 4.9032H36.7744V7.35481H34.3228V4.9032Z" fill="black"/>
<path d="M39.2256 4.9032H49.032V7.35481H39.2256V4.9032Z" fill="black"/>
<path d="M51.4839 4.9032H53.9355V7.35481H51.4839V4.9032Z" fill="black"/>
<path d="M62.3994 73.5484L61.4082 63.6252C65.501 62.9782 68.6452 59.4342 68.6452 55.1613V39.2258H63.7419V37.5319C63.7419 35.8656 62.8262 34.3693 61.3538 33.6019C62.8178 32.257 63.7419 30.3339 63.7419 28.1935V25.7419C63.7419 21.6856 60.4434 18.3871 56.3871 18.3871C52.3308 18.3871 49.0323 21.6856 49.0323 25.7419V28.1935C49.0323 31.367 51.0559 34.0688 53.878 35.0983L47.2989 41.6774H40.4247C40.2876 39.634 38.884 37.8527 36.8957 37.2841L31.871 35.85V33.6606C33.3715 32.3133 34.3226 30.3656 34.3226 28.1935V25.7419C34.3226 21.6856 31.024 18.3871 26.9677 18.3871C22.9114 18.3871 19.6129 21.6856 19.6129 25.7419V28.1935C19.6129 30.3644 20.564 32.3121 22.0645 33.6606V35.8512L17.0398 37.2853C14.9461 37.8821 13.4839 39.8213 13.4839 42V46.5806H8.58065V53.9355H11.0323V73.5484H0V76H76V73.5484H62.3994ZM51.4839 53.9355V48.314L60.1699 39.628C60.7977 39.0001 61.1712 38.1568 61.255 37.277C61.2658 37.3625 61.2903 37.4433 61.2903 37.5319V52.7097C61.2903 54.7369 59.6402 56.3871 57.6129 56.3871H47.8065V53.9355H51.4839ZM47.8065 63.7419H54.0522L55.0326 73.5484H47.8065V63.7419ZM56.5158 63.7419H58.9554L59.9358 73.5484H57.4962L56.5158 63.7419ZM63.7419 52.7097V41.6774H66.1936V55.1613C66.1936 58.5406 63.4439 61.2903 60.0645 61.2903H47.8065V58.8387H57.6129C60.9923 58.8387 63.7419 56.089 63.7419 52.7097ZM51.4839 28.1935V25.7419C51.4839 23.0377 53.6829 20.8387 56.3871 20.8387C59.0913 20.8387 61.2903 23.0377 61.2903 25.7419V28.1935C61.2903 30.8977 59.0913 33.0968 56.3871 33.0968C53.6829 33.0968 51.4839 30.8977 51.4839 28.1935ZM48.314 44.129L56.4924 35.9506C56.7486 35.6944 57.103 35.5484 57.4645 35.5484C58.2222 35.5484 58.8387 36.1649 58.8387 36.9226C58.8387 37.2841 58.6927 37.6385 58.4365 37.8946L49.7505 46.5806H36.7742C36.0978 46.5806 35.5484 46.0312 35.5484 45.3548C35.5484 44.6785 36.0978 44.129 36.7742 44.129H48.314ZM22.0645 25.7419C22.0645 23.0377 24.2635 20.8387 26.9677 20.8387C29.6719 20.8387 31.871 23.0377 31.871 25.7419V28.1935C31.871 30.8977 29.6719 33.0968 26.9677 33.0968C24.2635 33.0968 22.0645 30.8977 22.0645 28.1935V25.7419ZM26.9677 35.5484C27.8284 35.5484 28.6508 35.3916 29.4194 35.1192V36.436C29.1153 36.9053 28.2708 38 26.9677 38C25.6647 38 24.8202 36.9053 24.5161 36.436V35.1192C25.2847 35.3916 26.107 35.5484 26.9677 35.5484ZM15.9355 42C15.9355 40.9101 16.6675 39.9416 17.7131 39.6424L22.763 38.1999C23.4741 39.1264 24.8579 40.4516 26.9677 40.4516C29.0776 40.4516 30.4614 39.1264 31.1725 38.1987L36.2223 39.6412C37.1614 39.9099 37.8162 40.7263 37.9473 41.6762H36.7742C34.7469 41.6762 33.0968 43.3264 33.0968 45.3536C33.0968 45.7852 33.1848 46.1946 33.3224 46.5794H15.9355V42ZM11.0323 49.0322H49.0323V51.4839H11.0323V49.0322ZM13.4839 58.8387H17.1613V56.3871H13.4839V53.9355H45.3548V56.3871H19.6129V58.8387H45.3548V73.5484H42.4352L39.9836 68.6451H18.8552L16.4035 73.5484H13.4839V58.8387ZM39.6939 73.5484H19.1448L20.3707 71.0968H38.4681L39.6939 73.5484Z" fill="black"/>
</g>
<defs>
<clipPath id="clip0">
<rect width="76" height="76" fill="white"/>
</clipPath>
</defs>
</svg>
