<svg width="76" height="76" viewBox="0 0 76 76" fill="none" xmlns="http://www.w3.org/2000/svg">
<path d="M34.4375 11.875H5.9375C5.9375 6.62625 10.1887 2.375 15.4375 2.375H24.9375C30.1863 2.375 34.4375 6.62625 34.4375 11.875Z" fill="#FF826E"/>
<path d="M36.8125 14.25V15.4375C36.8125 16.0906 36.2781 16.625 35.625 16.625H32.0625H15.4375H5.9375H4.75C4.09688 16.625 3.5625 16.0906 3.5625 15.4375V13.0625C3.5625 12.4094 4.09688 11.875 4.75 11.875H5.9375H34.4375H35.625C36.2781 11.875 36.8125 12.4094 36.8125 13.0625V14.25Z" fill="#FC6E51"/>
<path d="M15.4375 30.875V35.625L13.6444 34.9481C9.01312 33.2144 5.9375 28.785 5.9375 23.8331V16.625H15.4375V21.375H14.6419C13.5494 21.375 12.5637 21.8144 11.8512 22.5387C11.1269 23.2512 10.6875 24.2369 10.6875 25.3294C10.6875 26.5763 11.2694 27.7519 12.2669 28.5L15.4375 30.875Z" fill="#B27946"/>
<path d="M21.375 61.75V68.875H13.775C7.48125 68.875 2.375 63.7688 2.375 57.475C2.375 53.485 3.71688 49.7325 6.02063 46.7163C7.87313 44.2819 10.3669 42.3225 13.2763 41.1112L14.25 49.875L19 45.125L23.75 49.875L24.7713 40.6719L24.9969 40.6956C31.7062 41.5981 37.1331 46.1819 39.33 52.25H28.5C27.1938 52.25 26.125 53.3188 26.125 54.625V59.375H25.2225C24.2844 59.375 23.37 59.755 22.705 60.42L21.375 61.75Z" fill="#B4DD7F"/>
<path d="M22.5625 40.375L24.7713 40.6719L23.75 49.875L19 45.125L22.5625 40.375Z" fill="#A0D468"/>
<path d="M15.4376 40.375L19.0001 45.125L14.2501 49.875L13.2764 41.1112C13.977 40.8262 14.6895 40.5769 15.4376 40.375Z" fill="#A0D468"/>
<path d="M45.125 61.75V71.25C45.125 72.5562 44.0562 73.625 42.75 73.625H28.5C27.1938 73.625 26.125 72.5562 26.125 71.25V68.875H27.3125C29.2838 68.875 30.875 67.2837 30.875 65.3125V62.9375C30.875 60.9663 29.2838 59.375 27.3125 59.375H26.125V54.625C26.125 53.3188 27.1938 52.25 28.5 52.25H39.33H42.75C44.0562 52.25 45.125 53.3188 45.125 54.625V61.75Z" fill="#E6E9ED"/>
<path d="M34.0219 23.1325C34.295 23.5362 34.4375 24.0113 34.4375 24.4863C34.4375 25.4956 33.8675 26.41 32.9769 26.8613L32.0625 27.3125V30.875C32.0625 33.4994 29.9369 35.625 27.3125 35.625H22.5625V39.1875V40.375L19 45.125L15.4375 40.375V35.625V30.875L12.2669 28.5C11.2694 27.7519 10.6875 26.5763 10.6875 25.3294C10.6875 24.2369 11.1269 23.2512 11.8512 22.5387C12.5637 21.8144 13.5494 21.375 14.6419 21.375H15.4375V16.625H32.0625V20.1875L34.0219 23.1325Z" fill="#F0D0B4"/>
<path d="M30.875 62.9375V65.3125C30.875 67.2838 29.2838 68.875 27.3125 68.875H26.125H21.375V61.75L22.705 60.42C23.37 59.755 24.2844 59.375 25.2225 59.375H26.125H27.3125C29.2838 59.375 30.875 60.9663 30.875 62.9375Z" fill="#F0D0B4"/>
<path d="M73.625 4.75V23.75C73.625 25.0562 72.5562 26.125 71.25 26.125H61.75H52.25C50.9438 26.125 49.875 25.0562 49.875 23.75V14.25V4.75C49.875 3.44375 50.9438 2.375 52.25 2.375H57V9.5H66.5V2.375H71.25C72.5562 2.375 73.625 3.44375 73.625 4.75Z" fill="#D3A06C"/>
<path d="M61.75 73.625C68.3084 73.625 73.625 68.3084 73.625 61.75C73.625 55.1916 68.3084 49.875 61.75 49.875C55.1916 49.875 49.875 55.1916 49.875 61.75C49.875 68.3084 55.1916 73.625 61.75 73.625Z" fill="#FCD770"/>
<path d="M57 2.375H66.5V9.5H57V2.375Z" fill="#B27946"/>
<path d="M61.75 40.375C63.0617 40.375 64.125 39.3117 64.125 38C64.125 36.6883 63.0617 35.625 61.75 35.625C60.4383 35.625 59.375 36.6883 59.375 38C59.375 39.3117 60.4383 40.375 61.75 40.375Z" fill="#FF826E"/>
<path d="M60.5625 53.4375V55.9847C59.1909 56.4193 58.1875 57.6888 58.1875 59.2016C58.1875 60.4924 58.9047 61.6538 60.0614 62.2333L62.377 63.3911C62.7226 63.5633 62.9375 63.9113 62.9375 64.2984C62.9375 64.8565 62.4827 65.3125 61.9234 65.3125H61.5766C61.0173 65.3125 60.5625 64.8565 60.5625 64.2984V62.9375H58.1875V64.2984C58.1875 65.8124 59.1909 67.0819 60.5625 67.5153V70.0625H62.9375V67.5153C64.3091 67.0807 65.3125 65.8112 65.3125 64.2984C65.3125 63.0076 64.5953 61.8462 63.4386 61.2667L61.123 60.1089C60.7774 59.9367 60.5625 59.5887 60.5625 59.2016C60.5625 58.6435 61.0173 58.1875 61.5766 58.1875H61.9234C62.4827 58.1875 62.9375 58.6435 62.9375 59.2016V60.5625H65.3125V59.2016C65.3125 57.6876 64.3091 56.4181 62.9375 55.9847V53.4375H60.5625Z" fill="black"/>
<path d="M71.25 27.3125C73.2141 27.3125 74.8125 25.7141 74.8125 23.75V4.75C74.8125 2.78587 73.2141 1.1875 71.25 1.1875H52.25C50.2859 1.1875 48.6875 2.78587 48.6875 4.75V13.0625H38C38 11.7527 36.9348 10.6875 35.625 10.6875H35.5549C34.9612 5.35206 30.4285 1.1875 24.9375 1.1875H15.4375C9.9465 1.1875 5.41262 5.35206 4.82006 10.6875H4.75C3.44019 10.6875 2.375 11.7527 2.375 13.0625V15.4375C2.375 16.7473 3.44019 17.8125 4.75 17.8125V23.8331C4.75 29.2481 8.15575 34.162 13.2264 36.0644L14.25 36.4479V39.4915C6.51463 42.009 1.1875 49.2765 1.1875 57.4774C1.1875 64.4159 6.83287 70.0625 13.7726 70.0625H24.9375V71.25C24.9375 73.2141 26.5359 74.8125 28.5 74.8125H42.75C44.7141 74.8125 46.3125 73.2141 46.3125 71.25V62.9375H48.7481C49.3501 69.5851 54.948 74.8125 61.75 74.8125C68.9522 74.8125 74.8125 68.9522 74.8125 61.75C74.8125 54.948 69.5851 49.3501 62.9375 48.7481V41.344C64.3162 40.8524 65.3125 39.5461 65.3125 38C65.3125 36.4539 64.3162 35.1476 62.9375 34.656V27.3125H71.25ZM58.1875 3.5625H65.3125V8.3125H58.1875V3.5625ZM51.0625 4.75C51.0625 4.0945 51.5957 3.5625 52.25 3.5625H55.8125V10.6875H67.6875V3.5625H71.25C71.9043 3.5625 72.4375 4.0945 72.4375 4.75V23.75C72.4375 24.4055 71.9043 24.9375 71.25 24.9375H52.25C51.5957 24.9375 51.0625 24.4055 51.0625 23.75V4.75ZM15.4375 3.5625H24.9375C29.1163 3.5625 32.5755 6.66663 33.155 10.6875H7.22C7.7995 6.66663 11.2587 3.5625 15.4375 3.5625ZM4.75 13.0625H35.625V15.4375L4.75 15.4387V13.0625ZM33.0398 23.7927C33.1764 23.9994 33.25 24.2404 33.25 24.4898C33.25 25.0456 32.9412 25.5455 32.4437 25.7949L30.875 26.5786V30.875C30.875 32.8391 29.2766 34.4375 27.3125 34.4375H21.375V39.9796L19 43.1454L16.625 39.9796V30.2812L12.9841 27.55C12.2894 27.0299 11.875 26.1998 11.875 25.3329C11.875 23.8058 13.1183 22.5625 14.6454 22.5625H16.625V17.8125H30.875V20.5473L33.0398 23.7927ZM23.0945 41.6444L23.465 41.6931L22.8428 47.2874L20.5675 45.0134L23.0945 41.6444ZM14.9934 41.762L17.4325 45.0146L15.1572 47.2886L14.5588 41.9009C14.7013 41.8487 14.8485 41.8083 14.9934 41.762ZM14.06 33.8402C9.91206 32.2857 7.125 28.2637 7.125 23.8331V17.8125H14.25V20.2029C11.5971 20.406 9.5 22.629 9.5 25.3329C9.5 26.9432 10.2695 28.4822 11.5579 29.45L14.25 31.4688V33.9114L14.06 33.8402ZM3.5625 57.4762C3.5625 51.3095 7.01456 45.7544 12.2823 42.9174L13.3428 52.4626L19 46.8041L24.6572 52.4626L25.8151 42.0411C30.9534 43.0397 35.2652 46.379 37.5274 51.0625H28.5C26.5359 51.0625 24.9375 52.6609 24.9375 54.625V58.216C23.7797 58.2861 22.6955 58.7516 21.8666 59.5793L20.8834 60.5625H15.5812C14.2939 60.5625 13.0328 60.04 12.1208 59.1292C11.1969 58.2053 10.6875 56.9763 10.6875 55.6688V52.25H8.3125V55.6688C8.3125 57.6116 9.06894 59.4368 10.4417 60.8083C11.8156 62.1811 13.6408 62.9375 15.5812 62.9375H20.1875V67.6875H13.7726C8.14269 67.6875 3.5625 63.1073 3.5625 57.4762ZM22.5625 62.2416L23.5457 61.2584C23.9958 60.8095 24.5919 60.5625 25.2261 60.5625H27.3125C28.6223 60.5625 29.6875 61.6277 29.6875 62.9375V65.3125C29.6875 66.6223 28.6223 67.6875 27.3125 67.6875H22.5625V62.2416ZM43.9375 71.25C43.9375 71.9055 43.4043 72.4375 42.75 72.4375H28.5C27.8457 72.4375 27.3125 71.9055 27.3125 71.25V70.0625C29.9321 70.0625 32.0625 67.9321 32.0625 65.3125V62.9375C32.0625 60.3179 29.9321 58.1875 27.3125 58.1875V54.625C27.3125 53.9695 27.8457 53.4375 28.5 53.4375H42.75C43.4043 53.4375 43.9375 53.9695 43.9375 54.625V71.25ZM72.4375 61.75C72.4375 67.6436 67.6424 72.4375 61.75 72.4375C55.8576 72.4375 51.0625 67.6436 51.0625 61.75C51.0625 55.8564 55.8576 51.0625 61.75 51.0625C67.6424 51.0625 72.4375 55.8564 72.4375 61.75ZM61.75 39.1875C61.0957 39.1875 60.5625 38.6555 60.5625 38C60.5625 37.3445 61.0957 36.8125 61.75 36.8125C62.4043 36.8125 62.9375 37.3445 62.9375 38C62.9375 38.6555 62.4043 39.1875 61.75 39.1875ZM60.5625 34.656C59.1838 35.1476 58.1875 36.4539 58.1875 38C58.1875 39.5461 59.1838 40.8524 60.5625 41.344V48.7481C54.3068 49.3157 49.3145 54.3068 48.7481 60.5625H46.3125V54.625C46.3125 52.6609 44.7141 51.0625 42.75 51.0625H40.1268C37.5547 44.8162 31.8927 40.4213 25.1477 39.5212L23.75 39.3348V36.8125H27.3125C30.5864 36.8125 33.25 34.1489 33.25 30.875V28.0464L33.5065 27.9193C34.8127 27.2638 35.625 25.9516 35.625 24.4898C35.625 23.7714 35.4148 23.0743 35.0158 22.4758L33.25 19.8277V17.8125H35.625C36.9348 17.8125 38 16.7473 38 15.4375H48.6875V23.75C48.6875 25.7141 50.2859 27.3125 52.25 27.3125H60.5625V34.656Z" fill="black"/>
<path d="M32.0625 55.8125H39.1875V58.1875H32.0625V55.8125Z" fill="black"/>
</svg>
