<svg width="76" height="76" viewBox="0 0 76 76" fill="none" xmlns="http://www.w3.org/2000/svg">
<path d="M20.4763 50.0924H7.57031C6.34048 50.0924 5.34375 51.0891 5.34375 52.319V73.7734C5.34375 75.0032 6.34048 76 7.57031 76H20.4768C21.7061 76 22.7034 75.0032 22.7034 73.7734V52.319C22.7028 51.0891 21.7061 50.0924 20.4763 50.0924Z" fill="#FFD74A"/>
<path d="M44.427 38.1003H31.5205C30.2907 38.1003 29.2939 39.0971 29.2939 40.3269V73.7735C29.2939 75.0033 30.2907 76 31.5205 76H44.427C45.6563 76 46.6536 75.0033 46.6536 73.7735V40.3269C46.6536 39.0971 45.6563 38.1003 44.427 38.1003Z" fill="#FDBF00"/>
<path d="M68.3766 19.9886H55.4707C54.2409 19.9886 53.2441 20.9853 53.2441 22.2151V73.7734C53.2441 75.0032 54.2409 76 55.4707 76H68.3766C69.6065 76 70.6032 75.0032 70.6032 73.7734V22.2151C70.6032 20.9853 69.6065 19.9886 68.3766 19.9886Z" fill="#FF7816"/>
<path d="M70.1787 2.79322C69.8615 2.22034 69.3084 1.8162 68.6659 1.68806L60.4108 0.0436467C59.2053 -0.196984 58.0323 0.585791 57.7923 1.79185C57.5516 2.9979 58.3344 4.17032 59.5405 4.41096L61.8413 4.86903L42.2487 15.8024L33.0241 11.0199C32.3776 10.6848 31.6075 10.6871 30.9634 11.0263L6.67875 23.7954C5.5904 24.3683 5.17234 25.7141 5.74463 26.8024C6.14298 27.5602 6.91648 27.9934 7.71723 27.9934C8.06629 27.9934 8.42115 27.911 8.75165 27.7371L32.0071 15.5084L41.2629 20.3071C41.9274 20.6515 42.7195 20.6393 43.373 20.2752L63.9942 8.76725L63.201 10.8604C62.7649 12.0103 63.3436 13.2958 64.4934 13.7318C64.7532 13.8304 65.0199 13.8767 65.2826 13.8767C66.1807 13.8767 67.0273 13.3288 67.3647 12.4388L70.3132 4.66144C70.5451 4.04914 70.4958 3.36552 70.1787 2.79322Z" fill="#127793"/>
<path d="M44.4272 76C45.6564 76 46.6537 75.0033 46.6537 73.7735V40.3269C46.6537 39.0971 45.6564 38.1003 44.4272 38.1003H37.9736V76H44.4272Z" fill="#FF9F00"/>
<path d="M70.1793 2.79322C69.8622 2.22034 69.309 1.8162 68.6666 1.68806L60.4115 0.0436467C59.206 -0.196984 58.033 0.585791 57.7929 1.79185C57.5523 2.9979 58.3351 4.17033 59.5411 4.41096L61.8419 4.86903L42.2493 15.8024L37.9736 13.5857V18.6018L41.2636 20.3071C41.9275 20.6515 42.7202 20.6394 43.373 20.2752L63.9948 8.76725L63.2016 10.8605C62.7656 12.0103 63.3443 13.2958 64.4941 13.7318C64.7538 13.8304 65.0206 13.8767 65.2827 13.8767C66.1814 13.8767 67.028 13.3288 67.3654 12.4388L70.3133 4.66145C70.5458 4.04914 70.4965 3.36552 70.1793 2.79322Z" fill="#0D5E7B"/>
</svg>
