<svg width="76" height="76" viewBox="0 0 76 76" fill="none" xmlns="http://www.w3.org/2000/svg">
<path d="M26.2436 4.503L21.8665 15.1777L8.37207 1.68329C14.1497 -1.27358 21.4069 -0.333678 26.2436 4.503Z" fill="#4BB3A4"/>
<path d="M15.3721 15.3728L31.5056 37.804L41.3435 27.966L30.6302 17.2527C31.1876 12.7174 29.7245 7.98355 26.2429 4.50211L15.3721 15.3728Z" fill="#60D9CE"/>
<path d="M15.3729 15.3727L34.6553 34.6552L27.9651 41.3454L17.2518 30.6321C12.7175 31.1884 7.98369 29.7253 4.50224 26.2437C-0.334587 21.4069 -1.2739 14.151 1.68282 8.37289L12.0277 18.7178L15.3729 15.3727Z" fill="#4BB3A4"/>
<path d="M49.7559 71.4973L54.133 60.8226L67.6274 74.317C61.8496 77.2739 54.5925 76.334 49.7559 71.4973Z" fill="#60D9CE"/>
<path d="M60.6279 60.6271L44.4942 38.1959L34.6562 48.0338L45.3696 58.7471C44.8122 63.2825 46.2753 68.0163 49.7569 71.4978L60.6279 60.6271Z" fill="#4BB3A4"/>
<path d="M60.6272 60.6271L41.3447 41.3447L48.0349 34.6544L58.7482 45.3678C63.2826 44.8114 68.0164 46.2746 71.4978 49.7562C76.3343 54.5927 77.2738 61.8487 74.3171 67.6268L63.9722 57.2819L60.6272 60.6271Z" fill="#60D9CE"/>
<path d="M72.2568 3.74313L73.9293 5.41558C76.6887 8.17502 76.6887 12.6906 73.9293 15.4501L69.8686 19.5107L58.9805 12.8211L72.2568 3.74313Z" fill="#FF6126"/>
<path d="M70.5844 2.07084L72.2569 3.74328L61.0797 14.9205L56.4893 6.13149L60.5499 2.07084C63.3094 -0.688755 67.825 -0.688755 70.5844 2.07084Z" fill="#FF8151"/>
<path d="M63.1781 12.821L69.8678 19.5107L63.1781 26.2004L52.29 19.5107L63.1781 12.821Z" fill="#A3FDF6"/>
<path d="M56.4894 6.13135L63.1792 12.8211L54.3902 21.6099L49.7998 12.8211L56.4894 6.13135Z" fill="#DBFFFA"/>
<path d="M6.13975 67.7619L7.60913 73.4298L0.891602 75.1092L6.13975 67.7619Z" fill="#000E0F"/>
<path d="M2.57102 68.3917L5.09015 70.9107L0.891602 75.1092L2.57102 68.3917Z" fill="#116371"/>
<path d="M13.0909 60.8103L18.7305 70.6484L7.60882 73.4298L5.08984 70.9107L13.0909 60.8103Z" fill="#FFA07D"/>
<path d="M5.35069 57.269L12.0409 63.9592L5.08944 70.9107L2.57031 68.3917L5.35069 57.269Z" fill="#FFC0A8"/>
<path d="M56.4885 19.5107L63.1783 26.2005L18.7298 70.649L12.04 63.9592L31.1154 38.5863L56.4885 19.5107Z" fill="#FFD15E"/>
<path d="M56.4893 19.51L49.7998 12.8205L5.35178 57.2685L12.0413 63.958L56.4893 19.51Z" fill="#FFEA7C"/>
</svg>
