<svg width="76" height="76" viewBox="0 0 76 76" fill="none" xmlns="http://www.w3.org/2000/svg">
<g clip-path="url(#clip0)">
<path d="M64.7781 24.4604H49.0854V52.9026H74.7967V40.1008L71.798 29.7372C70.8941 26.612 68.0316 24.4604 64.7781 24.4604Z" fill="#FF7058"/>
<path d="M71.0429 39.9695L68.3705 30.7315C67.9098 29.1435 66.4327 28.0321 64.7782 28.0321H52.6572V39.9695H71.0429Z" fill="#84DBFF"/>
<path d="M71.0461 39.9647H52.6509V28.0273L71.0461 39.9647Z" fill="#CDD6E0"/>
<path d="M71.0429 39.9695L68.3705 30.7315C67.9098 29.1435 66.4327 28.0321 64.7782 28.0321H52.6572L71.0429 39.9695Z" fill="#F2F2F2"/>
<path d="M4.7496 10.1815H44.3359C46.9577 10.1815 49.0855 12.3076 49.0855 14.9311V52.901H0V14.9311C0 12.3078 2.12619 10.1815 4.7496 10.1815Z" fill="#FFD15C"/>
<path d="M32.171 10.1895V22.7394L30.3344 20.903L28.4093 22.8282L26.4857 20.903L24.5621 22.8282L22.6353 20.903L20.6864 22.8282L18.7643 20.903L16.9058 22.7617V10.1895H32.171Z" fill="#F2F2F2"/>
<path d="M76 52.8995V58.2665H0.00634766V52.8995H7.93818C9.79053 49.5747 13.3527 47.3265 17.4374 47.3265C21.5062 47.3265 25.0684 49.5747 26.9366 52.8995H52.4578C54.3102 49.5747 57.855 47.3265 61.9397 47.3265C66.0243 47.3265 69.5706 49.5747 71.4389 52.8995H76Z" fill="#334A5E"/>
<path d="M69.5245 58.2332C69.5245 62.4223 66.1286 65.8183 61.9394 65.8183C57.7503 65.8183 54.3574 62.4223 54.3574 58.2332C54.3574 54.044 57.7518 50.6481 61.9394 50.6481C66.1302 50.6481 69.5245 54.044 69.5245 58.2332Z" fill="#40596B"/>
<path d="M64.9889 58.2333C64.9889 59.9163 63.6242 61.2794 61.9428 61.2794C60.2598 61.2794 58.8936 59.9163 58.8936 58.2333C58.8936 56.5503 60.2583 55.1871 61.9428 55.1871C63.6242 55.1857 64.9889 56.5504 64.9889 58.2333Z" fill="#ACB3BA"/>
<path d="M25.0164 58.2332C25.0164 62.4223 21.6188 65.8183 17.4313 65.8183C13.2422 65.8183 9.84619 62.4223 9.84619 58.2332C9.84619 54.044 13.2422 50.6481 17.4313 50.6481C21.6188 50.6481 25.0164 54.044 25.0164 58.2332Z" fill="#40596B"/>
<path d="M20.477 58.2333C20.477 59.9163 19.1139 61.2794 17.4309 61.2794C15.7479 61.2794 14.3833 59.9163 14.3833 58.2333C14.3833 56.5503 15.7481 55.1871 17.4309 55.1871C19.1138 55.1871 20.477 56.5504 20.477 58.2333Z" fill="#ACB3BA"/>
</g>
<defs>
<clipPath id="clip0">
<rect width="76" height="76" fill="white"/>
</clipPath>
</defs>
</svg>
