<svg width="76" height="76" viewBox="0 0 76 76" fill="none" xmlns="http://www.w3.org/2000/svg">
<g clip-path="url(#clip0)">
<path d="M75.3667 2.02667L72.2576 0L65.5407 10.6725C65.4194 10.5984 65.2944 10.5306 65.1662 10.4692C66.7628 9.10717 66.953 6.70858 65.591 5.11195C64.229 3.51532 61.8304 3.32516 60.2338 4.68714C58.6372 6.04913 58.447 8.44772 59.809 10.0443C59.9391 10.197 60.0812 10.339 60.2338 10.4692C60.1055 10.5304 59.9806 10.5984 59.8593 10.6725L53.1424 0L50.0333 2.02667L57.6333 14.1425V39.2667H67.7667L67.7413 14.1425L75.3667 2.02667Z" fill="#8FBAF9"/>
<path d="M15.8334 44.3333H18.3667V46.8666H15.8334V44.3333Z" fill="#F4393D"/>
<path d="M15.8334 49.3999H18.3667V51.9332H15.8334V49.3999Z" fill="#F4393D"/>
<path d="M18.3667 46.8667H20.9V49.4H18.3667V46.8667Z" fill="#F4393D"/>
<path d="M13.3 46.8667H15.8334V49.4H13.3V46.8667Z" fill="#F4393D"/>
<path d="M32.3 0H34.8334V2.53333H32.3V0Z" fill="#F4393D"/>
<path d="M32.3 5.06665H34.8334V7.59998H32.3V5.06665Z" fill="#F4393D"/>
<path d="M34.8334 2.53345H37.3667V5.06678H34.8334V2.53345Z" fill="#F4393D"/>
<path d="M29.7667 2.53345H32.3001V5.06678H29.7667V2.53345Z" fill="#F4393D"/>
<path d="M6.96667 69.6667H17.1V76.0001H6.96667V69.6667Z" fill="#24DB6A"/>
<path d="M42.4333 60.8H52.5667V76H42.4333V60.8Z" fill="#FF7F00"/>
<path d="M60.1667 55.7334H70.3001V76.0001H60.1667V55.7334Z" fill="#F4393D"/>
<path d="M24.7 65.8667H34.8333V76H24.7V65.8667Z" fill="#FCCC38"/>
<path d="M61.4333 25.3333H63.9667V39.2666H61.4333V25.3333Z" fill="#7F95B5"/>
<path d="M62.7 43.0667H52.5666L54.4679 46.3939C42.4072 52.183 17.268 58.9 3.16663 58.9V61.4333C17.6351 61.4333 43.456 54.5259 55.7287 48.6002L58.357 53.2L62.7 43.0667Z" fill="#17AFDC"/>
<path d="M9.49997 0L11.5925 6.77413H18.3666L12.887 10.9592L14.9796 17.7333L9.49997 13.547L4.02037 17.7333L6.1129 10.9592L0.633301 6.77413H7.40743L9.49997 0Z" fill="#FCCC38"/>
<path d="M32.3 19L34.3925 25.7741H41.1667L35.6871 29.9592L37.7796 36.7333L32.3 32.547L26.8204 36.7333L28.9129 29.9592L23.4333 25.7741H30.2075L32.3 19Z" fill="#FCCC38"/>
<path d="M51.3 17.7334H53.8334V20.2667H51.3V17.7334Z" fill="#17AFDC"/>
<path d="M51.3 22.8H53.8334V25.3334H51.3V22.8Z" fill="#17AFDC"/>
<path d="M71.5668 17.7334H74.1001V20.2667H71.5668V17.7334Z" fill="#17AFDC"/>
<path d="M71.5668 22.8H74.1001V25.3334H71.5668V22.8Z" fill="#17AFDC"/>
</g>
<defs>
<clipPath id="clip0">
<rect width="76" height="76" fill="white"/>
</clipPath>
</defs>
</svg>
