<svg width="76" height="76" viewBox="0 0 76 76" fill="none" xmlns="http://www.w3.org/2000/svg">
<g clip-path="url(#clip0)">
<path d="M75.9995 30.9243C75.9995 28.1823 74.4288 25.769 72.0949 24.5914C72.5762 23.6219 72.8331 22.5457 72.8331 21.4243C72.8331 18.6788 71.2588 16.2626 68.9186 15.085C69.6376 13.6441 69.8533 11.9753 69.5048 10.3095C68.7858 7.11459 65.7649 4.79932 62.3195 4.79932H33.2495C30.3173 4.79932 25.0002 6.05988 22.6287 8.4285C22.3342 8.72595 22.166 9.12836 22.166 9.54932V38.0493C22.166 38.6483 22.5052 39.1956 23.0404 39.4653L25.71 40.8012L34.8331 60.5614V71.2993C34.8331 71.7777 35.0482 72.2305 35.4251 72.5344C35.5202 72.6103 37.8633 74.4664 41.166 74.4664C44.83 74.4664 50.666 68.668 50.666 61.7993C50.666 57.4581 49.1144 52.0714 48.149 49.1328H67.7027C71.9494 49.1328 75.5751 45.9884 75.9613 41.9696C75.9613 41.9638 75.9613 41.9603 75.9613 41.9539C76.1578 39.6931 75.4041 37.524 73.9319 35.9086C75.2429 34.6039 75.9995 32.8279 75.9995 30.9243Z" fill="#FFCC80"/>
<path d="M23.0182 3.9794C21.5426 2.46545 19.5543 1.63281 17.4165 1.63281H7.91647C3.54974 1.63281 0 5.18256 0 9.54929V34.8828C0 39.2495 3.54974 42.7993 7.91647 42.7993H23.75C24.6238 42.7993 25.3335 42.0901 25.3335 41.2163V9.54929C25.3335 7.41202 24.5003 5.42319 23.0182 3.9794Z" fill="#2196F3"/>
<path d="M41.1665 74.4663C37.8765 74.4663 35.527 72.6138 35.4255 72.5378C35.0515 72.2369 34.8335 71.7805 34.8335 71.2993V60.5613L25.7133 40.8012L25.3335 40.6116V41.2163C25.3335 42.0901 24.6238 42.7993 23.75 42.7993H7.91647C3.55322 42.7993 0 39.2495 0 34.8828V9.54929C0 5.18256 3.55322 1.63281 7.91647 1.63281H17.4165C20.8427 1.63281 23.7657 3.81763 24.8679 6.86755C27.4992 5.5119 31.049 4.79929 33.25 4.79929H62.3171C65.7654 4.79929 68.7834 7.12384 69.489 10.3315C69.8538 11.9817 69.6381 13.6441 68.9191 15.0879C71.2593 16.2626 72.8335 18.6788 72.8335 21.4243C72.8335 22.5457 72.5767 23.619 72.089 24.5879C74.4263 25.7661 76 28.1788 76 30.9243C76 32.8279 75.2433 34.601 73.9416 35.9085C75.4207 37.5303 76.174 39.6995 75.9652 41.9539C75.5947 45.9791 71.969 49.1328 67.7066 49.1328H48.1494C49.1148 52.0749 50.6665 57.4673 50.6665 61.7993C50.6665 68.668 44.8304 74.4663 41.1665 74.4663ZM38 70.4411C38.6552 70.8024 39.8015 71.2993 41.1665 71.2993C42.9019 71.2993 47.5 66.9865 47.5 61.7993C47.5 56.2259 44.4663 48.1923 44.4379 48.1129C44.2512 47.6287 44.3173 47.0808 44.6153 46.65C44.9099 46.2226 45.3975 45.9663 45.92 45.9663H67.7095C70.3507 45.9663 72.5929 44.0755 72.8144 41.6657C72.982 39.8642 72.1174 38.1444 70.5594 37.1848C70.0753 36.8844 69.7871 36.3457 69.8091 35.7758C69.8311 35.2029 70.1605 34.6897 70.6673 34.4271C72.0038 33.7429 72.8335 32.4 72.8335 30.9243C72.8335 28.9262 71.3231 27.2481 69.325 27.0203C68.7132 26.9501 68.1972 26.532 68.0012 25.9464C67.8081 25.3573 67.9693 24.7148 68.4193 24.2933C69.2235 23.5337 69.6665 22.5138 69.6665 21.4243C69.6665 19.4262 68.156 17.7481 66.1579 17.5203C65.5468 17.4501 65.0307 17.032 64.8341 16.4464C64.6411 15.8573 64.8028 15.2148 65.2522 14.7933C66.2942 13.8087 66.7122 12.4345 66.3985 11.0186C66.0089 9.24545 64.2926 7.96634 62.3171 7.96634H33.25C30.6755 7.96634 26.3656 9.17239 24.8708 10.6707C24.4151 11.1235 23.7372 11.2563 23.1452 11.0122C22.5532 10.7687 22.1665 10.1894 22.1665 9.54929C22.1665 6.93076 20.0356 4.79929 17.4165 4.79929H7.91647C5.29794 4.79929 3.16647 6.93076 3.16647 9.54929V34.8828C3.16647 37.5019 5.29794 39.6328 7.91647 39.6328H22.1665V38.0493C22.1665 37.5019 22.4518 36.9917 22.9174 36.7006C23.3824 36.4153 23.9686 36.3869 24.4562 36.6339L27.6227 38.2174C27.9457 38.3786 28.2025 38.6448 28.351 38.9677L37.851 59.5513C37.9496 59.76 38 59.9879 38 60.2163V70.4411Z" fill="black"/>
<path d="M23.7495 39.6328C22.8757 39.6328 22.166 38.9236 22.166 38.0493V9.54926C22.166 8.67545 22.8757 7.96631 23.7495 7.96631C24.6234 7.96631 25.3331 8.67545 25.3331 9.54926V38.0493C25.3331 38.9236 24.6234 39.6328 23.7495 39.6328Z" fill="black"/>
</g>
<defs>
<clipPath id="clip0">
<rect width="76" height="76" fill="white"/>
</clipPath>
</defs>
</svg>
