<svg width="76" height="76" viewBox="0 0 76 76" fill="none" xmlns="http://www.w3.org/2000/svg">
<path d="M32.7583 58.9655L28.1027 68.2768C27.4557 69.5716 27.9808 71.1456 29.2756 71.7926C29.6394 71.9744 30.0403 72.0689 30.4469 72.0689H45.5525C47 72.0689 48.1732 70.8955 48.173 69.4481C48.173 69.0416 48.0784 68.6404 47.8967 68.2768L43.2411 58.9655V57.6552H32.7583V58.9655Z" fill="#505968"/>
<path d="M5.24138 3.93103H70.7586C73.6533 3.93103 76 6.27769 76 9.17241V53.7241C76 56.6189 73.6533 58.9655 70.7586 58.9655H5.24138C2.34666 58.9655 0 56.6189 0 53.7241V9.17241C0 6.27769 2.34666 3.93103 5.24138 3.93103Z" fill="#75E6FF"/>
<path d="M7.8623 9.17242H34.0692V22.2759H7.8623V9.17242Z" fill="#EE2849"/>
<path d="M41.9312 9.17242H68.1381V22.2759H41.9312V9.17242Z" fill="#FFD33F"/>
<path d="M22.2759 28.8276H7.8621C7.13846 28.8276 6.55176 28.2409 6.55176 27.5173C6.55176 26.7936 7.13846 26.2069 7.8621 26.2069H22.2759C22.9995 26.2069 23.5862 26.7936 23.5862 27.5173C23.5862 28.2409 22.9995 28.8276 22.2759 28.8276Z" fill="#505968"/>
<path d="M7.8623 35.3793H68.1382V48.4827H7.8623V35.3793Z" fill="#FAA41B"/>
<path d="M34.0689 55.0345H26.2068C25.4832 55.0345 24.8965 54.4478 24.8965 53.7242C24.8965 53.0005 25.4832 52.4138 26.2068 52.4138H34.0689C34.7925 52.4138 35.3792 53.0005 35.3792 53.7242C35.3792 54.4478 34.7925 55.0345 34.0689 55.0345Z" fill="#505968"/>
<path d="M34.0691 28.8276H27.5174C26.7937 28.8276 26.207 28.2409 26.207 27.5173C26.207 26.7936 26.7937 26.2069 27.5174 26.2069H34.0691C34.7927 26.2069 35.3794 26.7936 35.3794 27.5173C35.3794 28.2409 34.7927 28.8276 34.0691 28.8276Z" fill="#505968"/>
<path d="M55.0344 28.8276H41.931C41.2073 28.8276 40.6206 28.2409 40.6206 27.5173C40.6206 26.7936 41.2073 26.2069 41.931 26.2069H55.0344C55.7581 26.2069 56.3448 26.7936 56.3448 27.5173C56.3448 28.2409 55.7581 28.8276 55.0344 28.8276Z" fill="#505968"/>
<path d="M20.9656 55.0345H7.8621C7.13846 55.0345 6.55176 54.4478 6.55176 53.7242C6.55176 53.0005 7.13846 52.4138 7.8621 52.4138H20.9656C21.6892 52.4138 22.2759 53.0005 22.2759 53.7242C22.2759 54.4478 21.6892 55.0345 20.9656 55.0345Z" fill="#505968"/>
<path d="M36.6895 45.8621L34.0688 53.7242L41.9309 51.1035L43.2413 49.7931L37.9999 44.5518L36.6895 45.8621Z" fill="#F2CBA7"/>
<path d="M36.6904 45.863L64.2073 18.3461L69.4489 23.5876L41.932 51.1045L36.6904 45.863Z" fill="#3FD100"/>
<path d="M67.0529 17.0344C66.07 17.0343 65.1273 17.4244 64.4322 18.1194L62.8965 19.6551L68.1379 24.8965L69.6736 23.3608C71.121 21.9138 71.1214 19.5675 69.6744 18.1202C68.9793 17.4247 68.0362 17.0343 67.0529 17.0344Z" fill="#EFF2FA"/>
</svg>
