<svg width="50" height="50" viewBox="0 0 50 50" fill="none" xmlns="http://www.w3.org/2000/svg">
<path d="M48.4375 7.8125H1.5625C1.3553 7.8125 1.15659 7.89481 1.01007 8.04132C0.86356 8.18784 0.78125 8.38655 0.78125 8.59375V41.4062C0.78125 41.6133 0.863426 41.8118 1.00973 41.9583C1.15603 42.1048 1.35449 42.1872 1.56152 42.1875H48.4385C48.6455 42.1872 48.844 42.1048 48.9903 41.9583C49.1366 41.8118 49.2188 41.6133 49.2188 41.4062V8.59375C49.2188 8.38655 49.1364 8.18784 48.9899 8.04132C48.8434 7.89481 48.6447 7.8125 48.4375 7.8125ZM2.34375 13.0986L16.4414 21.5566L2.34375 39.1787V13.0986ZM3.18848 40.625L17.793 22.3682L24.5977 26.4512C24.7192 26.524 24.8583 26.5625 25 26.5625C25.1417 26.5625 25.2808 26.524 25.4023 26.4512L32.207 22.3682L46.8115 40.625H3.18848ZM47.6562 39.1787L33.5586 21.5566L47.6562 13.0986V39.1787ZM47.6562 11.2764L25 24.8701L2.34375 11.2764V9.375H47.6562V11.2764Z" fill="black"/>
<path d="M7.03125 11.7188H15.625C15.8322 11.7188 16.0309 11.6364 16.1774 11.4899C16.3239 11.3434 16.4062 11.1447 16.4062 10.9375C16.4062 10.7303 16.3239 10.5316 16.1774 10.3851C16.0309 10.2386 15.8322 10.1562 15.625 10.1562H7.03125C6.82405 10.1562 6.62534 10.2386 6.47882 10.3851C6.33231 10.5316 6.25 10.7303 6.25 10.9375C6.25 11.1447 6.33231 11.3434 6.47882 11.4899C6.62534 11.6364 6.82405 11.7188 7.03125 11.7188Z" fill="black"/>
<path d="M17.9688 11.7188H18.75C18.9572 11.7188 19.1559 11.6364 19.3024 11.4899C19.4489 11.3434 19.5312 11.1447 19.5312 10.9375C19.5312 10.7303 19.4489 10.5316 19.3024 10.3851C19.1559 10.2386 18.9572 10.1562 18.75 10.1562H17.9688C17.7615 10.1562 17.5628 10.2386 17.4163 10.3851C17.2698 10.5316 17.1875 10.7303 17.1875 10.9375C17.1875 11.1447 17.2698 11.3434 17.4163 11.4899C17.5628 11.6364 17.7615 11.7188 17.9688 11.7188Z" fill="black"/>
</svg>
