<svg width="20" height="20" viewBox="0 0 20 20" fill="none" xmlns="http://www.w3.org/2000/svg">
<path d="M10.0003 1.6665C6.77533 1.6665 4.16699 4.27484 4.16699 7.49984C4.16699 11.8748 10.0003 18.3332 10.0003 18.3332C10.0003 18.3332 15.8337 11.8748 15.8337 7.49984C15.8337 4.27484 13.2253 1.6665 10.0003 1.6665ZM5.83366 7.49984C5.83366 5.19984 7.70033 3.33317 10.0003 3.33317C12.3003 3.33317 14.167 5.19984 14.167 7.49984C14.167 9.89984 11.767 13.4915 10.0003 15.7332C8.26699 13.5082 5.83366 9.87484 5.83366 7.49984Z" fill="white"/>
<path d="M10.0003 9.58317C11.1509 9.58317 12.0837 8.65043 12.0837 7.49984C12.0837 6.34924 11.1509 5.4165 10.0003 5.4165C8.84973 5.4165 7.91699 6.34924 7.91699 7.49984C7.91699 8.65043 8.84973 9.58317 10.0003 9.58317Z" fill="white"/>
</svg>
