<svg width="96" height="96" viewBox="0 0 96 96" fill="none" xmlns="http://www.w3.org/2000/svg">
<circle cx="48" cy="48" r="47.5" fill="white" stroke="#F4B92F"/>
<path d="M68.8659 25.7833H28.1341C26.4061 25.7833 25 27.1895 25 28.9175V54.7666C25 55.199 25.3509 55.5499 25.7833 55.5499H71.2166C71.649 55.5499 71.9999 55.199 71.9999 54.7666V28.9175C72 27.1895 70.5939 25.7833 68.8659 25.7833ZM70.4333 53.9833H26.5667V28.9175C26.5667 28.0526 27.2701 27.35 28.1341 27.35H68.8659C69.7299 27.35 70.4333 28.0526 70.4333 28.9175V53.9833Z" fill="black"/>
<path d="M71.2167 53.9833H25.7833C25.3509 53.9833 25 54.3342 25 54.7666V58.6825C25 60.4105 26.4061 61.8166 28.1341 61.8166H68.8659C70.5939 61.8166 72 60.4105 72 58.6825V54.7666C72 54.3342 71.6491 53.9833 71.2167 53.9833ZM70.4333 58.6825C70.4333 59.5474 69.7299 60.25 68.8659 60.25H28.1341C27.2701 60.25 26.5667 59.5474 26.5667 58.6825V55.55H70.4334V58.6825H70.4333Z" fill="black"/>
<path d="M50.85 57.1167H46.15C45.7176 57.1167 45.3667 57.4676 45.3667 57.9C45.3667 58.3324 45.7176 58.6833 46.15 58.6833H50.85C51.2824 58.6833 51.6333 58.3324 51.6333 57.9C51.6333 57.4676 51.2824 57.1167 50.85 57.1167Z" fill="black"/>
<path d="M68.0833 28.9167H28.9167C28.4844 28.9167 28.1334 29.2677 28.1334 29.7V54.7667C28.1334 55.1991 28.4844 55.55 28.9167 55.55H68.0834C68.5158 55.55 68.8667 55.1991 68.8667 54.7667V29.7C68.8667 29.2677 68.5158 28.9167 68.0833 28.9167ZM67.3 53.9833H29.7V30.4833H67.3V53.9833Z" fill="black"/>
<path d="M58.6833 66.5167H38.3167C37.0211 66.5167 35.9667 67.5711 35.9667 68.8667C35.9667 70.1623 37.0211 71.2167 38.3167 71.2167H58.6834C59.979 71.2167 61.0334 70.1623 61.0334 68.8667C61.0334 67.5711 59.9789 66.5167 58.6833 66.5167ZM58.6833 69.65H38.3167C37.8843 69.65 37.5334 69.2984 37.5334 68.8667C37.5334 68.4351 37.8843 68.0834 38.3167 68.0834H58.6834C59.1157 68.0834 59.4667 68.4351 59.4667 68.8667C59.4667 69.2984 59.1157 69.65 58.6833 69.65Z" fill="black"/>
<path d="M57.1167 66.5167C54.5176 66.5167 53.2 64.672 53.2 61.0334C53.2 60.6011 52.8491 60.2501 52.4167 60.2501H44.5834C44.151 60.2501 43.8001 60.6011 43.8001 61.0334C43.8001 64.672 42.4825 66.5167 39.8834 66.5167C39.451 66.5167 39.1001 66.8677 39.1001 67.3C39.1001 67.7324 39.451 68.0833 39.8834 68.0833H57.1167C57.5491 68.0833 57.9 67.7324 57.9 67.3C57.9 66.8677 57.5491 66.5167 57.1167 66.5167ZM43.6989 66.5167C44.6633 65.4483 45.2311 63.8573 45.3455 61.8167H51.6552C51.7688 63.8573 52.3367 65.4483 53.3018 66.5167H43.6989Z" fill="black"/>
<path d="M62.4308 48.8634L60.5399 46.9725L61.5919 45.9205C61.7869 45.7254 61.8652 45.4419 61.7979 45.1747C61.7305 44.9076 61.5276 44.6961 61.2636 44.6162L53.4303 42.2662C53.1538 42.1832 52.8554 42.2592 52.6517 42.4629C52.4473 42.6666 52.3721 42.9657 52.4551 43.2415L54.8051 51.0748C54.8842 51.3395 55.0964 51.5424 55.3636 51.6098C55.6299 51.6756 55.9142 51.5988 56.1093 51.4038L57.2169 50.2954L59.1079 52.1871C59.2544 52.3343 59.4541 52.4166 59.6617 52.4166C59.8692 52.4166 60.069 52.3343 60.2155 52.1871L62.4307 49.971C62.737 49.6648 62.737 49.1697 62.4308 48.8634ZM59.6617 50.5257L57.9399 48.8031C57.7402 48.6034 57.4786 48.5038 57.2169 48.5038C56.9545 48.5038 56.6929 48.6041 56.4939 48.8023L55.9284 49.3678L54.3734 44.1845L59.5567 45.7395L58.9504 46.3458C58.7835 46.5134 58.6919 46.7359 58.6919 46.9725C58.6919 47.2099 58.7844 47.4339 58.952 47.5999L60.7693 49.4172L59.6617 50.5257Z" fill="black"/>
<path d="M57.9001 32.05H35.9668C35.5344 32.05 35.1835 32.401 35.1835 32.8333V36.75C35.1835 37.1824 35.5344 37.5333 35.9668 37.5333H57.9001C58.3324 37.5333 58.6834 37.1824 58.6834 36.75V32.8333C58.6834 32.401 58.3324 32.05 57.9001 32.05ZM57.1168 35.9667H36.7501V33.6167H57.1168V35.9667Z" fill="black"/>
<path d="M45.3667 40.6667H39.1C38.6676 40.6667 38.3167 41.0177 38.3167 41.45V44.5833C38.3167 45.0157 38.6676 45.3666 39.1 45.3666H45.3667C45.799 45.3666 46.15 45.0157 46.15 44.5833V41.45C46.15 41.0177 45.799 40.6667 45.3667 40.6667ZM44.5833 43.8H39.8833V42.2333H44.5833V43.8Z" fill="black"/>
<path d="M57.9001 32.05H35.9668C35.5344 32.05 35.1835 32.401 35.1835 32.8333V47.7166C35.1835 48.149 35.5344 48.4999 35.9668 48.4999H54.6149C54.8632 48.4999 55.0958 48.3833 55.2431 48.1842C55.3912 47.9853 55.4366 47.7284 55.3653 47.491L54.3736 44.1846L57.6754 45.1755C57.9127 45.2468 58.1697 45.2014 58.3678 45.0533C58.5667 44.9061 58.6835 44.6726 58.6835 44.4251V32.8333C58.6834 32.401 58.3324 32.05 57.9001 32.05ZM57.1168 43.3723L53.4296 42.2663C53.1531 42.1832 52.8546 42.2592 52.6509 42.4629C52.4465 42.6673 52.3713 42.9658 52.4543 43.2424L53.5619 46.9334H36.7501V33.6167H57.1168V43.3723Z" fill="black"/>
</svg>
