<svg width="96" height="96" viewBox="0 0 96 96" fill="none" xmlns="http://www.w3.org/2000/svg">
<circle cx="48" cy="48" r="47.5" fill="white" stroke="#F4B92F"/>
<path d="M48.5 70.7189C45.581 70.7242 42.6896 70.1527 39.9921 69.0372C37.2945 67.9218 34.8439 66.2843 32.7811 64.219C32.6654 64.0992 32.6014 63.9387 32.6028 63.7722C32.6043 63.6057 32.6711 63.4464 32.7888 63.3286C32.9066 63.2109 33.0659 63.1441 33.2324 63.1426C33.3989 63.1412 33.5594 63.2052 33.6792 63.3209C37.1326 66.7727 41.6826 68.9108 46.5441 69.3662C51.4055 69.8216 56.2735 68.5656 60.3078 65.8152C64.3422 63.0647 67.2899 58.9922 68.6423 54.3005C69.9946 49.6087 69.6668 44.5921 67.7154 40.1162C67.6815 40.0397 67.6631 39.9572 67.6612 39.8736C67.6593 39.7899 67.6739 39.7067 67.7043 39.6287C67.7347 39.5507 67.7801 39.4795 67.8381 39.4191C67.8961 39.3588 67.9654 39.3105 68.0421 39.277C68.1188 39.2435 68.2014 39.2255 68.2851 39.2241C68.3687 39.2226 68.4519 39.2377 68.5297 39.2685C68.6075 39.2992 68.6785 39.3451 68.7386 39.4034C68.7986 39.4617 68.8465 39.5312 68.8796 39.6081C70.3559 42.9909 70.9665 46.6881 70.656 50.3659C70.3456 54.0437 69.124 57.5863 67.1015 60.6737C65.079 63.7612 62.3194 66.2962 59.0718 68.05C55.8242 69.8038 52.1909 70.721 48.5 70.7189Z" fill="black"/>
<path d="M28.1858 56.4754C28.0551 56.4754 27.9276 56.4351 27.8206 56.36C27.7137 56.2848 27.6325 56.1785 27.5882 56.0556C25.8708 51.3006 25.8253 46.1023 27.4592 41.318C29.0931 36.5336 32.3087 32.449 36.5758 29.7378C40.843 27.0265 45.9067 25.8506 50.932 26.4038C55.9572 26.957 60.6438 29.2064 64.219 32.781C64.3347 32.9008 64.3987 33.0613 64.3972 33.2278C64.3958 33.3943 64.329 33.5536 64.2112 33.6714C64.0935 33.7891 63.9342 33.8559 63.7676 33.8574C63.6011 33.8588 63.4407 33.7948 63.3209 33.6791C59.3902 29.7485 54.0591 27.5402 48.5003 27.5402C42.9415 27.5402 37.6104 29.7485 33.6798 33.6791C30.8733 36.5005 28.9238 40.0595 28.0573 43.9435C27.1907 47.8275 27.4425 51.8775 28.7835 55.6243C28.8182 55.7202 28.8292 55.8231 28.8158 55.9243C28.8023 56.0254 28.7646 56.1218 28.706 56.2053C28.6473 56.2887 28.5695 56.3569 28.4789 56.4039C28.3884 56.4509 28.2879 56.4754 28.1858 56.4754Z" fill="black"/>
<path d="M63.7697 33.8652H59.5575C59.389 33.8652 59.2275 33.7983 59.1084 33.6792C58.9893 33.5601 58.9224 33.3985 58.9224 33.2301C58.9224 33.0616 58.9893 32.9001 59.1084 32.781C59.2275 32.6619 59.389 32.5949 59.5575 32.5949H63.1346V29.0179C63.1346 28.8494 63.2015 28.6879 63.3206 28.5687C63.4397 28.4496 63.6013 28.3827 63.7697 28.3827C63.9382 28.3827 64.0997 28.4496 64.2188 28.5687C64.3379 28.6879 64.4048 28.8494 64.4048 29.0179V33.2301C64.4048 33.3985 64.3379 33.5601 64.2188 33.6792C64.0997 33.7983 63.9382 33.8652 63.7697 33.8652Z" fill="black"/>
<path d="M33.2301 68.6173C33.0617 68.6173 32.9001 68.5504 32.781 68.4313C32.6619 68.3121 32.595 68.1506 32.595 67.9821V63.7699C32.595 63.6015 32.6619 63.4399 32.781 63.3208C32.9001 63.2017 33.0617 63.1348 33.2301 63.1348H37.4423C37.6108 63.1348 37.7723 63.2017 37.8914 63.3208C38.0105 63.4399 38.0775 63.6015 38.0775 63.7699C38.0775 63.9384 38.0105 64.0999 37.8914 64.219C37.7723 64.3382 37.6108 64.4051 37.4423 64.4051H33.8652V67.9821C33.8652 68.1506 33.7983 68.3121 33.6792 68.4313C33.5601 68.5504 33.3986 68.6173 33.2301 68.6173Z" fill="black"/>
<path d="M58.5872 55.4382H45.0791C44.2665 55.4348 43.4793 55.1546 42.8473 54.6438C42.2153 54.1331 41.7762 53.4222 41.6024 52.6284L38.696 39.093H35.8722C35.7037 39.093 35.5422 39.0261 35.4231 38.907C35.304 38.7879 35.2371 38.6263 35.2371 38.4579C35.2371 38.2894 35.304 38.1279 35.4231 38.0088C35.5422 37.8897 35.7037 37.8228 35.8722 37.8228H39.2098C39.3551 37.8227 39.4961 37.8725 39.6091 37.9638C39.7222 38.0551 39.8005 38.1824 39.831 38.3245L42.8447 52.361C42.9566 52.8712 43.2389 53.328 43.6452 53.6563C44.0515 53.9845 44.5575 54.1645 45.0798 54.1667H58.5872C58.7556 54.1667 58.9172 54.2336 59.0363 54.3527C59.1554 54.4718 59.2223 54.6334 59.2223 54.8018C59.2223 54.9703 59.1554 55.1318 59.0363 55.2509C58.9172 55.37 58.7556 55.437 58.5872 55.437V55.4382Z" fill="black"/>
<path d="M55.4758 51.071H41.7778C41.6094 51.071 41.4478 51.0041 41.3287 50.885C41.2096 50.7659 41.1427 50.6043 41.1427 50.4359C41.1427 50.2674 41.2096 50.1059 41.3287 49.9868C41.4478 49.8677 41.6094 49.8008 41.7778 49.8008H55.4758C55.7808 49.8024 56.0762 49.6942 56.3081 49.4959C56.5399 49.2977 56.6927 49.0226 56.7384 48.721L57.7057 42.4726H39.9327C39.7643 42.4726 39.6027 42.4057 39.4836 42.2865C39.3645 42.1674 39.2976 42.0059 39.2976 41.8374C39.2976 41.669 39.3645 41.5074 39.4836 41.3883C39.6027 41.2692 39.7643 41.2023 39.9327 41.2023H58.4469C58.5385 41.2023 58.6291 41.2222 58.7123 41.2605C58.7955 41.2988 58.8695 41.3546 58.9291 41.4242C58.9887 41.4937 59.0325 41.5754 59.0576 41.6635C59.0827 41.7516 59.0884 41.8441 59.0744 41.9346L57.9947 48.9154C57.9037 49.5173 57.599 50.0663 57.1365 50.4621C56.674 50.8579 56.0845 51.0741 55.4758 51.071Z" fill="black"/>
<path d="M55.2926 61.7178C54.7795 61.7177 54.2779 61.5654 53.8514 61.2802C53.4248 60.9951 53.0923 60.5898 52.896 60.1157C52.6998 59.6416 52.6485 59.12 52.7487 58.6167C52.8488 58.1135 53.096 57.6512 53.4589 57.2884C53.8218 56.9257 54.2841 56.6786 54.7873 56.5786C55.2906 56.4785 55.8122 56.5299 56.2863 56.7263C56.7603 56.9227 57.1655 57.2552 57.4506 57.6819C57.7356 58.1086 57.8878 58.6102 57.8878 59.1233C57.8869 59.8112 57.6132 60.4708 57.1267 60.9572C56.6402 61.4436 55.9806 61.7171 55.2926 61.7178ZM55.2926 57.7984C55.0307 57.7985 54.7748 57.8763 54.5571 58.0219C54.3394 58.1675 54.1698 58.3743 54.0696 58.6163C53.9695 58.8583 53.9434 59.1245 53.9945 59.3814C54.0457 59.6382 54.1719 59.8741 54.3571 60.0593C54.5423 60.2444 54.7783 60.3705 55.0351 60.4215C55.292 60.4725 55.5582 60.4463 55.8002 60.346C56.0421 60.2458 56.2489 60.0761 56.3944 59.8583C56.5399 59.6405 56.6175 59.3845 56.6175 59.1226C56.617 58.7715 56.4772 58.4348 56.2289 58.1866C55.9805 57.9383 55.6438 57.7987 55.2926 57.7984Z" fill="black"/>
<path d="M46.4314 61.7178C45.9183 61.7178 45.4167 61.5656 44.99 61.2805C44.5633 60.9955 44.2308 60.5902 44.0344 60.1162C43.838 59.6421 43.7867 59.1204 43.8868 58.6171C43.9869 58.1138 44.234 57.6515 44.5968 57.2887C44.9597 56.9258 45.422 56.6787 45.9253 56.5786C46.4286 56.4785 46.9502 56.5299 47.4243 56.7262C47.8984 56.9226 48.3036 57.2552 48.5887 57.6818C48.8738 58.1085 49.026 58.6101 49.026 59.1233C49.0251 59.8111 48.7515 60.4706 48.2651 60.957C47.7787 61.4433 47.1193 61.717 46.4314 61.7178ZM46.4314 57.7984C46.1695 57.7984 45.9135 57.876 45.6957 58.0216C45.4779 58.1671 45.3082 58.3739 45.208 58.6159C45.1078 58.8578 45.0815 59.1241 45.1326 59.381C45.1837 59.6379 45.3098 59.8738 45.495 60.059C45.6802 60.2442 45.9162 60.3704 46.1731 60.4214C46.43 60.4725 46.6962 60.4463 46.9382 60.3461C47.1802 60.2459 47.387 60.0761 47.5325 59.8584C47.678 59.6406 47.7557 59.3846 47.7557 59.1226C47.7552 58.7716 47.6155 58.435 47.3673 58.1868C47.119 57.9386 46.7825 57.7989 46.4314 57.7984Z" fill="black"/>
</svg>
