<svg width="96" height="96" viewBox="0 0 96 96" fill="none" xmlns="http://www.w3.org/2000/svg">
<circle cx="48" cy="48" r="47.5" fill="white" stroke="#F4B92F"/>
<g clip-path="url(#clip0)">
<path d="M70.9443 63.876H68.6473C68.8243 63.5312 68.9248 63.141 68.9248 62.7276L68.9241 44.0474C68.9241 43.6671 68.6158 43.3589 68.2356 43.3589C67.8553 43.3589 67.5471 43.6672 67.5471 44.0474L67.5479 62.7276C67.5479 63.3604 67.0331 63.8751 66.4004 63.8751L30.6005 63.876C29.9678 63.876 29.4531 63.3613 29.4531 62.7285L29.4521 38.8622C29.4521 38.2295 29.9669 37.7148 30.5996 37.7148L48.868 37.714C48.6313 38.1318 48.5959 38.6396 48.7819 39.0909L46.3416 39.091C46.3402 39.091 46.3388 39.0908 46.3375 39.0908H45.0913C45.0894 39.0908 45.0875 39.091 45.0857 39.091L31.5176 39.0917C31.1373 39.0917 30.8291 39.4 30.8291 39.7802L30.8297 54.3201C30.8297 54.7004 31.138 55.0086 31.5182 55.0086C31.8985 55.0086 32.2067 54.7003 32.2067 54.3201L32.2061 40.4687L43.5126 40.4681C43.4187 40.8433 43.3136 41.3023 43.2637 41.6561C43.2556 41.7144 43.2187 41.7674 43.1652 41.7983L42.0139 42.4614C41.9603 42.4924 41.8956 42.498 41.8405 42.4756C41.4495 42.318 40.8907 42.1526 40.4905 42.0416C39.797 41.8492 39.0603 42.1497 38.7 42.7722L38.0778 43.8474C37.7164 44.4718 37.8245 45.2607 38.3405 45.7658C38.6362 46.0552 39.0581 46.4546 39.3904 46.7134C39.4365 46.7492 39.464 46.8073 39.464 46.8687V48.1933C39.464 48.2547 39.4364 48.3129 39.3904 48.3487C39.0581 48.6075 38.6361 49.0069 38.3405 49.2962C37.8245 49.8014 37.7164 50.5904 38.0778 51.2147L38.7 52.2898C39.0603 52.9124 39.7966 53.2132 40.4907 53.0204C40.8907 52.9095 41.4495 52.744 41.8408 52.5863C41.8953 52.5643 41.9601 52.5696 42.0138 52.6006L43.1652 53.2637C43.2187 53.2946 43.2556 53.3477 43.2637 53.4059C43.3225 53.8226 43.4579 54.3862 43.5611 54.7854C43.7416 55.4835 44.3708 55.9712 45.0912 55.9712H46.3374C47.0578 55.9712 47.687 55.4835 47.8673 54.7855C47.9707 54.3861 48.1061 53.8226 48.1649 53.4059C48.1731 53.3477 48.2099 53.2946 48.2633 53.2637L49.4148 52.6006C49.4685 52.5696 49.5331 52.5642 49.5881 52.5864C49.979 52.744 50.5379 52.9095 50.938 53.0204C51.6315 53.2126 52.3682 52.9124 52.7285 52.2898L53.3507 51.2147C53.7121 50.5903 53.6041 49.8014 53.0881 49.2962C52.7924 49.0069 52.3704 48.6075 52.0381 48.3488C51.992 48.3128 51.9645 48.2547 51.9645 48.1933V46.8687C51.9645 46.8073 51.992 46.7492 52.038 46.7134C52.3703 46.4546 52.7924 46.0552 53.088 45.7658C53.604 45.2607 53.712 44.4717 53.3506 43.8474L52.7284 42.7722C52.3681 42.1497 51.6319 41.849 50.9378 42.0417C50.5378 42.1526 49.9789 42.318 49.5877 42.4757C49.5332 42.4976 49.4684 42.4924 49.4147 42.4615L48.2632 41.7982C48.2097 41.7674 48.1729 41.7144 48.1648 41.6562C48.1148 41.3023 48.0097 40.8431 47.9159 40.468L49.5673 40.4679C49.9475 41.0141 50.6359 41.2679 51.287 41.0869C51.6872 40.976 52.2462 40.8105 52.6371 40.6529C52.6916 40.631 52.7564 40.6362 52.8101 40.6672L53.9615 41.3303C54.0151 41.3611 54.0519 41.4143 54.06 41.4725C54.1189 41.8892 54.2542 42.4528 54.3575 42.852C54.5379 43.5501 55.1671 44.0378 55.8875 44.0378H57.1337C57.8541 44.0378 58.4833 43.5501 58.6637 42.8521C58.767 42.4527 58.9025 41.8892 58.9612 41.4725C58.9694 41.4143 59.0062 41.3611 59.0597 41.3303L60.2111 40.6672C60.2649 40.6362 60.3295 40.6308 60.3844 40.653C60.7754 40.8106 61.3342 40.9761 61.7344 41.087C62.3851 41.2674 63.0738 41.0141 63.4539 40.4679H64.7928L64.7938 61.1212L32.207 61.1221L32.2068 57.2917C32.2068 56.9113 31.8985 56.6032 31.5183 56.6032C31.138 56.6032 30.8298 56.9114 30.8298 57.2917L30.83 61.8105C30.83 62.1909 31.1383 62.499 31.5185 62.499L65.4824 62.4981C65.665 62.4981 65.8402 62.4256 65.9693 62.2964C66.0984 62.1674 66.1709 61.9923 66.1709 61.8096L66.17 39.7793C66.17 39.399 65.8617 39.0908 65.4815 39.0908H64.2396C64.4256 38.6395 64.3901 38.1317 64.1534 37.7139H66.3995C67.0322 37.7139 67.5469 38.2286 67.5469 38.8613L67.547 41.127C67.547 41.5073 67.8553 41.8154 68.2355 41.8154C68.6158 41.8154 68.924 41.5072 68.924 41.127L68.9239 38.8613C68.9239 37.4694 67.7914 36.3369 66.3995 36.3369H62.7771C62.7672 36.3128 62.761 36.2868 62.761 36.2597V34.9351C62.761 34.8737 62.7885 34.8157 62.8347 34.7798C63.1669 34.5208 63.589 34.1215 63.8846 33.8322C64.4006 33.3271 64.5086 32.5381 64.1472 31.9138L63.525 30.8386C63.1647 30.2161 62.4283 29.9153 61.7344 30.1081C61.3339 30.2192 60.7747 30.3846 60.3843 30.5421C60.3298 30.564 60.265 30.5588 60.2113 30.5279L59.0598 29.8646C59.0063 29.8338 58.9695 29.7808 58.9614 29.7226C58.9025 29.3055 58.7671 28.7421 58.6639 28.3431C58.4835 27.6449 57.8543 27.1573 57.1339 27.1573H55.8877C55.1673 27.1573 54.5381 27.6449 54.3577 28.343C54.2545 28.7422 54.119 29.3055 54.0602 29.7225C54.0521 29.7808 54.0152 29.8338 53.9617 29.8647L52.8104 30.5278C52.7565 30.5589 52.6918 30.5642 52.6373 30.5421C52.2472 30.3848 51.6878 30.2192 51.287 30.108C50.5935 29.9157 49.8568 30.2161 49.4965 30.8386L48.8743 31.9138C48.5129 32.5382 48.621 33.3271 49.137 33.8322C49.4324 34.1214 49.8543 34.5205 50.187 34.7799C50.233 34.8157 50.2605 34.8737 50.2605 34.9351V36.2597C50.2605 36.2867 50.2543 36.3128 50.2444 36.3369L30.5996 36.3378C29.2077 36.3378 28.0752 37.4703 28.0752 38.8622L28.0761 62.7285C28.0761 63.1416 28.1765 63.5315 28.3532 63.876H26.0557C25.4736 63.876 25 64.3496 25 64.9316V66.7676C25 68.4632 26.3795 69.8428 28.0752 69.8428H60.2376C60.6179 69.8428 60.9261 69.5346 60.9261 69.1543C60.9261 68.774 60.6179 68.4658 60.2376 68.4658H28.0752C27.1388 68.4658 26.377 67.704 26.377 66.7676V65.2529H43.5889V65.666C43.5889 66.653 44.3919 67.4561 45.3789 67.4561H51.6211C52.6081 67.4561 53.4111 66.653 53.4111 65.666V65.2529H70.623V66.7676C70.623 67.704 69.8612 68.4658 68.9248 68.4658H63.2092C62.8288 68.4658 62.5207 68.774 62.5207 69.1543C62.5207 69.5346 62.8288 69.8428 63.2092 69.8428H68.9248C70.6205 69.8428 72 68.4632 72 66.7676V64.9316C72 64.3496 71.5264 63.876 70.9443 63.876ZM46.5344 40.6213C46.6677 41.1372 46.7626 41.5729 46.8014 41.8484C46.8694 42.3305 47.1519 42.7471 47.5762 42.9914L48.7277 43.6547C49.1512 43.8985 49.6524 43.9342 50.1028 43.7526C50.3615 43.6483 50.7888 43.5119 51.3057 43.3685C51.3954 43.3434 51.4904 43.3819 51.5367 43.4619L52.1589 44.537C52.2049 44.6164 52.1909 44.7171 52.1247 44.7819C51.7427 45.1558 51.4113 45.4561 51.1918 45.6271C50.8078 45.9263 50.5876 46.3788 50.5876 46.8687V48.1933C50.5876 48.6831 50.8077 49.1357 51.1918 49.4349C51.4114 49.606 51.7427 49.9062 52.1247 50.2802C52.1909 50.3449 52.2049 50.4456 52.1589 50.525L51.5367 51.6002C51.4904 51.6801 51.395 51.7182 51.3059 51.6937C50.7887 51.5502 50.3615 51.4137 50.103 51.3095C49.6521 51.1278 49.1509 51.1635 48.7275 51.4075L47.5761 52.0706C47.1517 52.3151 46.8693 52.7317 46.8013 53.2137V53.2138C46.7625 53.4892 46.6676 53.9249 46.5342 54.4409C46.5109 54.5311 46.4299 54.5943 46.3373 54.5943H45.0911C44.9985 54.5943 44.9175 54.5311 44.8941 54.4408C44.7607 53.9249 44.6659 53.4892 44.6271 53.2137C44.5591 52.7317 44.2767 52.3151 43.8523 52.0706L42.701 51.4075C42.4559 51.2663 42.1849 51.1949 41.9127 51.1949C41.7144 51.1949 41.5155 51.2329 41.3256 51.3094C41.0669 51.4137 40.6396 51.5501 40.1227 51.6936C40.0328 51.7188 39.9379 51.6801 39.8917 51.6002L39.2695 50.525C39.2235 50.4456 39.2375 50.3449 39.3037 50.2802C39.6857 49.9062 40.0171 49.606 40.2367 49.4348C40.6207 49.1356 40.8408 48.6831 40.8408 48.1933V46.8687C40.8408 46.3788 40.6206 45.9262 40.2366 45.6272C40.017 45.4561 39.6857 45.1558 39.3037 44.7819C39.2375 44.7171 39.2235 44.6164 39.2695 44.537L39.8917 43.4619C39.938 43.382 40.0335 43.3438 40.1225 43.3684C40.6397 43.5119 41.0669 43.6484 41.3254 43.7525C41.7759 43.9342 42.2771 43.8986 42.7009 43.6546L43.8522 42.9915C44.2766 42.7471 44.5591 42.3305 44.6271 41.8483C44.6659 41.5729 44.7607 41.1372 44.8942 40.6212C44.9173 40.5318 44.9968 40.4693 45.0882 40.4681L46.3394 40.468C46.4313 40.469 46.5111 40.5316 46.5344 40.6213ZM50.1003 32.8483C50.0341 32.7835 50.0201 32.6828 50.0661 32.6034L50.6883 31.5283C50.7345 31.4484 50.8299 31.4102 50.9191 31.4348C51.4371 31.5784 51.8643 31.7149 52.122 31.8189C52.5725 32.0007 53.0738 31.965 53.4975 31.721L54.6488 31.0579C55.0732 30.8135 55.3557 30.3969 55.4237 29.9147C55.4625 29.6391 55.5573 29.2034 55.6908 28.6876C55.7141 28.5973 55.7951 28.5342 55.8877 28.5342H57.1339C57.2265 28.5342 57.3075 28.5973 57.3309 28.6877C57.4642 29.2034 57.5591 29.6391 57.5979 29.9148C57.6659 30.3969 57.9484 30.8135 58.3727 31.0578L59.5243 31.7211C59.9479 31.965 60.4491 32.0008 60.8995 31.8189C61.1575 31.7148 61.5847 31.5785 62.1023 31.4349C62.1918 31.4098 62.2871 31.4483 62.3333 31.5283L62.9555 32.6034C63.0015 32.6828 62.9875 32.7835 62.9213 32.8483C62.5394 33.2222 62.208 33.5225 61.9886 33.6934C61.6045 33.9926 61.3842 34.4451 61.3842 34.9351V36.2597C61.3842 36.7496 61.6044 37.2022 61.9884 37.5013C62.2081 37.6724 62.5394 37.9727 62.9213 38.3466C62.9875 38.4113 63.0015 38.512 62.9555 38.5914L62.3333 39.6666C62.2871 39.7465 62.1917 39.7847 62.1025 39.7601C61.5853 39.6166 61.1581 39.4801 60.8996 39.3759C60.4492 39.1943 59.9477 39.2298 59.5241 39.4739L58.3727 40.137C57.9483 40.3815 57.6659 40.7981 57.5979 41.2801V41.2802C57.5591 41.5556 57.4642 41.9913 57.3308 42.5073C57.3075 42.5976 57.2265 42.6607 57.1339 42.6607H55.8877C55.7951 42.6607 55.7141 42.5976 55.6907 42.5072C55.5573 41.9913 55.4625 41.5556 55.4237 41.2801C55.3557 40.7981 55.0733 40.3815 54.6489 40.137L53.4976 39.4739C53.2525 39.3327 52.9815 39.2613 52.7093 39.2613C52.511 39.2613 52.312 39.2993 52.1222 39.3758C51.8639 39.48 51.4366 39.6164 50.9193 39.76C50.8296 39.7851 50.7345 39.7466 50.6883 39.6666L50.5663 39.4559C50.5625 39.4486 50.5582 39.4418 50.5541 39.4348L50.0661 38.5914C50.0201 38.512 50.0341 38.4113 50.1003 38.3466C50.482 37.9729 50.8134 37.6727 51.0333 37.5012C51.4173 37.202 51.6374 36.7495 51.6374 36.2597V34.9351C51.6374 34.4452 51.4172 33.9926 51.0333 33.6936C50.8133 33.5222 50.482 33.222 50.1003 32.8483ZM52.0342 65.666C52.0342 65.8938 51.8488 66.0791 51.6211 66.0791H45.3789C45.1512 66.0791 44.9658 65.8938 44.9658 65.666V65.2529H52.0342V65.666Z" fill="black"/>
<path d="M56.5108 39.3466C58.5822 39.3466 60.2675 37.6648 60.2675 35.5974C60.2675 33.5301 58.5823 31.8483 56.5108 31.8483C54.4394 31.8483 52.7542 33.5301 52.7542 35.5974C52.7542 37.6648 54.4394 39.3466 56.5108 39.3466ZM55.438 37.7139H57.5837C57.261 37.877 56.8967 37.9696 56.5108 37.9696C56.125 37.9696 55.7606 37.877 55.438 37.7139ZM56.5108 33.2254C57.8231 33.2254 58.8906 34.2895 58.8906 35.5975C58.8906 35.8557 58.8485 36.1041 58.7715 36.337H54.2502C54.1733 36.1041 54.1311 35.8557 54.1311 35.5975C54.1311 34.2894 55.1986 33.2254 56.5108 33.2254Z" fill="black"/>
<path d="M41.9576 47.531C41.9576 49.5984 43.6428 51.2802 45.7143 51.2802C47.7858 51.2802 49.471 49.5984 49.471 47.531C49.471 45.4637 47.7858 43.7819 45.7143 43.7819C43.6428 43.7819 41.9576 45.4638 41.9576 47.531ZM48.0941 47.531C48.0941 48.839 47.0266 49.9032 45.7143 49.9032C44.4021 49.9032 43.3346 48.839 43.3346 47.531C43.3346 46.223 44.4021 45.1589 45.7143 45.1589C47.0266 45.1589 48.0941 46.223 48.0941 47.531Z" fill="black"/>
</g>
<defs>
<clipPath id="clip0">
<rect width="47" height="47" fill="white" transform="translate(25 25)"/>
</clipPath>
</defs>
</svg>
