<svg width="96" height="96" viewBox="0 0 96 96" fill="none" xmlns="http://www.w3.org/2000/svg">
<circle cx="48" cy="48" r="47.5" fill="white" stroke="#F4B92F"/>
<path d="M58.1733 48.6696C61.6598 46.0096 64.4857 42.5812 66.4313 38.6511C68.377 34.721 69.3899 30.3951 69.3914 26.0098C69.3914 25.8637 69.3334 25.7236 69.2301 25.6203C69.1268 25.517 68.9867 25.459 68.8406 25.459C62.5008 25.4577 56.3423 27.5754 51.3441 31.4755C49.4146 32.9783 47.6841 34.7205 46.1943 36.66C45.6704 36.9815 45.0536 37.1176 44.4431 37.0466C43.8325 36.9756 43.2635 36.7016 42.8273 36.2684C42.1087 35.5498 41.1342 35.1459 40.1179 35.1454C39.1017 35.1449 38.1268 35.5478 37.4074 36.2657L31.952 41.6412C31.9001 41.6925 31.8589 41.7535 31.8307 41.8208C31.8026 41.8881 31.7881 41.9603 31.7881 42.0333C31.7881 42.1062 31.8026 42.1785 31.8307 42.2458C31.8589 42.3131 31.9001 42.3741 31.952 42.4253L35.1084 45.5428C35.905 46.3253 36.9238 46.8429 38.0255 47.0249C39.1273 47.207 40.2584 47.0446 41.2645 46.56C41.2626 46.5668 41.2606 46.5734 41.2588 46.5801C41.2335 46.6736 41.2334 46.7721 41.2583 46.8657C41.2833 46.9593 41.3325 47.0446 41.401 47.1131L42.9896 48.702L39.1031 49.5256C39.0061 49.5462 38.9164 49.5925 38.8436 49.6598C38.7707 49.7271 38.7174 49.8128 38.6892 49.9078C38.661 50.0029 38.659 50.1038 38.6833 50.1999C38.7077 50.296 38.7576 50.3838 38.8277 50.4539L40.783 52.4092C40.3417 52.1451 39.8615 51.9524 39.3601 51.8381C39.2006 51.802 39.0407 51.7738 38.8862 51.7546C38.6929 51.73 38.4982 51.717 38.3034 51.7156C37.6587 51.7101 37.0195 51.8335 36.4233 52.0786C35.827 52.3238 35.2858 52.6857 34.8315 53.143C34.3623 53.6044 33.9899 54.1548 33.7359 54.7618C33.482 55.3689 33.3516 56.0205 33.3525 56.6786C33.3524 56.8222 33.4085 56.9603 33.5088 57.0632C33.6091 57.1661 33.7457 57.2257 33.8893 57.2293L34.3047 57.2399C33.5008 58.3527 33.1632 59.7354 33.3637 61.0934C33.3886 61.2183 33.4562 61.3307 33.5548 61.4112C33.6534 61.4918 33.777 61.5356 33.9044 61.5352H35.4091C35.5552 61.5352 35.6953 61.4771 35.7986 61.3738C35.9019 61.2705 35.9599 61.1305 35.9599 60.9844C35.9599 60.8383 35.9019 60.6982 35.7986 60.5949C35.6953 60.4916 35.5552 60.4336 35.4091 60.4336H34.4058C34.3902 59.6992 34.5513 58.3078 35.8851 57.1308C35.968 57.0577 36.027 56.9613 36.0543 56.8541C36.0816 56.747 36.076 56.6341 36.0381 56.5302C36.0003 56.4263 35.932 56.3362 35.8422 56.2717C35.7524 56.2071 35.6452 56.1712 35.5347 56.1685L34.4919 56.1423C34.6097 55.3006 35.002 54.5213 35.6078 53.9252C35.9563 53.5746 36.3705 53.2962 36.8267 53.106C37.283 52.9159 37.7723 52.8177 38.2666 52.8171H38.2954C38.383 52.8177 38.471 52.8223 38.5588 52.829C38.2225 53.0273 37.9363 53.3004 37.7226 53.6272C37.509 53.954 37.3735 54.3256 37.3267 54.7133L37.0109 57.2652C37.0013 57.3427 37.0083 57.4213 37.0313 57.4958C37.0544 57.5704 37.0931 57.6391 37.1448 57.6976C37.1964 57.7561 37.26 57.8029 37.3311 57.835C37.4022 57.8671 37.4794 57.8837 37.5574 57.8837C37.58 57.8836 37.6026 57.8823 37.6251 57.8795L40.177 57.5636C40.5649 57.5158 40.9366 57.3795 41.2635 57.1651C41.5903 56.9508 41.8634 56.6642 42.0618 56.3274C42.0697 56.4267 42.0751 56.5267 42.0753 56.6275C42.0766 57.1281 41.9786 57.6239 41.7871 58.0864C41.5955 58.5489 41.3142 58.9688 40.9593 59.3218C40.907 59.3727 40.8654 59.4335 40.8368 59.5006C40.8082 59.5677 40.7932 59.6399 40.7927 59.7128C40.7922 59.7858 40.8062 59.8581 40.8339 59.9256C40.8615 59.9931 40.9024 60.0544 40.954 60.106C41.0055 60.1576 41.0669 60.1984 41.1344 60.2261C41.2019 60.2538 41.2742 60.2678 41.3471 60.2673C41.4201 60.2669 41.4922 60.2519 41.5594 60.2233C41.6265 60.1947 41.6872 60.153 41.7381 60.1007C42.2673 59.572 42.6686 58.9293 42.9113 58.2217C43.154 57.5141 43.2317 56.7604 43.1384 56.0182C43.12 55.8646 43.0932 55.7084 43.0589 55.5539C42.9452 55.0446 42.7508 54.5569 42.4831 54.1091L44.3967 56.0226C44.4657 56.0915 44.5518 56.141 44.6462 56.1658C44.7405 56.1906 44.8398 56.1898 44.9338 56.1637C45.0278 56.1376 45.1131 56.0869 45.1811 56.017C45.2491 55.947 45.2973 55.8602 45.3208 55.7655L46.2591 51.9715L47.6877 53.4001C47.7559 53.4682 47.8407 53.5173 47.9338 53.5424C48.0268 53.5675 48.1249 53.5677 48.2181 53.5431C48.251 53.534 48.2836 53.5248 48.3166 53.5156C47.813 54.5261 47.6373 55.6685 47.8139 56.7836C47.9906 57.8987 48.5108 58.9309 49.302 59.7363L52.4191 62.9121C52.5206 63.0223 52.6614 63.0883 52.811 63.0957C52.9607 63.0883 53.1015 63.0224 53.203 62.9121L58.5759 57.4502C59.2939 56.7296 59.6971 55.7537 59.6971 54.7364C59.6971 53.7191 59.2939 52.7433 58.5759 52.0226C58.1454 51.5881 57.8721 51.0225 57.7992 50.4152C57.7263 49.8079 57.858 49.1937 58.1733 48.6696ZM68.2842 26.5661C68.2507 28.2413 68.0634 29.9098 67.7248 31.5507C65.8625 30.5186 64.325 28.9876 63.2851 27.1297C64.9305 26.7884 66.604 26.5997 68.2842 26.5661ZM35.8821 44.759L33.1229 42.0339L38.183 37.0474C38.6955 36.535 39.3906 36.2471 40.1153 36.2471C40.8401 36.2471 41.5352 36.535 42.0477 37.0474C42.4477 37.4452 42.9304 37.7501 43.4615 37.9406C43.9925 38.131 44.559 38.2024 45.1207 38.1495C43.7073 40.2465 42.5787 42.522 41.7646 44.9162C40.9459 45.6387 39.8839 46.0242 38.7924 45.995C37.7009 45.9659 36.661 45.5242 35.8821 44.759ZM41.2614 55.4237C41.1838 55.6989 41.0266 55.9451 40.8095 56.1313C40.5924 56.3175 40.3251 56.4354 40.0413 56.4702L38.1908 56.6997L38.4203 54.8497C38.4575 54.5602 38.5803 54.2885 38.7729 54.0693C38.9656 53.8501 39.2194 53.6935 39.5017 53.6196C39.7493 53.5564 40.0092 53.5595 40.2552 53.6287C40.5012 53.6978 40.7246 53.8305 40.9031 54.0135C41.0815 54.1964 41.2086 54.4231 41.2716 54.6708C41.3346 54.9184 41.3312 55.1783 41.2619 55.4242L41.2614 55.4237ZM44.4856 54.5537L40.3245 50.3928L43.9187 49.6308L45.3492 51.0611L44.4856 54.5537ZM48.2409 52.3955L42.4066 46.5612C42.5045 46.2148 42.6096 45.8706 42.7217 45.5286C42.725 45.5253 42.7284 45.5224 42.7317 45.5194L42.7265 45.5142C44.0528 41.4985 46.282 37.8403 49.2428 34.8206C52.2036 31.8009 55.8172 29.5001 59.806 28.0949C60.5848 27.8218 61.3729 27.5853 62.1703 27.3855C63.3591 29.643 65.2078 31.4845 67.4699 32.6644C65.1138 42.066 57.8696 49.7287 48.2409 52.3955ZM57.7943 56.664L52.8106 61.7215L50.0855 58.9624C49.309 58.1721 48.8661 57.1135 48.8485 56.0057C48.8308 54.8979 49.2398 53.8258 49.9908 53.0112C52.3608 52.2164 54.6151 51.1111 56.6949 49.7243C56.6422 50.2859 56.7136 50.8522 56.9041 51.3831C57.0946 51.914 57.3994 52.3966 57.7971 52.7966C58.3091 53.3101 58.5964 54.0059 58.5959 54.731C58.5954 55.4562 58.3071 56.1515 57.7943 56.6642V56.664Z" fill="black"/>
<path d="M39.156 60.3306C38.8639 60.3998 38.5648 60.4343 38.2646 60.4336H37.397C37.2509 60.4336 37.1108 60.4916 37.0075 60.5949C36.9042 60.6982 36.8462 60.8383 36.8462 60.9844C36.8462 61.1305 36.9042 61.2706 37.0075 61.3739C37.1108 61.4771 37.2509 61.5352 37.397 61.5352H38.2646C38.651 61.5359 39.0362 61.4911 39.4121 61.4019C39.5542 61.3679 39.6769 61.2788 39.7533 61.1543C39.8297 61.0298 39.8535 60.88 39.8194 60.738C39.7854 60.5959 39.6964 60.4732 39.5718 60.3968C39.4473 60.3204 39.2976 60.2966 39.1555 60.3306H39.156Z" fill="black"/>
<path d="M61.3202 48.9511C61.4484 48.9512 61.5726 48.9064 61.6712 48.8245C62.0638 48.4995 62.453 48.1592 62.8279 47.8129C62.8819 47.7641 62.9257 47.705 62.9567 47.6392C62.9877 47.5733 63.0054 47.502 63.0087 47.4293C63.012 47.3566 63.0008 47.2839 62.9759 47.2155C62.9509 47.1471 62.9126 47.0844 62.8633 47.0309C62.8139 46.9774 62.7544 46.9342 62.6883 46.9038C62.6221 46.8735 62.5506 46.8565 62.4778 46.8539C62.4051 46.8514 62.3326 46.8633 62.2644 46.8889C62.1963 46.9146 62.1339 46.9535 62.0809 47.0034C61.7201 47.3363 61.3456 47.6636 60.9683 47.9764C60.881 48.0487 60.8181 48.1462 60.7882 48.2555C60.7584 48.3649 60.763 48.4808 60.8015 48.5874C60.8399 48.6941 60.9103 48.7862 61.0031 48.8514C61.0959 48.9165 61.2065 48.9514 61.3199 48.9514L61.3202 48.9511Z" fill="black"/>
<path d="M70.4168 34.444C70.3475 34.4231 70.2749 34.416 70.2029 34.4232C70.1309 34.4303 70.061 34.4516 69.9973 34.4857C69.9335 34.5199 69.8771 34.5663 69.8313 34.6222C69.7854 34.6782 69.7511 34.7426 69.7301 34.8119C69.2664 36.3445 68.6686 37.8332 67.9436 39.2609C67.6796 39.7808 67.3947 40.2994 67.0971 40.8024C66.7313 41.4202 66.3361 42.0317 65.9221 42.6199C65.2654 43.5523 64.5515 44.4431 63.7845 45.2871C63.6863 45.3952 63.635 45.5379 63.642 45.6838C63.649 45.8297 63.7136 45.9669 63.8217 46.0652C63.9298 46.1634 64.0725 46.2147 64.2185 46.2077C64.3644 46.2007 64.5015 46.1361 64.5998 46.028C65.3973 45.15 66.1397 44.2235 66.8226 43.2537C67.2531 42.6422 67.6642 42.0062 68.0447 41.3633C68.3544 40.8401 68.6506 40.3006 68.9254 39.7597C69.6797 38.2742 70.3017 36.7252 70.7842 35.1306C70.8265 34.9908 70.8116 34.84 70.7426 34.7112C70.6737 34.5825 70.5565 34.4864 70.4168 34.444Z" fill="black"/>
<path d="M26.9269 47.996C26.9992 47.9961 27.0708 47.9819 27.1376 47.9542C27.2045 47.9266 27.2652 47.886 27.3163 47.8348L27.7381 47.4129C27.839 47.3092 27.8951 47.1699 27.8941 47.0251C27.8932 46.8803 27.8352 46.7417 27.7329 46.6393C27.6305 46.537 27.4919 46.479 27.3471 46.478C27.2024 46.477 27.063 46.5331 26.9593 46.634L26.537 47.0559C26.46 47.1329 26.4076 47.231 26.3863 47.3378C26.3651 47.4447 26.376 47.5554 26.4177 47.656C26.4593 47.7566 26.5299 47.8427 26.6205 47.9032C26.711 47.9637 26.8175 47.996 26.9264 47.996H26.9269Z" fill="black"/>
<path d="M28.9346 46.2165L30.8192 44.3319C30.8704 44.2807 30.911 44.22 30.9387 44.1532C30.9663 44.0864 30.9806 44.0148 30.9806 43.9424C30.9806 43.8701 30.9664 43.7985 30.9387 43.7316C30.911 43.6648 30.8704 43.6041 30.8193 43.5529C30.7682 43.5018 30.7074 43.4612 30.6406 43.4335C30.5738 43.4059 30.5022 43.3916 30.4298 43.3916C30.3575 43.3916 30.2859 43.4058 30.219 43.4335C30.1522 43.4612 30.0915 43.5018 30.0404 43.5529L28.1558 45.4375C28.1039 45.4885 28.0627 45.5492 28.0345 45.6162C28.0062 45.6832 27.9915 45.7551 27.9912 45.8279C27.9909 45.9006 28.005 45.9726 28.0327 46.0398C28.0604 46.1071 28.1011 46.1682 28.1525 46.2196C28.2039 46.271 28.265 46.3117 28.3322 46.3394C28.3994 46.3671 28.4715 46.3812 28.5442 46.3809C28.6169 46.3806 28.6888 46.366 28.7558 46.3377C28.8228 46.3095 28.8836 46.2683 28.9346 46.2165Z" fill="black"/>
<path d="M27.3672 49.8935C27.4705 49.9968 27.6106 50.0548 27.7567 50.0548C27.9027 50.0548 28.0428 49.9968 28.1461 49.8935L30.3614 47.6781C30.4126 47.6269 30.4532 47.5662 30.4808 47.4994C30.5085 47.4325 30.5227 47.3609 30.5227 47.2886C30.5227 47.2163 30.5085 47.1446 30.4808 47.0778C30.4531 47.011 30.4125 46.9503 30.3614 46.8991C30.3102 46.848 30.2495 46.8074 30.1827 46.7797C30.1159 46.7521 30.0442 46.7378 29.9719 46.7378C29.8996 46.7378 29.828 46.7521 29.7611 46.7798C29.6943 46.8074 29.6336 46.848 29.5825 46.8992L27.3671 49.1145C27.316 49.1657 27.2754 49.2264 27.2477 49.2932C27.22 49.36 27.2058 49.4317 27.2058 49.504C27.2058 49.5764 27.2201 49.648 27.2478 49.7148C27.2755 49.7816 27.316 49.8424 27.3672 49.8935Z" fill="black"/>
<path d="M31.0551 46.7559C31.1274 46.756 31.199 46.7417 31.2659 46.7141C31.3327 46.6864 31.3934 46.6458 31.4445 46.5946L32.2635 45.7757C32.3153 45.7247 32.3565 45.6639 32.3848 45.5969C32.413 45.5299 32.4277 45.458 32.428 45.3853C32.4283 45.3126 32.4142 45.2405 32.3866 45.1733C32.3589 45.1061 32.3182 45.045 32.2667 44.9936C32.2153 44.9422 32.1543 44.9014 32.087 44.8737C32.0198 44.846 31.9478 44.8319 31.8751 44.8322C31.8024 44.8325 31.7304 44.8472 31.6634 44.8754C31.5964 44.9036 31.5357 44.9448 31.4847 44.9967L30.6657 45.8157C30.5887 45.8927 30.5362 45.9908 30.515 46.0977C30.4937 46.2045 30.5046 46.3152 30.5463 46.4158C30.588 46.5165 30.6586 46.6025 30.7491 46.663C30.8397 46.7235 30.9461 46.7558 31.0551 46.7559Z" fill="black"/>
<path d="M28.8003 50.5697L26.353 53.0169C26.2511 53.1204 26.1942 53.2601 26.1948 53.4054C26.1954 53.5507 26.2534 53.6899 26.3561 53.7926C26.4589 53.8953 26.5981 53.9533 26.7434 53.9539C26.8887 53.9545 27.0283 53.8977 27.1319 53.7958L29.579 51.3486C29.6308 51.2977 29.6721 51.2369 29.7003 51.1699C29.7285 51.1029 29.7432 51.031 29.7435 50.9583C29.7438 50.8856 29.7297 50.8135 29.702 50.7463C29.6743 50.6791 29.6336 50.618 29.5822 50.5666C29.5308 50.5151 29.4697 50.4744 29.4025 50.4467C29.3352 50.4191 29.2632 50.405 29.1905 50.4052C29.1178 50.4055 29.0458 50.4202 28.9788 50.4485C28.9118 50.4767 28.8511 50.5179 28.8001 50.5697H28.8003Z" fill="black"/>
<path d="M33.7075 46.4413C33.6042 46.338 33.4641 46.28 33.3181 46.28C33.172 46.28 33.032 46.338 32.9287 46.4413L30.0618 49.3078C30.0099 49.3588 29.9687 49.4195 29.9405 49.4865C29.9122 49.5535 29.8975 49.6254 29.8972 49.6982C29.8969 49.7709 29.911 49.8429 29.9387 49.9101C29.9664 49.9774 30.0071 50.0385 30.0585 50.0899C30.1099 50.1413 30.171 50.182 30.2382 50.2097C30.3054 50.2374 30.3775 50.2515 30.4502 50.2512C30.5229 50.251 30.5948 50.2363 30.6618 50.208C30.7288 50.1798 30.7896 50.1386 30.8406 50.0868L33.7075 47.2198C33.8107 47.1165 33.8686 46.9765 33.8686 46.8305C33.8686 46.6845 33.8107 46.5445 33.7075 46.4413Z" fill="black"/>
<path d="M44.5435 64.218L44.1213 64.6397C44.018 64.743 43.96 64.8831 43.96 65.0292C43.96 65.1753 44.018 65.3154 44.1213 65.4187C44.2246 65.5219 44.3647 65.58 44.5108 65.58C44.6569 65.5799 44.797 65.5219 44.9003 65.4186L45.322 64.9963C45.4239 64.8928 45.4807 64.7531 45.4801 64.6078C45.4795 64.4625 45.4215 64.3233 45.3187 64.2206C45.216 64.1179 45.0768 64.0599 44.9315 64.0593C44.7862 64.0588 44.6465 64.1156 44.543 64.2175L44.5435 64.218Z" fill="black"/>
<path d="M47.6242 61.1369L45.7397 63.0214C45.6874 63.0723 45.6457 63.1331 45.6171 63.2002C45.5885 63.2673 45.5735 63.3394 45.573 63.4124C45.5725 63.4854 45.5865 63.5577 45.6142 63.6252C45.6419 63.6927 45.6827 63.754 45.7343 63.8056C45.7859 63.8572 45.8472 63.898 45.9147 63.9257C45.9822 63.9534 46.0545 63.9674 46.1275 63.9669C46.2004 63.9665 46.2726 63.9515 46.3397 63.9229C46.4068 63.8943 46.4676 63.8526 46.5185 63.8003L48.403 61.9157C48.504 61.812 48.5601 61.6727 48.5591 61.5279C48.5582 61.3831 48.5002 61.2445 48.3978 61.1421C48.2955 61.0398 48.1569 60.9818 48.0121 60.9808C47.8674 60.9798 47.728 61.0359 47.6242 61.1369Z" fill="black"/>
<path d="M44.951 67.4774C45.0543 67.5807 45.1944 67.6387 45.3405 67.6387C45.4865 67.6387 45.6266 67.5807 45.7299 67.4774L47.9453 65.2621C47.9976 65.2113 48.0393 65.1505 48.0679 65.0834C48.0965 65.0163 48.1115 64.9441 48.112 64.8712C48.1125 64.7982 48.0985 64.7259 48.0708 64.6584C48.0431 64.5909 48.0023 64.5296 47.9507 64.478C47.8991 64.4264 47.8378 64.3855 47.7703 64.3578C47.7028 64.3301 47.6305 64.3161 47.5575 64.3166C47.4846 64.3171 47.4124 64.3321 47.3453 64.3607C47.2782 64.3893 47.2174 64.431 47.1665 64.4832L44.9511 66.6986C44.8478 66.8018 44.7898 66.9419 44.7898 67.088C44.7898 67.234 44.8478 67.3741 44.951 67.4774Z" fill="black"/>
<path d="M48.2495 64.1789C48.3006 64.23 48.3614 64.2706 48.4282 64.2983C48.495 64.326 48.5666 64.3402 48.639 64.3402C48.7113 64.3402 48.7829 64.326 48.8498 64.2983C48.9166 64.2706 48.9773 64.23 49.0285 64.1789L49.8474 63.3599C49.9507 63.2566 50.0087 63.1164 50.0087 62.9704C50.0087 62.8243 49.9506 62.6842 49.8473 62.5809C49.744 62.4776 49.6039 62.4196 49.4578 62.4196C49.3117 62.4196 49.1716 62.4777 49.0683 62.581L48.2495 63.3999C48.1983 63.451 48.1578 63.5118 48.1301 63.5786C48.1024 63.6454 48.0881 63.717 48.0881 63.7894C48.0881 63.8617 48.1024 63.9333 48.1301 64.0002C48.1578 64.067 48.1983 64.1277 48.2495 64.1789Z" fill="black"/>
<path d="M46.3841 68.1537L43.937 70.6007C43.8852 70.6517 43.8439 70.7125 43.8157 70.7795C43.7875 70.8465 43.7728 70.9184 43.7725 70.9911C43.7722 71.0638 43.7863 71.1358 43.8139 71.2031C43.8416 71.2703 43.8823 71.3314 43.9337 71.3828C43.9851 71.4342 44.0462 71.475 44.1134 71.5027C44.1807 71.5303 44.2527 71.5445 44.3254 71.5442C44.3981 71.5439 44.4701 71.5292 44.5371 71.501C44.6041 71.4728 44.6648 71.4315 44.7158 71.3797L47.163 68.9326C47.2149 68.8816 47.2561 68.8209 47.2843 68.7539C47.3125 68.6869 47.3272 68.6149 47.3275 68.5422C47.3278 68.4695 47.3137 68.3975 47.286 68.3302C47.2583 68.263 47.2176 68.2019 47.1662 68.1505C47.1148 68.0991 47.0537 68.0584 46.9865 68.0307C46.9193 68.003 46.8472 67.9889 46.7745 67.9892C46.7018 67.9895 46.6299 68.0042 46.5629 68.0324C46.4959 68.0607 46.4351 68.1019 46.3841 68.1537Z" fill="black"/>
<path d="M50.5127 64.0251L47.6457 66.8921C47.5939 66.9431 47.5527 67.0039 47.5244 67.0709C47.4962 67.1379 47.4815 67.2098 47.4812 67.2825C47.4809 67.3552 47.495 67.4273 47.5227 67.4945C47.5504 67.5617 47.5911 67.6228 47.6425 67.6742C47.6939 67.7256 47.755 67.7664 47.8222 67.794C47.8895 67.8217 47.9615 67.8358 48.0342 67.8355C48.1069 67.8352 48.1789 67.8206 48.2459 67.7923C48.3129 67.7641 48.3736 67.7229 48.4246 67.671L51.2915 64.8041C51.3434 64.7531 51.3846 64.6924 51.4128 64.6254C51.4411 64.5584 51.4558 64.4865 51.4561 64.4138C51.4564 64.3411 51.4423 64.269 51.4146 64.2018C51.3869 64.1346 51.3462 64.0735 51.2948 64.0221C51.2434 63.9706 51.1823 63.9299 51.1151 63.9022C51.0479 63.8745 50.9758 63.8604 50.9031 63.8607C50.8304 63.861 50.7585 63.8757 50.6915 63.9039C50.6245 63.9321 50.5637 63.9733 50.5127 64.0251Z" fill="black"/>
<path d="M66.1091 57.341C65.6574 57.1884 65.2472 56.9333 64.9106 56.5957C64.574 56.2581 64.3201 55.8471 64.169 55.3949C64.1325 55.2852 64.0623 55.1897 63.9685 55.1221C63.8747 55.0544 63.762 55.018 63.6464 55.018C63.5307 55.018 63.418 55.0544 63.3242 55.1221C63.2304 55.1897 63.1603 55.2852 63.1238 55.3949C62.9726 55.8471 62.7188 56.2581 62.3822 56.5957C62.0456 56.9333 61.6353 57.1884 61.1836 57.341C61.0741 57.3776 60.9789 57.4478 60.9114 57.5415C60.8439 57.6352 60.8076 57.7478 60.8076 57.8633C60.8076 57.9788 60.8439 58.0914 60.9114 58.1851C60.9789 58.2788 61.0741 58.349 61.1836 58.3856C61.6353 58.5382 62.0456 58.7933 62.3822 59.1309C62.7188 59.4686 62.9726 59.8796 63.1238 60.3317C63.1603 60.4415 63.2304 60.5369 63.3242 60.6045C63.418 60.6722 63.5307 60.7086 63.6464 60.7086C63.762 60.7086 63.8747 60.6722 63.9685 60.6045C64.0623 60.5369 64.1325 60.4415 64.169 60.3317C64.3201 59.8796 64.574 59.4686 64.9106 59.1309C65.2472 58.7933 65.6574 58.5382 66.1091 58.3856C66.2186 58.349 66.3139 58.2788 66.3813 58.1851C66.4488 58.0914 66.4851 57.9788 66.4851 57.8633C66.4851 57.7478 66.4488 57.6352 66.3813 57.5415C66.3139 57.4478 66.2186 57.3776 66.1091 57.341ZM63.6464 58.9365C63.3571 58.517 62.9942 58.1534 62.5753 57.8633C62.9942 57.5732 63.3571 57.2096 63.6464 56.7901C63.9356 57.2096 64.2985 57.5732 64.7175 57.8633C64.2985 58.1534 63.9356 58.517 63.6464 58.9365Z" fill="black"/>
<path d="M27.0352 36.2626C27.4869 36.4151 27.8971 36.6702 28.2337 37.0078C28.5703 37.3455 28.8242 37.7565 28.9753 38.2087C29.0119 38.3184 29.082 38.4138 29.1758 38.4815C29.2696 38.5491 29.3823 38.5855 29.4979 38.5855C29.6136 38.5855 29.7263 38.5491 29.8201 38.4815C29.9139 38.4138 29.984 38.3184 30.0205 38.2087C30.1717 37.7565 30.4255 37.3455 30.7621 37.0078C31.0987 36.6702 31.509 36.4151 31.9607 36.2626C32.0702 36.2259 32.1654 36.1558 32.2329 36.062C32.3004 35.9683 32.3367 35.8557 32.3367 35.7402C32.3367 35.6247 32.3004 35.5122 32.2329 35.4184C32.1654 35.3247 32.0702 35.2546 31.9607 35.2179C31.509 35.0654 31.0987 34.8103 30.7621 34.4726C30.4255 34.135 30.1717 33.724 30.0205 33.2718C29.984 33.1621 29.9139 33.0666 29.8201 32.999C29.7263 32.9314 29.6136 32.895 29.4979 32.895C29.3823 32.895 29.2696 32.9314 29.1758 32.999C29.082 33.0666 29.0119 33.1621 28.9753 33.2718C28.8242 33.724 28.5703 34.135 28.2337 34.4726C27.8971 34.8103 27.4869 35.0654 27.0352 35.2179C26.9257 35.2546 26.8304 35.3247 26.763 35.4184C26.6955 35.5122 26.6592 35.6247 26.6592 35.7402C26.6592 35.8557 26.6955 35.9683 26.763 36.062C26.8304 36.1558 26.9257 36.2259 27.0352 36.2626ZM29.4979 34.667C29.7872 35.0866 30.1501 35.4502 30.569 35.7402C30.1501 36.0303 29.7872 36.3939 29.4979 36.8134C29.2087 36.3939 28.8458 36.0303 28.4269 35.7402C28.8458 35.4502 29.2087 35.0866 29.4979 34.667Z" fill="black"/>
<path d="M36.6617 30.9668C37.2186 30.9668 37.6701 30.5147 37.6701 29.957C37.6701 29.3994 37.2186 28.9473 36.6617 28.9473C36.1048 28.9473 35.6533 29.3994 35.6533 29.957C35.6533 30.5147 36.1048 30.9668 36.6617 30.9668Z" fill="black"/>
<path d="M61.9058 66.8594C62.4628 66.8594 62.9142 66.4073 62.9142 65.8496C62.9142 65.2919 62.4628 64.8398 61.9058 64.8398C61.3489 64.8398 60.8975 65.2919 60.8975 65.8496C60.8975 66.4073 61.3489 66.8594 61.9058 66.8594Z" fill="black"/>
<path d="M55.9119 34.9111C55.25 34.9115 54.5983 35.0751 54.0147 35.3873C53.4311 35.6996 52.9334 36.151 52.5658 36.7014C52.1983 37.2519 51.9721 37.8845 51.9073 38.5433C51.8425 39.202 51.9411 39.8666 52.1944 40.4781C52.4477 41.0896 52.8479 41.6293 53.3595 42.0493C53.8711 42.4693 54.4784 42.7567 55.1276 42.886C55.7767 43.0153 56.4478 42.9826 57.0813 42.7907C57.7148 42.5988 58.2912 42.2537 58.7595 41.7859C59.3227 41.2227 59.7063 40.5051 59.8617 39.7239C60.0171 38.9427 59.9373 38.133 59.6325 37.3971C59.3277 36.6612 58.8115 36.0323 58.1492 35.5898C57.4869 35.1473 56.7083 34.9111 55.9118 34.9111H55.9119ZM57.9806 41.007C57.5715 41.4162 57.0502 41.6948 56.4826 41.8077C55.9151 41.9206 55.3269 41.8627 54.7922 41.6413C54.2576 41.4198 53.8007 41.0449 53.4792 40.5637C53.1577 40.0826 52.9862 39.517 52.9862 38.9383C52.9862 38.3597 53.1577 37.794 53.4792 37.3129C53.8007 36.8318 54.2576 36.4568 54.7922 36.2353C55.3269 36.0139 55.9151 35.956 56.4826 36.0689C57.0502 36.1818 57.5715 36.4604 57.9806 36.8696C58.5285 37.4187 58.8361 38.1627 58.8361 38.9383C58.8361 39.7139 58.5285 40.4579 57.9806 41.007Z" fill="black"/>
</svg>
