<svg width="76" height="76" viewBox="0 0 76 76" fill="none" xmlns="http://www.w3.org/2000/svg">
<g clip-path="url(#clip0)">
<path d="M30.5281 44.24L26.7842 40.4961L1.2978 64.0234C-0.386376 65.5782 -0.43922 68.2217 1.18157 69.8425C2.80236 71.4633 5.44588 71.4104 7.00062 69.7263L30.5281 44.24Z" fill="#873F30"/>
<path d="M6.88862 69.844C5.32156 71.4111 2.76413 71.4244 1.18253 69.8428C0.714656 69.375 0.386906 68.8223 0.198242 68.2347C1.59608 68.6893 3.19089 68.3568 4.29363 67.2541C4.33238 67.2154 4.37097 67.1742 4.40852 67.1345L27.9365 41.6476L30.5289 44.24L7.00113 69.7268C6.96358 69.7666 6.92617 69.8065 6.88862 69.844Z" fill="#6C3328"/>
<path d="M34.2155 31.625L25.5942 41.9087L29.1161 45.4304L39.3998 36.8093L34.2155 31.625Z" fill="#873F30"/>
<path d="M34.2154 31.625L31.4297 34.9481L32.2655 35.7839C32.8808 36.3992 32.8808 37.3967 32.2655 38.0118L26.9814 43.2959L29.116 45.4304L39.3997 36.8093L34.2154 31.625Z" fill="#6C3328"/>
<path d="M27.0217 47.4214L23.603 44.0027C22.6147 43.0144 22.6147 41.4119 23.603 40.4236C24.5913 39.4353 26.1939 39.4353 27.1822 40.4236L30.6008 43.8423C31.5891 44.8306 31.5891 46.4329 30.6008 47.4214C29.6125 48.4097 28.01 48.4097 27.0217 47.4214Z" fill="#BA5D4F"/>
<path d="M30.5996 47.4213C30.105 47.9158 29.4569 48.1624 28.8112 48.1625C28.1631 48.1625 27.5151 47.9158 27.0205 47.4213L24.4292 44.83C24.9238 45.3246 25.5719 45.5713 26.2188 45.5699C26.8657 45.5711 27.5137 45.3244 28.0083 44.83C28.9974 43.8409 28.9962 42.2387 28.0083 41.2509L30.5996 43.8421C31.5886 44.8313 31.5888 46.4322 30.5996 47.4213Z" fill="#A34F41"/>
<path d="M38.6831 8.12097L46.2739 15.7118L34.3566 27.629L26.7658 20.0382L38.6831 8.12097Z" fill="#BA5D4F"/>
<path d="M50.9829 44.2671L43.3921 36.6763L55.3094 24.759L62.9002 32.3498L50.9829 44.2671Z" fill="#A34F41"/>
<path d="M24.6297 22.6541L24.3661 22.3905C23.3662 21.3906 23.3662 19.7695 24.3661 18.7695L37.4104 5.72525C38.4102 4.72537 40.0313 4.72537 41.0314 5.72525L41.295 5.98887C42.2949 6.98875 42.2949 8.60984 41.295 9.60986L28.2507 22.6541C27.2509 23.654 25.6298 23.654 24.6297 22.6541Z" fill="#873F30"/>
<path d="M48.3711 46.3952L48.6347 46.6589C49.6346 47.6587 51.2557 47.6587 52.2557 46.6589L65.3 33.6146C66.2999 32.6147 66.2999 30.9937 65.3 29.9936L65.0364 29.73C64.0365 28.7301 62.4154 28.7301 61.4154 29.73L48.3711 42.7743C47.3711 43.7743 47.3711 45.3954 48.3711 46.3952Z" fill="#6C3328"/>
<path d="M49.5679 12.9231L58.0923 21.4475L40.0936 39.4461L31.5692 30.9217L49.5679 12.9231Z" fill="#FCC16D"/>
<path d="M35.7734 35.1415L53.7721 17.1428L58.0866 21.4574L40.0879 39.456L35.7734 35.1415Z" fill="#FCA62F"/>
<path d="M49.6091 12.5646L47.5206 11.7108C46.8046 11.418 45.9829 11.5834 45.436 12.1304L30.771 26.7954C30.224 27.3424 30.0587 28.164 30.3514 28.8799L31.2052 30.9684C31.5514 31.8153 32.6485 32.0362 33.2953 31.3893L50.0297 14.6547C50.6768 14.0078 50.4559 12.9107 49.6091 12.5646Z" fill="#873F30"/>
<path d="M58.4602 21.4157L59.3141 23.5043C59.6068 24.2202 59.4414 25.0419 58.8944 25.5888L44.2294 40.2538C43.6824 40.8008 42.8608 40.9662 42.1449 40.6734L40.0564 39.8196C39.2095 39.4735 38.9887 38.3764 39.6355 37.7295L56.3701 20.9949C57.017 20.348 58.1141 20.5689 58.4602 21.4157Z" fill="#6C3328"/>
<path d="M66.1915 62.459H35.0967V58.0954C35.0967 57.1945 35.827 56.4642 36.7279 56.4642H64.5603C65.4612 56.4642 66.1915 57.1945 66.1915 58.0954V62.459Z" fill="#BA5D4F"/>
<path d="M66.1909 58.0957V62.459H62.7786V58.0957C62.7786 57.1952 62.0479 56.4645 61.1475 56.4645H64.5599C65.4602 56.4645 66.1909 57.1952 66.1909 58.0957Z" fill="#A34F41"/>
<path d="M73.0444 71.024H28.2434C27.055 71.024 26.2656 69.7941 26.7604 68.7138L28.3442 65.2556C29.7161 62.2601 32.7084 60.3394 36.0031 60.3394H65.2846C68.5794 60.3394 71.5717 62.2601 72.9436 65.2556L74.5274 68.7138C75.0221 69.7941 74.2326 71.024 73.0444 71.024Z" fill="#873F30"/>
<path d="M73.0449 71.0242H68.6833C69.8708 71.0242 70.6601 69.7942 70.166 68.7145L68.5822 65.2549C67.2103 62.26 64.2172 60.3386 60.9238 60.3386H65.2839C68.5788 60.3386 71.572 62.2601 72.9438 65.2549L74.5277 68.7145C75.022 69.7944 74.2324 71.0242 73.0449 71.0242Z" fill="#6C3328"/>
<path d="M70.6688 53.7632C70.3785 53.7632 70.0884 53.6521 69.8676 53.43C69.4277 52.9873 69.4298 52.272 69.8723 51.8321L71.095 50.6167C71.5376 50.1768 72.253 50.1791 72.6929 50.6214C73.1328 51.064 73.1307 51.7794 72.6882 52.2193L71.4655 53.4347C71.2451 53.6538 70.9568 53.7632 70.6688 53.7632Z" fill="#FCC16D"/>
<path d="M67.1031 51.2363C67.0122 51.2363 66.9197 51.2251 66.8274 51.202C66.2222 51.0501 65.8546 50.4365 66.0063 49.8313L66.4304 48.1406C66.5823 47.5353 67.1964 47.1679 67.8011 47.3196C68.4063 47.4714 68.7738 48.0851 68.6221 48.6903L68.198 50.381C68.0695 50.894 67.609 51.2363 67.1031 51.2363Z" fill="#FCC16D"/>
<path d="M73.1755 57.3435C72.667 57.3435 72.2052 56.9978 72.079 56.4818C71.9307 55.8756 72.3018 55.2641 72.908 55.1159L74.6017 54.7016C75.2082 54.5532 75.8194 54.9244 75.9676 55.5306C76.1159 56.1369 75.7448 56.7484 75.1386 56.8966L73.4449 57.3109C73.3547 57.3328 73.2644 57.3435 73.1755 57.3435Z" fill="#FCC16D"/>
</g>
<defs>
<clipPath id="clip0">
<rect width="76" height="76" fill="white"/>
</clipPath>
</defs>
</svg>
