<svg width="76" height="76" viewBox="0 0 76 76" fill="none" xmlns="http://www.w3.org/2000/svg">
<path d="M63.2344 47.7969C65.694 47.7969 67.6875 49.7904 67.6875 52.25C67.6875 54.7081 65.6925 56.7031 63.2344 56.7031H61.3047L61.2765 56.8204C63.2492 57.2761 64.7188 59.044 64.7188 61.1562C64.7188 63.6144 62.7238 65.6094 60.2656 65.6094H57.2969C59.7565 65.6094 61.75 67.6029 61.75 70.0625C61.75 72.5221 59.7565 74.5156 57.2969 74.5156C55.5271 74.5156 43.0216 74.5156 41.3339 74.5156C33.204 74.5156 31.0427 73.5181 23.1562 71.5469V41.8594C23.3133 41.7363 46.9062 37.4244 46.9062 23.1562V21.6719C46.9062 19.2123 48.8998 17.2188 51.3594 17.2188C53.816 17.2188 55.808 19.2078 55.8125 21.6645C55.8422 21.6645 56.7714 31.0353 52.8438 38.8906H66.2031C68.6627 38.8906 70.6562 40.8841 70.6562 43.3438C70.6562 45.8019 68.6613 47.7969 66.2031 47.7969H63.2344Z" fill="#FFBFAB"/>
<path d="M23.1562 41.8594V71.5469C23.1562 73.1871 21.8277 74.5156 20.1875 74.5156H5.34375V38.8906H20.1875C21.8277 38.8906 23.1562 40.2191 23.1562 41.8594Z" fill="#7BD8E8"/>
<path d="M52.8438 8.3125V1.48438C52.8438 0.664703 52.179 0 51.3594 0C50.5397 0 49.875 0.664703 49.875 1.48438V8.3125C49.875 9.13217 50.5397 9.79688 51.3594 9.79688C52.179 9.79688 52.8438 9.13217 52.8438 8.3125Z" fill="black"/>
<path d="M17.2188 46.3125C16.3994 46.3125 15.7344 46.9775 15.7344 47.7969C15.7344 48.6163 16.3994 49.2812 17.2188 49.2812C18.0381 49.2812 18.7031 48.6163 18.7031 47.7969C18.7031 46.9775 18.0381 46.3125 17.2188 46.3125Z" fill="black"/>
<path d="M66.2031 37.4062H55.122C56.8375 33.0121 57.5319 27.8399 57.398 23.2358C57.3724 22.3572 57.3387 21.8491 57.2932 21.5292C57.2164 18.3219 54.5828 15.7344 51.3594 15.7344C48.0854 15.7344 45.4219 18.3979 45.4219 21.6719V23.1562C45.4219 32.5443 33.3667 37.8191 24.2689 40.0809C23.5811 38.5084 22.0109 37.4062 20.1875 37.4062H5.34375C4.52408 37.4062 3.85938 38.071 3.85938 38.8906V74.5156C3.85938 75.3353 4.52408 76 5.34375 76H20.1875C21.9987 76 23.5599 74.9124 24.2548 73.3565C25.0082 73.5497 25.7074 73.7323 26.353 73.9009C31.5357 75.2545 34.3906 76 41.3339 76H57.2969C60.5708 76 63.2344 73.3364 63.2344 70.0625C63.2344 68.8418 62.8637 67.7062 62.2295 66.7615C64.5225 65.9595 66.2031 63.7686 66.2031 61.1562C66.2031 59.94 65.8415 58.8007 65.2092 57.8517C67.4922 57.0484 69.1719 54.8625 69.1719 52.25C69.1719 51.0293 68.8012 49.8937 68.167 48.949C70.46 48.147 72.1406 45.9561 72.1406 43.3438C72.1406 40.0698 69.4771 37.4062 66.2031 37.4062ZM21.6719 71.5469C21.6719 72.3654 21.006 73.0312 20.1875 73.0312H6.82812V40.375H20.1875C21.006 40.375 21.6719 41.0409 21.6719 41.8594V71.5469ZM66.2031 46.3125C63.0193 46.3125 62.2603 46.3125 58.7812 46.3125C57.9616 46.3125 57.2969 46.9772 57.2969 47.7969C57.2969 48.6165 57.9616 49.2812 58.7812 49.2812H63.2344C64.8713 49.2812 66.2031 50.613 66.2031 52.25C66.2031 53.8896 64.874 55.2188 63.2344 55.2188H55.8125C54.9928 55.2188 54.3281 55.8835 54.3281 56.7031C54.3281 57.5228 54.9928 58.1875 55.8125 58.1875H60.2656C61.8831 58.1875 63.2344 59.4796 63.2344 61.1562C63.2344 62.7959 61.9053 64.125 60.2656 64.125C57.0818 64.125 56.3228 64.125 52.8438 64.125C52.0241 64.125 51.3594 64.7897 51.3594 65.6094C51.3594 66.429 52.0241 67.0938 52.8438 67.0938H57.2969C58.9338 67.0938 60.2656 68.4255 60.2656 70.0625C60.2656 71.6995 58.9338 73.0312 57.2969 73.0312H41.3339C34.7719 73.0312 32.209 72.3619 27.1032 71.0285C26.3552 70.8332 25.5348 70.619 24.6406 70.391V43.0506C35.3827 40.4918 48.3906 34.2462 48.3906 23.1562V21.6719C48.3906 20.0349 49.7224 18.7031 51.3594 18.7031C52.9934 18.7031 54.325 20.0328 54.3281 21.6673V21.6719C54.3281 22.317 55.1333 30.2342 51.9047 37.4062H46.9062C46.0866 37.4062 45.4219 38.071 45.4219 38.8906C45.4219 39.7103 46.0866 40.375 46.9062 40.375C47.9428 40.375 64.5112 40.375 66.2031 40.375C67.8401 40.375 69.1719 41.7068 69.1719 43.3438C69.1719 44.9834 67.8428 46.3125 66.2031 46.3125Z" fill="black"/>
<path d="M17.2188 52.25C16.3991 52.25 15.7344 52.9147 15.7344 53.7344V65.6094C15.7344 66.429 16.3991 67.0938 17.2188 67.0938C18.0384 67.0938 18.7031 66.429 18.7031 65.6094V53.7344C18.7031 52.9147 18.0384 52.25 17.2188 52.25Z" fill="black"/>
<path d="M32.0625 20.1875C32.0625 21.0072 32.7272 21.6719 33.5469 21.6719H39.4844C40.304 21.6719 40.9688 21.0072 40.9688 20.1875C40.9688 19.3678 40.304 18.7031 39.4844 18.7031H33.5469C32.7272 18.7031 32.0625 19.3678 32.0625 20.1875Z" fill="black"/>
<path d="M61.75 20.1875C61.75 21.0072 62.4147 21.6719 63.2344 21.6719H69.1719C69.9915 21.6719 70.6562 21.0072 70.6562 20.1875C70.6562 19.3678 69.9915 18.7031 69.1719 18.7031H63.2344C62.4147 18.7031 61.75 19.3678 61.75 20.1875Z" fill="black"/>
<path d="M62.9049 6.5429L58.7072 10.7406C58.1275 11.3202 58.1275 12.2601 58.7072 12.8399C59.2871 13.4196 60.2266 13.4194 60.8066 12.8399L65.0042 8.64225C65.5839 8.0626 65.5839 7.1227 65.0042 6.5429C64.4244 5.9634 63.4848 5.9634 62.9049 6.5429Z" fill="black"/>
<path d="M44.012 12.8399C44.5917 12.2603 44.5917 11.3204 44.012 10.7406L39.8144 6.5429C39.2346 5.9634 38.295 5.9634 37.715 6.5429C37.1354 7.12255 37.1354 8.06246 37.715 8.64225L41.9127 12.8399C42.4928 13.4196 43.4322 13.4194 44.012 12.8399Z" fill="black"/>
</svg>
