<svg width="76" height="76" viewBox="0 0 76 76" fill="none" xmlns="http://www.w3.org/2000/svg">
<g clip-path="url(#clip0)">
<path d="M30.5926 70.128L24.7003 68.9202L21.2909 72.4514L9.6687 63.2785L17.4199 57.9886L25.6617 48.9693C27.0428 47.4577 29.4845 47.6757 30.5758 49.4088L40.3402 60.6072C41.8159 62.2997 41.3984 64.9159 39.4687 66.0651L33.7162 69.4908C32.7119 70.0979 31.7557 70.1495 30.5926 70.128Z" fill="#FFE7CF"/>
<path d="M40.3403 60.6071L37.9578 57.8744L28.0217 63.7957C27.0175 64.4027 26.0613 64.4543 24.8976 64.4329L19.7371 63.8774L15.2793 67.7061L21.2916 72.4514L24.7004 68.9196L30.5927 70.128C31.7559 70.1489 32.7126 70.0979 33.7163 69.4908L39.4688 66.0651C41.3985 64.9159 41.816 62.2997 40.3403 60.6071Z" fill="#EFD5BD"/>
<path d="M40.0532 60.8461C38.9029 59.0619 37.5014 59.9647 36.351 58.18C35.2006 56.3958 36.6021 55.4925 35.4517 53.7083C34.3007 51.9236 32.8998 52.827 31.7494 51.0422C30.5985 49.2569 31.9999 48.3535 30.849 46.5688C30.1456 45.4781 28.8717 43.2261 28.0959 42.9164L21.8865 45.9843L32.6923 63.0268C33.7464 64.6625 35.9271 65.1339 37.5629 64.0792L39.6305 62.7468C40.262 62.3391 40.4672 61.4949 40.0625 60.8611C40.0596 60.8559 40.0567 60.8513 40.0532 60.8461Z" fill="#344A5D"/>
<path d="M22.1913 48.6226L17.3132 51.6325C16.3878 52.2037 15.1742 51.9161 14.603 50.9907L11.8453 46.5213C11.2742 45.5959 11.5618 44.3823 12.4872 43.8111L17.3654 40.8012C17.9382 40.4481 18.6891 40.6255 19.0428 41.1984L22.5885 46.9452C22.9422 47.518 22.7642 48.2689 22.1913 48.6226Z" fill="#344A5D"/>
<path d="M25.1845 32.6557L15.2832 38.7654C13.9798 39.569 13.5756 41.2772 14.3793 42.5801L19.2621 50.4937C20.0663 51.7966 21.7739 52.2013 23.0774 51.3971L32.9786 45.2879L64.296 38.4708L45.3244 7.72339L25.1845 32.6557Z" fill="#FED066"/>
<path d="M59.826 31.2264L28.6698 38.3056C28.6698 38.3056 17.9428 44.9238 16.4092 45.8707L19.262 50.4937C20.0656 51.7966 21.7738 52.2013 23.0767 51.3971L32.9785 45.2879L64.2959 38.4708L59.826 31.2264Z" fill="#F5B556"/>
<path d="M32.9786 45.2879L23.0768 51.397C21.7739 52.2013 20.0657 51.7966 19.2621 50.4937L14.3793 42.5801C13.5751 41.2772 13.9798 39.569 15.2827 38.7654L25.1845 32.6556L32.9786 45.2879Z" fill="#FD715C"/>
<path d="M28.6698 38.3055C28.6698 38.3055 17.9428 44.9238 16.4092 45.8706L19.262 50.4937C20.0656 51.7965 21.7738 52.2013 23.0767 51.397L28.0273 48.3425L32.9785 45.2879L28.6698 38.3055Z" fill="#D83E3A"/>
<path d="M66.1745 40.6557L64.8229 41.4895C64.1225 41.9215 63.204 41.704 62.7721 41.0036L42.377 7.94956C41.9444 7.24854 42.1619 6.33067 42.8629 5.89811L44.2145 5.06431C44.9149 4.63175 45.8334 4.84919 46.2654 5.55021L66.6604 38.6042C67.093 39.3047 66.875 40.2231 66.1745 40.6557Z" fill="#FD715C"/>
<path d="M66.6606 38.6042L63.3057 33.1659L59.4167 35.5658L62.7723 41.0035C63.2042 41.7039 64.1227 41.9214 64.8231 41.4894L66.1747 40.6556C66.8752 40.2231 67.0932 39.3046 66.6606 38.6042Z" fill="#D83E3A"/>
<path d="M36.9801 65.3461C37.7171 66.5527 39.2931 66.9337 40.4997 66.1961L44.2309 63.9151C45.437 63.1781 45.8174 61.6033 45.0804 60.3972C44.3434 59.1906 42.7674 58.8102 41.5614 59.5472L37.8296 61.8283C36.6241 62.5652 36.2437 64.1401 36.9801 65.3461Z" fill="#FFE7CF"/>
<path d="M45.0805 60.3973C44.7784 59.9027 44.3342 59.5496 43.8338 59.353C43.9649 60.3277 43.5265 61.3337 42.633 61.8799L38.9012 64.161C38.1891 64.5959 37.3501 64.6388 36.6294 64.3558C36.6752 64.6968 36.7894 65.0342 36.9802 65.3468C37.7172 66.5534 39.2932 66.9338 40.4998 66.1962L44.231 63.9152C45.4371 63.1782 45.8169 61.6034 45.0805 60.3973Z" fill="#EFD5BD"/>
<path d="M35.3821 60.3091C36.1301 61.5343 37.7298 61.9205 38.9544 61.1719L42.6196 58.9314C43.8436 58.1834 44.2298 56.5848 43.4824 55.3602C42.7344 54.1356 41.1346 53.7495 39.91 54.498L36.2443 56.7385C35.0203 57.4865 34.6341 59.0851 35.3821 60.3091Z" fill="#FFE7CF"/>
<path d="M43.4824 55.3603C43.1844 54.8726 42.7506 54.5207 42.2595 54.3171C42.3842 55.3005 41.9394 56.3112 41.039 56.8614L37.3733 59.1019C36.6363 59.5525 35.7648 59.5896 35.0232 59.2828C35.0678 59.6359 35.1844 59.9856 35.3821 60.3091C36.1301 61.5343 37.7299 61.9205 38.9545 61.1719L42.6196 58.9315C43.8436 58.1835 44.2298 56.5849 43.4824 55.3603Z" fill="#EFD5BD"/>
<path d="M32.6499 55.9041C33.3979 57.1287 34.9977 57.5155 36.2223 56.7669L39.888 54.5258C41.112 53.7778 41.4976 52.1792 40.7502 50.9552C40.0022 49.73 38.4024 49.3439 37.1778 50.0924L33.5121 52.3329C32.2881 53.0809 31.9019 54.6795 32.6499 55.9041Z" fill="#FFE7CF"/>
<path d="M40.7503 50.9552C40.4586 50.4774 40.0365 50.129 39.5581 49.9237C39.666 50.8949 39.2218 51.8864 38.333 52.4297L34.6678 54.6702C33.9204 55.1271 33.035 55.159 32.2876 54.839C32.3282 55.2048 32.4447 55.5684 32.6494 55.9035C33.398 57.1287 34.9972 57.5149 36.2224 56.7663L39.8881 54.5258C41.1121 53.7779 41.4977 52.1793 40.7503 50.9552Z" fill="#EFD5BD"/>
<path d="M30.0742 51.386C30.8222 52.6107 32.422 52.9968 33.6466 52.2483L37.3123 50.0078C38.5363 49.2598 38.9225 47.6612 38.1745 46.4366C37.4265 45.212 35.8267 44.8258 34.6021 45.5744L30.9364 47.8148C29.7124 48.5628 29.3268 50.1614 30.0742 51.386Z" fill="#FFE7CF"/>
<path d="M38.1744 46.4366C37.8306 45.873 37.3053 45.4897 36.7196 45.31C36.9435 46.3583 36.5022 47.478 35.5362 48.0688L31.8705 50.3093C31.2095 50.7135 30.4395 50.7842 29.7529 50.5731C29.8127 50.8532 29.917 51.128 30.0742 51.3861C30.8221 52.6107 32.4219 52.9968 33.6465 52.2483L37.3122 50.0078C38.5363 49.2598 38.9224 47.6612 38.1744 46.4366Z" fill="#EFD5BD"/>
<path d="M35.5734 54.5293L34.8938 54.9445C33.824 55.5985 32.4417 55.2848 31.805 54.2446L30.679 52.4031C30.1276 51.502 28.9279 51.2341 28.0054 51.8064C27.0794 58.6032 17.4199 57.9886 17.4199 57.9886L23.4055 48.9734C23.8004 48.2903 24.3611 47.7128 25.036 47.2942L28.4142 45.1992C30.0562 44.181 32.1912 44.6565 33.174 46.2603L36.3579 51.4562C36.9957 52.4982 36.6443 53.8747 35.5734 54.5293Z" fill="#FFE7CF"/>
<path d="M36.3574 51.4568L36.3314 51.4139C36.147 51.7102 35.893 51.9705 35.5735 52.1659L34.8934 52.5817C33.8242 53.2352 32.4418 52.922 31.8052 51.8812L30.6791 50.0403C30.1277 49.1386 28.928 48.8713 28.0055 49.443C27.617 52.2935 25.8741 55.0251 23.9287 56.8962C25.8967 56.0317 27.6379 54.5021 28.0055 51.8064C28.928 51.2341 30.1277 51.502 30.6791 52.4031L31.8052 54.2446C32.4418 55.2849 33.8242 55.5986 34.8934 54.9451L35.5735 54.5293C36.6445 53.8747 36.9958 52.4982 36.3574 51.4568Z" fill="#EFD5BD"/>
<path d="M21.4781 72.6735L11.9573 61.3598L15.0924 58.7215C15.191 58.6386 15.3389 58.6514 15.4224 58.7499L24.6417 69.7059C24.7246 69.8045 24.7119 69.9523 24.6133 70.0358L21.4781 72.6735Z" fill="#CDD6DF"/>
<path d="M24.6412 69.7059L19.7369 63.8774L16.4226 66.6664L21.4782 72.6741L24.6128 70.0359C24.7119 69.9524 24.7247 69.8045 24.6412 69.7059Z" fill="#96A4AA"/>
<path d="M60.7557 19.6123C60.3759 19.6123 60.0054 19.4209 59.792 19.0742C59.4649 18.5425 59.6308 17.8467 60.1625 17.5197L66.2867 13.7525C66.8184 13.4255 67.5142 13.5913 67.8406 14.123C68.1677 14.6541 68.0018 15.3499 67.4707 15.677L61.3465 19.4441C61.1615 19.5584 60.9574 19.6123 60.7557 19.6123Z" fill="#DBD9D1"/>
<path d="M74.8716 28.8357C74.8351 28.8357 74.798 28.834 74.7609 28.8305L65.7821 27.9578C65.1611 27.8975 64.7065 27.3455 64.7668 26.7239C64.8271 26.1035 65.3797 25.6478 66.0007 25.7092L74.9795 26.5813C75.6005 26.6416 76.0551 27.1942 75.9948 27.8152C75.9379 28.3991 75.4462 28.8357 74.8716 28.8357Z" fill="#DBD9D1"/>
<path d="M55.6166 11.261C55.4804 11.261 55.3418 11.236 55.2073 11.1838C54.6257 10.9577 54.3381 10.3025 54.5642 9.72151L57.8345 1.31391C58.0606 0.732339 58.7159 0.445321 59.2969 0.670876C59.8784 0.897012 60.1666 1.55164 59.9405 2.13322L56.6702 10.5402C56.4963 10.9873 56.0689 11.261 55.6166 11.261Z" fill="#DBD9D1"/>
<path d="M22.1578 72.5679L11.8675 60.4969C11.7857 60.4007 11.6442 60.3816 11.5393 60.4529L0.579834 69.104C0.213959 69.3928 0 69.834 0 70.3008V73.8204C0 74.6623 0.682465 75.3448 1.52496 75.3448H19.4529C19.9144 75.3448 20.3516 75.1354 20.6415 74.7754L22.1473 72.9008C22.2361 72.8091 22.2401 72.6648 22.1578 72.5679Z" fill="#3C5666"/>
<path d="M22.1578 72.568L17.2785 66.8439L10.095 75.3448H19.4529C19.9145 75.3448 20.3517 75.1355 20.6416 74.7754L22.1474 72.9008C22.2361 72.8092 22.2402 72.6648 22.1578 72.568Z" fill="#194451"/>
</g>
<defs>
<clipPath id="clip0">
<rect width="76" height="76" fill="white"/>
</clipPath>
</defs>
</svg>
