<svg width="17" height="17" viewBox="0 0 17 17" fill="none" xmlns="http://www.w3.org/2000/svg">
<path d="M14.5104 2.48957C12.905 0.884166 10.7704 0 8.5 0C6.22954 0 4.09497 0.884166 2.48957 2.48957C0.884133 4.09501 0 6.22957 0 8.5C0 10.7704 0.884133 12.905 2.48957 14.5104C4.09501 16.1158 6.22954 17 8.5 17C10.7704 17 12.905 16.1158 14.5104 14.5104C16.1158 12.905 17 10.7704 17 8.5C17 6.22957 16.1158 4.09504 14.5104 2.48957ZM8.5 16.0039C4.36233 16.0039 0.996094 12.6377 0.996094 8.5C0.996094 4.36233 4.36233 0.996094 8.5 0.996094C12.6377 0.996094 16.0039 4.36233 16.0039 8.5C16.0039 12.6377 12.6377 16.0039 8.5 16.0039Z" fill="#F4B92F"/>
<path d="M12.5609 5.77265C12.3665 5.57822 12.0511 5.57822 11.8566 5.77269L7.45858 10.1707L5.14343 7.85559C4.94896 7.66112 4.63359 7.66112 4.43909 7.85559C4.24459 8.05006 4.24459 8.36542 4.43909 8.55992L7.1064 11.2272C7.20365 11.3245 7.33112 11.3731 7.45855 11.3731C7.58598 11.3731 7.71348 11.3244 7.8107 11.2272L12.5609 6.47699C12.7554 6.28252 12.7554 5.96716 12.5609 5.77265Z" fill="#F4B92F"/>
</svg>
