<svg width="76" height="76" viewBox="0 0 76 76" fill="none" xmlns="http://www.w3.org/2000/svg">
<g clip-path="url(#clip0)">
<path d="M26.4688 55.6902L19.3142 41.3804C18.7646 40.2811 19.2105 38.9434 20.3098 38.3937C21.4098 37.8434 22.7474 38.2893 23.2971 39.3893L30.4517 53.6984C31.0019 54.7984 30.5561 56.136 29.4561 56.6857C28.3637 57.2325 27.0225 56.7971 26.4688 55.6902Z" fill="#2633D8"/>
<path d="M30.4517 53.6984L23.2971 39.3893C22.7474 38.2893 21.4098 37.8434 20.3098 38.3937L29.4561 56.6857C30.5561 56.136 31.002 54.7984 30.4517 53.6984Z" fill="#141B73"/>
<path d="M0 49.9243V2.22655C0 1.38347 0.476624 0.612287 1.23099 0.235395C1.98535 -0.142077 2.88815 -0.0609 3.5625 0.445295L41.7208 29.0642C43.0428 30.0557 42.8602 32.0973 41.3804 32.8366L3.22214 51.916C1.74356 52.6553 0 51.578 0 49.9243H0Z" fill="#00CEFF"/>
<path d="M41.3804 32.8366C42.8601 32.0973 43.0428 30.0557 41.7208 29.0642L3.56247 0.445295C2.88812 -0.0609 1.98532 -0.142077 1.23096 0.235395L22.3015 42.3766L41.3804 32.8366Z" fill="#0092DD"/>
<path d="M57.0788 38.1582C46.6464 38.1582 38.1582 46.6464 38.1582 57.0793C38.1582 67.5123 46.6464 75.9999 57.0788 75.9999C67.5117 75.9999 75.9999 67.5123 75.9999 57.0793C75.9999 46.6464 67.5123 38.1582 57.0788 38.1582ZM57.0788 42.6113C60.3293 42.6113 63.3323 43.6887 65.7502 45.5053L45.5047 65.7502C43.6887 63.3323 42.6113 60.3293 42.6113 57.0793C42.6113 49.1014 49.1014 42.6113 57.0788 42.6113ZM57.0788 71.5468C53.9546 71.5468 51.0589 70.5512 48.6915 68.861L68.861 48.6915C70.5512 51.0589 71.5468 53.9552 71.5468 57.0793C71.5468 65.0567 65.0567 71.5468 57.0788 71.5468Z" fill="#FF3939"/>
<path d="M75.4937 61.4327V52.7254C73.5217 44.3845 66.014 38.1582 57.0793 38.1582V42.6113C60.3293 42.6113 63.3323 43.6892 65.7502 45.5053L57.0793 54.1761V60.4737L68.861 48.692C70.5512 51.0589 71.5468 53.9552 71.5468 57.0793C71.5468 65.0567 65.0567 71.5468 57.0793 71.5468V75.9999C66.014 75.9999 73.5217 69.7742 75.4937 61.4327Z" fill="#B00000"/>
</g>
<defs>
<clipPath id="clip0">
<rect width="76" height="76" fill="white"/>
</clipPath>
</defs>
</svg>
