<svg width="76" height="76" viewBox="0 0 76 76" fill="none" xmlns="http://www.w3.org/2000/svg">
<path d="M22.5625 23.75V28.6544C22.1825 28.5475 21.7906 28.5 21.375 28.5C20.1281 28.5 19 28.9869 18.145 29.7706L16.435 29.3431C15.4375 29.0937 14.6062 28.5237 14.0006 27.7637C13.4069 27.0037 13.0625 26.0419 13.0625 25.0206C13.0625 22.9069 14.5588 21.0781 16.6369 20.6625L19 20.1875L22.5625 23.75Z" fill="#D3A06C"/>
<path d="M73.625 64.125V68.875C73.625 71.4994 69.9081 73.625 65.3125 73.625C60.7169 73.625 57 71.4994 57 68.875V67.6875V64.125C57 66.7494 60.7169 68.875 65.3125 68.875C69.9081 68.875 73.625 66.7494 73.625 64.125Z" fill="#FCD770"/>
<path d="M67.3906 59.5294C70.9769 60.0519 73.625 61.9044 73.625 64.125C73.625 66.7494 69.9081 68.875 65.3125 68.875C60.7169 68.875 57 66.7494 57 64.125C57 63.7094 57.095 63.3175 57.2731 62.9375C57.9381 61.4531 59.8263 60.2537 62.2844 59.7075C63.2225 59.4937 64.2438 59.375 65.3125 59.375C66.0369 59.375 66.7256 59.4225 67.3906 59.5294Z" fill="#FFC729"/>
<path d="M67.6875 57C67.6875 57.8669 67.5806 58.71 67.3906 59.5294C66.7256 59.4225 66.0369 59.375 65.3125 59.375C64.2437 59.375 63.2225 59.4937 62.2844 59.7075V59.6956C62.7 58.8881 62.9375 57.9738 62.9375 57C62.9375 53.7225 60.2775 51.0625 57 51.0625C53.7225 51.0625 51.0625 53.7225 51.0625 57C51.0625 60.2775 53.7225 62.9375 57 62.9375H57.2613H57.2731C57.095 63.3175 57 63.7094 57 64.125V67.6875C56.8337 67.6875 56.6556 67.6875 56.4894 67.6756C50.825 67.4025 46.3125 62.7238 46.3125 57C46.3125 51.0981 51.0981 46.3125 57 46.3125C57.2137 46.3125 57.4275 46.3244 57.6413 46.3363C63.2463 46.6688 67.6875 51.3119 67.6875 57Z" fill="#FFC729"/>
<path d="M62.9375 57C62.9375 57.9738 62.7 58.8881 62.2844 59.6956V59.7075C59.8263 60.2537 57.9381 61.4531 57.2731 62.9375H57.2613C57.1781 62.9375 57.0831 62.9375 57 62.9375C53.7225 62.9375 51.0625 60.2775 51.0625 57C51.0625 53.7225 53.7225 51.0625 57 51.0625C60.2775 51.0625 62.9375 53.7225 62.9375 57Z" fill="#FCD770"/>
<path d="M57 17.8125C57 17.8125 55.8125 23.75 52.25 28.5C52.0837 28.5 51.9175 28.5119 51.7512 28.5475C51.6444 28.5713 44.555 30.0794 36.7769 31.1125C38.1187 28.4169 38.7244 25.65 38.9856 23.75H39.1875C43.3675 23.75 46.3125 21.7075 49.4831 20.0213L49.875 19.8075C51.9887 18.715 54.2212 17.8125 57 17.8125Z" fill="#D3A06C"/>
<path d="M54.5776 30.3762C54.7082 30.9937 54.5895 31.635 54.2451 32.1694C53.9007 32.7038 53.3664 33.06 52.7489 33.2025C52.6895 33.2144 52.5351 33.25 52.2739 33.2975C50.0295 33.7606 40.5414 35.6606 31.8014 36.4563C29.4026 36.6819 27.0632 36.8125 24.9376 36.8125C24.807 36.8125 24.6764 36.8006 24.5576 36.7769C25.5195 35.91 26.1251 34.6512 26.1251 33.25C26.1251 32.8344 26.0657 32.4306 25.9707 32.0506C29.2957 31.9794 33.1076 31.5994 36.777 31.1125C44.5551 30.0794 51.6445 28.5713 51.7514 28.5475C51.9176 28.5119 52.0839 28.5 52.2501 28.5C53.3664 28.5 54.3401 29.2837 54.5776 30.3762Z" fill="#FF826E"/>
<path d="M49.875 8.3125V19.8075C49.7444 19.8787 49.6137 19.95 49.4831 20.0213C48.4025 16.6725 45.2675 14.25 41.5625 14.25C36.9669 14.25 33.25 17.9669 33.25 22.5625V14.6538V13.0625V8.3125C36.5275 8.3125 39.1875 5.6525 39.1875 2.375H43.9375C43.9375 5.6525 46.5975 8.3125 49.875 8.3125Z" fill="#B4DD7F"/>
<path d="M49.875 2.375V8.3125C46.5975 8.3125 43.9375 5.6525 43.9375 2.375H49.875Z" fill="#A0D468"/>
<path d="M49.4831 20.0213C46.3125 21.7075 43.3675 23.75 39.1875 23.75H38.9856C39.1756 22.3131 39.1875 21.375 39.1875 21.375L36.3375 22.5981C35.3281 23.0256 34.295 23.4056 33.25 23.7144V22.5625C33.25 17.9669 36.9669 14.25 41.5625 14.25C45.2675 14.25 48.4025 16.6725 49.4831 20.0213Z" fill="#FCD770"/>
<path d="M33.25 2.375H39.1875C39.1875 5.6525 36.5275 8.3125 33.25 8.3125V2.375Z" fill="#A0D468"/>
<path d="M27.3125 24.8306C29.3313 24.6762 31.3144 24.2962 33.25 23.7144C34.295 23.4056 35.3281 23.0256 36.3375 22.5981L39.1875 21.375C39.1875 21.375 39.1756 22.3131 38.9856 23.75C38.7244 25.65 38.1187 28.4169 36.7769 31.1125C33.1075 31.5994 29.2956 31.9794 25.9706 32.0506C25.5431 30.3881 24.225 29.0819 22.5625 28.6544V23.75V22.5625C22.5625 23.2156 22.8238 23.8094 23.2631 24.2369C23.6906 24.6762 24.2844 24.9375 24.9375 24.9375C25.7331 24.9375 26.5287 24.9019 27.3125 24.8306Z" fill="#D3A06C"/>
<path d="M33.2497 22.5625V23.7144C31.3141 24.2963 29.331 24.6763 27.3122 24.8306V20.1875H24.9372C24.5335 20.1875 24.1416 20.2944 23.8091 20.4725C24.2485 16.9694 27.241 14.25 30.8747 14.25C31.706 14.25 32.5016 14.3925 33.2497 14.6538V22.5625Z" fill="#FCD770"/>
<path d="M57 46.3125C57.2137 46.3125 57.4275 46.3244 57.6413 46.3362L52.2738 33.2975C50.0294 33.7606 40.5413 35.6606 31.8013 36.4562C29.4025 36.6819 27.0631 36.8125 24.9375 36.8125C24.8069 36.8125 24.6763 36.8006 24.5575 36.7769C23.9994 37.2756 23.3106 37.6556 22.5625 37.8456V52.63C22.5625 53.7344 21.6719 54.625 20.5675 54.625C19.5581 54.625 18.6081 54.2331 17.8956 53.5206C17.0762 52.7012 16.625 51.6087 16.625 50.4569C16.625 50.065 16.6725 49.685 16.7794 49.3169L19.9263 37.7744C19.3444 37.5844 18.8219 37.2994 18.3587 36.9194L12.3975 48.83C11.6612 50.2787 11.1625 51.8344 10.9131 53.4375C10.7587 54.3044 10.6875 55.1831 10.6875 56.0737C10.6875 60.3606 12.2431 64.3387 14.8675 67.4144C17.48 70.4781 21.1612 72.6275 25.4006 73.2687C26.8494 73.4944 28.2981 73.625 29.6875 73.625H36.8125H38C40.47 73.625 42.8806 73.5181 45.1606 73.3637C49.7087 73.0312 53.6987 70.8937 56.4894 67.6756C50.825 67.4025 46.3125 62.7237 46.3125 57C46.3125 51.0981 51.0981 46.3125 57 46.3125Z" fill="#CF9E76"/>
<path d="M27.3125 20.1875V24.8306C26.5287 24.9019 25.7331 24.9375 24.9375 24.9375C24.2844 24.9375 23.6906 24.6762 23.2631 24.2369C22.8238 23.8094 22.5625 23.2156 22.5625 22.5625C22.5625 21.66 23.0731 20.8762 23.8094 20.4725C24.1419 20.2944 24.5337 20.1875 24.9375 20.1875H27.3125Z" fill="#B27946"/>
<path d="M22.5626 2.375L26.7664 6.57875C24.4389 8.89437 20.6864 8.89437 18.3589 6.57875L22.5626 2.375Z" fill="#A0D468"/>
<path d="M26.7661 6.57874C24.4386 8.89436 20.6861 8.89436 18.3586 6.57874L16.0786 8.85874C18.3942 11.1862 18.3942 14.9387 16.0786 17.2662L18.9999 20.1875L22.5624 23.75V22.5625C22.5624 21.66 23.073 20.8762 23.8092 20.4725C24.2486 16.9694 27.2411 14.25 30.8749 14.25C31.7061 14.25 32.5017 14.3925 33.2499 14.6537V13.0625L26.7661 6.57874Z" fill="#B4DD7F"/>
<path d="M11.875 13.0625L16.0787 8.85876C18.3944 11.1863 18.3944 14.9388 16.0787 17.2663L11.875 13.0625Z" fill="#A0D468"/>
<path d="M25.9706 32.0506C26.0656 32.4306 26.125 32.8344 26.125 33.25C26.125 34.6512 25.5194 35.91 24.5575 36.7769C23.9994 37.2756 23.3106 37.6556 22.5625 37.8456C22.1825 37.9525 21.7906 38 21.375 38C20.8762 38 20.3894 37.9169 19.9263 37.7744C19.3444 37.5844 18.8219 37.2994 18.3588 36.9194C17.3019 36.0406 16.625 34.7225 16.625 33.25C16.625 31.8725 17.2069 30.6375 18.145 29.7706C19 28.9869 20.1281 28.5 21.375 28.5C21.7906 28.5 22.1825 28.5475 22.5625 28.6544C24.225 29.0819 25.5431 30.3881 25.9706 32.0506Z" fill="#FC6E51"/>
<path d="M22.5625 37.8457V52.63C22.5625 53.7344 21.6719 54.625 20.5675 54.625C19.5581 54.625 18.6081 54.2332 17.8956 53.5207C17.0762 52.7013 16.625 51.6088 16.625 50.4569C16.625 50.065 16.6725 49.685 16.7794 49.3169L19.9263 37.7744C20.3894 37.9169 20.8762 38 21.375 38C21.7906 38 22.1825 37.9525 22.5625 37.8457Z" fill="#FF826E"/>
<path d="M18.3588 36.9194L12.3975 48.83C11.6612 50.2787 11.1625 51.8344 10.9131 53.4375H10.9013H9.22687C7.86125 53.4375 6.54313 53.0456 5.415 52.3569C4.29875 51.6562 3.36062 50.6587 2.74312 49.4237C2.50562 48.9369 2.375 48.4025 2.375 47.8562C2.375 46.8706 2.79063 45.9325 3.515 45.2675L16.625 33.25C16.625 34.7225 17.3019 36.0406 18.3588 36.9194Z" fill="#FF826E"/>
<path d="M38 42.3759V39.1875H35.625V41.6575C35.2355 41.6017 34.8413 41.5625 34.4375 41.5625H33.25V39.1875H30.875V41.5625H26.125V47.5C26.125 50.8072 28.0713 53.6607 30.875 54.9991V64.0953C29.4417 63.0099 28.5 61.3071 28.5 59.3762V55.8137H26.125V59.3762C26.125 62.6834 28.0713 65.5369 30.875 66.8753V70.0625H33.25V67.5925C33.6395 67.6483 34.0338 67.6875 34.4375 67.6875H35.625V70.0625H38V67.6875H42.75V61.75C42.75 58.4428 40.8037 55.5893 38 54.2509V45.1547C39.4333 46.2401 40.375 47.9429 40.375 49.8738V53.4363H42.75V49.8738C42.75 46.5678 40.8037 43.7143 38 42.3759ZM28.5 47.5V43.9375H30.875V52.2191C29.4417 51.1349 28.5 49.4321 28.5 47.5ZM34.4375 65.3125C34.0314 65.3125 33.6336 65.2709 33.25 65.1926V55.7175C33.6395 55.7733 34.0338 55.8125 34.4375 55.8125C34.8436 55.8125 35.2414 55.8541 35.625 55.9324V65.3125H34.4375ZM40.375 61.75V65.3125H38V57.0309C39.4333 58.1151 40.375 59.8179 40.375 61.75ZM35.625 53.5325C35.2355 53.4767 34.8413 53.4375 34.4375 53.4375C34.0314 53.4375 33.6336 53.3959 33.25 53.3176V43.9375H34.4375C34.8436 43.9375 35.2414 43.9791 35.625 44.0574V53.5325Z" fill="black"/>
<path d="M68.761 58.5829C68.8311 58.0592 68.875 57.5308 68.875 57C68.875 50.9497 64.3233 45.9515 58.4654 45.2247L53.8591 34.0385C54.4148 33.7571 54.8946 33.3462 55.2413 32.8094C55.7579 32.0102 55.9324 31.0567 55.7318 30.1257C55.5263 29.1686 54.9148 28.3753 54.1191 27.8777C57.0843 23.2774 58.1174 18.2756 58.1637 18.0452L58.4488 16.625H57C54.7319 16.625 52.8176 17.176 51.0625 17.936V1.18749H32.0625V10.1959L22.5625 0.695862L10.1959 13.0625L16.5918 19.4584L16.4077 19.4952C13.7809 20.0201 11.875 22.3452 11.875 25.0242C11.875 27.6165 13.6313 29.8656 16.1476 30.495C15.7961 31.1588 15.5729 31.8915 15.4957 32.6741L2.71106 44.3923C1.74325 45.2806 1.1875 46.5429 1.1875 47.8586C1.1875 48.583 1.35969 49.3097 1.68387 49.9617C3.12312 52.8378 6.0135 54.625 9.23044 54.625H9.58431C9.54394 55.1071 9.5 55.5892 9.5 56.0737C9.5 65.1985 16.2581 73.0966 25.2225 74.4491C26.8292 74.689 28.3302 74.8125 29.6875 74.8125H38C40.3168 74.8125 42.7548 74.7222 45.2461 74.5441C49.2836 74.2567 53.0171 72.6227 55.9609 69.9081C56.7221 72.7272 60.5518 74.8125 65.3125 74.8125C70.6396 74.8125 74.8125 72.2047 74.8125 68.875V64.125C74.8125 61.5612 72.333 59.4296 68.761 58.5829ZM72.4375 64.125C72.4375 65.8101 69.5115 67.6875 65.3125 67.6875C61.1135 67.6875 58.1875 65.8101 58.1875 64.125C58.1875 62.4399 61.1135 60.5625 65.3125 60.5625C69.5115 60.5625 72.4375 62.4399 72.4375 64.125ZM61.4021 58.6993C59.2515 59.2919 57.5463 60.3618 56.6093 61.7096C54.1749 61.5089 52.25 59.4866 52.25 57C52.25 54.3804 54.3804 52.25 57 52.25C59.6196 52.25 61.75 54.3804 61.75 57C61.75 57.5937 61.6123 58.1578 61.4021 58.6993ZM66.5 57C66.5 57.4121 66.4679 57.8217 66.4157 58.2291C66.0535 58.2029 65.6866 58.1875 65.3125 58.1875C64.866 58.1875 64.4314 58.2124 64.0027 58.2481C64.0751 57.836 64.125 57.4192 64.125 57C64.125 53.0706 60.9294 49.875 57 49.875C53.0706 49.875 49.875 53.0706 49.875 57C49.875 60.5269 52.4519 63.4541 55.8208 64.0193C55.8196 64.0549 55.8125 64.0894 55.8125 64.125V66.4181C51.1338 65.8302 47.5 61.8355 47.5 57C47.5 51.7619 51.7619 47.5 57 47.5C62.2381 47.5 66.5 51.7619 66.5 57ZM21.375 39.1875V52.6264C21.375 53.0729 21.0104 53.4375 20.5639 53.4375C19.8728 53.4375 19.2221 53.1679 18.7328 52.6787C18.1474 52.0932 17.8125 51.2834 17.8125 50.4545C17.8125 50.1754 17.8493 49.8964 17.9241 49.6268L20.7872 39.1281C20.9831 39.1471 21.1743 39.1875 21.375 39.1875ZM21.375 36.8125C19.4109 36.8125 17.8125 35.2141 17.8125 33.25C17.8125 31.2859 19.4109 29.6875 21.375 29.6875C23.3391 29.6875 24.9375 31.2859 24.9375 33.25C24.9375 35.2141 23.3391 36.8125 21.375 36.8125ZM40.2681 3.56249H42.8581C43.3604 6.53955 45.7116 8.88961 48.6887 9.39311V16.3103C46.9253 14.2987 44.3709 13.0625 41.5625 13.0625C38.7244 13.0625 36.1796 14.3201 34.4375 16.2996V9.39311C37.4146 8.88961 39.7646 6.53955 40.2681 3.56249ZM35.8649 21.5068C35.4017 21.7051 34.9327 21.8797 34.4636 22.0519C34.7272 18.3611 37.8064 15.4375 41.5625 15.4375C44.3448 15.4375 46.8101 17.0347 47.9809 19.4881C47.8266 19.5735 47.671 19.6579 47.5178 19.7434C45.2176 21.0211 43.0291 22.2336 40.3144 22.5043C40.3679 21.8512 40.375 21.4415 40.375 21.3845L40.3904 19.5676L35.8649 21.5068ZM32.0625 22.8166C30.8904 23.1289 29.7029 23.3688 28.5 23.5232V19H25.4576C26.3839 16.8946 28.4715 15.4375 30.875 15.4375C31.2776 15.4375 31.673 15.4897 32.0625 15.5693V22.8166ZM24.9375 21.375H26.125V23.7251C25.7307 23.7417 25.3341 23.75 24.9375 23.75C24.282 23.75 23.75 23.2168 23.75 22.5625C23.75 21.9082 24.282 21.375 24.9375 21.375ZM30.875 13.0625C26.8779 13.0625 23.4674 15.9232 22.7204 19.7956C22.2656 20.1614 21.8916 20.6245 21.66 21.1684L17.6783 17.1867C18.5345 15.9885 19.0036 14.5611 19.0036 13.0589C19.0036 11.5579 18.5369 10.1329 17.6819 8.93474L18.4383 8.1783C19.6353 9.0333 21.0615 9.49999 22.5625 9.49999C24.0635 9.49999 25.4897 9.0333 26.6867 8.1783L31.635 13.1266C31.3821 13.104 31.1315 13.0625 30.875 13.0625ZM23.75 25.9065C24.1229 26.0395 24.5195 26.125 24.9375 26.125C29.0391 26.125 33.0303 25.3056 36.7994 23.6894L37.8456 23.2417C37.6366 24.9161 37.1331 27.4882 35.9682 30.0283C32.8569 30.4273 29.6661 30.7396 26.79 30.8406C26.1879 29.4927 25.1026 28.4097 23.75 27.8172V25.9065ZM27.3066 33.1966C37.5784 32.7679 51.3914 29.8442 52.0006 29.7136C52.6348 29.5794 53.276 29.9998 53.4114 30.6256C53.4779 30.9367 53.4197 31.2538 53.2475 31.5198C53.0729 31.7906 52.8141 31.9687 52.5018 32.0364C51.8522 32.1741 37.3469 35.2367 26.828 35.5906C27.1379 34.8709 27.3125 34.0812 27.3125 33.25C27.3125 33.231 27.3078 33.2144 27.3066 33.1966ZM51.5814 27.3826C51.5553 27.3873 51.5292 27.3849 51.5031 27.3909C51.1207 27.4728 45.4053 28.6817 38.7054 29.6531C39.3621 27.9288 39.7611 26.2711 40.0021 24.8959C43.4589 24.6905 46.1106 23.2406 48.6697 21.8191C50.8476 20.6091 52.9257 19.4548 55.4444 19.1069C54.8922 21.0223 53.6952 24.4102 51.5814 27.3826ZM48.6875 6.95636C47.0262 6.52411 45.7259 5.2238 45.2936 3.56249H48.6875V6.95636ZM37.8314 3.56249C37.3991 5.2238 36.0988 6.52411 34.4375 6.95636V3.56249H37.8314ZM24.9529 6.44455C23.4923 7.26867 21.6339 7.26867 20.1733 6.44455L22.5625 4.05411L24.9529 6.44455ZM15.9576 10.659C16.3839 11.381 16.6286 12.1992 16.6286 13.0589C16.6286 13.9211 16.3839 14.7404 15.9552 15.4636L13.5541 13.0625L15.9576 10.659ZM14.25 25.0242C14.25 23.4733 15.3544 22.1279 16.8744 21.8239L18.6093 21.4771L21.375 24.2416V27.3125C20.0616 27.3125 18.8587 27.7542 17.8743 28.4786L16.7224 28.1901C15.2665 27.8267 14.25 26.524 14.25 25.0242ZM9.937 52.25H9.23044C6.91956 52.25 4.84144 50.9663 3.80831 48.9001C3.64681 48.5759 3.5625 48.2172 3.5625 47.8586C3.5625 47.2079 3.83681 46.5832 4.31656 46.1439L15.8959 35.53C16.1441 36.1237 16.5015 36.6534 16.9183 37.1319L11.3347 48.2992C10.7089 49.552 10.2458 50.8832 9.937 52.25ZM45.0763 72.1762C42.6419 72.3496 40.261 72.4375 38 72.4375H29.6875C28.4489 72.4375 27.0655 72.3235 25.5764 72.0991C17.765 70.9222 11.875 64.0324 11.875 56.0737C11.875 53.7569 12.4224 51.4366 13.4591 49.362L18.0239 40.2325L15.6322 49.0022C15.504 49.4736 15.4375 49.9629 15.4375 50.4545C15.4375 51.908 16.0265 53.3306 17.0537 54.3578C17.9918 55.2959 19.2387 55.8125 20.5639 55.8125C22.3214 55.8125 23.75 54.3839 23.75 52.6264V38.684C24.1644 38.5023 24.5456 38.2648 24.9043 37.9976C24.9149 37.9976 24.9256 38 24.9375 38C34.0361 38 47.1758 35.5312 51.5446 34.6572L55.879 45.182C49.856 45.7496 45.125 50.8309 45.125 57C45.125 62.5064 48.8977 67.1365 53.9909 68.4736C51.4995 70.6313 48.4096 71.9387 45.0763 72.1762ZM65.3125 72.4375C61.1135 72.4375 58.1875 70.5601 58.1875 68.875V68.0829C59.9153 69.3013 62.4423 70.0625 65.3125 70.0625C68.1827 70.0625 70.7097 69.3013 72.4375 68.0829V68.875C72.4375 70.5601 69.5115 72.4375 65.3125 72.4375Z" fill="black"/>
</svg>
