<svg width="76" height="76" viewBox="0 0 76 76" fill="none" xmlns="http://www.w3.org/2000/svg">
<path d="M30.1863 73.625H4.75V63.7806C4.75 60.2775 6.175 57.095 8.47875 54.7912C9.47625 53.7937 10.64 52.9625 11.9225 52.345C13.5969 51.5256 15.485 51.0625 17.4681 51.0625C17.9906 51.0625 18.5013 51.0981 19 51.1575C22.3487 51.5613 25.3412 53.2712 27.3719 55.8125C28.7731 57.5462 29.7231 59.6481 30.0556 61.9875L30.875 67.6875L30.9106 67.7825L36.6225 65.1819L38.9738 70.4781L33.7725 72.8531C32.6444 73.3637 31.4212 73.625 30.1863 73.625Z" fill="#FCD770"/>
<path d="M44.4361 67.6756C45.0893 66.31 45.1249 66.0725 45.1249 65.8231C45.1249 64.2319 43.8305 62.9375 42.2393 62.9375H42.1918C41.7761 62.9375 41.3724 63.0206 40.9924 63.1988L39.5674 63.84C40.8024 61.8094 43.023 60.5625 45.4099 60.5625H47.4999C48.3668 60.5625 49.1743 60.8 49.8749 61.2038C50.2311 61.4056 50.5636 61.6669 50.8605 61.9519C51.7155 62.8187 52.2499 64.0062 52.2499 65.3125C52.2499 66.6188 51.1811 67.6875 49.8749 67.6875H44.448L44.4361 67.6756Z" fill="#B4DD7F"/>
<path d="M39.5675 63.84L39.5556 63.8519L38 64.5525V55.8125H49.875V61.2037C49.1744 60.8 48.3669 60.5625 47.5 60.5625H45.41C43.0231 60.5625 40.8025 61.8094 39.5675 63.84Z" fill="#AAB2BD"/>
<path d="M73.6251 46.3125V51.0625C73.6251 53.6869 71.4995 55.8125 68.8751 55.8125H61.7501H49.8751H38.0001H27.372C25.3414 53.2712 22.3489 51.5613 19.0001 51.1575V47.5H18.6201C19.6295 47.5 20.5914 47.0962 21.292 46.3956L21.3751 46.3125H73.6251Z" fill="#CCD1D9"/>
<path d="M68.8753 15.4375H45.1253H26.066H26.0541C25.6622 19.5462 23.1566 23.0375 19.6416 24.8306C20.6985 25.7094 21.3754 27.0275 21.3754 28.5H24.9378C26.2441 28.5 27.3128 29.5569 27.3128 30.875C27.3128 31.5281 27.0516 32.1219 26.6122 32.5494C26.1847 32.9888 25.591 33.25 24.9378 33.25H21.3754L22.3847 43.3438C22.3966 43.4625 22.3966 43.5931 22.3966 43.7119C22.3966 44.6738 22.0404 45.6 21.3754 46.3125H73.6253V20.1875C73.6253 17.5631 71.4997 15.4375 68.8753 15.4375Z" fill="#69D6F4"/>
<path d="M57 27.3125C63.5584 27.3125 68.875 21.9959 68.875 15.4375C68.875 8.87912 63.5584 3.5625 57 3.5625C50.4416 3.5625 45.125 8.87912 45.125 15.4375C45.125 21.9959 50.4416 27.3125 57 27.3125Z" fill="#E6E9ED"/>
<path d="M32.0625 34.4375H41.5625V41.5625H32.0625V34.4375Z" fill="#FCD770"/>
<path d="M26.0538 15.4375C25.6619 19.5462 23.1563 23.0375 19.6413 24.8306C18.8219 24.1537 17.765 23.75 16.625 23.75H11.875C10.64 23.75 9.47625 24.0588 8.46688 24.6169C4.83313 22.5863 2.375 18.7031 2.375 14.25C2.375 7.695 7.695 2.375 14.25 2.375C20.805 2.375 26.125 7.695 26.125 14.25C26.125 14.6538 26.1012 15.0456 26.0538 15.4375Z" fill="#E6E9ED"/>
<path d="M11.875 41.5625V47.5C7.62375 46.0869 4.75 42.0969 4.75 37.6081V33.25H11.875L10.7588 34.3663C9.95125 35.1738 9.5 36.2663 9.5 37.4062C9.5 38.5462 9.95125 39.6388 10.7588 40.4463L11.875 41.5625Z" fill="#656D78"/>
<path d="M21.375 28.5H18.0975C17.195 28.5 16.3756 29.0106 15.9719 29.8063L14.25 33.25H11.875H4.75V30.875C4.75 28.1794 6.25813 25.8281 8.46688 24.6169C9.47625 24.0587 10.64 23.75 11.875 23.75H16.625C17.765 23.75 18.8219 24.1537 19.6413 24.8306C20.6981 25.7094 21.375 27.0275 21.375 28.5Z" fill="#FF826E"/>
<path d="M24.9375 28.5C26.2437 28.5 27.3125 29.5569 27.3125 30.875C27.3125 31.5281 27.0512 32.1219 26.6119 32.5494C26.1844 32.9887 25.5906 33.25 24.9375 33.25H21.375H14.25L15.9719 29.8063C16.3756 29.0106 17.195 28.5 18.0975 28.5H21.375H24.9375Z" fill="#FC6E51"/>
<path d="M42.2394 62.9375C43.8307 62.9375 45.1251 64.2319 45.1251 65.8231C45.1251 66.0725 45.0894 66.31 44.4363 67.6756C44.1751 68.0081 43.8307 68.2694 43.4269 68.4594L38.9738 70.4781L36.6226 65.1819L38.0001 64.5525L39.5557 63.8519L39.5676 63.84L40.9926 63.1988C41.3726 63.0206 41.7763 62.9375 42.1919 62.9375H42.2394Z" fill="#F0D0B4"/>
<path d="M11.875 47.5V41.5625L10.7588 40.4463C9.95125 39.6388 9.5 38.5462 9.5 37.4062C9.5 36.2663 9.95125 35.1738 10.7588 34.3663L11.875 33.25H14.25H21.375L22.3844 43.3438C22.3963 43.4625 22.3963 43.5931 22.3963 43.7119C22.3963 44.6738 22.04 45.6 21.375 46.3125C21.3394 46.3481 21.3156 46.3719 21.2919 46.3956C20.5913 47.0962 19.6294 47.5 18.62 47.5H19V51.1575C18.5013 51.0981 17.9906 51.0625 17.4681 51.0625C15.485 51.0625 13.5969 51.5256 11.9225 52.345L11.875 52.25V47.5Z" fill="#F0D0B4"/>
<path d="M15.4375 12.0674L16.9563 16.625H22.5625V14.25H18.6687L15.4375 4.55762L11.6541 15.9054L10.2339 13.0625H5.9375V15.4375H8.76612L12.0959 22.0946L15.4375 12.0674Z" fill="black"/>
<path d="M68.875 57C72.1489 57 74.8125 54.3364 74.8125 51.0625V20.1875C74.8125 17.3019 72.7415 14.896 70.0079 14.364C69.4593 7.66294 63.84 2.375 57 2.375C50.198 2.375 44.6001 7.60238 43.9981 14.25H27.3125C27.3125 7.04781 21.4522 1.1875 14.25 1.1875C7.04781 1.1875 1.1875 7.04781 1.1875 14.25C1.1875 18.3682 3.13737 22.2146 6.36975 24.6644C4.65262 26.1879 3.5625 28.4038 3.5625 30.875V33.2488V34.4363V37.6141C3.5625 42.3272 6.39231 46.5239 10.6875 48.3182V51.6527C6.44219 54.036 3.5625 58.577 3.5625 63.7818V74.8125H30.704V74.7852C31.9354 74.7211 33.1313 74.4432 34.2594 73.9302L43.9209 69.5388C44.2973 69.3678 44.6369 69.1422 44.9374 68.875H49.875C51.4211 68.875 52.7274 67.8787 53.219 66.5H71.25C73.2141 66.5 74.8125 64.9016 74.8125 62.9375C74.8125 60.9734 73.2141 59.375 71.25 59.375H64.125C63.4695 59.375 62.9375 58.843 62.9375 58.1875V57H68.875ZM68.875 54.625H27.892C25.9006 52.3688 23.2073 50.7633 20.1875 50.1541V48.4084C20.7801 48.2101 21.3263 47.9038 21.8073 47.5H72.4375V51.0625C72.4375 53.0266 70.8391 54.625 68.875 54.625ZM47.5 59.375H45.4053C42.9721 59.375 40.6576 60.5031 39.1875 62.3153V57H48.6875V59.4949C48.3039 59.4166 47.9061 59.375 47.5 59.375ZM31.8416 66.0523L31.236 61.8153C30.9878 60.0816 30.4166 58.4594 29.5937 57H36.8125V63.7925L31.8416 66.0523ZM16.1714 32.0613L17.0311 30.343C17.233 29.9381 17.6403 29.6863 18.0939 29.6863H24.9375C25.593 29.6863 26.125 30.2195 26.125 30.8738C26.125 31.5281 25.593 32.0613 24.9375 32.0613H16.1714ZM57 4.75C62.8936 4.75 67.6875 9.54513 67.6875 15.4375C67.6875 21.3299 62.8936 26.125 57 26.125C51.1064 26.125 46.3125 21.3299 46.3125 15.4375C46.3125 9.54513 51.1064 4.75 57 4.75ZM43.9981 16.625C44.6001 23.2726 50.198 28.5 57 28.5C63.7355 28.5 69.2942 23.3748 69.9877 16.8209C71.4056 17.2912 72.4375 18.6141 72.4375 20.1875V45.125H23.3653C23.5458 44.5158 23.6313 43.8746 23.5648 43.2226L22.686 34.4363H24.9375C26.9016 34.4363 28.5 32.8379 28.5 30.8738C28.5 28.9097 26.9016 27.3113 24.9375 27.3113H22.4426C22.2775 26.5038 21.9319 25.7664 21.4748 25.1133C24.4376 23.1468 26.4338 20.0925 27.0702 16.625H43.9981ZM3.5625 14.25C3.5625 8.35763 8.35644 3.5625 14.25 3.5625C20.1436 3.5625 24.9375 8.35763 24.9375 14.25C24.9375 18.0583 22.9318 21.5009 19.6864 23.4246C18.791 22.8819 17.7472 22.5625 16.6262 22.5625H11.875C10.6911 22.5625 9.5665 22.8154 8.54644 23.2631C5.46725 21.3097 3.5625 17.9194 3.5625 14.25ZM5.9375 30.875C5.9375 27.6011 8.60106 24.9375 11.875 24.9375H16.6262C18.1747 24.9375 19.494 25.9291 19.9832 27.3113H18.0928C16.7343 27.3113 15.5135 28.0654 14.9055 29.2802L13.5149 32.0613H5.9375V30.875ZM5.9375 37.6141V34.4363H9.19244C8.62363 35.3151 8.3125 36.3351 8.3125 37.4062C8.3125 38.8503 8.89794 40.2646 9.92037 41.287L10.6875 42.0541V45.6677C7.79712 44.061 5.9375 41.0115 5.9375 37.6141ZM11.5995 39.6079C11.02 39.0284 10.6875 38.2256 10.6875 37.4062C10.6875 36.575 11.0105 35.7936 11.5995 35.2046L12.3678 34.4363H20.3003L21.2028 43.4613C21.2812 44.2367 21.0093 45.0003 20.4559 45.5537C19.9737 46.0358 19.304 46.3137 18.6212 46.3137H15.4375V48.6887H17.8125V49.8916C17.6973 49.8881 17.5845 49.875 17.4693 49.875C15.9279 49.875 14.4495 50.1374 13.0625 50.6029V41.0709L11.5995 39.6079ZM33.2761 71.7689C32.3012 72.2131 31.2621 72.4375 30.1886 72.4375C26.866 72.4375 23.9922 70.2988 23.0387 67.1175L21.3263 61.4092L19.0511 62.0908L20.7634 67.7991C21.3239 69.6694 22.4069 71.2429 23.8022 72.4375H5.9375V63.7818C5.9375 57.4227 11.1103 52.25 17.4693 52.25C23.1705 52.25 28.0784 56.506 28.8836 62.1514L29.5877 67.0759L28.0084 67.7944L28.9916 69.9556L36.0228 66.7589L37.4134 69.8867L33.2761 71.7689ZM42.9388 67.3764L39.577 68.9047L38.1864 65.7756L41.4853 64.2758C41.7038 64.1772 41.9461 64.125 42.2346 64.125C43.1728 64.125 43.9375 64.8897 43.9375 65.8279C43.9375 66.4929 43.5456 67.1009 42.9388 67.3764ZM49.875 66.5H46.2508C46.2888 66.2791 46.3125 66.0559 46.3125 65.8279C46.3125 64.0977 45.2259 62.6264 43.681 62.035C44.2344 61.8557 44.8127 61.75 45.4053 61.75H47.5C49.4641 61.75 51.0625 63.3484 51.0625 65.3125C51.0625 65.968 50.5305 66.5 49.875 66.5ZM64.125 61.75H71.25C71.9055 61.75 72.4375 62.282 72.4375 62.9375C72.4375 63.593 71.9055 64.125 71.25 64.125H53.3176C53.0242 62.6846 52.1942 61.4496 51.0625 60.5934V57H60.5625V58.1875C60.5625 60.1516 62.1609 61.75 64.125 61.75Z" fill="black"/>
<path d="M67.6875 49.875H70.0625V52.25H67.6875V49.875Z" fill="black"/>
<path d="M62.9375 49.875H65.3125V52.25H62.9375V49.875Z" fill="black"/>
<path d="M58.1875 49.875H60.5625V52.25H58.1875V49.875Z" fill="black"/>
<path d="M49.875 9.5H52.25V11.875H49.875V9.5Z" fill="black"/>
<path d="M54.625 9.5H64.125V11.875H54.625V9.5Z" fill="black"/>
<path d="M49.875 14.25H52.25V16.625H49.875V14.25Z" fill="black"/>
<path d="M54.625 14.25H64.125V16.625H54.625V14.25Z" fill="black"/>
<path d="M49.875 19H52.25V21.375H49.875V19Z" fill="black"/>
<path d="M54.625 19H64.125V21.375H54.625V19Z" fill="black"/>
<path d="M42.75 33.25H30.875V42.75H42.75V33.25ZM40.375 40.375H33.25V35.625H40.375V40.375Z" fill="black"/>
<path d="M30.875 28.5H42.75V30.875H30.875V28.5Z" fill="black"/>
<path d="M30.875 23.75H42.75V26.125H30.875V23.75Z" fill="black"/>
<path d="M30.875 19H42.75V21.375H30.875V19Z" fill="black"/>
<path d="M45.125 40.375H47.5V42.75H45.125V40.375Z" fill="black"/>
<path d="M49.875 40.375H70.0625V42.75H49.875V40.375Z" fill="black"/>
<path d="M45.125 35.625H70.0625V38H45.125V35.625Z" fill="black"/>
<path d="M45.125 30.875H70.0625V33.25H45.125V30.875Z" fill="black"/>
</svg>
