<svg width="76" height="76" viewBox="0 0 76 76" fill="none" xmlns="http://www.w3.org/2000/svg">
<g clip-path="url(#clip0)">
<path d="M56.0336 69.5592H65.0505C67.6268 69.5592 70.203 66.983 70.203 59.2542V19.322C70.203 15.4576 68.3224 15.4576 67.6268 15.4576C66.6864 15.4576 65.4112 15.4576 65.0505 17.2996C64.9098 18.2568 64.2446 19.0545 63.3282 19.365C62.4118 19.6754 61.3988 19.4462 60.7053 18.7716C60.0117 18.097 59.7547 17.0906 60.0397 16.166C60.7325 12.5809 63.9829 10.07 67.6268 10.305C71.4912 10.305 75.3556 12.8813 75.3556 19.322V59.2542C75.3556 73.5911 67.4722 74.7118 65.0505 74.7118H47.0166L56.0336 69.5592Z" fill="#805333"/>
<path d="M59.8991 54.1016C59.8991 63.3761 56.1763 75.9999 47.0177 75.9999L26.4075 61.8304C22.5431 55.3897 18.6787 43.7965 18.6787 34.7795C18.6787 32.8087 19.6319 21.1253 19.9668 19.3219L33.196 20.61C57.6706 27.0507 59.8991 46.3727 59.8991 54.1016Z" fill="#A56A43"/>
<path d="M26.4078 45.0847V68.2712C26.4078 71.5817 22.6335 70.1647 21.5386 72.9213C21.3683 73.3232 21.4131 73.784 21.6576 74.1455C21.9021 74.5071 22.3131 74.7202 22.7495 74.7118L48.3061 74.7121L26.4078 45.0847Z" fill="#A56A43"/>
<path d="M48.3058 75.9999H22.7492C21.8889 76.0068 21.082 75.5838 20.5982 74.8724C20.1145 74.161 20.0178 73.255 20.3404 72.4575C20.9596 71.0721 22.1878 70.0533 23.6638 69.7009C24.9519 69.2372 25.1194 69.1084 25.1194 68.2711V45.0846C25.1194 44.3732 25.6961 43.7965 26.4075 43.7965C27.1189 43.7965 27.6956 44.3732 27.6956 45.0846V68.2711C27.6956 70.9633 25.8021 71.6589 24.5526 72.1355C23.5736 72.4962 23.0197 72.7409 22.7363 73.4236H48.3058C49.0172 73.4236 49.594 74.0003 49.594 74.7118C49.594 75.4232 49.0172 75.9999 48.3058 75.9999Z" fill="#805333"/>
<path d="M53.458 73.4237C51.7281 75.0879 49.4177 76.0121 47.0173 76H30.2715C29.5601 76 28.9834 75.4233 28.9834 74.7118C28.9834 69.2244 33.8139 70.2291 34.1359 68.6447C33.7214 68.001 33.4207 67.2908 33.2471 66.5451C31.199 58.7261 36.7122 50.8298 44.1319 48.9491C44.5921 48.8364 45.0775 48.9777 45.4052 49.3199C45.733 49.6621 45.8533 50.1531 45.7208 50.608C45.5884 51.063 45.2233 51.4127 44.7631 51.5254C40.1644 52.6719 35.4241 57.3349 35.4241 63.1186C35.3496 64.511 35.6335 65.8991 36.2485 67.1505C36.6726 67.7477 36.8225 68.4971 36.6607 69.2115C35.978 72.4061 32.4356 71.6847 31.74 73.4237H53.458Z" fill="#805333"/>
<path d="M18.7815 37.356C17.0011 39.7884 15.5461 42.4429 14.4533 45.2522C14.2636 45.6939 13.8436 45.9931 13.3642 46.0284C12.8848 46.0636 12.4256 45.8289 12.1733 45.4197L10.035 41.8516C9.80309 41.4603 9.38204 41.2204 8.92724 41.2204H3.2208C1.79797 41.2204 0.644531 42.3738 0.644531 43.7966C0.644531 45.2195 1.79797 46.3729 3.2208 46.3729H6.32521C6.79453 46.369 7.22881 46.6207 7.45877 47.0299L13.2683 57.3349C13.559 57.896 14.2137 58.1633 14.814 57.9661C18.4585 56.829 21.0216 53.5585 21.2547 49.7478L18.7815 37.356Z" fill="#A56A43"/>
<path d="M35.785 16.7457C34.3553 20.6749 30.588 23.2624 26.4074 23.1864C24.937 23.1544 23.5672 23.9308 22.8393 25.2088C21.7162 27.3204 19.74 28.8478 17.4134 29.4023C15.0868 29.9568 12.6341 29.4851 10.6793 28.1071C6.11928 24.8867 5.2047 17.2223 11.9674 14.6589C12.9407 14.2411 13.559 13.2701 13.5261 12.2115C13.3715 -1.21089 30.4006 -4.12208 35.5274 6.44064L35.785 16.7457Z" fill="#805333"/>
<path d="M27.6958 18.2657C25.9053 19.9789 25.506 21.164 23.2131 24.6291C23.0599 24.8077 22.9261 25.002 22.8138 25.2088C21.4662 27.7513 18.9007 29.4172 16.0299 29.6139C13.159 29.8105 10.3903 28.5099 8.7087 26.1749C7.61302 24.6833 7.03819 22.8728 7.07276 21.0223C7.16747 18.0894 9.12913 15.5466 11.9419 14.7105C12.9716 14.2847 13.6109 13.2452 13.5263 12.1342C13.6144 8.34865 16.2322 5.09342 19.9107 4.19517C23.5892 3.29692 27.4127 4.97926 29.2357 8.29814C31.0586 11.617 30.4272 15.7463 27.6958 18.3688V18.2657Z" fill="#CF976A"/>
<path d="M35.425 16.7456C38.2707 16.7456 40.5775 14.4388 40.5775 11.5931C40.5775 8.74742 38.2707 6.44055 35.425 6.44055C32.5793 6.44055 30.2725 8.74742 30.2725 11.5931C30.2725 14.4388 32.5793 16.7456 35.425 16.7456Z" fill="#A56A43"/>
<path d="M17.0163 24.1009C15.2423 25.9151 13.0671 27.2873 10.6658 28.107C9.91302 27.5774 9.25536 26.9241 8.7207 26.1748C8.89894 25.9687 9.13797 25.8243 9.40342 25.7626C11.6086 25.123 13.6044 23.9094 15.1871 22.246C15.6923 21.7409 16.5112 21.7409 17.0163 22.246C17.5214 22.7511 17.5214 23.5701 17.0163 24.0752V24.1009Z" fill="#802D40"/>
<path d="M22.5429 15.4576C20.2424 15.5477 18.1522 14.1265 17.3903 11.9539C17.184 11.2425 17.5935 10.4985 18.3049 10.2922C19.0163 10.0859 19.7603 10.4953 19.9666 11.2068C20.3621 12.272 21.4088 12.9524 22.5429 12.8813C23.2543 12.8813 23.831 13.4581 23.831 14.1695C23.831 14.8809 23.2543 15.4576 22.5429 15.4576Z" fill="#35495E"/>
<path d="M10.9498 20.61C10.9498 21.3214 10.3731 21.8982 9.66167 21.8982H7.0854C6.99467 21.034 7.06454 20.1606 7.2915 19.3219H9.66167C10.3731 19.3219 10.9498 19.8986 10.9498 20.61Z" fill="#A56A43"/>
</g>
<defs>
<clipPath id="clip0">
<rect width="76" height="76" fill="white"/>
</clipPath>
</defs>
</svg>
