<svg width="76" height="76" viewBox="0 0 76 76" fill="none" xmlns="http://www.w3.org/2000/svg">
<path fill-rule="evenodd" clip-rule="evenodd" d="M56.3101 64.2219L54.5757 75.9994H21.4256L19.6914 62.3882L21.4258 49.17C23.5333 48.4894 25.6605 47.9389 27.6166 47.448H48.3807C50.3412 47.9389 52.4686 48.4894 54.576 49.17L56.3101 64.2219Z" fill="#FFE07D"/>
<path fill-rule="evenodd" clip-rule="evenodd" d="M60.4068 76H67.5769C68.795 75.9524 69.1028 75.5535 69.0161 74.2572L68.1882 61.7849C67.8674 56.8992 64.6074 53.7388 60.4068 51.5409L57.8145 64.0825L60.4068 76Z" fill="#FFE07D"/>
<path fill-rule="evenodd" clip-rule="evenodd" d="M54.1252 28.9937C56.9082 28.9634 59.6134 27.4938 59.6134 24.7756V23.1759C59.6134 21.7799 58.4732 20.6267 57.0773 20.6355H56.8692L54.576 20.3538C52.4518 21.8752 52.2742 24.9316 54.1252 28.9937Z" fill="#F5A96C"/>
<path fill-rule="evenodd" clip-rule="evenodd" d="M16.3839 24.7755C16.3839 27.4937 19.0934 28.9632 21.8764 28.9936C22.401 25.7856 22.687 22.4778 21.716 20.2235L19.1323 20.6354H18.9241C17.5282 20.6354 16.3838 21.7799 16.3838 23.1758V24.7755H16.3839Z" fill="#F5A96C"/>
<path fill-rule="evenodd" clip-rule="evenodd" d="M29.8486 39.5845L29.866 46.8936L37.9986 53.3356L46.1355 46.8936L46.1529 39.5845C40.8988 35.2147 35.7314 35.4226 29.8486 39.5845Z" fill="#FFBC85"/>
<path fill-rule="evenodd" clip-rule="evenodd" d="M21.3652 20.6441V25.6902C21.3652 26.7523 21.5429 27.8665 21.8767 28.9937C23.0298 32.8911 26.0297 36.9357 29.8489 39.5846C31.1017 40.4559 32.4412 41.1755 33.8328 41.6915C35.3414 42.2507 36.6723 42.5325 37.9988 42.5325C39.3297 42.5325 40.6606 42.2508 42.1649 41.6915C43.5608 41.1757 44.9003 40.4559 46.1531 39.5846C49.9722 36.9357 52.9722 32.8911 54.1252 28.9937C54.4591 27.8666 54.6367 26.7525 54.6367 25.6902V20.6441C46.8597 5.6488 28.5224 6.51152 21.3652 20.6441Z" fill="#FED1A3"/>
<path fill-rule="evenodd" clip-rule="evenodd" d="M40.6816 23.332C40.6816 25.8768 42.7451 27.936 45.2897 27.936C47.8344 27.936 49.898 25.8767 49.898 23.332C49.898 22.1788 49.4732 21.1298 48.7795 20.3233C47.9342 19.3437 46.6856 18.7236 45.2897 18.7236C44.7175 18.7236 44.1713 18.8277 43.664 19.0184C41.9215 19.6773 40.6816 21.3594 40.6816 23.332Z" fill="#9DC6FB"/>
<path fill-rule="evenodd" clip-rule="evenodd" d="M30.7109 27.9359C33.2556 27.9359 35.3147 25.8767 35.3147 23.332C35.3147 21.3596 34.0793 19.6775 32.3365 19.0186C31.8293 18.8278 31.283 18.7238 30.7108 18.7238C29.3149 18.7238 28.0664 19.3436 27.221 20.3235C26.5231 21.1298 26.1025 22.1789 26.1025 23.3321C26.1027 25.8767 28.1663 27.9359 30.7109 27.9359Z" fill="#9DC6FB"/>
<path fill-rule="evenodd" clip-rule="evenodd" d="M27.2221 20.3233C28.0674 19.3436 29.3159 18.7236 30.7118 18.7236C31.2841 18.7236 31.8303 18.8277 32.3375 19.0184C33.8332 18.4071 35.2117 17.5661 36.3041 16.4086C37.3097 15.3465 37.6566 14.8176 37.9991 14.8176C38.3458 14.8176 38.6927 15.3465 39.6984 16.4086C40.7909 17.5661 42.1694 18.4071 43.6649 19.0184C44.1721 18.8277 44.7184 18.7236 45.2906 18.7236C46.6865 18.7236 47.935 19.3435 48.7804 20.3233C51.0216 20.6312 53.1241 20.6529 54.5936 20.6441L56.8695 20.6355C56.8695 6.92327 47.4538 0.0476484 37.9991 0C28.5486 0.0476484 19.1328 6.92327 19.1328 20.6355L21.4087 20.6441C22.874 20.6529 24.9808 20.6312 27.2221 20.3233Z" fill="#365E7D"/>
<path fill-rule="evenodd" clip-rule="evenodd" d="M54.5752 75.9999H60.4058V51.5408C58.5851 50.5914 56.5867 49.8197 54.5752 49.1696V75.9999Z" fill="#365E7D"/>
<path fill-rule="evenodd" clip-rule="evenodd" d="M8.42472 76H15.5948L17.3289 63.0769L15.5948 51.5409C11.3899 53.7388 8.13423 56.8992 7.81346 61.7849L6.98547 74.2572C6.89879 75.5535 7.20219 75.9524 8.42472 76Z" fill="#FFE07D"/>
<path fill-rule="evenodd" clip-rule="evenodd" d="M15.5947 75.9999H21.4254V49.1696C19.4096 49.8199 17.4155 50.5914 15.5947 51.5408V75.9999Z" fill="#365E7D"/>
<path fill-rule="evenodd" clip-rule="evenodd" d="M54.5756 49.1696C52.4688 48.489 50.3402 47.9385 48.3809 47.4485L48.3852 51.7057C48.9834 51.879 49.586 52.0612 50.1842 52.2562C51.6799 52.7375 53.1668 52.9672 54.5756 53.6045V49.1696Z" fill="#FFD064"/>
<path fill-rule="evenodd" clip-rule="evenodd" d="M60.4058 57.3847V51.5408C58.5851 50.5914 56.5867 49.8197 54.5752 49.1696V53.6044C54.7702 53.6954 54.961 53.7821 55.156 53.8775C55.4421 54.0163 55.7326 54.1593 56.0144 54.3067C57.2108 54.931 58.3293 55.6333 59.3264 56.4353C59.7036 56.7344 60.0634 57.0508 60.4058 57.3847Z" fill="#2B4D66"/>
<path fill-rule="evenodd" clip-rule="evenodd" d="M68.1876 61.7849C67.8669 56.8992 64.6069 53.7388 60.4062 51.5409V57.3847C62.3223 59.2488 63.6012 61.902 63.7963 64.8716L64.5333 76H67.5765C68.7946 75.9524 69.1025 75.5535 69.0158 74.2572L68.1876 61.7849Z" fill="#FFD064"/>
<path fill-rule="evenodd" clip-rule="evenodd" d="M46.1533 39.5845C49.9725 36.9357 52.9724 32.8911 54.1255 28.9937C54.4593 27.8666 54.637 26.7524 54.637 25.6902V20.6441H54.5936C54.4679 20.6484 54.3422 20.6484 54.2122 20.6484C53.2541 20.6484 52.075 20.6267 50.7919 20.5312V24.576C50.7919 25.6424 50.6142 26.7566 50.2803 27.8794C49.2356 31.4125 46.6736 35.0627 43.3615 37.6899C43.0191 37.963 42.6679 38.2231 42.3081 38.4745C41.0553 39.3416 39.7158 40.0612 38.3198 40.5815C36.8156 41.1363 35.4847 41.4182 34.1538 41.4182C33.7637 41.4182 33.3692 41.3922 32.9746 41.3444C33.2563 41.4702 33.5468 41.5828 33.833 41.6912C35.3416 42.2503 36.6725 42.5322 37.9991 42.5322C39.33 42.5322 40.6609 42.2505 42.1651 41.6912C43.5609 41.1755 44.9005 40.4559 46.1533 39.5845Z" fill="#FFBC85"/>
<path fill-rule="evenodd" clip-rule="evenodd" d="M37.9987 42.5323C36.6722 42.5323 35.3414 42.2506 33.8327 41.6912C33.5467 41.5829 33.2562 41.4701 32.9743 41.3445C31.8905 40.872 30.8414 40.2737 29.8486 39.5845L29.8572 43.239C30.2344 43.4384 30.6159 43.6205 31.0017 43.7896C31.2834 43.9153 31.5739 44.0324 31.8601 44.1363C34.5998 45.155 38.341 46.6378 43.1356 44.4701C44.5575 43.8241 44.176 44.3358 44.1717 46.1696V47.5091L46.1355 46.8935L46.1529 39.5845C44.9001 40.4558 43.5606 41.1754 42.1647 41.6914C40.6604 42.2506 39.3296 42.5323 37.9987 42.5323Z" fill="#F5A96C"/>
<path fill-rule="evenodd" clip-rule="evenodd" d="M56.8691 20.6355C56.8691 6.92327 47.4534 0.0476484 37.9987 0C37.0883 0.00430469 36.178 0.073625 35.2764 0.203805C42.0261 1.41758 48.1732 6.22102 50.1369 14.614C50.5617 16.4218 50.7915 18.3942 50.7915 20.5314C52.0747 20.6269 53.2538 20.6485 54.2118 20.6485L54.5933 20.6442H54.6366H54.6409L56.8605 20.6356H56.8691V20.6355Z" fill="#2B4D66"/>
<path fill-rule="evenodd" clip-rule="evenodd" d="M35.3151 23.332C35.3151 21.3596 34.0797 19.6775 32.3369 19.0186C31.8297 18.8278 31.2834 18.7238 30.7112 18.7238C30.3428 18.7238 29.983 18.7671 29.6404 18.8495C31.3657 19.5127 32.5925 21.1862 32.5925 23.15C32.5925 25.3262 31.0839 27.147 29.0508 27.6282C29.5666 27.8276 30.1259 27.9361 30.7111 27.9361C33.256 27.9359 35.3151 25.8767 35.3151 23.332Z" fill="#80B4FB"/>
<path fill-rule="evenodd" clip-rule="evenodd" d="M49.898 23.332C49.898 22.1788 49.4732 21.1298 48.7795 20.3233C47.9342 19.3437 46.6857 18.7236 45.2898 18.7236C44.9213 18.7236 44.5658 18.767 44.2234 18.8494C44.9344 19.1225 45.5629 19.569 46.0527 20.1369C46.7507 20.9475 47.1712 21.9967 47.1712 23.1499C47.1712 25.3261 45.6626 27.1469 43.6338 27.6281C44.1453 27.8275 44.7046 27.936 45.2898 27.936C47.8346 27.936 49.898 25.8767 49.898 23.332Z" fill="#80B4FB"/>
<path d="M37.9987 36.0798C36.5687 36.0798 35.2241 35.5212 34.2128 34.5072C33.7654 34.0588 33.7665 33.3325 34.2149 32.8851C34.6633 32.4379 35.3896 32.4386 35.837 32.8872C36.4149 33.4666 37.1826 33.7857 37.9989 33.7857C38.815 33.7857 39.5827 33.4666 40.1607 32.8872C40.608 32.4388 41.3343 32.4376 41.7828 32.8851C42.2313 33.3324 42.2323 34.0587 41.7849 34.5072C40.7733 35.5214 39.4288 36.0798 37.9987 36.0798Z" fill="#F5A96C"/>
<path d="M39.1465 55.2477V75.9994H36.8525V55.2477C36.8525 54.6146 37.3649 54.1007 37.9995 54.1007C38.6326 54.1007 39.1465 54.6146 39.1465 55.2477Z" fill="#FFD064"/>
<path d="M43.1351 61.5837H42.771C42.1375 61.5837 41.624 61.0702 41.624 60.4368C41.624 59.8032 42.1376 59.2898 42.771 59.2898H43.1351C43.7686 59.2898 44.2821 59.8034 44.2821 60.4368C44.2822 61.0702 43.7686 61.5837 43.1351 61.5837Z" fill="#365E7D"/>
<path d="M43.1351 66.7729H42.771C42.1375 66.7729 41.624 66.2594 41.624 65.626C41.624 64.9926 42.1376 64.479 42.771 64.479H43.1351C43.7686 64.479 44.2821 64.9926 44.2821 65.626C44.2821 66.2594 43.7686 66.7729 43.1351 66.7729Z" fill="#365E7D"/>
<path d="M43.1351 71.9622H42.771C42.1375 71.9622 41.624 71.4486 41.624 70.8152C41.624 70.1817 42.1376 69.6682 42.771 69.6682H43.1351C43.7686 69.6682 44.2821 70.1818 44.2821 70.8152C44.2822 71.4486 43.7686 71.9622 43.1351 71.9622Z" fill="#365E7D"/>
<path d="M30.7027 24.4834C30.4091 24.4834 30.1156 24.3713 29.8917 24.1475C29.4437 23.6996 29.4437 22.9733 29.8917 22.5253L29.9047 22.5123C30.3526 22.0644 31.0789 22.0644 31.5268 22.5123C31.9748 22.9601 31.9748 23.6864 31.5268 24.1344L31.5138 24.1475C31.2899 24.3713 30.9963 24.4834 30.7027 24.4834Z" fill="#365E7D"/>
<path d="M45.2954 24.4834C44.9247 24.4834 44.5611 24.3041 44.34 23.9725L44.3314 23.9594C43.9801 23.4323 44.1224 22.7201 44.6495 22.3688C45.1766 22.0174 45.8887 22.1598 46.24 22.6869L46.2486 22.6999C46.6 23.227 46.4576 23.9392 45.9305 24.2906C45.7352 24.4209 45.514 24.4834 45.2954 24.4834Z" fill="#365E7D"/>
<path d="M45.2901 17.5766C42.7504 17.5766 40.5913 19.2308 39.8295 21.5177C38.6064 21.0132 37.3926 21.0133 36.168 21.5185C35.4069 19.231 33.2493 17.5764 30.7113 17.5764C27.5378 17.5764 24.9561 20.1582 24.9561 23.3318C24.9561 26.5029 27.5378 29.0827 30.7113 29.0827C33.6704 29.0827 36.1137 26.8359 36.4273 23.9591C37.5393 23.2601 38.4603 23.2598 39.5697 23.9583C39.8832 26.8357 42.3286 29.0827 45.2902 29.0827C48.4637 29.0827 51.0454 26.5029 51.0454 23.3318C51.0453 20.1583 48.4635 17.5766 45.2901 17.5766ZM30.7113 26.7887C28.8028 26.7887 27.2502 25.238 27.2502 23.3318C27.2502 21.4232 28.8028 19.8705 30.7113 19.8705C32.6174 19.8705 34.1681 21.4232 34.1681 23.3318C34.1681 25.238 32.6174 26.7887 30.7113 26.7887ZM45.2901 26.7887C43.3816 26.7887 41.8288 25.238 41.8288 23.3318C41.8288 21.4232 43.3815 19.8705 45.2901 19.8705C47.1985 19.8705 48.7512 21.4232 48.7512 23.3318C48.7512 25.238 47.1985 26.7887 45.2901 26.7887Z" fill="#E5384F"/>
<path fill-rule="evenodd" clip-rule="evenodd" d="M40.9678 54.5279L46.7594 56.34C47.6914 56.6348 48.3851 56.5134 48.3851 55.4642L48.3808 47.4485C48.3288 46.5164 47.6525 46.4167 46.7594 46.6984L46.1352 46.8935L40.9678 48.5105L39.082 51.8053L40.9678 54.5279Z" fill="#EB5468"/>
<path fill-rule="evenodd" clip-rule="evenodd" d="M29.2409 56.3399L35.0325 54.5278L37.2433 51.3111L35.0325 48.5106L29.8651 46.8935L29.2409 46.6985C28.3479 46.4167 27.6716 46.5163 27.6152 47.4485V55.4643C27.6154 56.5134 28.3089 56.6347 29.2409 56.3399Z" fill="#EB5468"/>
<path fill-rule="evenodd" clip-rule="evenodd" d="M35.8096 55.2476H37.9988H40.1924C40.5999 55.2476 40.938 54.9311 40.9684 54.528L40.9727 54.4673V48.5715L40.9684 48.5108C40.9382 48.1119 40.6 47.7911 40.1924 47.7911H35.8096C35.4022 47.7911 35.064 48.1119 35.0336 48.5108C35.0293 48.5324 35.0293 48.5498 35.0293 48.5715V54.4673C35.0293 54.4889 35.0293 54.5106 35.0336 54.528C35.064 54.9311 35.4022 55.2476 35.8096 55.2476Z" fill="#F37C7C"/>
<path fill-rule="evenodd" clip-rule="evenodd" d="M35.8096 55.2476H37.9988H40.1924C40.5999 55.2476 40.938 54.9311 40.9684 54.528L40.9727 54.4673V51.6321L40.9684 51.6278C40.9382 52.031 40.6 52.3474 40.1924 52.3474H37.9988H35.8096C35.4022 52.3474 35.064 52.031 35.0336 51.6278L35.0293 51.6321V54.4673L35.0336 54.528C35.064 54.9311 35.4022 55.2476 35.8096 55.2476Z" fill="#EB5468"/>
<path fill-rule="evenodd" clip-rule="evenodd" d="M35.0292 54.4672V51.6321V51.5757L29.2419 53.3878C28.3401 53.6695 27.664 53.5699 27.6162 52.6161V55.4643C27.6162 56.5135 28.3099 56.6347 29.2419 56.3401L35.0335 54.528L35.0292 54.4672Z" fill="#E5384F"/>
<path fill-rule="evenodd" clip-rule="evenodd" d="M46.7551 53.3878L40.9721 51.5757V51.6321V54.4672L40.9678 54.528L46.7594 56.3401C47.6914 56.6349 48.385 56.5135 48.385 55.4643V52.5251C48.3764 53.5612 47.6828 53.6782 46.7551 53.3878Z" fill="#E5384F"/>
</svg>
