<svg width="76" height="76" viewBox="0 0 76 76" fill="none" xmlns="http://www.w3.org/2000/svg">
<g clip-path="url(#clip0)">
<path d="M61.6251 12.7298C61.5853 12.7427 47.6821 16.8394 47.6426 16.8529C46.1521 17.3714 45.1506 18.7801 45.1506 20.3581V26.6256C45.1506 27.8554 46.1475 28.8523 47.3773 28.8523H64.3004C65.5302 28.8523 66.5271 27.8554 66.5271 26.6256V16.2446C66.5271 13.7098 64.0308 11.9144 61.6251 12.7298Z" fill="#FF5E94"/>
<path d="M23.7739 24.3987V66.3507C23.7739 71.6713 28.1025 75.9998 33.4231 75.9998H56.878C62.1986 75.9998 66.5272 71.6713 66.5272 66.3507C66.5272 64.0151 66.5272 25.5703 66.5272 24.3987H23.7739Z" fill="#9DCFFF"/>
<path d="M45.1506 24.3987V75.9998H56.8781C62.1985 75.9998 66.5273 71.6711 66.5273 66.3507V24.3987H45.1506Z" fill="#72BBFF"/>
<path d="M35.2437 34.6418C34.0139 34.6418 33.017 35.6388 33.017 36.8686V63.5303C33.017 64.7601 34.0139 65.757 35.2437 65.757C36.4735 65.757 37.4704 64.7601 37.4704 63.5303V36.8686C37.4704 35.6388 36.4733 34.6418 35.2437 34.6418Z" fill="#5A5A5A"/>
<path d="M45.1504 34.6418C43.9206 34.6418 42.9237 35.6388 42.9237 36.8686V63.5303C42.9237 64.7601 43.9206 65.757 45.1504 65.757C46.3802 65.757 47.3771 64.7601 47.3771 63.5303V36.8686C47.3771 35.6388 46.3802 34.6418 45.1504 34.6418Z" fill="#5A5A5A"/>
<path d="M47.3771 36.8703V63.5316C47.3771 64.7608 46.3796 65.7583 45.1504 65.7583V34.6436C46.3796 34.6436 47.3771 35.6396 47.3771 36.8703Z" fill="#444444"/>
<path d="M55.0573 34.6418C53.8275 34.6418 52.8306 35.6388 52.8306 36.8686V63.5303C52.8306 64.7601 53.8275 65.757 55.0573 65.757C56.2871 65.757 57.284 64.7601 57.284 63.5303V36.8686C57.284 35.6388 56.2871 34.6418 55.0573 34.6418Z" fill="#444444"/>
<path d="M28.5253 2.68231C28.5253 2.68231 28.5253 2.68231 28.5238 2.68231C26.2474 1.25909 23.1777 1.52553 21.1821 3.52098V3.52246L17.0882 7.61489L12.9943 11.7088C10.6787 14.0244 10.6787 17.7918 12.9943 20.1059L15.0947 22.2063L18.1094 21.8946L18.243 19.0565L16.1441 16.9575C15.5652 16.3786 15.5652 15.4361 16.1441 14.8586L20.238 10.7647L24.3305 6.67082H24.3319C24.8795 6.12324 25.82 6.05986 26.4294 6.66934L28.5298 8.76973L31.2833 8.31254L31.6796 5.62137C29.4818 3.4236 29.2437 3.12495 28.5253 2.68231Z" fill="#5A5A5A"/>
<path d="M28.5254 2.68242C28.5254 2.68242 28.5254 2.68242 28.5239 2.68242C26.2532 1.26276 23.1849 1.52 21.1822 3.52257L17.0883 7.61499L20.2381 10.7648L24.332 6.67093C24.8791 6.12379 25.8189 6.05878 26.4294 6.66945L28.5298 8.76984L31.6797 5.62148C29.4099 3.35172 29.2806 3.16128 28.5254 2.68242Z" fill="#444444"/>
<path d="M47.1168 5.50884L43.128 1.52003C41.1023 -0.505699 37.8061 -0.505699 35.7802 1.52003L10.9923 26.3078C8.96659 28.3335 8.96659 31.6297 10.9923 33.6556L14.9811 37.6444C15.8505 38.5139 17.2605 38.5141 18.1301 37.6444L47.1168 8.65779C47.9864 7.78825 47.9864 6.37839 47.1168 5.50884Z" fill="#3BA9FF"/>
<path d="M43.1279 1.51941L47.1167 5.50822C47.9858 6.37732 47.9869 7.78703 47.1167 8.65732L32.6237 23.1503L23.3865 13.913L35.7801 1.51941C37.806 -0.506469 41.102 -0.506469 43.1279 1.51941Z" fill="#0081FF"/>
</g>
<defs>
<clipPath id="clip0">
<rect width="76" height="76" fill="white"/>
</clipPath>
</defs>
</svg>
