<svg width="76" height="76" viewBox="0 0 76 76" fill="none" xmlns="http://www.w3.org/2000/svg">
<path d="M44.4559 74.5156H31.0966V61.75H44.4559V74.5156ZM35.5497 71.5469H40.0028V66.2031H35.5497V71.5469Z" fill="#8B8992"/>
<path d="M37.9989 66.2031H40.0028V71.5469H37.9989V74.5156H44.4559V61.75H37.9989V66.2031Z" fill="#57555C"/>
<path d="M71.3231 55.8125H4.67468V20.1875H71.3231V55.8125Z" fill="#9BC9FF"/>
<path d="M71.3227 20.1875H37.9985V55.8125H71.3227V20.1875Z" fill="#009AE5"/>
<path d="M48.9087 71.5469H26.6431V76H48.9087V71.5469Z" fill="#005ECE"/>
<path d="M35.5497 55.8125H22.1903V25.3828H35.5497V55.8125Z" fill="#B87FD9"/>
<path d="M35.5497 55.8125H28.87V25.3828H35.5497V55.8125Z" fill="#8034AD"/>
<path d="M43.0002 19.4453H14.5915L8.81567 0H17.3127C20.3466 0 23.8778 1.08567 26.6435 3.04327V0H48.7759L43.0002 19.4453Z" fill="#8B8992"/>
<path d="M48.7759 0H28.7958V19.4453H43.0002L48.7759 0Z" fill="#57555C"/>
<path d="M36.8856 29.8359H20.8544C17.1712 29.8359 14.1747 26.8394 14.1747 23.1562V14.9922H43.5653V23.1562C43.5653 26.8394 40.5688 29.8359 36.8856 29.8359Z" fill="#E3CEF0"/>
<path d="M28.87 14.9922V29.8359H36.8856C40.5688 29.8359 43.5653 26.8394 43.5653 23.1562V14.9922H28.87Z" fill="#D5B4E8"/>
<path d="M63.4874 17.5669C62.132 17.5669 60.7946 17.2116 59.5893 16.5157C57.7799 15.471 56.4856 13.7843 55.945 11.7662C55.4042 9.74815 55.6816 7.64034 56.7263 5.83103C57.771 4.02173 59.4577 2.7275 61.4759 2.18674L69.0311 0.162354L71.0553 7.71753C71.5961 9.73553 71.3186 11.8433 70.2739 13.6526C69.2292 15.462 67.5427 16.7563 65.5245 17.2969C64.8508 17.4776 64.1666 17.5669 63.4874 17.5669Z" fill="#E0E0E2"/>
<path d="M71.0553 7.71753L69.031 0.162354H69.0309L59.5894 16.5156C60.7947 17.2114 62.1321 17.5669 63.4875 17.5668C64.1669 17.5668 64.8509 17.4774 65.5246 17.2969C67.5426 16.7562 69.2293 15.462 70.274 13.6526C71.3186 11.8433 71.596 9.73553 71.0553 7.71753Z" fill="#ACABB1"/>
<path d="M41.6983 60.8631L30.1288 54.1834L48.6835 22.0458L60.253 28.7255L41.6983 60.8631Z" fill="#FFE477"/>
<path d="M35.9133 57.5228L41.6978 60.8625L60.2521 28.7265L54.4676 25.3867L35.9133 57.5228Z" fill="#FFA733"/>
<path d="M59.7405 33.5717L44.7429 24.9129L57.6672 10.2639L65.9646 15.0544L59.7405 33.5717Z" fill="#FF9A00"/>
<path d="M65.9646 15.0544L61.8159 12.6592L52.2417 29.2422L59.7405 33.5716L65.9646 15.0544Z" fill="#E67500"/>
<path d="M71.3231 66.2031H4.67468V51.3594H71.3231V66.2031Z" fill="#005ECE"/>
<path d="M71.3227 51.3594H37.9985V66.2031H71.3227V51.3594Z" fill="#003F8A"/>
<path d="M48.9087 71.5469H37.7759V76H48.9087V71.5469Z" fill="#003F8A"/>
</svg>
