<svg width="76" height="76" viewBox="0 0 76 76" fill="none" xmlns="http://www.w3.org/2000/svg">
<g clip-path="url(#clip0)">
<path d="M40.1661 68.4933H24.8018L26.4881 51.6525H30.1306V58.5196C30.1306 59.8194 31.1842 60.873 32.484 60.873C33.7837 60.873 34.8374 59.8194 34.8374 58.5196V51.6525H38.4799L40.1661 68.4933Z" fill="#90BAC4"/>
<path d="M30.5557 59.866C30.2888 59.4843 30.1309 59.0208 30.1309 58.5196V51.6525H26.4884L25.666 59.866H30.5557Z" fill="#7DA2B0"/>
<path d="M39.3018 59.866L38.4794 51.6525H34.837V58.5196C34.837 59.0208 34.6792 59.4843 34.4121 59.866H39.3018Z" fill="#7DA2B0"/>
<path d="M43.3973 71.8562H21.5701C20.4133 71.8562 19.4756 70.9185 19.4756 69.7616C19.4756 68.6048 20.4133 67.6671 21.5701 67.6671H43.3973C44.5541 67.6671 45.4918 68.6048 45.4918 69.7616C45.4918 70.9185 44.5541 71.8562 43.3973 71.8562Z" fill="#EEF4F5"/>
<path d="M45.4916 69.7621C45.4916 70.3404 45.2567 70.8643 44.8782 71.243C44.4997 71.6215 43.9757 71.8563 43.3973 71.8563H39.4357C40.014 71.8563 40.5379 71.6215 40.9164 71.243C41.2949 70.8644 41.5298 70.3404 41.5298 69.7621C41.5298 68.6056 40.5921 67.6662 39.4355 67.6662H43.3972C44.5538 67.6664 45.4916 68.6056 45.4916 69.7621Z" fill="#CBE5E7"/>
<path d="M63.8527 16.8646V53.3177C63.8527 55.0827 62.4232 56.5122 60.6582 56.5122H4.30777C2.54427 56.5122 1.11328 55.0827 1.11328 53.3177V16.8646C1.11328 15.0996 2.54427 13.6686 4.30777 13.6686H60.6582C62.4232 13.6688 63.8527 15.0996 63.8527 16.8646Z" fill="#3351C5"/>
<path d="M63.8527 48.8229V53.3177C63.8527 55.0827 62.4232 56.5122 60.6582 56.5122H58.4672L56.3742 54.4192C55.7774 53.8224 55.7774 52.8546 56.3742 52.2579L56.7245 51.9075L52.0085 47.1915C50.7616 47.3444 49.4612 46.9436 48.5052 45.9876L46.7773 44.2597C43.81 46.139 40.2919 47.2271 36.5199 47.2271C25.9166 47.2271 17.3203 38.6308 17.3203 28.0275C17.3203 22.3154 19.8142 17.1852 23.7731 13.6686H49.2667C53.2272 17.1852 55.721 22.3154 55.721 28.0275C55.721 31.7994 54.6315 35.3175 52.7522 38.2849L54.48 40.0113C55.436 40.9688 55.8368 42.2691 55.6854 43.5146L60.4014 48.2306L60.7503 47.8818C61.347 47.285 62.3149 47.285 62.9116 47.8818L63.8527 48.8229Z" fill="#213993"/>
<path d="M63.8529 16.864V53.3185C63.8529 55.082 62.4216 56.5132 60.6581 56.5132H55.0225C56.7876 56.5132 58.2173 55.082 58.2173 53.3185V16.864C58.2173 15.1005 56.7876 13.6692 55.0225 13.6692H60.6581C62.4216 13.6692 63.8529 15.1005 63.8529 16.864Z" fill="#2944AE"/>
<path d="M63.8527 49.6349V53.3177C63.8527 55.0827 62.4232 56.5122 60.6582 56.5122H4.30777C2.54427 56.5122 1.11328 55.0827 1.11328 53.3177V49.6349H63.8527Z" fill="#EEF4F5"/>
<path d="M63.853 49.6349V53.3177C63.853 55.0827 62.4235 56.5122 60.6585 56.5122H58.4675L56.3745 54.4192C55.7777 53.8224 55.7777 52.8546 56.3745 52.2578L56.7248 51.9075L54.4521 49.6349H63.853Z" fill="#CBE5E7"/>
<path d="M63.8539 49.6349V53.3185C63.8539 55.082 62.4226 56.5133 60.6591 56.5133H55.0234C56.7886 56.5133 58.2182 55.082 58.2182 53.3185V49.6349H63.8539Z" fill="#CBE5E7"/>
<path d="M51.4824 41.9952L55.1588 38.3188L60.7216 43.8816L57.0453 47.558L51.4824 41.9952Z" fill="#557983"/>
<path d="M58.4559 41.6043C58.0891 42.3866 57.5832 43.1184 56.9384 43.7632C56.3004 44.3994 55.5738 44.9105 54.7829 45.2843L51.4922 41.9936L55.1687 38.3171L58.4559 41.6043Z" fill="#3F5959"/>
<path d="M73.5347 60.3594C71.7293 62.1648 68.8025 62.1648 66.9971 60.3594L56.3733 49.7357C55.7766 49.1389 55.7766 48.1715 56.3733 47.5749L60.75 43.1981C61.3468 42.6013 62.3142 42.6013 62.9108 43.1981L73.5345 53.8218C75.3399 55.6272 75.3399 58.5542 73.5347 60.3594Z" fill="#FEE265"/>
<path d="M73.5358 60.359C72.9151 60.9796 72.1625 61.3864 71.368 61.581C71.74 60.0634 71.3315 58.3946 70.1477 57.209L59.523 46.5861C58.9267 45.9898 57.9586 45.9898 57.3623 46.5861L60.7502 43.1982C61.3465 42.6019 62.3147 42.6019 62.911 43.1982L73.5356 53.8211C75.3401 55.6272 75.3401 58.5547 73.5358 60.359Z" fill="#FDD330"/>
<path d="M54.4797 41.3043C52.8296 42.9544 50.1544 42.9544 48.5043 41.3043L45.5166 38.3165L51.492 32.3411L54.4797 35.3288C56.1297 36.9789 56.1297 39.6542 54.4797 41.3043Z" fill="#FEE265"/>
<path d="M55.1684 36.2328C53.611 38.4804 51.657 40.4344 49.4094 41.9918C49.0843 41.8093 48.7802 41.5799 48.5038 41.3035L45.5156 38.3171L51.4919 32.3408L54.4801 35.329C54.7565 35.6054 54.986 35.9095 55.1684 36.2328Z" fill="#FDD330"/>
<path d="M36.5197 42.5455C47.1238 42.5455 55.7201 33.9492 55.7201 23.3451C55.7201 12.7411 47.1238 4.14478 36.5197 4.14478C25.9156 4.14478 17.3193 12.7411 17.3193 23.3451C17.3193 33.9492 25.9156 42.5455 36.5197 42.5455Z" fill="#A9D3D8"/>
<path d="M55.7197 23.345C55.7197 33.9488 47.1236 42.5448 36.5199 42.5448C35.4474 42.5448 34.3939 42.4562 33.3701 42.2875C42.4755 40.784 49.4199 32.8763 49.4199 23.3452C49.4199 13.8123 42.4753 5.9046 33.3701 4.40102C34.3939 4.23239 35.4474 4.14377 36.5199 4.14377C47.1238 4.14362 55.7197 12.7395 55.7197 23.345Z" fill="#90BAC4"/>
<path d="M36.4049 36.8869C43.8843 36.8869 49.9475 30.8236 49.9475 23.3443C49.9475 15.8649 43.8843 9.80167 36.4049 9.80167C28.9255 9.80167 22.8623 15.8649 22.8623 23.3443C22.8623 30.8236 28.9255 36.8869 36.4049 36.8869Z" fill="#D9ECFD"/>
<path d="M49.946 23.345C49.946 30.8233 43.8827 36.8866 36.4046 36.8866C35.4103 36.8866 34.4402 36.7788 33.5068 36.5754C39.5927 35.2491 44.1505 29.829 44.1505 23.3452C44.1505 16.8595 39.5926 11.4394 33.5068 10.1131C34.4402 9.90974 35.4103 9.80197 36.4046 9.80197C43.8829 9.80182 49.946 15.865 49.946 23.345Z" fill="#B5DBFD"/>
<path d="M36.5199 32.3997C37.6181 32.3997 38.5085 31.5094 38.5085 30.4111C38.5085 29.3129 37.6181 28.4225 36.5199 28.4225C35.4216 28.4225 34.5312 29.3129 34.5312 30.4111C34.5312 31.5094 35.4216 32.3997 36.5199 32.3997Z" fill="#FB6A3B"/>
<path d="M34.1926 16.5438L34.6302 23.239C34.6953 24.2351 35.5222 25.0097 36.5203 25.0097C37.5184 25.0097 38.3453 24.2351 38.4104 23.239L38.848 16.5438C38.9359 15.1985 37.8685 14.0589 36.5203 14.0589C35.1721 14.059 34.1047 15.1985 34.1926 16.5438Z" fill="#FB6A3B"/>
<path d="M56.8293 38.4022C56.8293 36.9761 56.2758 35.5499 55.2673 34.5423L54.1508 33.4258C55.8572 30.4532 56.8339 27.0107 56.8339 23.3442C56.8339 20.2867 56.1536 17.3854 54.9385 14.782H60.6583C61.8057 14.782 62.7394 15.7163 62.7394 16.8646V28.6213C62.7394 29.2362 63.2379 29.7346 63.8528 29.7346C64.4676 29.7346 64.9661 29.2362 64.9661 28.6213V16.8646C64.9661 14.4885 63.0335 12.5553 60.6583 12.5553H53.7242C50.1261 6.8382 43.7598 3.03049 36.5201 3.03049C29.2804 3.03049 22.9143 6.8382 19.3161 12.5553H4.30782C1.93258 12.5552 0 14.4884 0 16.8646V53.3178C0 55.693 1.93258 57.6256 4.30782 57.6256H24.7695L23.876 66.5538H21.5695C19.8007 66.5538 18.3617 67.9928 18.3617 69.7617C18.3617 71.5305 19.8007 72.9695 21.5695 72.9695H43.3967C45.1656 72.9695 46.6046 71.5305 46.6046 69.7617C46.6046 67.9928 45.1656 66.5538 43.3967 66.5538H41.0899L40.1966 57.6256H44.6531C45.268 57.6256 45.7665 57.1271 45.7665 56.5123C45.7665 55.8974 45.268 55.3989 44.6531 55.3989H4.30782C3.16035 55.3989 2.22664 54.4652 2.22664 53.3178V50.7481H55.8122L60.4637 55.3995H50.1491C49.5342 55.3995 49.0358 55.898 49.0358 56.5129C49.0358 57.1277 49.5342 57.6262 50.1491 57.6262H60.6581C61.2385 57.6262 61.8137 57.5062 62.3447 57.2806L66.2106 61.1465C67.294 62.2298 68.7345 62.8266 70.2665 62.8266C71.7988 62.8266 73.2393 62.2298 74.3226 61.1465C76.559 58.9101 76.559 55.271 74.3226 53.0345L64.9662 43.6782V34.1177C64.9662 33.5029 64.4678 33.0044 63.8529 33.0044C63.2381 33.0044 62.7396 33.5029 62.7396 34.1177V41.8014C61.992 41.5287 61.1471 41.604 60.4544 42.0273L56.8293 38.4022ZM44.3781 69.7615C44.3781 70.3026 43.9379 70.7428 43.3969 70.7428H21.5697C21.0286 70.7428 20.5884 70.3026 20.5884 69.7615C20.5884 69.2205 21.0286 68.7803 21.5697 68.7803H43.3969C43.9379 68.7803 44.3781 69.2205 44.3781 69.7615ZM38.8521 66.5537H26.1138L27.0073 57.6254H29.0162V58.5191C29.0162 60.4312 30.5717 61.9867 32.4838 61.9867C33.4114 61.9867 34.2823 61.6252 34.935 60.9703C35.5895 60.3158 35.9499 59.4454 35.9499 58.5191V57.6254H37.9588L38.8521 66.5537ZM31.2428 57.6254H33.7233V58.5191C33.7233 58.8505 33.5944 59.162 33.3591 59.3972C33.1259 59.6312 32.8151 59.76 32.4838 59.76C31.7995 59.76 31.2428 59.2034 31.2428 58.5191V57.6254ZM58.8263 43.5481L56.7242 45.6502L54.0659 42.9919C54.4968 42.7552 54.9024 42.4559 55.2673 42.0913C55.6281 41.7305 55.9299 41.3264 56.1701 40.8918L58.8263 43.5481ZM53.6932 36.1169C54.281 36.7043 54.6048 37.4853 54.6048 38.3163C54.6048 39.1474 54.2809 39.929 53.693 40.5166C52.4792 41.7296 50.5049 41.7296 49.2923 40.5169L48.5079 39.7326C50.1895 38.4992 51.6749 37.0138 52.9083 35.3323L53.6932 36.1169ZM36.5201 5.25698C46.4934 5.25698 54.6071 13.3709 54.6071 23.344C54.6071 33.3172 46.4934 41.4311 36.5201 41.4311C31.6889 41.4311 27.1467 39.5497 23.7305 36.1336C20.3143 32.7173 18.4329 28.1752 18.4329 23.344C18.4331 13.3709 26.547 5.25713 36.5201 5.25698ZM51.575 43.6498L55.2031 47.2779C54.9738 47.6514 54.842 48.0758 54.8199 48.5213H2.22664V16.8646C2.22664 15.7163 3.16035 14.782 4.30782 14.782H18.102C16.8869 17.3855 16.2066 20.2867 16.2066 23.3443C16.2066 28.7703 18.3195 33.8714 22.1563 37.7082C25.9931 41.5451 31.0944 43.658 36.5204 43.658C40.1868 43.658 43.6292 42.6814 46.6016 40.975L47.718 42.0915C48.7583 43.1318 50.2079 43.65 51.575 43.6498ZM72.7482 59.5721C72.0854 60.2349 71.2041 60.5999 70.2667 60.5999C69.3293 60.5999 68.4481 60.2349 67.7852 59.5721L57.1614 48.9484C57.0557 48.8427 57.04 48.7193 57.04 48.6552C57.04 48.591 57.0557 48.4677 57.1614 48.362L61.5381 43.9852C61.6438 43.8796 61.7671 43.8637 61.8313 43.8637C61.8954 43.8637 62.0187 43.8795 62.1244 43.9852L72.7482 54.6089C73.411 55.2717 73.776 56.153 73.776 57.0904C73.776 58.0279 73.4111 58.9093 72.7482 59.5721Z" fill="black"/>
<path d="M36.4058 38.0002C44.487 38.0002 51.0617 31.4254 51.0617 23.3443C51.0617 16.3764 46.1088 10.3319 39.2847 8.97189C38.6813 8.8518 38.0954 9.24309 37.9753 9.84622C37.855 10.4492 38.2466 11.0355 38.8496 11.1556C44.6358 12.3087 48.8352 17.4348 48.8352 23.3443C48.8352 30.1978 43.2594 35.7736 36.4059 35.7736C29.5525 35.7736 23.9766 30.1978 23.9766 23.3443C23.9766 17.5137 28.1092 12.4015 33.8028 11.1887C34.4042 11.0606 34.7879 10.4692 34.6598 9.86789C34.5315 9.26655 33.94 8.88223 33.339 9.01093C30.1065 9.69956 27.1667 11.4945 25.0615 14.0653C22.926 16.6728 21.75 19.9681 21.75 23.3443C21.7499 31.4255 28.3244 38.0002 36.4058 38.0002Z" fill="black"/>
<path d="M36.5198 27.3092C34.8095 27.3092 33.418 28.7009 33.418 30.4112C33.418 32.1216 34.8095 33.5132 36.5198 33.5132C38.2302 33.5132 39.6218 32.1216 39.6218 30.4112C39.6218 28.7009 38.2302 27.3092 36.5198 27.3092ZM36.5198 31.2866C36.0372 31.2866 35.6446 30.8938 35.6446 30.4112C35.6446 29.9286 36.0372 29.5358 36.5198 29.5358C37.0024 29.5358 37.3952 29.9286 37.3952 30.4112C37.3952 30.8938 37.0024 31.2866 36.5198 31.2866Z" fill="black"/>
<path d="M34.0052 14.0357C33.3562 14.7285 33.0196 15.6692 33.0815 16.6164L33.5191 23.3116C33.6221 24.8881 34.9403 26.1228 36.5201 26.1228C38.1 26.1228 39.4182 24.8879 39.5212 23.3116L39.9588 16.6164C40.0207 15.6692 39.6841 14.7285 39.0351 14.0357C38.3861 13.3429 37.4694 12.9456 36.5201 12.9456C35.5709 12.9456 34.6542 13.3429 34.0052 14.0357ZM35.6302 15.558C35.8631 15.3092 36.1793 15.1722 36.5201 15.1722C36.861 15.1722 37.177 15.3092 37.4102 15.558C37.6433 15.8068 37.7593 16.1311 37.7371 16.4712L37.2995 23.1665C37.2728 23.5757 36.9304 23.8963 36.5201 23.8963C36.1099 23.8963 35.7677 23.5757 35.741 23.1665L35.3034 16.4712C35.2811 16.1311 35.3972 15.8068 35.6302 15.558Z" fill="black"/>
<path d="M19.5507 43.2441H6.51371C5.89886 43.2441 5.40039 43.7426 5.40039 44.3574C5.40039 44.9723 5.89886 45.4707 6.51371 45.4707H19.5507C20.1656 45.4707 20.664 44.9723 20.664 44.3574C20.664 43.7426 20.1657 43.2441 19.5507 43.2441Z" fill="black"/>
<path d="M6.51371 41.3663H13.0323C13.6471 41.3663 14.1456 40.8678 14.1456 40.253C14.1456 39.6381 13.6471 39.1396 13.0323 39.1396H6.51371C5.89886 39.1396 5.40039 39.6381 5.40039 40.253C5.40039 40.8678 5.89886 41.3663 6.51371 41.3663Z" fill="black"/>
<path d="M6.51371 35.1541C7.12856 35.1541 7.62703 34.6556 7.62703 34.0408V18.5619C7.62703 17.947 7.12856 17.4486 6.51371 17.4486C5.89886 17.4486 5.40039 17.947 5.40039 18.5619V34.0408C5.40039 34.6556 5.89886 35.1541 6.51371 35.1541Z" fill="black"/>
</g>
<defs>
<clipPath id="clip0">
<rect width="76" height="76" fill="white"/>
</clipPath>
</defs>
</svg>
