<svg width="76" height="76" viewBox="0 0 76 76" fill="none" xmlns="http://www.w3.org/2000/svg">
<g clip-path="url(#clip0)">
<path d="M33.7195 12.4484V31.2964H29.1196C29.1196 31.2964 27.5135 28.9482 24.3267 27.3258C22.6434 26.4664 20.5194 25.8117 17.9589 25.8117C11.3758 25.8117 10.2493 18.1631 10.0801 13.8823C10.0504 13.1 10.6739 12.4484 11.4561 12.4484C11.4561 12.4484 33.7195 12.4484 33.7195 12.4484Z" fill="#F4B400"/>
<path d="M33.7198 12.4484V31.2964H29.1199C29.1199 31.2964 27.5138 28.9482 24.327 27.3258C25.5219 25.6871 26.9141 24.2013 28.4697 22.904C27.2451 21.8694 25.7193 21.3647 23.8208 21.3647C20.1709 21.3647 17.2407 20.2024 15.1108 17.9122C13.7839 16.4842 12.8042 14.6586 12.1719 12.4484H33.7198Z" fill="#FF8800"/>
<path d="M64.437 32.0549L33.7204 31.2964C33.7204 31.2964 33.7204 25.1482 30.0259 21.7046C28.5891 20.3657 26.5942 19.4352 23.8214 19.4352C13.9536 19.4352 12.8284 9.8375 13.3524 2.70671C13.4771 1.01452 15.7228 0.511321 16.56 1.98827C18.8725 6.06125 23.845 10.4415 34.5367 10.4415C46.8046 10.4415 54.4519 16.462 58.9376 22.1483C62.9526 27.2353 64.437 32.0549 64.437 32.0549Z" fill="#FFDF46"/>
<path d="M54.4069 17.4431C48.4785 14.4879 40.812 12.3266 33.4617 12.3266C22.77 12.3266 17.7977 7.94641 15.485 3.87343C15.0055 3.02734 14.063 2.8314 13.3223 3.1357C13.3312 2.99171 13.3416 2.84921 13.352 2.70671C13.4766 1.01452 15.7224 0.511321 16.5595 1.98827C18.872 6.06125 23.8446 10.4415 34.5362 10.4415C43.3783 10.4416 49.8189 13.5691 54.4069 17.4431Z" fill="#FFF2BB"/>
<path d="M64.4365 32.0549L33.7199 31.2964C33.7199 31.2964 33.7199 25.1482 30.0254 21.7046C34.0241 18.8741 38.9046 17.2101 44.1681 17.2101C49.5621 17.2101 54.7024 18.9453 58.9371 22.1484C62.9521 27.2353 64.4365 32.0549 64.4365 32.0549Z" fill="#F4B400"/>
<path d="M66.7649 41.0412C66.3907 28.776 56.1757 19.0024 43.9056 19.1415C31.5398 19.2818 21.5587 29.3495 21.5587 41.7485C21.5587 41.7485 19.8489 63.3111 8.27344 74.8867H56.9002L55.8891 61.0846C62.6029 57.0058 67.0238 49.529 66.7649 41.0412Z" fill="#FFF2BB"/>
<path d="M55.8896 61.0838L56.0588 63.4008C54.0163 64.1029 51.8256 64.4844 49.547 64.4844C47.8964 64.4844 46.5547 63.141 46.5547 61.4905V44.3748C46.5547 42.7257 47.8966 41.3824 49.547 41.3824H66.6628C66.6999 41.3824 66.7355 41.3824 66.7726 41.3854C66.7741 41.5057 66.7756 41.6274 66.7756 41.7491C66.7757 49.9425 62.4163 57.1192 55.8896 61.0838Z" fill="#FFDF46"/>
<path d="M49.5476 62.5545C48.9604 62.5545 48.4844 62.0785 48.4844 61.4913V44.3754C48.4844 43.7882 48.9604 43.3121 49.5476 43.3121H66.6635C67.2507 43.3121 67.7268 43.7882 67.7268 44.3754C67.7268 54.4156 59.5878 62.5545 49.5476 62.5545Z" fill="#FF8800"/>
<path d="M67.7264 44.3748C67.7264 49.3948 65.6914 53.9398 62.4021 57.2291C59.1114 60.5198 54.5664 62.5549 49.5464 62.5549C49.1723 62.5549 48.8428 62.3604 48.6543 62.068C53.2943 61.8275 57.4742 59.8474 60.5526 56.7689C63.8433 53.4797 65.8784 48.9347 65.8784 43.9147C65.8784 43.6905 65.8086 43.4827 65.6899 43.312H66.6621C67.2499 43.312 67.7264 43.7885 67.7264 44.3748Z" fill="#FFDF46"/>
<path d="M43.5455 40.0721C44.8678 40.0721 45.9397 39.0002 45.9397 37.678C45.9397 36.3557 44.8678 35.2838 43.5455 35.2838C42.2233 35.2838 41.1514 36.3557 41.1514 37.678C41.1514 39.0002 42.2233 40.0721 43.5455 40.0721Z" fill="#72402F"/>
<path d="M14.6688 65.9694C14.1312 65.6713 13.4534 65.8656 13.1555 66.4034C11.4831 69.4205 9.57564 72.01 7.48624 74.0994C7.05146 74.5344 7.05146 75.2391 7.48624 75.6739C7.70355 75.8912 7.98855 75.9999 8.2734 75.9999C8.55825 75.9999 8.84325 75.8912 9.06056 75.6739C11.2968 73.4375 13.3298 70.6817 15.1029 67.4827C15.4008 66.9449 15.2066 66.2674 14.6688 65.9694Z" fill="black"/>
<path d="M67.8714 42.5657C67.8846 42.178 67.8919 41.7896 67.8864 41.4038C67.8304 37.4466 66.807 33.6433 64.9358 30.268C64.9218 30.1907 64.9 30.1138 64.8687 30.0382C64.0021 27.9503 62.0219 23.8552 58.4962 19.8878C54.2101 15.0647 48.9692 11.8488 42.9188 10.3291C42.3228 10.1804 41.7176 10.5414 41.5678 11.1377C41.4181 11.7341 41.7801 12.339 42.3764 12.4887C49.3498 14.2402 54.2138 18.1764 57.5054 22.1268C53.6423 19.4905 49.0856 18.0557 44.3168 18.0262C39.7162 18.0001 35.3155 19.2692 31.5252 21.6656C29.6164 19.4476 27.03 18.321 23.8199 18.321C21.0109 18.321 18.891 17.509 17.3393 15.8391C14.3999 12.6752 14.152 6.99522 14.4618 2.78731C14.4914 2.38594 14.7995 2.27402 14.9307 2.24448C15.0627 2.21435 15.3915 2.18377 15.5914 2.53616C17.9263 6.64981 23.1084 11.5536 34.5362 11.5536C35.5195 11.5536 36.5097 11.5956 37.4797 11.6786C38.0937 11.731 38.6315 11.2768 38.6837 10.6641C38.7361 10.0515 38.2819 9.51242 37.6693 9.46017C36.6364 9.37185 35.5821 9.32717 34.5362 9.32717C26.339 9.32717 20.4575 6.59889 17.5278 1.43728C16.898 0.327853 15.6866 -0.208154 14.4419 0.0725408C13.1986 0.352642 12.3349 1.35415 12.2412 2.62418C12.0481 5.24781 12.0674 8.40656 12.7469 11.3352H11.4558C10.7723 11.3352 10.1349 11.6066 9.6612 12.0992C9.18709 12.5925 8.94068 13.241 8.96785 13.9253C9.29916 22.3076 12.4919 26.9238 17.958 26.9238C20.2702 26.9238 22.4314 27.4979 24.3951 28.6282C21.8341 32.4698 20.4544 36.9771 20.445 41.7003C20.3821 42.4197 19.4417 52.4276 15.2554 62.1126C15.0113 62.6769 15.2711 63.3323 15.8356 63.5762C15.9794 63.6384 16.1294 63.6678 16.2768 63.6678C16.7074 63.6678 17.1175 63.4165 17.2992 62.9959C19.4744 57.9638 20.7955 52.9212 21.5831 49.0197C22.3125 51.2934 23.3877 53.4545 24.7932 55.44C25.0101 55.7464 25.3537 55.9101 25.7027 55.9101C25.9252 55.9101 26.1496 55.8436 26.345 55.7053C26.8468 55.3499 26.9656 54.6552 26.6104 54.1534C24.0337 50.5137 22.6716 46.224 22.6716 41.748C22.6716 35.9812 24.9243 30.5666 29.0148 26.5012C33.0726 22.4683 38.4483 20.2525 44.1661 20.2525C44.2115 20.2525 44.2575 20.2526 44.3029 20.2529C55.9148 20.3248 65.4955 29.8273 65.6598 41.4357C65.6634 41.6888 65.6621 41.9435 65.6569 42.1982H49.5469C48.3468 42.1982 47.3703 43.1746 47.3703 44.3747V59.3283C45.3002 60.0422 43.1509 60.4345 40.9732 60.494C40.3585 60.5108 39.874 61.0228 39.8908 61.6373C39.9073 62.2416 40.4023 62.7201 41.003 62.7201C41.0133 62.7201 41.0237 62.72 41.0341 62.7197C43.1883 62.6608 45.3166 62.3067 47.3792 61.6674C47.4696 62.785 48.4062 63.6673 49.5468 63.6673C51.3741 63.6673 53.1771 63.4068 54.9064 62.9069L55.7899 74.9674C55.8328 75.553 56.3212 75.9994 56.8991 75.9994C56.9264 75.9994 56.954 75.9983 56.9816 75.9962C57.5948 75.9514 58.0555 75.4179 58.0106 74.8047L57.0824 62.1347C58.9068 61.3607 60.6146 60.3051 62.1376 58.9923C62.6032 58.5908 62.6553 57.8879 62.2539 57.4221C61.8526 56.9563 61.1496 56.9047 60.6838 57.3059C57.6034 59.9614 53.6677 61.4287 49.597 61.4406V44.4245H66.6128C66.6033 47.74 65.6417 50.9519 63.8308 53.7153C63.4937 54.2295 63.6375 54.9196 64.1517 55.2567C64.6659 55.5935 65.356 55.45 65.6931 54.9358C67.7515 51.7947 68.8394 48.1427 68.8394 44.3746C68.8392 43.6213 68.4545 42.9566 67.8714 42.5657ZM27.4456 24.9217C26.8338 25.5299 26.2605 26.1661 25.7244 26.8262C23.3632 25.4141 20.7545 24.6971 17.9586 24.6971C12.7215 24.6971 11.3889 18.7914 11.1932 13.837C11.1895 13.743 11.2312 13.6791 11.267 13.642C11.3023 13.6053 11.3638 13.5615 11.4564 13.5615H13.4213C13.9605 14.9722 14.7021 16.2712 15.7085 17.3547C17.677 19.4733 20.4061 20.5476 23.8201 20.5476C26.2567 20.5476 28.227 21.3558 29.6909 22.9506C28.9085 23.5556 28.1586 24.2131 27.4456 24.9217Z" fill="black"/>
<path d="M62.6228 47.05H62.499C61.8842 47.05 61.3857 47.5484 61.3857 48.1633C61.3857 48.7783 61.8842 49.2766 62.499 49.2766H62.6228C63.2376 49.2766 63.7361 48.7783 63.7361 48.1633C63.7361 47.5482 63.2376 47.05 62.6228 47.05Z" fill="black"/>
<path d="M43.5451 41.1855C45.4789 41.1855 47.0521 39.6122 47.0521 37.6785C47.0521 35.7448 45.4788 34.1714 43.5451 34.1714C41.6112 34.1714 40.0381 35.7448 40.0381 37.6785C40.0381 39.6122 41.6114 41.1855 43.5451 41.1855ZM43.5451 36.3978C44.2512 36.3978 44.8256 36.9723 44.8256 37.6785C44.8256 38.3846 44.2512 38.9591 43.5451 38.9591C42.839 38.9591 42.2645 38.3846 42.2645 37.6785C42.2645 36.9723 42.839 36.3978 43.5451 36.3978Z" fill="black"/>
</g>
<defs>
<clipPath id="clip0">
<rect width="76" height="76" fill="white"/>
</clipPath>
</defs>
</svg>
