<svg width="50" height="50" viewBox="0 0 50 50" fill="none" xmlns="http://www.w3.org/2000/svg">
<g clip-path="url(#clip0)">
<path d="M48.688 38.5732L38.5678 31.8242C37.2835 30.9746 35.562 31.2542 34.6125 32.4666L31.6646 36.2569C31.2858 36.7564 30.5971 36.9013 30.049 36.5968L29.4883 36.2877C27.6294 35.2745 25.3164 34.0131 20.6563 29.3512C15.9961 24.6894 14.7322 22.3747 13.7189 20.5193L13.4115 19.9585C13.1028 19.4105 13.245 18.7189 13.7447 18.3371L17.5324 15.39C18.7444 14.4405 19.0243 12.7194 18.1757 11.4348L11.4267 1.31458C10.557 0.00637883 8.81214 -0.386336 7.46575 0.423016L3.23386 2.96512C1.90418 3.74684 0.92864 5.01286 0.511807 6.4979C-1.01209 12.0504 0.134323 21.6331 14.2506 35.7511C25.4798 46.9794 33.8394 49.999 39.5852 49.999C40.9076 50.0046 42.2248 49.8326 43.5013 49.4874C44.9867 49.0711 46.2529 48.0954 47.0341 46.7654L49.5787 42.536C50.3893 41.1893 49.9967 39.4434 48.688 38.5732ZM48.143 41.6811L45.6042 45.9129C45.0433 46.873 44.1326 47.5788 43.0629 47.8827C37.937 49.29 28.9817 48.1243 15.4295 34.5721C1.87733 21.02 0.711777 12.0654 2.11909 6.93875C2.42334 5.86781 3.13007 4.95594 4.09126 4.39411L8.32315 1.85532C8.90734 1.50381 9.66465 1.6742 10.042 2.24189L13.7082 7.74605L16.7853 12.3612C17.1538 12.9184 17.0327 13.6653 16.507 14.0776L12.7184 17.0247C11.5654 17.9063 11.2362 19.5014 11.946 20.7675L12.2469 21.3141C13.3118 23.2671 14.6357 25.6967 19.4691 30.5294C24.3026 35.362 26.7315 36.686 28.6836 37.7508L29.231 38.0524C30.4969 38.7621 32.0922 38.433 32.9738 37.28L35.9208 33.4914C36.3332 32.966 37.0798 32.8451 37.6373 33.2132L47.7566 39.9622C48.3246 40.3393 48.495 41.097 48.143 41.6811Z" fill="black"/>
<path d="M28.3312 8.33763C36.1505 8.34632 42.487 14.683 42.4958 22.5022C42.4958 22.9624 42.8688 23.3354 43.329 23.3354C43.7892 23.3354 44.1622 22.9624 44.1622 22.5022C44.1525 13.763 37.0705 6.68084 28.3312 6.67127C27.871 6.67127 27.498 7.04426 27.498 7.50445C27.498 7.96464 27.871 8.33763 28.3312 8.33763Z" fill="black"/>
<path d="M28.3312 13.3369C33.3906 13.3428 37.4906 17.4428 37.4966 22.5022C37.4966 22.9624 37.8697 23.3354 38.3297 23.3354C38.7899 23.3354 39.1629 22.9624 39.1629 22.5022C39.156 16.5228 34.3105 11.6774 28.3312 11.6705C27.871 11.6705 27.498 12.0435 27.498 12.5037C27.498 12.9639 27.871 13.3369 28.3312 13.3369Z" fill="black"/>
<path d="M28.3312 18.3361C30.6309 18.3389 32.4945 20.2025 32.4973 22.5022C32.4973 22.9624 32.8704 23.3354 33.3305 23.3354C33.7906 23.3354 34.1637 22.9624 34.1637 22.5022C34.16 19.2826 31.5509 16.6734 28.3312 16.6698C27.871 16.6698 27.498 17.0428 27.498 17.503C27.498 17.9632 27.871 18.3361 28.3312 18.3361Z" fill="black"/>
</g>
<defs>
<clipPath id="clip0">
<rect width="50" height="50" fill="white"/>
</clipPath>
</defs>
</svg>
