<svg width="76" height="76" viewBox="0 0 76 76" fill="none" xmlns="http://www.w3.org/2000/svg">
<g clip-path="url(#clip0)">
<path d="M31.6494 71.9738C31.6494 74.1354 33.401 75.888 35.5627 75.888H40.7804C42.9415 75.888 44.6937 74.1354 44.6937 71.9738V64.1455H31.6494V71.9738Z" fill="#EBEBEB"/>
<path d="M25.5026 49.998C24.3619 49.2628 23.2861 48.4295 22.2887 47.5089C21.4371 50.7841 18.2187 52.861 14.8844 52.2876C11.5494 51.7142 9.20935 48.6824 9.49915 45.3104C9.78896 41.9384 12.6125 39.3506 15.9965 39.3557C16.1958 39.3557 16.3875 39.3971 16.578 39.4143C15.3417 36.5074 14.7041 33.3813 14.7048 30.2227H13.0443L12.143 34.5108C12.0532 34.9383 11.7558 35.2925 11.3507 35.4543C10.945 35.6167 10.4858 35.5651 10.1265 35.3173L6.52215 32.8321L2.60886 36.7463L5.08715 40.3508C5.33491 40.7108 5.38651 41.1701 5.22409 41.5753C5.06231 41.9811 4.70818 42.2786 4.28143 42.3678L0 43.2699V48.4888L4.28653 49.3902C4.71327 49.48 5.0674 49.7775 5.22982 50.1827C5.3916 50.5879 5.34001 51.0479 5.09224 51.4072L2.60886 55.0124L6.52215 58.9265L10.1265 56.447C10.4858 56.1992 10.9456 56.147 11.3513 56.3094C11.7571 56.4713 12.0545 56.8261 12.1443 57.2536L13.0443 61.536H18.262L19.162 57.2472C19.2518 56.8191 19.5493 56.4649 19.955 56.3031C20.3607 56.1406 20.8206 56.1922 21.1798 56.4407L24.7842 58.9265L28.879 54.8308C28.4497 52.831 27.2325 51.0886 25.5026 49.998Z" fill="#C9DFFF"/>
<path d="M61.6517 30.2227C61.6504 18.9625 53.6589 9.28726 42.6037 7.16199C31.5485 5.03672 20.5405 11.0583 16.3661 21.5158C12.1916 31.9733 16.0247 43.9229 25.5028 49.998C27.6747 51.3448 29.0091 53.7077 29.0409 56.2636V61.536C29.0409 63.6976 30.7925 65.4501 32.9542 65.4501H43.3897C45.5508 65.4501 47.303 63.6976 47.303 61.536V56.3719C47.3361 53.7554 48.6972 51.3358 50.9163 49.9496C57.6129 45.6251 61.6561 38.1956 61.6517 30.2227Z" fill="#FFB41F"/>
<path d="M69.7294 16.4199L73.8306 13.3435L69.1345 7.08043L65.0333 10.1568C64.1894 10.7895 63.0474 10.8512 62.1398 10.3136C61.2321 9.77587 60.7379 8.74446 60.8863 7.7003L61.6105 2.62603L53.8622 1.5188L53.138 6.59243C52.9896 7.63786 52.226 8.49027 51.2037 8.7521C50.1814 9.01457 49.1018 8.63488 48.4687 7.79012L45.3936 3.68802L39.1326 8.38515L42.2071 12.4872C42.8395 13.332 42.9013 14.4736 42.3638 15.3815C41.8262 16.2893 40.795 16.7837 39.7511 16.6352L34.6779 15.9109L33.5703 23.6608L38.6447 24.3852C39.6893 24.5343 40.5415 25.2981 40.8033 26.3206C41.0651 27.3431 40.6854 28.4229 39.8409 29.0562L35.741 32.1326L40.437 38.395L44.537 35.3199C45.3809 34.6866 46.5235 34.6242 47.4318 35.1619C48.3394 35.6996 48.8343 36.7316 48.6853 37.7764L47.9547 42.8494L55.703 43.9573L56.4335 38.8817C56.5826 37.8369 57.3462 36.9852 58.3685 36.7233C59.3908 36.4609 60.4704 36.8412 61.1028 37.6853L64.1792 41.7861L70.4402 37.089L67.3632 32.9882C66.7301 32.1441 66.6677 31.0012 67.2053 30.0927C67.7428 29.1849 68.7747 28.6899 69.8192 28.8396L74.8924 29.5646L76 21.8146L70.9268 21.0896C69.8829 20.9399 69.0313 20.1767 68.7689 19.1542C68.5071 18.1323 68.8861 17.0531 69.7294 16.4199ZM54.7858 31.8701C49.7426 31.8701 45.6548 27.7814 45.6548 22.7371C45.6548 17.6934 49.7426 13.604 54.7858 13.604C59.829 13.604 63.9168 17.6934 63.9168 22.7371C63.9168 27.7814 59.829 31.8701 54.7858 31.8701Z" fill="#1CC8EB"/>
<path d="M31.6494 68.0596H44.6937V70.669H31.6494V68.0596Z" fill="#9E9E9E"/>
<path d="M36.8672 57.6217H39.476V61.5359H36.8672V57.6217Z" fill="#FFAA00"/>
<path d="M39.4756 55.0123H36.8668C36.8655 51.5625 34.7388 48.4702 31.5185 47.2356C25.0989 44.7249 20.6391 38.8128 19.9881 31.949C19.3372 25.0852 22.6053 18.44 28.4383 14.7666L29.8223 16.9741C24.8212 20.1218 22.018 25.8185 22.576 31.7031C23.1333 37.5871 26.9561 42.6556 32.4598 44.8077C36.6878 46.4252 39.4788 50.4846 39.4756 55.0123Z" fill="#FFAA00"/>
<path d="M64.2605 48.4886H70.7826C71.503 48.4886 72.0871 49.0722 72.0871 49.7934C72.0871 50.5139 71.503 51.0981 70.7826 51.0981H64.2605C63.5401 51.0981 62.9561 50.5139 62.9561 49.7934C62.9561 49.0722 63.5401 48.4886 64.2605 48.4886Z" fill="#FFAA00"/>
<path d="M61.6511 56.3176C62.1122 55.7639 62.9345 55.6888 63.488 56.15L69.3107 61.0026C69.8642 61.4638 69.9394 62.2863 69.4783 62.8399C69.0165 63.3935 68.1942 63.4687 67.6407 63.0074L61.8179 58.1549C61.2644 57.6936 61.1899 56.8712 61.6511 56.3176Z" fill="#FFAA00"/>
<path d="M56.4333 58.9265C57.1537 58.9265 57.7378 59.5101 57.7378 60.2312V66.7548C57.7378 67.4754 57.1537 68.0596 56.4333 68.0596C55.713 68.0596 55.1289 67.4754 55.1289 66.7548V60.2312C55.1289 59.5101 55.713 58.9265 56.4333 58.9265Z" fill="#FFAA00"/>
<path d="M1.29255 22.1152L9.19684 20.1403C9.89618 19.9657 10.6038 20.3906 10.7783 21.0895C10.9528 21.7884 10.528 22.4962 9.82867 22.6707L1.92438 24.6456C1.22504 24.8202 0.517408 24.3953 0.34289 23.6964C0.168372 22.9975 0.593203 22.2897 1.29255 22.1152Z" fill="#FFAA00"/>
<path d="M2.95089 8.04287C3.36935 7.45676 4.18398 7.3217 4.76995 7.74026L11.7774 12.747C12.3641 13.1656 12.4997 13.9804 12.0813 14.5665C11.6628 15.1526 10.8482 15.2883 10.2622 14.8691L3.2547 9.86234C2.66809 9.44379 2.53242 8.62897 2.95089 8.04287Z" fill="#FFAA00"/>
<path d="M14.634 0.212692C15.3321 0.0343125 16.0423 0.455416 16.2206 1.15365L18.2422 9.06288C18.4206 9.76111 17.9996 10.4721 17.3015 10.6505C16.6034 10.8288 15.8932 10.4071 15.7149 9.70951L13.6933 1.80027C13.5149 1.10204 13.9359 0.391072 14.634 0.212692Z" fill="#FFAA00"/>
</g>
<defs>
<clipPath id="clip0">
<rect width="76" height="76" fill="white"/>
</clipPath>
</defs>
</svg>
