<svg width="55" height="55" viewBox="0 0 55 55" fill="none" xmlns="http://www.w3.org/2000/svg">
<path d="M27.5 0C12.3011 0 0 12.2995 0 27.5C0 42.6989 12.2995 55 27.5 55C42.6989 55 55 42.7005 55 27.5C55 12.3011 42.7005 0 27.5 0ZM27.5 51.3334C14.3583 51.3334 3.66663 40.6418 3.66663 27.5C3.66663 14.3582 14.3583 3.66663 27.5 3.66663C40.6417 3.66663 51.3334 14.3583 51.3334 27.5C51.3334 40.6417 40.6417 51.3334 27.5 51.3334Z" fill="#B80808"/>
<path d="M26.8025 33.5103C25.5003 33.5103 24.4462 34.5953 24.4462 35.8976C24.4462 37.1687 25.4693 38.2849 26.8025 38.2849C28.1357 38.2849 29.1899 37.1687 29.1899 35.8976C29.1899 34.5953 28.1047 33.5103 26.8025 33.5103Z" fill="#B80808"/>
<path d="M27.2056 15.4343C23.02 15.4343 21.0975 17.9148 21.0975 19.589C21.0975 20.7982 22.1208 21.3563 22.9579 21.3563C24.6322 21.3563 23.9501 18.9689 27.1126 18.9689C28.6629 18.9689 29.9031 19.651 29.9031 21.0773C29.9031 22.7515 28.1669 23.7128 27.1437 24.5808C26.2445 25.3559 25.0662 26.6271 25.0662 29.2937C25.0662 30.9057 25.5003 31.371 26.7715 31.371C28.2908 31.371 28.6009 30.6889 28.6009 30.0998C28.6009 28.4877 28.6318 27.5574 30.337 26.2242C31.1743 25.5731 33.8096 23.4647 33.8096 20.5503C33.8096 17.6358 31.1743 15.4343 27.2056 15.4343Z" fill="#B80808"/>
</svg>
