<svg width="76" height="76" viewBox="0 0 76 76" fill="none" xmlns="http://www.w3.org/2000/svg">
<path d="M72.4019 23.75H51.0625V3.5625C56.526 3.56145 61.7823 5.65321 65.7512 9.40787C69.7201 13.1625 72.1001 18.2949 72.4019 23.75Z" fill="#FF3051"/>
<path d="M72.4019 23.75H67.6519C67.3943 19.1175 65.6364 14.6947 62.6437 11.1493C59.651 7.60388 55.586 5.12848 51.0625 4.09688V3.5625C56.526 3.56145 61.7823 5.65321 65.7512 9.40787C69.7201 13.1625 72.1001 18.2949 72.4019 23.75Z" fill="#CD2A00"/>
<path d="M67.6512 28.5C67.675 28.8919 67.6869 29.2956 67.6869 29.6875C67.6869 35.3565 65.4349 40.7933 61.4263 44.8019C57.4177 48.8105 51.9809 51.0625 46.3119 51.0625C44.7126 51.0681 43.1182 50.8848 41.5619 50.5163C37.3547 49.5746 33.5375 47.3655 30.625 44.1869L46.3119 28.5H67.6512Z" fill="#57A4FF"/>
<path d="M46.313 8.3125V28.5L30.6262 44.1869C28.0784 41.4373 26.2996 38.0653 25.4687 34.4101C24.6377 30.7548 24.7838 26.9452 25.8924 23.3644C27.0009 19.7836 29.0328 16.5578 31.7837 14.0114C34.5345 11.4651 37.9074 9.68793 41.563 8.85875C43.1193 8.49025 44.7137 8.30689 46.313 8.3125Z" fill="#9CDD05"/>
<path d="M41.5625 50.5163V72.4375H3.5625V13.0625H13.0625V3.5625H41.5625V8.85875C37.9069 9.68792 34.534 11.4651 31.7831 14.0114C29.0323 16.5578 27.0004 19.7836 25.8918 23.3644C24.7833 26.9452 24.6371 30.7548 25.4681 34.4101C26.2991 38.0653 28.0779 41.4373 30.6256 44.1869C33.5382 47.3655 37.3554 49.5746 41.5625 50.5163ZM32.0625 58.1875C32.0625 55.6782 31.0698 53.2708 29.301 51.4909C27.5323 49.711 25.1311 48.7032 22.6219 48.6875H22.5625C20.0429 48.6796 17.6235 49.673 15.8363 51.449C14.0491 53.225 13.0407 55.6383 13.0328 58.1578C13.0249 60.6774 14.0183 63.0969 15.7943 64.884C17.5703 66.6712 19.9836 67.6796 22.5031 67.6875H22.5625C25.0821 67.6875 27.4984 66.6866 29.28 64.905C31.0616 63.1234 32.0625 60.7071 32.0625 58.1875Z" fill="#FEE9AB"/>
<path d="M22.6213 48.6874H22.562C20.0424 48.6796 17.6229 49.6729 15.8357 51.4489C14.0486 53.2249 13.0401 55.6382 13.0323 58.1577C13.0244 60.6773 14.0177 63.0968 15.7938 64.8839C17.5698 66.6711 19.983 67.6796 22.5026 67.6874H22.562C25.0815 67.6953 27.501 66.702 29.2882 64.9259C31.0753 63.1499 32.0838 60.7367 32.0916 58.2171C32.0995 55.6976 31.1062 53.2781 29.3302 51.4909C27.5541 49.7037 25.1409 48.6953 22.6213 48.6874Z" fill="#FFD422"/>
<path d="M13.0625 3.5625V13.0625H3.5625L13.0625 3.5625Z" fill="#FF3051"/>
<path d="M32.0628 58.1875C32.0628 60.7071 31.0619 63.1234 29.2803 64.905C27.4987 66.6866 25.0824 67.6875 22.5628 67.6875H22.5034C21.7304 67.6803 20.961 67.5806 20.2116 67.3906C22.2499 66.8579 24.0535 65.6631 25.339 63.9939C26.6245 62.3248 27.3191 60.2759 27.3136 58.1691C27.3082 56.0623 26.603 54.017 25.3089 52.3546C24.0148 50.6921 22.2051 49.5066 20.1641 48.9844C20.9487 48.7886 21.7542 48.6889 22.5628 48.6875H22.6222C25.1314 48.7032 27.5326 49.711 29.3014 51.4909C31.0701 53.2708 32.0629 55.6782 32.0628 58.1875Z" fill="#EBBF00"/>
<path d="M68.875 28.5C68.875 28.1851 68.7499 27.883 68.5272 27.6603C68.3045 27.4376 68.0024 27.3125 67.6875 27.3125H47.5V8.3125C47.5 7.99756 47.3749 7.69551 47.1522 7.47281C46.9295 7.25011 46.6274 7.125 46.3125 7.125C45.1186 7.13141 43.9272 7.23466 42.75 7.43375V3.5625C42.75 3.24756 42.6249 2.94551 42.4022 2.72281C42.1795 2.50011 41.8774 2.375 41.5625 2.375H13.0625C12.7477 2.37734 12.4458 2.50064 12.2194 2.71937L2.71937 12.2194C2.50064 12.4458 2.37734 12.7477 2.375 13.0625V72.4375C2.375 72.7524 2.50011 73.0545 2.72281 73.2772C2.94551 73.4999 3.24756 73.625 3.5625 73.625H41.5625C41.8774 73.625 42.1795 73.4999 42.4022 73.2772C42.6249 73.0545 42.75 72.7524 42.75 72.4375V51.9413C43.9272 52.1403 45.1186 52.2436 46.3125 52.25C52.2948 52.2447 58.0306 49.8658 62.2607 45.6357C66.4908 41.4056 68.8697 35.6698 68.875 29.6875C68.875 29.3669 68.8631 29.0463 68.8512 28.7256C68.8656 28.6512 68.8736 28.5758 68.875 28.5ZM45.125 9.53562V28.0131L30.685 42.4531C28.3302 39.5744 26.8168 36.1008 26.3122 32.4159C25.8075 28.7311 26.3311 24.9785 27.8252 21.5726C29.3193 18.1667 31.7256 15.24 34.7786 13.1159C37.8315 10.9917 41.4121 9.75265 45.125 9.53562ZM11.875 6.42437V11.875H6.42437L11.875 6.42437ZM40.375 71.25H4.75V14.25H13.0625C13.3774 14.25 13.6795 14.1249 13.9022 13.9022C14.1249 13.6795 14.25 13.3774 14.25 13.0625V4.75H40.375V7.94438C35.601 9.24067 31.3864 12.0721 28.3815 16.0017C25.3766 19.9313 23.7486 24.7407 23.7486 29.6875C23.7486 34.6343 25.3766 39.4437 28.3815 43.3733C31.3864 47.3029 35.601 50.1343 40.375 51.4306V71.25ZM46.3125 49.875C41.0793 49.8752 36.0524 47.8346 32.3 44.1869L46.7994 29.6875H66.5C66.4925 35.0392 64.3631 40.1696 60.5789 43.9539C56.7946 47.7381 51.6642 49.8675 46.3125 49.875Z" fill="black"/>
<path d="M51.0625 24.9375H72.4375V24.9304C72.5956 24.9268 72.7513 24.8915 72.8955 24.8265C73.0397 24.7615 73.1693 24.6681 73.2766 24.552C73.384 24.4359 73.4669 24.2994 73.5204 24.1506C73.5739 24.0018 73.597 23.8438 73.5882 23.6859C73.2731 17.9261 70.7619 12.5063 66.5717 8.54205C62.3814 4.57776 56.8309 2.37065 51.0625 2.37501C50.7476 2.37501 50.4455 2.50012 50.2228 2.72282C50.0001 2.94552 49.875 3.24756 49.875 3.56251V23.75C49.875 24.065 50.0001 24.367 50.2228 24.5897C50.4455 24.8124 50.7476 24.9375 51.0625 24.9375ZM71.1099 22.5625H52.25V4.78444C56.9815 5.0595 61.4649 6.99204 64.9137 10.243C68.3624 13.4939 70.5561 17.8555 71.1099 22.5625Z" fill="black"/>
<path d="M22.5625 47.5C20.4487 47.5 18.3824 48.1268 16.6248 49.3012C14.8673 50.4755 13.4975 52.1447 12.6885 54.0976C11.8796 56.0505 11.668 58.1994 12.0804 60.2725C12.4927 62.3457 13.5106 64.25 15.0053 65.7447C16.5 67.2394 18.4043 68.2573 20.4775 68.6696C22.5506 69.082 24.6995 68.8704 26.6524 68.0615C28.6053 67.2526 30.2745 65.8827 31.4488 64.1252C32.6232 62.3676 33.25 60.3013 33.25 58.1875C33.2456 55.3543 32.1182 52.6385 30.1149 50.6352C28.1115 48.6318 25.3957 47.5044 22.5625 47.5ZM22.5625 66.5C20.9184 66.5 19.3113 66.0125 17.9443 65.0991C16.5773 64.1857 15.5119 62.8875 14.8828 61.3686C14.2536 59.8496 14.089 58.1783 14.4097 56.5658C14.7305 54.9533 15.5222 53.4722 16.6847 52.3097C17.8472 51.1471 19.3283 50.3555 20.9408 50.0347C22.5533 49.714 24.2246 49.8786 25.7436 50.5078C27.2625 51.1369 28.5607 52.2023 29.4741 53.5693C30.3875 54.9363 30.875 56.5434 30.875 58.1875C30.8725 60.3913 29.9959 62.5042 28.4376 64.0626C26.8792 65.6209 24.7663 66.4975 22.5625 66.5Z" fill="black"/>
<path d="M26.125 60.5625C26.1212 61.2971 25.8912 62.0127 25.4662 62.6119C25.0413 63.2111 24.442 63.6648 23.75 63.9112V65.3125H21.375V63.9112C20.683 63.6648 20.0837 63.2111 19.6588 62.6119C19.2338 62.0127 19.0038 61.2971 19 60.5625H21.375C21.375 60.7974 21.4446 61.027 21.5751 61.2222C21.7056 61.4175 21.8911 61.5697 22.1081 61.6596C22.3251 61.7495 22.5638 61.773 22.7942 61.7272C23.0245 61.6814 23.2361 61.5683 23.4022 61.4022C23.5683 61.2361 23.6814 61.0245 23.7272 60.7942C23.773 60.5638 23.7495 60.3251 23.6596 60.1081C23.5697 59.8911 23.4175 59.7056 23.2222 59.5751C23.027 59.4446 22.7974 59.375 22.5625 59.375C21.727 59.3685 20.9204 59.0686 20.2837 58.5277C19.6469 57.9868 19.2206 57.2393 19.0791 56.4159C18.9376 55.5925 19.09 54.7455 19.5097 54.0231C19.9294 53.3007 20.5896 52.7487 21.375 52.4638V51.0625H23.75V52.4638C24.442 52.7102 25.0413 53.1639 25.4662 53.7631C25.8912 54.3623 26.1212 55.0779 26.125 55.8125H23.75C23.75 55.5776 23.6804 55.348 23.5499 55.1528C23.4194 54.9575 23.2339 54.8053 23.0169 54.7154C22.7999 54.6255 22.5612 54.602 22.3308 54.6478C22.1005 54.6936 21.8889 54.8067 21.7228 54.9728C21.5567 55.1389 21.4436 55.3505 21.3978 55.5808C21.352 55.8112 21.3755 56.0499 21.4654 56.2669C21.5553 56.4839 21.7075 56.6694 21.9028 56.7999C22.098 56.9304 22.3276 57 22.5625 57C23.5065 57.0028 24.411 57.3791 25.0785 58.0465C25.7459 58.714 26.1222 59.6185 26.125 60.5625Z" fill="black"/>
<path d="M9.5 19H21.375V21.375H9.5V19Z" fill="black"/>
<path d="M9.5 26.125H21.375V28.5H9.5V26.125Z" fill="black"/>
<path d="M9.5 33.25H21.375V35.625H9.5V33.25Z" fill="black"/>
<path d="M9.5 40.375H21.375V42.75H9.5V40.375Z" fill="black"/>
<path d="M47.5 57H52.25V59.375H47.5V57Z" fill="black"/>
<path d="M54.625 57H73.625V59.375H54.625V57Z" fill="black"/>
<path d="M47.5 64.125H52.25V66.5H47.5V64.125Z" fill="black"/>
<path d="M54.625 64.125H73.625V66.5H54.625V64.125Z" fill="black"/>
<path d="M47.5 71.25H52.25V73.625H47.5V71.25Z" fill="black"/>
<path d="M54.625 71.25H73.625V73.625H54.625V71.25Z" fill="black"/>
</svg>
