<svg width="76" height="76" viewBox="0 0 76 76" fill="none" xmlns="http://www.w3.org/2000/svg">
<path d="M29.1336 64.6H46.8669C49.6651 64.6 51.9336 66.8684 51.9336 69.6666H24.0669C24.0669 66.8684 26.3353 64.6 29.1336 64.6Z" fill="#FDBD40"/>
<path d="M11.4002 6.33337H64.6002C67.3984 6.33337 69.6668 8.60182 69.6668 11.4V49.4C69.6668 52.1983 67.3984 54.4667 64.6002 54.4667H11.4002C8.60194 54.4667 6.3335 52.1983 6.3335 49.4V11.4C6.3335 8.60182 8.60194 6.33337 11.4002 6.33337Z" fill="#FCF05A"/>
<path d="M6.3335 44.3334H69.6668V49.4C69.6668 52.1983 67.3984 54.4667 64.6002 54.4667H11.4002C8.60194 54.4667 6.3335 52.1983 6.3335 49.4V44.3334Z" fill="#FDBD40"/>
<path d="M3.79993 31.6666H26.5999C27.9991 31.6666 29.1333 32.8008 29.1333 34.2V67.1333C29.1333 68.5325 27.9991 69.6666 26.5999 69.6666H3.79993C2.40074 69.6666 1.2666 68.5325 1.2666 67.1333V34.2C1.2666 32.8008 2.40074 31.6666 3.79993 31.6666Z" fill="#5F79BA"/>
<path d="M62.0665 39.2666H72.1999C73.5991 39.2666 74.7332 40.4007 74.7332 41.7999V67.1333C74.7332 68.5325 73.5991 69.6666 72.1999 69.6666H62.0665C60.6673 69.6666 59.5332 68.5325 59.5332 67.1333V41.7999C59.5332 40.4007 60.6673 39.2666 62.0665 39.2666Z" fill="#5F79BA"/>
<path d="M59.5332 64.6H74.7332V67.1333C74.7332 68.5325 73.5991 69.6666 72.1999 69.6666H62.0665C60.6673 69.6666 59.5332 68.5325 59.5332 67.1333V64.6Z" fill="#FCF05A"/>
<path d="M1.2666 64.6H29.1333V67.1333C29.1333 68.5325 27.9991 69.6666 26.5999 69.6666H3.79993C2.40074 69.6666 1.2666 68.5325 1.2666 67.1333V64.6Z" fill="#FCF05A"/>
<path d="M34.1997 54.4667H41.7997V64.6H34.1997V54.4667Z" fill="#FCF05A"/>
<path d="M8.86645 53.3532C8.16693 53.3531 7.59994 52.7859 7.6001 52.0863C7.6001 51.7504 7.73357 51.4285 7.97091 51.191L13.3441 45.8178C13.83 45.3147 14.632 45.3007 15.1352 45.7868C15.6384 46.2729 15.6523 47.0747 15.1662 47.5779C15.1561 47.5885 15.1456 47.5988 15.1352 47.6089L9.76198 52.9821C9.52448 53.2196 9.20243 53.3532 8.86645 53.3532Z" fill="#FCF05A"/>
<path d="M16.4665 53.3531C15.767 53.353 15.2 52.7858 15.2002 52.0862C15.2002 51.7503 15.3337 51.4284 15.571 51.1909L20.9442 45.8177C21.4474 45.3318 22.2494 45.3456 22.7353 45.8488C23.2093 46.3396 23.2093 47.1178 22.7353 47.6088L17.3621 52.982C17.1246 53.2195 16.8025 53.3531 16.4665 53.3531Z" fill="#FCF05A"/>
<path d="M29.1335 32.8067C28.434 32.8065 27.867 32.2394 27.8672 31.5397C27.8672 31.2039 28.0007 30.8818 28.238 30.6445L40.778 18.1045C41.2812 17.6186 42.083 17.6323 42.5691 18.1355C43.0431 18.6264 43.0431 19.4046 42.5691 19.8956L30.0291 32.4356C29.7922 32.674 29.4697 32.8076 29.1335 32.8067Z" fill="#FDBD40"/>
<path d="M36.8606 32.8067C36.1611 32.8065 35.5941 32.2394 35.5942 31.5397C35.5942 31.2039 35.7277 30.8818 35.9651 30.6445L48.5051 18.1045C49.0082 17.6186 49.8101 17.6323 50.2961 18.1355C50.7702 18.6264 50.7702 19.4046 50.2961 19.8956L37.7561 32.4356C37.5186 32.6731 37.1966 32.8067 36.8606 32.8067Z" fill="#FDBD40"/>
<path d="M65.3425 54.9911C64.643 54.9909 64.076 54.4238 64.0762 53.7241C64.0762 53.3883 64.2096 53.0664 64.447 52.8289L68.0291 49.2468C68.5323 48.7607 69.3341 48.7746 69.8202 49.2778C70.2944 49.7686 70.2944 50.547 69.8202 51.0378L66.2381 54.62C66.0006 54.8575 65.6785 54.9911 65.3425 54.9911Z" fill="#FCF05A"/>
<path d="M38.025 50.6666C37.3255 50.6701 36.7555 50.1058 36.752 49.4063C36.7485 48.7068 37.3128 48.1368 38.0123 48.1333H38.025C38.7245 48.1333 39.2916 48.7005 39.2916 49.4C39.2916 50.0995 38.7245 50.6666 38.025 50.6666Z" fill="black"/>
<path d="M40.5335 12.6666H35.4669C34.7673 12.6666 34.2002 12.0995 34.2002 11.4C34.2002 10.7005 34.7673 10.1333 35.4669 10.1333H40.5335C41.233 10.1333 41.8002 10.7005 41.8002 11.4C41.8002 12.0995 41.233 12.6666 40.5335 12.6666Z" fill="#FDBD40"/>
<path d="M72.2 38H70.9333V11.4C70.9292 7.90398 68.096 5.07077 64.6 5.06665H11.4C7.904 5.07077 5.07078 7.90398 5.06667 11.4V30.4H3.8C1.70129 30.4 0 32.1013 0 34.2V67.1333C0 69.232 1.70129 70.9333 3.8 70.9333H51.9333C52.6329 70.9333 53.2 70.3662 53.2 69.6666C53.1959 66.1707 50.3627 63.3374 46.8667 63.3333H43.0667V55.7333H58.2667V67.1333C58.2667 69.232 59.968 70.9333 62.0667 70.9333H72.2C74.2987 70.9333 76 69.232 76 67.1333V41.8C76 39.7013 74.2987 38 72.2 38ZM27.8667 67.1333C27.8667 67.8328 27.2995 68.4 26.6 68.4H3.8C3.10048 68.4 2.53333 67.8328 2.53333 67.1333V65.8666H27.8667V67.1333ZM27.8667 63.3333H2.53333V34.2C2.53333 33.5005 3.10048 32.9333 3.8 32.9333H26.6C27.2995 32.9333 27.8667 33.5005 27.8667 34.2V63.3333ZM46.8667 65.8666C48.4766 65.8685 49.9113 66.8828 50.4501 68.4H30.1669C30.3169 67.9943 30.3957 67.5659 30.4 67.1333V65.8666H46.8667ZM30.4 63.3333V55.7333H32.9333V63.3333H30.4ZM35.4667 63.3333V55.7333H40.5333V63.3333H35.4667ZM58.2667 53.2H30.4V45.6H58.2667V53.2ZM58.2667 41.8V43.0667H30.4V34.2C30.3957 33.5989 30.2471 33.0077 29.9668 32.476C29.9858 32.4583 30.0111 32.4533 30.0289 32.4343L42.5689 19.8943C43.0548 19.3911 43.041 18.5891 42.5378 18.1032C42.047 17.6291 41.2688 17.6291 40.7778 18.1032L28.2378 30.6432C28.2074 30.6748 28.1947 30.7154 28.1681 30.7483C27.6767 30.5203 27.1417 30.4016 26.6 30.4H7.6V11.4C7.6 9.30128 9.30129 7.59998 11.4 7.59998H64.6C66.6987 7.59998 68.4 9.30128 68.4 11.4V38H62.0667C59.968 38 58.2667 39.7013 58.2667 41.8ZM73.4667 67.1333C73.4667 67.8328 72.8995 68.4 72.2 68.4H62.0667C61.3671 68.4 60.8 67.8328 60.8 67.1333V65.8666H73.4667V67.1333ZM73.4667 63.3333H60.8V41.8C60.8 41.1005 61.3671 40.5333 62.0667 40.5333H72.2C72.8995 40.5333 73.4667 41.1005 73.4667 41.8V63.3333Z" fill="black"/>
<path d="M15.1354 45.8179C14.6408 45.3234 13.839 45.3234 13.3444 45.8179L7.97116 51.1911C7.46797 51.677 7.45404 52.479 7.94012 52.9821C8.42605 53.4853 9.22801 53.4993 9.73119 53.0132C9.7418 53.003 9.75209 52.9926 9.76222 52.9821L15.1354 47.6089C15.6299 47.1143 15.6299 46.3125 15.1354 45.8179Z" fill="black"/>
<path d="M20.9444 45.8178L15.5713 51.191C15.0681 51.6769 15.0541 52.4789 15.5402 52.9821C16.0261 53.4853 16.8281 53.4992 17.3313 53.0131C17.3419 53.003 17.3522 52.9925 17.3623 52.9821L22.7355 47.6089C23.2216 47.1057 23.2077 46.3039 22.7045 45.8178C22.2135 45.3438 21.4353 45.3438 20.9444 45.8178Z" fill="black"/>
<path d="M48.5043 18.1044L35.9643 30.6444C35.4612 31.1304 35.4472 31.9323 35.9332 32.4355C36.4191 32.9387 37.221 32.9526 37.7242 32.4667C37.7348 32.4566 37.7451 32.4461 37.7554 32.4355L50.2954 19.8955C50.7813 19.3923 50.7676 18.5904 50.2644 18.1044C49.7734 17.6304 48.9952 17.6304 48.5043 18.1044Z" fill="black"/>
<path d="M68.0289 49.2468L64.4467 52.8289C63.9436 53.315 63.9296 54.1168 64.4157 54.62C64.9018 55.1232 65.7036 55.1371 66.2068 54.651C66.2172 54.6409 66.2277 54.6306 66.2378 54.62L69.8199 51.0378C70.306 50.5347 70.2921 49.7329 69.7889 49.2468C69.2981 48.7726 68.5197 48.7726 68.0289 49.2468Z" fill="black"/>
<path d="M38.025 50.6666C38.7245 50.6666 39.2916 50.0995 39.2916 49.4C39.2916 48.7005 38.7245 48.1333 38.025 48.1333H38.0123C37.3128 48.1368 36.7485 48.7068 36.752 49.4063C36.7555 50.1058 37.3255 50.6701 38.025 50.6666Z" fill="black"/>
<path d="M40.5335 10.1333H35.4669C34.7673 10.1333 34.2002 10.7005 34.2002 11.4C34.2002 12.0995 34.7673 12.6666 35.4669 12.6666H40.5335C41.233 12.6666 41.8002 12.0995 41.8002 11.4C41.8002 10.7005 41.233 10.1333 40.5335 10.1333Z" fill="black"/>
</svg>
