<svg width="76" height="76" viewBox="0 0 76 76" fill="none" xmlns="http://www.w3.org/2000/svg">
<g clip-path="url(#clip0)">
<path d="M11.6222 44.8716H1.81546C0.730591 44.8716 -0.148438 45.7506 -0.148438 46.8355V75.9884H13.5861V46.8355C13.5861 45.7506 12.7065 44.8716 11.6222 44.8716Z" fill="#49C3E0"/>
<path d="M6.40311 44.8716H1.81546C0.730591 44.8716 -0.148438 45.7506 -0.148438 46.8355V75.9878H4.43921V46.8355C4.43921 45.7506 5.31824 44.8716 6.40311 44.8716Z" fill="#00A5C6"/>
<path d="M32.3776 37.1807H22.5708C21.486 37.1807 20.6069 38.0597 20.6069 39.1446V75.9884H34.3415V39.1446C34.3415 38.0597 33.4619 37.1807 32.3776 37.1807Z" fill="#3AC7B4"/>
<path d="M27.1585 37.1807H22.5708C21.486 37.1807 20.6069 38.0597 20.6069 39.1446V75.9884H25.1946V39.1446C25.1946 38.0597 26.0736 37.1807 27.1585 37.1807Z" fill="#00AD94"/>
<path d="M53.1324 29.4897H43.3257C42.2414 29.4897 41.3618 30.3688 41.3618 31.4536V75.9878H55.0963V31.4536C55.0963 30.3688 54.2173 29.4897 53.1324 29.4897Z" fill="#FFCD38"/>
<path d="M47.9133 29.4897H43.3257C42.2414 29.4897 41.3618 30.3694 41.3618 31.4536V75.9884H45.9494V31.4536C45.9494 30.3688 46.8291 29.4897 47.9133 29.4897Z" fill="#E7B835"/>
<path d="M73.8877 21.7988H64.081C62.9967 21.7988 62.1177 22.6779 62.1177 23.7627V75.9878H75.8516V23.7627C75.8516 22.6779 74.9726 21.7988 73.8877 21.7988Z" fill="#FF8C57"/>
<path d="M68.6687 21.7988H64.0811C62.9968 21.7988 62.1172 22.6779 62.1172 23.7627V75.9884H66.7048V23.7627C66.7048 22.6779 67.5844 21.7988 68.6687 21.7988Z" fill="#EC6A34"/>
<path d="M72.3198 0.736968L59.912 0.297454C58.8862 0.261504 58.2583 1.41131 58.8439 2.25497L60.8455 5.13559C54.1067 9.17297 32.5426 20.5232 3.1665 20.5232V28.7638C23.0734 28.7638 39.5186 23.8335 49.8089 19.6975C57.3375 16.6714 62.7352 13.6435 65.5572 11.9196L67.3321 14.475C67.9177 15.3181 69.2148 15.1313 69.5389 14.1572L73.4586 2.37674C73.7213 1.587 73.1513 0.766539 72.3198 0.736968Z" fill="#DA5B65"/>
</g>
<defs>
<clipPath id="clip0">
<rect width="76" height="76" fill="white"/>
</clipPath>
</defs>
</svg>
