<svg width="76" height="76" viewBox="0 0 76 76" fill="none" xmlns="http://www.w3.org/2000/svg">
<g clip-path="url(#clip0)">
<path d="M2.71079 63.5898C2.47012 63.5898 2.33396 63.5866 2.30862 63.5866C0.997624 63.5486 -0.0347096 62.4561 0.000123782 61.1483C0.0349571 59.8341 1.13379 58.7733 2.43846 58.8398C2.57146 58.8398 15.7606 59.128 30.2038 53.7351C49.3083 46.6038 61.5158 33.3925 66.4811 14.4716C66.8136 13.205 68.112 12.4481 69.3818 12.7775C70.6485 13.11 71.4085 14.4083 71.076 15.6781C58.821 62.3801 7.78696 63.5898 2.71079 63.5898Z" fill="#4CAF50"/>
<path d="M73.625 25.6437C73.4223 25.6437 73.2133 25.6184 73.0106 25.5645L60.0336 22.0875C59.1058 21.8374 58.4186 21.0552 58.2951 20.102C58.1685 19.152 58.6308 18.2147 59.4636 17.7365L67.6906 12.9865C68.8243 12.331 70.2778 12.7174 70.9333 13.8542L75.6833 22.0812C76.1646 22.914 76.095 23.9527 75.5123 24.7159C75.0531 25.3112 74.3501 25.6437 73.625 25.6437Z" fill="#4CAF50"/>
<path d="M30.3843 45.1345C29.7541 45.1345 29.1461 44.8843 28.6996 44.4346L21.3751 37.0753C20.916 36.6161 20.669 35.9891 20.6848 35.34C20.7006 34.6908 20.9825 34.0796 21.4638 33.6426L33.2565 22.9551C33.9595 22.3186 34.9665 22.1635 35.831 22.553C36.6923 22.9456 37.2401 23.8101 37.2243 24.757C37.1103 31.2518 36.6226 38.646 32.2495 44.2225C31.8315 44.7576 31.1981 45.087 30.5205 45.1281C30.4793 45.1313 30.4286 45.1345 30.3843 45.1345Z" fill="#2196F3"/>
<path d="M11.9921 26.7045C11.3651 26.7045 10.7634 26.4575 10.3169 26.0142L2.9576 18.6929C2.47627 18.2115 2.22294 17.5465 2.2641 16.8689C2.30527 16.1912 2.6346 15.5579 3.16977 15.1399C8.74944 10.7667 16.1436 10.279 22.6353 10.165C23.5948 10.2442 24.4498 10.697 24.8393 11.5584C25.2319 12.4197 25.0704 13.433 24.4371 14.1329L13.7528 25.9255C13.3158 26.4069 12.7014 26.6887 12.0523 26.7045H11.9921Z" fill="#2196F3"/>
<path d="M2.37494 48.2916C1.75427 48.2916 1.14627 48.0478 0.696607 47.595C0.0791075 46.9806 -0.148893 46.0718 0.101274 45.2358C0.953107 42.389 3.14444 35.5521 5.08244 33.6173C7.72344 30.9731 12.0269 30.9731 14.6743 33.6141C17.3184 36.2615 17.3184 40.565 14.6743 43.2091C12.7363 45.144 5.90261 47.3385 3.05577 48.1903L2.37494 48.2916Z" fill="#FF9800"/>
<path d="M8.81592 24.5227L19.3134 12.8852C25.9286 5.24089 36.0524 0.171057 45.0774 0.00322365C45.7139 -0.028443 46.3441 0.24389 46.8001 0.69989C47.2561 1.15589 47.5094 1.77972 47.4967 2.42256C47.3257 11.4476 42.2559 21.5714 34.5767 28.2182L22.9773 38.6904L8.81592 24.5227Z" fill="#ECEFF1"/>
<path d="M21.9133 10.1777C15.6021 10.3202 8.5436 10.9282 3.16977 15.1399C2.6346 15.5579 2.30527 16.1881 2.2641 16.8689C2.22294 17.5466 2.47627 18.2116 2.9576 18.6929L8.9521 24.6621L8.81594 24.5227L19.3134 12.8852C20.1304 11.9416 21.0013 11.0391 21.9133 10.1777Z" fill="#1D83D4"/>
<path d="M9.87668 31.635C8.13818 31.635 6.40285 32.2968 5.08235 33.6173C3.14435 35.5522 0.953014 42.389 0.101181 45.2358C-0.123653 45.98 0.0346805 46.7843 0.509681 47.386L14.4747 33.421C13.1763 32.2303 11.5265 31.635 9.87668 31.635Z" fill="#DE8400"/>
<path d="M45.1819 0C45.1471 0 45.1123 0 45.0806 0.00316667C37.1671 0.152 28.4113 4.066 21.9133 10.1777C21.0013 11.039 20.1304 11.9415 19.3134 12.8852L8.81592 24.5227L8.95208 24.6588L16.0929 31.7997L46.9869 0.905667C46.9299 0.832833 46.8666 0.763167 46.8001 0.696667C46.3694 0.266 45.7836 0 45.1819 0V0Z" fill="#CDD0D2"/>
<path d="M11.8749 75.9999C10.1269 75.9999 8.70825 74.5844 8.70825 72.8333V71.2499C8.70825 69.4988 10.1269 68.0833 11.8749 68.0833C13.6229 68.0833 15.0416 69.4988 15.0416 71.2499V72.8333C15.0416 74.5844 13.6229 75.9999 11.8749 75.9999Z" fill="#90CAF9"/>
<path d="M11.8749 68.0833C10.1269 68.0833 8.70825 69.4988 8.70825 71.2499V72.8333C8.70825 74.5844 10.1269 75.9999 11.8749 75.9999V68.0833Z" fill="#7DB0D9"/>
<path d="M68.8749 76C67.1269 76 65.7083 74.5845 65.7083 72.8333V34.8333C65.7083 33.0853 67.1269 31.6666 68.8749 31.6666C70.6229 31.6666 72.0416 33.0853 72.0416 34.8333V72.8333C72.0416 74.5845 70.6229 76 68.8749 76Z" fill="#2196F3"/>
<path d="M49.8749 76C48.1269 76 46.7083 74.5845 46.7083 72.8334V57C46.7083 55.2489 48.1269 53.8334 49.8749 53.8334C51.6229 53.8334 53.0416 55.2489 53.0416 57V72.8334C53.0416 74.5845 51.6229 76 49.8749 76Z" fill="#42A5F5"/>
<path d="M30.8749 75.9999C29.1269 75.9999 27.7083 74.5844 27.7083 72.8333V66.4999C27.7083 64.7488 29.1269 63.3333 30.8749 63.3333C32.6229 63.3333 34.0416 64.7488 34.0416 66.4999V72.8333C34.0416 74.5844 32.6229 75.9999 30.8749 75.9999Z" fill="#64B5F6"/>
<path d="M30.8749 63.3333C29.1269 63.3333 27.7083 64.7488 27.7083 66.4999V72.8333C27.7083 74.5844 29.1269 75.9999 30.8749 75.9999V63.3333Z" fill="#579ED6"/>
<path d="M49.8749 53.8334C48.1269 53.8334 46.7083 55.2489 46.7083 57V72.8334C46.7083 74.5845 48.1269 76 49.8749 76V53.8334Z" fill="#3990D5"/>
<path d="M68.8749 31.6666C67.1269 31.6666 65.7083 33.0853 65.7083 34.8333V72.8333C65.7083 74.5845 67.1269 76 68.8749 76V31.6666Z" fill="#1D83D4"/>
<path d="M37.9999 50.293C35.5457 51.566 32.9459 52.7123 30.2067 53.7351C17.1664 58.6023 5.15839 58.8398 2.84039 58.8398C2.59022 58.8398 2.45406 58.8366 2.44139 58.8366C2.40339 58.8335 2.36222 58.8335 2.32422 58.8335C1.03539 58.8335 0.0378893 59.869 0.003056 61.1451C-0.0317773 62.453 0.997389 63.5486 2.31156 63.5835L2.71372 63.5866C5.46556 63.5866 21.7327 63.232 38.0031 55.4578V50.293H37.9999Z" fill="#429846"/>
</g>
<defs>
<clipPath id="clip0">
<rect width="76" height="76" fill="white"/>
</clipPath>
</defs>
</svg>
