<svg width="55" height="55" viewBox="0 0 55 55" fill="none" xmlns="http://www.w3.org/2000/svg">
<path d="M30.9519 13.8073H22.3223C21.4324 13.8073 20.7109 14.5287 20.7109 15.4186V27.6145H18.8705C17.9806 27.6145 17.2592 28.336 17.2592 29.2258C17.2592 30.1157 17.9806 30.8372 18.8705 30.8372H20.7109V34.5182H18.8705C17.9806 34.5182 17.2592 35.2396 17.2592 36.1295C17.2592 37.0194 17.9806 37.7408 18.8705 37.7408H20.7109V41.3073C20.7109 42.1971 21.4324 42.9186 22.3223 42.9186C23.2122 42.9186 23.9336 42.1971 23.9336 41.3073V37.7408H30.9519C31.8418 37.7408 32.5632 37.0194 32.5632 36.1295C32.5632 35.2396 31.8418 34.5182 30.9519 34.5182H23.9336V30.8372H30.9519C35.6471 30.8372 39.4669 27.0173 39.4669 22.3222C39.4668 17.5109 35.5477 13.8073 30.9519 13.8073ZM30.9519 27.6145H23.9336V17.0299H30.9519C33.8525 17.0299 36.2442 19.3696 36.2442 22.3223C36.2441 25.2405 33.8701 27.6145 30.9519 27.6145Z" fill="black"/>
<path d="M27.5 0C12.3364 0 0 12.3364 0 27.5C0 42.6636 12.3364 55 27.5 55C42.6636 55 55 42.6636 55 27.5C55 12.3364 42.6636 0 27.5 0ZM27.5 51.7773C14.1134 51.7773 3.22266 40.8866 3.22266 27.5C3.22266 14.1134 14.1134 3.22266 27.5 3.22266C40.8866 3.22266 51.7773 14.1134 51.7773 27.5C51.7773 40.8866 40.8866 51.7773 27.5 51.7773Z" fill="black"/>
</svg>
