<svg width="76" height="76" viewBox="0 0 76 76" fill="none" xmlns="http://www.w3.org/2000/svg">
<path d="M57.3343 19.9939C57.1324 19.9939 56.9279 19.9484 56.7365 19.8514C56.0789 19.5207 55.8132 18.7192 56.144 18.061C59.9906 10.4193 65.4088 3.04386 66.8751 1.57819C67.8868 0.566586 69.2295 0.00578906 70.6579 0C70.6644 0 70.6723 0 70.68 0C72.1032 0 73.438 0.552188 74.4407 1.55548C74.9615 2.07634 74.9615 2.92066 74.4407 3.44108C73.9198 3.96195 73.0759 3.96195 72.5551 3.44108C72.0523 2.93832 71.3532 2.66297 70.6683 2.66683C69.9494 2.67009 69.2724 2.95331 68.7607 3.46438C67.689 4.53551 62.4062 11.5516 58.5271 19.2602C58.2927 19.7257 57.8226 19.9939 57.3343 19.9939Z" fill="#707487"/>
<path d="M61.3356 8.00049H43.0308C40.909 8.00049 38.8741 8.84332 37.3737 10.3437L0.784119 46.9331C-0.257467 47.9746 -0.257467 49.663 0.784119 50.7045L25.2984 75.2188C26.34 76.2604 28.0283 76.2604 29.0698 75.2188L65.6592 38.6292C67.1596 37.129 68.0024 35.094 68.0024 32.9721V14.6674C68.0027 10.9854 65.0176 8.00049 61.3356 8.00049ZM60.164 21.4961C58.6017 23.0584 56.0689 23.0584 54.5069 21.4961C52.9446 19.9338 52.9446 17.4012 54.5069 15.839C56.0692 14.2769 58.602 14.2767 60.164 15.839C61.726 17.4013 61.7262 19.9341 60.164 21.4961Z" fill="#FFDC64"/>
<path d="M4.78644 50.9354L41.3757 14.3459C42.8761 12.8456 44.911 12.0027 47.0328 12.0027H65.3377C66.1308 12.0027 66.8805 12.1651 67.586 12.419C66.6607 9.84883 64.2245 8.00049 61.3355 8.00049H43.0308C40.909 8.00049 38.8741 8.84332 37.3737 10.3437L0.784119 46.9331C-0.257467 47.9746 -0.257467 49.663 0.784119 50.7045L4.78629 54.7066C3.74485 53.6655 3.74485 51.9769 4.78644 50.9354Z" fill="#FFC850"/>
<path d="M57.3367 19.9939C56.8483 19.9939 56.3784 19.7257 56.144 19.2596C55.8133 18.602 56.0788 17.8005 56.7365 17.4692C64.444 13.592 71.46 8.3079 72.5318 7.23603C73.0434 6.72437 73.3262 6.0472 73.3299 5.32846C73.3326 4.61359 73.0577 3.94354 72.5552 3.44108C72.0528 2.93862 71.3533 2.66297 70.6684 2.66683C69.9495 2.67009 69.2725 2.95331 68.7609 3.46438C68.24 3.98525 67.3961 3.98525 66.8753 3.46438C66.3544 2.94426 66.3544 2.09965 66.8753 1.57878C67.8867 0.566437 69.2292 0.00578906 70.6577 0C70.6643 0 70.6721 0 70.6799 0C72.1031 0 73.4378 0.552188 74.4405 1.55548C75.4497 2.56396 76.0018 3.90777 75.9966 5.33885C75.9901 6.76652 75.4301 8.10988 74.4171 9.12163C72.9521 10.5879 65.5754 16.0075 57.9343 19.852C57.7429 19.9484 57.5372 19.9939 57.3367 19.9939Z" fill="#7F8499"/>
<path d="M36.001 54.8689C35.0804 54.8689 34.3342 54.1227 34.3342 53.202V26.8023C34.3342 25.8817 35.0804 25.1355 36.001 25.1355C36.9216 25.1355 37.6678 25.8817 37.6678 26.8023V53.2022C37.6678 54.1228 36.9216 54.8689 36.001 54.8689Z" fill="white"/>
<path d="M26.5721 45.6691C25.0591 45.6691 23.6357 45.0793 22.5653 44.0089C21.4949 42.9391 20.905 41.5159 20.905 40.0021C20.905 38.4883 21.4949 37.0651 22.5653 35.9947C23.6357 34.9249 25.0589 34.3352 26.5721 34.3352C28.0864 34.3352 29.5098 34.9251 30.5789 35.9961C31.6492 37.0659 32.2391 38.4891 32.2391 40.0021C32.2391 41.5159 31.6492 42.9391 30.5789 44.0095C29.5098 45.0793 28.0866 45.6691 26.5721 45.6691ZM26.5721 37.6687C25.9497 37.6687 25.3636 37.9115 24.9223 38.3524C24.481 38.7932 24.2386 39.3791 24.2386 40.0021C24.2386 40.6251 24.4809 41.2111 24.9223 41.6514C25.8052 42.5349 27.3392 42.5309 28.222 41.6527C28.6633 41.2114 28.9057 40.6254 28.9057 40.0023C28.9057 39.3793 28.6634 38.7932 28.222 38.353C28.222 38.3524 28.222 38.3524 28.222 38.3516C27.7805 37.9115 27.1958 37.6687 26.5721 37.6687Z" fill="white"/>
<path d="M45.43 45.6691C43.9156 45.6691 42.4923 45.0792 41.4232 44.0082C40.3528 42.9392 39.7629 41.516 39.7629 40.0022C39.7629 38.4885 40.3528 37.0652 41.4232 35.9949C42.4923 34.9251 43.9155 34.3353 45.43 34.3353C46.943 34.3353 48.3664 34.9252 49.4368 35.9956C50.5071 37.066 51.097 38.4886 51.097 40.0024C51.097 41.5161 50.5071 42.9393 49.4368 44.0097C48.3662 45.0792 46.943 45.6691 45.43 45.6691ZM45.43 37.6686C44.8062 37.6686 44.2216 37.9115 43.7803 38.3517C43.3389 38.793 43.0965 39.3791 43.0965 40.0022C43.0965 40.6252 43.3388 41.2112 43.7803 41.6515C44.6632 42.5337 46.1971 42.5357 47.0799 41.6521C47.5212 41.2112 47.7636 40.6254 47.7636 40.0024C47.7636 39.3794 47.5213 38.7933 47.0799 38.3531C47.0799 38.3525 47.0799 38.3525 47.0799 38.3525C46.6384 37.9115 46.0525 37.6686 45.43 37.6686Z" fill="white"/>
</svg>
