<svg width="76" height="76" viewBox="0 0 76 76" fill="none" xmlns="http://www.w3.org/2000/svg">
<g clip-path="url(#clip0)">
<path d="M52.7176 62.1096L63.6566 56.9429C66.0683 55.7249 69.0114 56.6179 70.3401 58.9699L48.1049 73.3529C45.1241 74.7286 41.7786 75.1072 38.5653 74.4328L23.2303 70.1286C21.8187 69.733 20.3091 69.8979 19.0168 70.59L15.8096 72.306L16.2411 56.6654L16.369 56.6684C20.9519 53.4125 26.9701 52.9912 31.9615 55.5776L32.8794 56.053C34.3141 56.7962 35.8992 57.2059 37.5153 57.2497L46.5295 57.4987C49.3588 57.576 51.835 59.421 52.7176 62.1096Z" fill="#F7CAA5"/>
<path d="M55.7191 34.6717C55.7191 43.9672 48.1834 51.5029 38.8879 51.5029C29.5924 51.5029 22.0566 43.9672 22.0566 34.6717C22.0566 25.3762 29.5924 17.8405 38.8879 17.8405C48.1834 17.8405 55.7191 25.3762 55.7191 34.6717Z" fill="#FEDB41"/>
<path d="M15.8091 72.3058L15.7611 74.0662L5.87695 73.7953L6.47348 52.1024L16.3594 52.3739L16.2407 56.6652L15.8091 72.3058Z" fill="#00EFD1"/>
<path d="M38.9918 41.4776C38.8524 41.4472 38.7087 41.4417 38.5669 41.4618C37.1352 41.3054 36.053 40.0928 36.0584 38.6527C36.0584 37.9642 35.5003 37.406 34.8118 37.406C34.1234 37.406 33.5652 37.9642 33.5652 38.6527C33.5567 41.0558 35.1661 43.1631 37.4858 43.7889V45.0343C37.4858 45.7227 38.044 46.2809 38.7325 46.2809C39.4209 46.2809 39.9791 45.7227 39.9791 45.0343V43.8631C42.6489 43.3044 44.464 40.8172 44.1828 38.1042C43.9022 35.3912 41.6159 33.3289 38.8883 33.3283C37.3251 33.3283 36.0584 32.0616 36.0584 30.4985C36.0584 28.9359 37.3251 27.6686 38.8883 27.6686C40.4514 27.6686 41.7181 28.9359 41.7181 30.4985C41.7181 31.1869 42.2763 31.7451 42.9648 31.7451C43.6532 31.7451 44.2114 31.1869 44.2114 30.4985C44.2077 27.9803 42.4431 25.8078 39.9791 25.2886V24.1534C39.9791 23.4649 39.4209 22.9067 38.7325 22.9067C38.044 22.9067 37.4858 23.4649 37.4858 24.1534V25.3647C34.9135 26.0665 33.2578 28.564 33.6121 31.2064C33.9669 33.8494 36.2222 35.8222 38.8883 35.8216C40.4393 35.8094 41.7115 37.0481 41.7395 38.5985C41.7681 40.1495 40.5427 41.4338 38.9918 41.4782V41.4776Z" fill="#083863"/>
<path d="M20.8096 34.6716C20.8096 44.6555 28.9035 52.7494 38.8874 52.7494C48.8713 52.7494 56.9653 44.6555 56.9653 34.6716C56.9653 24.6877 48.8713 16.5938 38.8874 16.5938C28.9084 16.6053 20.8211 24.6925 20.8096 34.6716ZM38.8874 19.087C47.4945 19.087 54.472 26.0645 54.472 34.6716C54.472 43.2786 47.4945 50.2562 38.8874 50.2562C30.2804 50.2562 23.3028 43.2786 23.3028 34.6716C23.3126 26.0688 30.2846 19.0967 38.8874 19.087Z" fill="#083863"/>
<path d="M63.1106 55.8215L53.3476 60.433C51.9951 57.9282 49.4093 56.3352 46.5642 56.2524L37.5487 56.0035C36.1213 55.9621 34.7213 55.6011 33.4522 54.9456L32.5349 54.4708C27.8381 52.022 22.2405 52.0281 17.5486 54.486L17.6058 52.4073C17.6253 51.7194 17.0823 51.1461 16.3939 51.1272L6.50797 50.8557C6.17744 50.8466 5.85665 50.9689 5.61683 51.196C5.37639 51.4236 5.23639 51.7371 5.22787 52.0676L4.63134 73.7605C4.61247 74.449 5.15482 75.0218 5.84326 75.0406L15.7274 75.3121H15.7621C16.4371 75.3115 16.9892 74.774 17.0075 74.0996L17.0361 73.063L19.6054 71.6879C20.6128 71.1462 21.7919 71.0171 22.893 71.3282L38.2287 75.6317C38.2548 75.6396 38.2816 75.6457 38.309 75.6518C39.4181 75.8837 40.5484 76.0005 41.6812 75.9999C44.0789 76.0012 46.4486 75.4844 48.6271 74.4837C48.6807 74.4587 48.7324 74.4301 48.7817 74.3984L71.017 60.0154C71.5709 59.6575 71.7499 58.9301 71.4254 58.3555C69.7746 55.4264 66.1139 54.3113 63.1106 55.8215ZM14.5787 72.271L14.5568 72.7854L7.16171 72.5827L7.68763 53.3824L15.0876 53.5851L14.5787 72.271ZM47.5041 72.257C44.7959 73.4793 41.7719 73.8165 38.8611 73.2206L23.5668 68.928C21.846 68.4423 20.0035 68.6438 18.4288 69.4905L17.1152 70.1935L17.4676 57.4266C21.6257 54.6607 26.9597 54.3764 31.3881 56.6846L32.306 57.1594C33.9087 57.9872 35.6776 58.4444 37.4806 58.4955L46.4954 58.7451C48.7982 58.8108 50.813 60.3125 51.5337 62.5002C51.5982 62.6974 51.6517 62.8976 51.6937 63.1009L38.2646 62.7302C37.5761 62.7114 37.0033 63.2537 36.9839 63.9422C36.965 64.6306 37.5079 65.2034 38.1958 65.2229L53.0134 65.6307H53.0481C53.7232 65.6313 54.2759 65.0938 54.2947 64.4182C54.3093 63.8764 54.2686 63.3347 54.1736 62.8009L64.1898 58.0688C64.1995 58.0646 64.2093 58.0597 64.219 58.0548C65.6397 57.3359 67.3575 57.5764 68.5262 58.658L47.5041 72.257Z" fill="#083863"/>
<path d="M40.1339 13.0895V1.24662C40.1339 0.55818 39.5757 0 38.8872 0C38.1988 0 37.6406 0.55818 37.6406 1.24662V13.0895C37.6406 13.778 38.1988 14.3362 38.8872 14.3362C39.5757 14.3362 40.1339 13.778 40.1339 13.0895Z" fill="#083863"/>
<path d="M49.4845 13.0895V7.47965C49.4845 6.79121 48.9263 6.23303 48.2378 6.23303C47.5494 6.23303 46.9912 6.79121 46.9912 7.47965V13.0895C46.9912 13.7779 47.5494 14.3361 48.2378 14.3361C48.9263 14.3361 49.4845 13.7779 49.4845 13.0895Z" fill="#083863"/>
<path d="M30.7852 13.0895V7.47965C30.7852 6.79121 30.227 6.23303 29.5386 6.23303C28.8502 6.23303 28.292 6.79121 28.292 7.47965V13.0895C28.292 13.7779 28.8502 14.3361 29.5386 14.3361C30.227 14.3361 30.7852 13.7779 30.7852 13.0895Z" fill="#083863"/>
</g>
<defs>
<clipPath id="clip0">
<rect width="76" height="76" fill="white"/>
</clipPath>
</defs>
</svg>
