<svg width="76" height="76" viewBox="0 0 76 76" fill="none" xmlns="http://www.w3.org/2000/svg">
<path d="M34.1262 57.5368C33.5112 57.5368 33.0129 58.0351 33.0129 58.6501V67.1757C33.0129 67.7907 33.5112 68.289 34.1262 68.289C34.7412 68.289 35.2395 67.7907 35.2395 67.1757V58.6501C35.2395 58.0351 34.7412 57.5368 34.1262 57.5368Z" fill="#45D987"/>
<path d="M25.1157 57.5368C24.5007 57.5368 24.0024 58.0351 24.0024 58.6501V67.1757C24.0024 67.7907 24.5007 68.289 25.1157 68.289C25.7307 68.289 26.229 67.7907 26.229 67.1757V58.6501C26.229 58.0351 25.7307 57.5368 25.1157 57.5368Z" fill="#45D987"/>
<path d="M29.6211 58.0723C29.0061 58.0723 28.5078 58.5706 28.5078 59.1856V72.5687C28.5078 73.1837 29.0061 73.682 29.6211 73.682C30.2361 73.682 30.7344 73.1837 30.7344 72.5687V59.1856C30.7344 58.5708 30.2359 58.0723 29.6211 58.0723Z" fill="#45D987"/>
<path d="M58.9219 27.3386H67.4475C68.0625 27.3386 68.5608 26.8403 68.5608 26.2253C68.5608 25.6104 68.0625 25.1121 67.4475 25.1121H58.9219C58.3069 25.1121 57.8086 25.6104 57.8086 26.2253C57.8086 26.8403 58.3069 27.3386 58.9219 27.3386Z" fill="#45D987"/>
<path d="M67.4473 34.1225H58.9216C58.3067 34.1225 57.8083 34.6208 57.8083 35.2358C57.8083 35.8508 58.3067 36.3491 58.9216 36.3491H67.4473C68.0623 36.3491 68.5606 35.8508 68.5606 35.2358C68.5606 34.6208 68.0623 34.1225 67.4473 34.1225Z" fill="#45D987"/>
<path d="M72.914 29.6171H59.2634C58.6485 29.6171 58.1501 30.1154 58.1501 30.7304C58.1501 31.3454 58.6485 31.8437 59.2634 31.8437H72.914C73.529 31.8437 74.0273 31.3454 74.0273 30.7304C74.0273 30.1154 73.529 29.6171 72.914 29.6171Z" fill="#45D987"/>
<path d="M69.2437 75.7313L53.8894 60.3769C53.531 60.0186 53.531 59.4376 53.8894 59.0794L59.0796 53.8892C59.4379 53.5308 60.0189 53.5308 60.3771 53.8892L75.7315 69.2435C76.0898 69.6019 76.0898 70.1829 75.7315 70.541L70.5412 75.7313C70.1829 76.0895 69.6021 76.0895 69.2437 75.7313Z" fill="#F78E36"/>
<path d="M59.0795 53.8892L55.8357 57.133C56.194 56.7746 56.775 56.7746 57.1332 57.133L72.4876 72.4873C72.8459 72.8457 72.8459 73.4267 72.4876 73.7848L75.7314 70.541C76.0897 70.1827 76.0897 69.6019 75.7314 69.2435L60.377 53.8892C60.0187 53.5308 59.4377 53.5308 59.0795 53.8892Z" fill="#F86F1B"/>
<path d="M47.7815 51.0362L51.0248 47.7929L58.0942 54.8622L54.8508 58.1055L47.7815 51.0362Z" fill="#4380A0"/>
<path d="M56.7422 63.242L63.229 56.7553L66.4723 59.9986L59.9855 66.4854L56.7422 63.242Z" fill="#7BE492"/>
<path d="M59.9858 59.9989L63.2292 56.7556L66.4725 59.9989L63.2292 63.2422L59.9858 59.9989Z" fill="#45D987"/>
<path d="M29.8189 59.6377C46.2874 59.6377 59.6377 46.2874 59.6377 29.8189C59.6377 13.3504 46.2874 0 29.8189 0C13.3504 0 0 13.3504 0 29.8189C0 46.2874 13.3504 59.6377 29.8189 59.6377Z" fill="#43809F"/>
<path d="M29.8187 0C29.047 0 28.2819 0.0293906 27.5249 0.0869844C42.9217 1.2583 55.0501 14.1222 55.0501 29.819C55.0501 45.5158 42.9217 58.3797 27.5249 59.551C28.2819 59.6086 29.0468 59.638 29.8187 59.638C46.2873 59.638 59.6376 46.2877 59.6376 29.8192C59.6376 13.3506 46.2873 0 29.8187 0V0Z" fill="#3A7190"/>
<path d="M29.8188 55.0503C43.7537 55.0503 55.0502 43.7538 55.0502 29.8189C55.0502 15.8839 43.7537 4.58746 29.8188 4.58746C15.8839 4.58746 4.5874 15.8839 4.5874 29.8189C4.5874 43.7538 15.8839 55.0503 29.8188 55.0503Z" fill="#F3F3F3"/>
<path d="M29.8187 4.58746C29.0453 4.58746 28.2807 4.62442 27.5249 4.69285C40.3665 5.85571 50.4625 16.6795 50.4625 29.8189C50.4625 42.9583 40.3665 53.782 27.5249 54.9449C28.2807 55.0133 29.0453 55.0503 29.8187 55.0503C43.7313 55.0503 55.0501 43.7315 55.0501 29.8189C55.0501 15.9063 43.7315 4.58746 29.8187 4.58746Z" fill="#E4E4E4"/>
<path d="M25.6138 30.3541H16.4387V16.8974C16.4387 16.5595 16.7126 16.2856 17.0504 16.2856H25.0021C25.3399 16.2856 25.6138 16.5595 25.6138 16.8974V30.3541Z" fill="#29CEF6"/>
<path d="M21.0264 16.2856V30.3541H25.6138V16.8974C25.6138 16.5595 25.34 16.2856 25.0021 16.2856H21.0264Z" fill="#22B5ED"/>
<path d="M43.9639 30.3541H34.7888V22.7082C34.7888 22.3704 35.0627 22.0965 35.4005 22.0965H43.3522C43.69 22.0965 43.9639 22.3704 43.9639 22.7082V30.3541Z" fill="#7BE492"/>
<path d="M39.3765 22.0965V30.3541H43.9639V22.7082C43.9639 22.3704 43.6901 22.0965 43.3522 22.0965H39.3765Z" fill="#45D987"/>
<path d="M34.7888 30.3541H25.6138V11.0865C25.6138 10.7486 25.8876 10.4748 26.2255 10.4748H34.1771C34.515 10.4748 34.7888 10.7486 34.7888 11.0865V30.3541Z" fill="#F78E36"/>
<path d="M30.2014 10.4748V30.3541H34.7889V11.0865C34.7889 10.7486 34.515 10.4748 34.1772 10.4748H30.2014Z" fill="#F86F1B"/>
<path d="M46.6458 29.2409H13.7568C13.1419 29.2409 12.6436 29.7392 12.6436 30.3542C12.6436 30.9691 13.1419 31.4674 13.7568 31.4674H46.6458C47.2608 31.4674 47.7591 30.9691 47.7591 30.3542C47.7591 29.7392 47.2608 29.2409 46.6458 29.2409Z" fill="#43809F"/>
<path d="M43.0465 41.253H37.6242L35.1631 34.9615C34.9949 34.5315 34.5756 34.25 34.1165 34.2538C33.6545 34.2579 33.2431 34.5469 33.0825 34.9801L29.6982 44.1059L27.3247 37.3784C27.1792 36.9657 26.8055 36.6766 26.3694 36.6394C25.9327 36.601 25.5162 36.8238 25.3027 37.2059L23.0432 41.2529H17.6384C17.0235 41.2529 16.5251 41.7512 16.5251 42.3662C16.5251 42.9811 17.0235 43.4794 17.6384 43.4794H23.6966C24.1001 43.4794 24.472 43.2611 24.6687 42.9089L26.0449 40.4438L28.6221 47.7484C28.7779 48.1906 29.1941 48.4874 29.6631 48.4913H29.6721C30.1372 48.4913 30.5538 48.2018 30.7158 47.765L34.1539 38.4939L35.8272 42.7717C35.9942 43.1985 36.4055 43.4794 36.8639 43.4794H43.046C43.661 43.4794 44.1593 42.9811 44.1593 42.3662C44.1593 41.7512 43.6615 41.253 43.0465 41.253Z" fill="#29CEF6"/>
</svg>
