<svg width="76" height="76" viewBox="0 0 76 76" fill="none" xmlns="http://www.w3.org/2000/svg">
<path d="M32.7588 58.9655L28.1031 68.2768C27.4562 69.5716 27.9813 71.1456 29.2761 71.7926C29.6398 71.9744 30.0408 72.0689 30.4473 72.0689H45.553C47.0004 72.0689 48.1737 70.8955 48.1735 69.4481C48.1735 69.0416 48.0789 68.6404 47.8972 68.2768L43.2416 58.9655V57.6552H32.7588V58.9655Z" fill="#505968"/>
<path d="M5.24138 3.93103H70.7586C73.6533 3.93103 76 6.27769 76 9.17241V53.7241C76 56.6189 73.6533 58.9655 70.7586 58.9655H5.24138C2.34666 58.9655 0 56.6189 0 53.7241V9.17241C0 6.27769 2.34666 3.93103 5.24138 3.93103Z" fill="#75E6FF"/>
<path d="M7.8623 9.17242H34.0692V22.2759H7.8623V9.17242Z" fill="#EE2849"/>
<path d="M41.9307 9.17242H68.1376V22.2759H41.9307V9.17242Z" fill="#FFD33F"/>
<path d="M22.2759 28.8276H7.8621C7.13846 28.8276 6.55176 28.2409 6.55176 27.5173C6.55176 26.7936 7.13846 26.2069 7.8621 26.2069H22.2759C22.9995 26.2069 23.5862 26.7936 23.5862 27.5173C23.5862 28.2409 22.9995 28.8276 22.2759 28.8276Z" fill="#505968"/>
<path d="M7.8623 35.3793H68.1382V48.4827H7.8623V35.3793Z" fill="#FAA41B"/>
<path d="M34.0689 55.0345H26.2068C25.4832 55.0345 24.8965 54.4478 24.8965 53.7242C24.8965 53.0005 25.4832 52.4138 26.2068 52.4138H34.0689C34.7925 52.4138 35.3792 53.0005 35.3792 53.7242C35.3792 54.4478 34.7925 55.0345 34.0689 55.0345Z" fill="#505968"/>
<path d="M34.0691 28.8276H27.5174C26.7937 28.8276 26.207 28.2409 26.207 27.5173C26.207 26.7936 26.7937 26.2069 27.5174 26.2069H34.0691C34.7927 26.2069 35.3794 26.7936 35.3794 27.5173C35.3794 28.2409 34.7927 28.8276 34.0691 28.8276Z" fill="#505968"/>
<path d="M55.0349 28.8276H41.9314C41.2078 28.8276 40.6211 28.2409 40.6211 27.5173C40.6211 26.7936 41.2078 26.2069 41.9314 26.2069H55.0349C55.7585 26.2069 56.3452 26.7936 56.3452 27.5173C56.3452 28.2409 55.7585 28.8276 55.0349 28.8276Z" fill="#505968"/>
<path d="M20.9656 55.0345H7.8621C7.13846 55.0345 6.55176 54.4478 6.55176 53.7242C6.55176 53.0005 7.13846 52.4138 7.8621 52.4138H20.9656C21.6892 52.4138 22.2759 53.0005 22.2759 53.7242C22.2759 54.4478 21.6892 55.0345 20.9656 55.0345Z" fill="#505968"/>
<path d="M36.69 45.8621L34.0693 53.7242L41.9314 51.1035L43.2417 49.7931L38.0004 44.5518L36.69 45.8621Z" fill="#F2CBA7"/>
<path d="M36.6904 45.8629L64.2073 18.346L69.4489 23.5876L41.932 51.1045L36.6904 45.8629Z" fill="#3FD100"/>
<path d="M67.0529 17.0345C66.07 17.0343 65.1273 17.4245 64.4322 18.1195L62.8965 19.6552L68.1379 24.8966L69.6736 23.3608C71.121 21.9139 71.1214 19.5675 69.6744 18.1203C68.9793 17.4248 68.0362 17.0343 67.0529 17.0345Z" fill="#EFF2FA"/>
</svg>
