<svg width="76" height="76" viewBox="0 0 76 76" fill="none" xmlns="http://www.w3.org/2000/svg">
<g clip-path="url(#clip0)">
<path d="M73.142 76H2.858C1.27969 76 0 74.7203 0 73.142V2.858C0 1.27969 1.27969 0 2.858 0H73.1414C74.7203 0 76 1.27969 76 2.858V73.1414C76 74.7203 74.7203 76 73.142 76Z" fill="#F2F2F2"/>
<path d="M58.7586 62.3519C58.4652 62.3519 58.1719 62.24 57.948 62.0162L52.7678 56.8359C52.3196 56.3883 52.3196 55.6624 52.7678 55.2141C53.2154 54.7665 53.942 54.7665 54.3896 55.2141L59.5698 60.3944C60.0175 60.842 60.0175 61.568 59.5698 62.0162C59.3454 62.24 59.052 62.3519 58.7586 62.3519Z" fill="#426175"/>
<path d="M73.1422 0H64.9277C66.5066 0 67.7863 1.27969 67.7863 2.858V73.1414C67.7863 74.7203 66.5066 76 64.9277 76H73.1422C74.7206 76 76.0002 74.7203 76.0002 73.1414V2.858C76.0002 1.27969 74.7206 0 73.1422 0V0Z" fill="#CDD6DF"/>
<path d="M73.142 0H2.858C1.27969 0 0 1.27969 0 2.858V11.3804H76V2.858C76 1.27969 74.7203 0 73.142 0Z" fill="#426175"/>
<path d="M34.5608 6.83682H6.6308C5.99704 6.83682 5.48389 6.32367 5.48389 5.69049C5.48389 5.05673 5.99704 4.54358 6.6308 4.54358H34.5614C35.1946 4.54358 35.7077 5.05673 35.7077 5.69049C35.7077 6.32367 35.1946 6.83682 34.5608 6.83682Z" fill="#F2F2F2"/>
<path d="M76.0002 11.3804V2.858C76.0002 1.27969 74.7205 0 73.1422 0H64.9282C66.5071 0.000579834 67.7862 1.27969 67.7862 2.858V11.3804H76.0002Z" fill="#2C4456"/>
<path d="M56.9504 5.69049C56.9504 6.48486 56.3068 7.12906 55.5118 7.12906C54.7174 7.12906 54.0732 6.48486 54.0732 5.69049C54.0732 4.89554 54.7174 4.25134 55.5118 4.25134C56.3068 4.25134 56.9504 4.89554 56.9504 5.69049Z" fill="#FED066"/>
<path d="M63.8479 5.69049C63.8479 6.48486 63.2037 7.12906 62.4088 7.12906C61.6144 7.12906 60.9702 6.48486 60.9702 5.69049C60.9702 4.89554 61.6144 4.25134 62.4088 4.25134C63.2037 4.25134 63.8479 4.89554 63.8479 5.69049Z" fill="#FED066"/>
<path d="M70.7454 5.69049C70.7454 6.48486 70.1012 7.12906 69.3068 7.12906C68.5119 7.12906 67.8677 6.48486 67.8677 5.69049C67.8677 4.89554 68.5119 4.25134 69.3068 4.25134C70.1012 4.25134 70.7454 4.89554 70.7454 5.69049Z" fill="#FED066"/>
<path d="M60.9964 40.3646C60.9964 53.1099 50.6637 63.4426 37.9178 63.4426C25.1725 63.4426 14.8398 53.1099 14.8398 40.3646C14.8398 27.6187 25.1725 17.2866 37.9178 17.2866C50.6637 17.2866 60.9964 27.6187 60.9964 40.3646Z" fill="#33BCA5"/>
<path d="M56.1814 40.3646C56.1814 50.4508 48.0046 58.6276 37.9178 58.6276C27.8316 58.6276 19.6548 50.4508 19.6548 40.3646C19.6548 30.2778 27.8316 22.101 37.9178 22.101C48.0046 22.101 56.1814 30.2778 56.1814 40.3646Z" fill="#F2F2F2"/>
<path d="M50.8322 27.4505C46.2144 22.8321 39.7388 21.2057 33.8105 22.5677C37.0385 23.3093 40.1035 24.9357 42.6176 27.4505C49.7502 34.5824 49.7502 46.1461 42.6176 53.2786C40.1035 55.7928 37.0385 57.4192 33.8105 58.1608C39.7388 59.5228 46.2138 57.8964 50.8322 53.2786C57.9641 46.1461 57.9641 34.5824 50.8322 27.4505Z" fill="#CDD6DF"/>
<path d="M71.8346 71.6594L69.2132 74.2814C68.6705 74.8241 67.7903 74.8241 67.2476 74.2814L56.5403 63.5736C55.9976 63.0309 55.9976 62.1512 56.5403 61.6085L59.1618 58.9865C59.7051 58.4438 60.5847 58.4438 61.1274 58.9865L71.8346 69.6937C72.3773 70.237 72.3773 71.1166 71.8346 71.6594Z" fill="#F5B556"/>
<path d="M30.5192 42.4652C30.5192 39.7423 25.5193 40.8034 25.5193 37.1116C25.5193 34.8346 27.4269 34.158 29.0731 34.158C30.0727 34.158 31.8731 34.4195 31.8731 35.2654C31.8731 35.5733 31.6574 36.1422 31.1958 36.1422C30.7807 36.1422 30.3806 35.5577 29.0731 35.5577C27.9499 35.5577 27.1497 35.9885 27.1497 36.958C27.1497 39.2344 32.1497 38.2035 32.1497 42.2959C32.1497 44.4958 30.6728 45.5726 28.6422 45.5726C26.6424 45.5726 25.2427 44.5266 25.2427 43.7571C25.2427 43.3883 25.5656 42.8804 25.9501 42.8804C26.5038 42.8804 26.8732 44.0957 28.5808 44.0957C29.6883 44.0957 30.5192 43.5727 30.5192 42.4652Z" fill="#FD715C"/>
<path d="M36.1188 39.1729H38.4874C38.826 39.1729 39.0261 39.4808 39.0261 39.8345C39.0261 40.1268 38.8568 40.4654 38.4874 40.4654H36.1188V44.0035H40.6879C41.0259 44.0035 41.226 44.3422 41.226 44.7422C41.226 45.0803 41.0566 45.4496 40.6879 45.4496H35.2113C34.8571 45.4496 34.4883 45.2653 34.4883 44.911V34.7424C34.4883 34.3887 34.8571 34.2043 35.2113 34.2043H40.6879C41.0566 34.2043 41.226 34.5731 41.226 34.9117C41.226 35.3118 41.0259 35.6505 40.6879 35.6505H36.1188V39.1729Z" fill="#FD715C"/>
<path d="M43.0889 42.111V37.6346C43.0889 35.1425 44.5808 34.2043 46.5348 34.2043C48.4732 34.2043 49.9958 35.1425 49.9958 37.6346V42.111C49.9958 44.6031 48.4732 45.5418 46.5348 45.5418C44.5808 45.5418 43.0889 44.6031 43.0889 42.111ZM48.3654 37.6346C48.3654 36.2807 47.673 35.6505 46.5342 35.6505C45.381 35.6505 44.7194 36.2807 44.7194 37.6346V42.111C44.7194 43.4649 45.381 44.0957 46.5342 44.0957C47.673 44.0957 48.3654 43.4649 48.3654 42.111V37.6346Z" fill="#FD715C"/>
<path d="M56.9504 5.69049C56.9504 6.48486 56.3068 7.12906 55.5118 7.12906C54.7174 7.12906 54.0732 6.48486 54.0732 5.69049C54.0732 4.89554 54.7174 4.25134 55.5118 4.25134C56.3068 4.25134 56.9504 4.89554 56.9504 5.69049Z" fill="#46D1C0"/>
<path d="M63.8479 5.69049C63.8479 6.48486 63.2037 7.12906 62.4088 7.12906C61.6144 7.12906 60.9702 6.48486 60.9702 5.69049C60.9702 4.89554 61.6144 4.25134 62.4088 4.25134C63.2037 4.25134 63.8479 4.89554 63.8479 5.69049Z" fill="#46D1C0"/>
<path d="M70.7449 5.69049C70.7449 6.48486 70.1007 7.12906 69.3063 7.12906C68.5114 7.12906 67.8672 6.48486 67.8672 5.69049C67.8672 4.89554 68.5114 4.25134 69.3063 4.25134C70.1007 4.25134 70.7449 4.89554 70.7449 5.69049Z" fill="#46D1C0"/>
</g>
<defs>
<clipPath id="clip0">
<rect width="76" height="76" fill="white"/>
</clipPath>
</defs>
</svg>
