<svg width="76" height="76" viewBox="0 0 76 76" fill="none" xmlns="http://www.w3.org/2000/svg">
<g clip-path="url(#clip0)">
<path d="M74.131 74.754C15.5737 74.754 9.92974 76.1369 5.74351 67.2786C2.15531 59.6661 1.86875 26.1638 1.86875 17.4425C1.82183 15.4184 2.03114 13.3964 2.4917 11.4248L23.0491 12.4589C23.7226 14.4808 23.7226 16.6665 23.0491 18.6884C20.7192 24.6687 16.8196 32.4805 16.8196 39.8687L54.9691 63.3914C58.0816 64.0967 61.1515 64.9786 64.1638 66.0327C68.4975 67.5269 72.0748 70.657 74.131 74.754Z" fill="#FFEB3A"/>
<path d="M74.1311 74.7541H69.1475C67.0912 70.6571 63.5139 67.527 59.1803 66.0327C46.3599 61.7219 48.8891 64.1763 54.9691 63.3914C58.0816 64.0968 61.1515 64.9787 64.1639 66.0327C68.4975 67.527 72.0748 70.6571 74.1311 74.7541Z" fill="#FDD834"/>
<path d="M13.0827 4.98366V12.4591C11.4739 14.6042 8.67296 15.4791 6.12919 14.6312C3.58542 13.7833 1.86963 11.4027 1.86963 8.72136C1.86963 6.03999 3.58542 3.65946 6.12919 2.81153C8.67296 1.96361 11.4739 2.83856 13.0827 4.98366Z" fill="#F5F5F5"/>
<path d="M73.4084 41.04C73.1717 57.5358 56.3645 69.4341 42.4104 60.6505H42.2858C39.1409 62.5891 35.4469 63.4426 31.7704 63.08C28.8109 62.7271 26.0119 61.5435 23.697 59.6663C22.0186 57.5929 20.6388 55.2948 19.5979 52.8387C14.1533 40.3797 18.352 31.6584 18.352 31.4715C22.5881 20.6072 35.7947 12.7082 49.4996 14.9509C62.6688 16.9941 73.7573 27.9705 73.4084 41.04Z" fill="#D84315"/>
<path d="M69.6707 41.0401C69.4962 53.2374 60.0398 62.8932 50.5835 63.4663C47.6804 63.1698 44.8842 62.2107 42.4103 60.663C42.2858 60.7502 41.3513 61.261 40.4917 61.6597C39.8633 61.3693 39.2556 61.0363 38.6726 60.663C37.8242 61.1348 36.9461 61.5509 36.0438 61.9089C34.666 62.471 33.2212 62.8521 31.7454 63.0427C28.786 62.6897 25.9869 61.5062 23.672 59.6289C19.147 53.8298 16.7303 46.6633 16.8195 39.3083C17.2307 25.2171 29.9015 15.4119 42.9835 14.6394C43.952 14.689 44.917 14.793 45.8739 14.9509C58.7815 16.9692 70.032 27.846 69.6707 41.0401Z" fill="#FF5722"/>
<path d="M18.0654 14.9507C21.5059 14.9507 24.295 12.1617 24.295 8.72121C24.295 5.28074 21.5059 2.4917 18.0654 2.4917C14.625 2.4917 11.8359 5.28074 11.8359 8.72121C11.8359 12.1617 14.625 14.9507 18.0654 14.9507Z" fill="#F5F5F5"/>
<path d="M64.5625 64.8493C62.9055 64.3011 61.3855 63.8152 59.9278 63.3791C63.9482 61.76 67.4111 59.007 69.895 55.4552L70.0071 55.3057C73.267 50.7298 74.9028 45.1952 74.6544 39.5824C74.6728 39.4668 74.6728 39.3491 74.6544 39.2335C73.4084 17.2184 44.7527 4.94629 25.6655 20.0217C23.3107 21.8656 22.8248 22.6755 22.937 22.4263C23.4229 21.2552 23.8714 20.1588 24.2701 19.1496C25.0067 17.0549 25.0806 14.7842 24.4819 12.646C26.4949 9.47237 25.8388 5.29765 22.9493 2.89453C20.0599 0.491402 15.8355 0.607047 13.0819 3.16465C11.7105 1.93835 9.93797 1.25593 8.09828 1.24596C5.61423 1.25345 3.29615 2.49438 1.91248 4.5574C0.528812 6.62042 0.260312 9.23601 1.19599 11.5371C0.777176 13.4768 0.584852 15.4586 0.622873 17.4427C0.622873 27.2729 0.909431 59.9529 4.62222 67.8145C7.31337 73.5083 10.5901 76.0001 30.6616 76.0001H74.1311C74.5521 76.0016 74.9454 75.7903 75.1766 75.4384C75.4079 75.0866 75.4457 74.6417 75.2773 74.2558C73.0891 69.8276 69.2369 66.4456 64.5625 64.8493ZM31.0976 19.3863C31.7642 21.1229 33.1935 22.4556 34.9724 22.9994C36.4035 23.355 37.6196 24.2953 38.3239 25.5909C38.6086 26.404 38.5729 27.295 38.2242 28.0827C38.0239 28.4693 38.04 28.9325 38.2666 29.3043C38.4933 29.6761 38.8976 29.9026 39.333 29.9017C39.7994 29.9027 40.2273 29.6431 40.4419 29.2289C41.1119 27.8097 41.1881 26.1819 40.6537 24.7063C39.7183 22.7097 37.9493 21.2279 35.8196 20.6571C34.6197 20.365 33.6686 19.452 33.3278 18.265C37.5891 16.396 42.2424 15.5962 46.8832 15.9352C46.8705 17.6424 47.5866 19.274 48.8517 20.4204C49.969 21.3523 50.6501 22.7056 50.733 24.1581C50.6477 25.0185 50.227 25.8108 49.5619 26.3634C49.131 26.6865 48.9565 27.2499 49.1294 27.76C49.3022 28.2701 49.7833 28.6114 50.3219 28.606C50.5915 28.606 50.8538 28.5185 51.0694 28.3568C52.2842 27.3699 53.0554 25.9396 53.2124 24.3824C53.2287 22.2009 52.2912 20.1211 50.6458 18.6886C49.9321 18.0441 49.4872 17.1545 49.3999 16.1968C54.2269 16.9608 58.7754 18.9562 62.6065 21.9902C62.2871 23.1354 62.2871 24.3461 62.6065 25.4912C63.0928 26.9516 62.9529 28.5481 62.2203 29.9017C61.7468 30.5468 61.049 30.9913 60.2642 31.1476C59.5761 31.2371 59.0908 31.8674 59.1803 32.5555C59.2697 33.2436 59.9 33.7289 60.5881 33.6394C62.0624 33.385 63.3778 32.5618 64.2511 31.347C66.1698 28.5811 64.9363 25.2296 64.874 24.0086C69.0709 27.9094 71.6461 33.2467 72.0878 38.9594C71.5361 39.4194 71.0535 39.9565 70.655 40.5542C69.9292 41.8923 68.6862 42.8741 67.2163 43.2702C66.4203 43.3839 65.6113 43.1828 64.9612 42.7096C64.4314 42.2692 63.6449 42.3417 63.2045 42.8716C62.7641 43.4014 62.8367 44.1879 63.3665 44.6283C64.3395 45.3842 65.5357 45.796 66.7678 45.7994C68.8842 45.6854 70.8293 44.6002 72.038 42.8591C71.6811 46.7046 70.3426 50.3941 68.1507 53.5739C66.6058 53.9725 64.7494 54.608 63.1671 53.7234C62.4738 53.3323 61.9632 52.6829 61.7468 51.9168C61.6533 51.4717 61.3295 51.1103 60.8973 50.9686C60.4651 50.827 59.9901 50.9268 59.6514 51.2303C59.3126 51.5338 59.1615 51.995 59.255 52.4401C59.6207 53.8785 60.5503 55.109 61.834 55.8539C62.7975 56.4007 63.8911 56.6763 64.9986 56.6512H65.5593C63.6514 58.6781 61.3024 60.2385 58.6944 61.2112C57.3485 60.903 56.1768 60.0802 55.4301 58.9188C55.0814 58.1906 55.0278 57.3557 55.2806 56.5889C55.4032 56.2817 55.3985 55.9383 55.2676 55.6344C55.1367 55.3306 54.8904 55.0913 54.5829 54.9693C54.2756 54.8467 53.9322 54.8514 53.6284 54.9823C53.3245 55.1131 53.0852 55.3595 52.9632 55.667C52.4667 57.0762 52.5427 58.624 53.175 59.9778C53.6145 60.8471 54.2552 61.5989 55.0439 62.1706C51.5256 62.6894 47.9325 62.1426 44.7278 60.6007C44.479 59.2921 45.0899 57.9701 46.2478 57.3116C46.8393 56.9828 47.0603 56.2421 46.7455 55.643C46.4308 55.044 45.6954 54.8057 45.0891 55.1063C43.6124 55.9374 42.5944 57.3956 42.3232 59.0683C39.5989 57.2612 37.5079 54.6474 36.3429 51.5929C37.1363 51.0714 38.1296 50.9559 39.0216 51.2814C39.6546 51.5395 40.3774 51.2393 40.6412 50.6086C40.909 49.9756 40.6136 49.2452 39.9809 48.9765C38.5853 48.4585 37.0423 48.5077 35.6825 49.1135C35.205 46.2124 35.6404 43.2346 36.9284 40.5916C37.3712 40.9146 37.7266 41.3428 37.9625 41.8375C38.2329 42.4473 38.9357 42.736 39.5567 42.4923C40.1777 42.2485 40.4965 41.5589 40.2799 40.9279C39.8436 39.92 39.1309 39.0561 38.2242 38.4361C45.5252 28.5437 59.0557 34.7981 57.9842 43.8683C57.436 48.5404 53.1376 52.166 48.5776 50.6086C46.0604 49.8599 44.3922 47.4738 44.5534 44.8525C45.0268 40.766 49.537 39.383 51.6924 42.1365C52.119 42.6801 52.9055 42.7749 53.4491 42.3483C53.9927 41.9217 54.0875 41.1352 53.6609 40.5916C52.64 39.289 51.1428 38.4463 49.4996 38.2493C43.6314 37.5391 39.6321 45.0145 43.6314 50.0978C46.7406 54.0259 52.4432 54.6948 56.377 51.5929C58.6683 49.7831 60.1461 47.1366 60.485 44.2365C60.8238 41.3364 59.9959 38.4205 58.1835 36.1312C52.577 28.9673 41.1271 28.905 35.5081 38.1745C35.5081 38.1745 35.5081 38.2493 35.4334 38.2866C31.1599 45.4007 32.5803 54.6578 40.0557 60.4886C35.0124 62.9638 28.9933 62.3037 24.6065 58.7942C23.4976 57.412 22.5371 55.917 21.7409 54.3339C22.775 53.387 24.0084 51.2066 26.1016 51.0821C26.9657 51.0646 27.8021 51.3867 28.4314 51.9791C28.9096 52.4745 29.6989 52.4885 30.1944 52.0103C30.6898 51.532 30.7037 50.7427 30.2255 50.2473C29.09 49.1379 27.5512 48.5395 25.9645 48.5903C23.7702 48.8592 21.799 50.0628 20.5573 51.8919C19.3113 48.9414 18.5134 45.8213 18.1901 42.6348C21.5291 43.5194 23.3606 40.9778 26.0517 41.825C27.0053 42.171 27.7397 42.9469 28.0327 43.9181C28.144 44.3499 28.4772 44.6895 28.9067 44.809C29.3363 44.9285 29.797 44.8098 30.1152 44.4975C30.4335 44.1853 30.561 43.7269 30.4498 43.2952C29.9074 41.4811 28.5112 40.0477 26.7121 39.4578C24.8906 38.9826 22.9603 39.1589 21.255 39.9561C20.2379 40.4333 19.055 40.4009 18.0655 39.8689C18.068 36.099 19.0375 32.3927 20.8812 29.1043C22.0875 30.507 23.8814 31.2632 25.7278 31.1476C27.1908 30.9525 28.6659 31.4078 29.7645 32.3935C30.3165 33.0541 30.5931 33.9017 30.537 34.7607C30.451 35.4488 30.939 36.0764 31.6271 36.1624C32.3152 36.2484 32.9428 35.7603 33.0288 35.0722C33.1684 33.5117 32.6796 31.9601 31.6707 30.7614C30.1298 29.2386 27.9982 28.4689 25.8399 28.6558C24.4353 28.8477 23.0548 28.1674 22.3514 26.9365C24.6763 23.8074 27.6626 21.2294 31.0976 19.3863ZM18.0655 3.73777C20.8179 3.73777 23.0491 5.96901 23.0491 8.72138C23.0491 11.4737 20.8179 13.705 18.0655 13.705C15.3131 13.705 13.0819 11.4737 13.0819 8.72138C13.0819 5.96901 15.3131 3.73777 18.0655 3.73777ZM11.5121 5.13318C10.2888 7.36892 10.2888 10.0738 11.5121 12.3096C9.54752 14.2031 6.42555 14.1648 4.50807 12.2236C2.59058 10.2825 2.59058 7.16027 4.50807 5.21912C6.42555 3.27796 9.54752 3.23966 11.5121 5.13318ZM6.85238 66.743C3.45107 59.5293 2.69107 20.1089 3.23927 14.4152C6.09148 16.8409 10.2983 16.7823 13.0819 14.2781C15.6369 16.5686 19.4232 16.8255 22.2642 14.9011C22.3845 16.028 22.2569 17.1676 21.8904 18.2401C19.1619 25.2545 15.4491 32.3935 15.5737 40.6663C15.7607 47.8677 18.2691 54.816 22.7252 60.4762L22.8373 60.5883C28.4183 65.0757 36.1825 65.6745 42.3855 62.0958C46.1669 64.2327 50.5321 65.1057 54.8445 64.5876C57.866 65.3172 60.8443 66.2157 63.7652 67.2788C67.0984 68.4164 69.9742 70.6016 71.9632 73.5083C15.2373 73.5083 10.5901 74.6545 6.85238 66.743Z" fill="black"/>
<path d="M16.8195 9.96715C17.5076 9.96715 18.0654 9.40934 18.0654 8.72125C18.0654 8.03315 17.5076 7.47534 16.8195 7.47534C16.1314 7.47534 15.5736 8.03315 15.5736 8.72125C15.5736 9.40934 16.1314 9.96715 16.8195 9.96715Z" fill="black"/>
<path d="M6.85235 9.96715C7.54044 9.96715 8.09825 9.40934 8.09825 8.72125C8.09825 8.03315 7.54044 7.47534 6.85235 7.47534C6.16425 7.47534 5.60645 8.03315 5.60645 8.72125C5.60645 9.40934 6.16425 9.96715 6.85235 9.96715Z" fill="black"/>
</g>
<defs>
<clipPath id="clip0">
<rect width="76" height="76" fill="white"/>
</clipPath>
</defs>
</svg>
