<svg width="76" height="76" viewBox="0 0 76 76" fill="none" xmlns="http://www.w3.org/2000/svg">
<g clip-path="url(#clip0)">
<path d="M74.4787 1.48452C74.4787 1.48452 74.1922 9.47489 70.8717 18.8695L57.0938 5.09154C66.4883 1.771 74.4787 1.48452 74.4787 1.48452Z" fill="#FF5249"/>
<path d="M57.0937 5.09155L70.8716 18.8695C68.7133 24.9821 65.2681 31.6885 59.7848 37.1718C54.7319 42.2248 48.6531 46.2695 42.2974 49.0735L26.8896 33.6657C28.7659 29.413 31.3843 24.8753 34.8444 20.578C36.0556 19.0743 37.3693 17.6004 38.7913 16.1783C44.2746 10.6951 50.981 7.24983 57.0937 5.09155Z" fill="white"/>
<path d="M57.6839 18.2787C60.0025 20.5973 60.0025 24.3572 57.6839 26.6758C55.3653 28.9944 51.6069 28.9944 49.2868 26.6758C46.9682 24.3557 46.9682 20.5973 49.2868 18.2787C51.6054 15.9601 55.3653 15.9601 57.6839 18.2787Z" fill="#7BD8E8"/>
<path d="M55.5854 41.3696C63.2359 52.8453 48.9146 60.2627 40.8916 60.2627C45.0894 56.0649 43.8633 50.6395 43.8633 50.6395L42.2973 49.0735C46.55 47.1973 51.0878 44.5788 55.385 41.1188L55.5854 41.3696Z" fill="#FF5249"/>
<path d="M25.1649 44.5372L24.9244 44.2968C24.2149 43.5858 23.866 42.5556 24.1154 41.5819C24.7344 39.1712 25.6488 36.4816 26.8897 33.6657L42.2975 49.0735C39.4816 50.3144 36.792 51.2288 34.3813 51.8478C33.4076 52.0972 32.3774 51.7483 31.6664 51.0388L31.426 50.7983L25.1649 44.5372Z" fill="#FF5249"/>
<path d="M34.5933 20.3776L34.8441 20.578C31.3841 24.8753 28.7656 29.413 26.8894 33.6657L25.3234 32.0997C25.3234 32.0997 19.898 30.8736 15.7002 35.0714C15.7002 27.0484 23.1176 12.7272 34.5933 20.3776Z" fill="#FF5249"/>
<path d="M25.1646 44.5372L31.4256 50.7983C30.9759 52.5781 29.9086 54.4514 28.2951 56.0649C24.8172 59.5428 15.7002 60.2627 15.7002 60.2627C15.7002 60.2627 16.4201 51.1457 19.898 47.6678C21.5115 46.0543 23.3848 44.987 25.1646 44.5372Z" fill="#FFDD78"/>
<path d="M39.8793 38.2213C40.4582 37.6409 40.4582 36.7013 39.8793 36.1223C39.2989 35.542 38.3593 35.542 37.7789 36.1223C37.2 36.7013 37.2 37.6409 37.7789 38.2213C38.3593 38.8002 39.2989 38.8002 39.8793 38.2213Z" fill="black"/>
<path d="M58.7706 27.7254C61.6708 24.8252 61.6714 20.1297 58.7706 17.2291C55.8701 14.3288 51.1748 14.3286 48.2742 17.2291C45.3813 20.122 45.3811 24.8304 48.2746 27.7257C51.1685 30.6178 55.877 30.619 58.7706 27.7254ZM50.3735 19.3283C52.1136 17.5882 54.931 17.5879 56.6714 19.3283C58.4115 21.0683 58.4118 23.8858 56.6714 25.6261C54.9357 27.3619 52.1104 27.3619 50.3738 25.6264C48.6378 23.8893 48.6377 21.064 50.3735 19.3283Z" fill="black"/>
<path d="M15.1697 36.4426C15.3533 36.5187 15.5463 36.5557 15.7375 36.5557C16.1238 36.5557 16.5034 36.4047 16.7873 36.1209C19.7684 33.1399 23.4453 33.3263 24.6465 33.4842L25.1663 34.0041C24.1433 36.4384 23.3192 38.8591 22.7147 41.2135C22.4965 42.0655 22.5702 42.9671 22.8945 43.7919C21.4653 44.4505 20.0865 45.4175 18.886 46.6181C15.065 50.4392 14.2891 59.7512 14.258 60.1458C14.2238 60.5788 14.3809 61.0051 14.688 61.3122C14.9675 61.5916 15.3456 61.747 15.7375 61.747C15.7763 61.747 15.8154 61.7455 15.8544 61.7424C16.249 61.7113 25.5613 60.9355 29.3822 57.1145C30.5824 55.9144 31.5493 54.5357 32.2079 53.1069C33.081 53.4502 33.9796 53.4925 34.7877 53.2855C37.1411 52.6812 39.5615 51.8573 41.9961 50.8342L42.516 51.354C42.6738 52.5553 42.8602 56.2322 39.8793 59.213C39.4549 59.6375 39.3278 60.276 39.5576 60.8305C39.7872 61.3852 40.3285 61.7468 40.9289 61.7468C46.804 61.7468 55.0178 58.248 58.0429 52.5954C59.3568 50.1407 60.2512 46.2573 57.3986 41.4109C58.6079 40.3888 59.7727 39.32 60.8714 38.2213C65.7728 33.3199 69.6206 26.9753 72.3082 19.364C75.6659 9.86431 75.9869 1.87305 75.999 1.53758C76.0138 1.12566 75.8566 0.72622 75.5652 0.434689C75.2737 0.143307 74.8759 -0.0146305 74.4623 0.000955379C74.1267 0.0129788 66.1356 0.334197 56.6364 3.6917C49.0245 6.3793 42.6798 10.2272 37.7786 15.1286C36.6803 16.2269 35.6116 17.3916 34.589 18.6015C29.7428 15.7488 25.8594 16.6433 23.4044 17.9571C17.7517 20.9823 14.2529 29.1962 14.2529 35.0713C14.2534 35.6716 14.6151 36.213 15.1697 36.4426ZM27.283 55.0152C25.242 57.0562 20.4542 58.1327 17.428 58.5722C17.8677 55.5459 18.9443 50.7582 20.9852 48.7173C22.1281 47.5743 23.4534 46.7078 24.7854 46.2197L29.7807 51.2149C29.2926 52.547 28.4262 53.8722 27.283 55.0152ZM34.0503 50.4096C33.6207 50.5196 33.1232 50.3581 32.7533 49.9888C25.548 42.7837 34.7972 52.0329 26.0124 43.248C25.6422 42.877 25.4807 42.3796 25.5904 41.9508C26.0659 40.0992 26.6877 38.1995 27.4438 36.2815L39.7188 48.5565C37.8006 49.3128 35.9012 49.9345 34.0503 50.4096ZM55.4259 51.1946C53.481 54.8282 48.5844 57.5066 44.1221 58.4285C45.5448 55.7511 45.8585 52.3429 45.3386 50.2762C45.218 49.7961 44.9048 49.5548 44.8873 49.5264C48.4843 47.7842 51.8908 45.6941 55.0531 43.2898C56.5979 46.1122 56.7251 48.7667 55.4259 51.1946ZM70.2573 16.1183L59.8821 5.7431C65.5347 3.98739 70.4523 3.32996 72.9069 3.09364C72.6704 5.54865 72.0128 10.4662 70.2573 16.1183ZM39.8784 17.2278C44.2758 12.8302 49.9512 9.33038 56.7514 6.81111L69.1892 19.249C66.6703 26.049 63.1704 31.7244 58.7725 36.1221C57.4349 37.4595 55.9947 38.7517 54.4916 39.9625C50.8783 42.8718 46.9014 45.3362 42.6585 47.2979L28.7024 33.3422C30.6641 29.099 33.1285 25.122 36.0376 21.5092C37.2494 20.0051 38.5414 18.5647 39.8784 17.2278ZM24.8058 20.5745C27.2341 19.2751 29.8883 19.4024 32.7104 20.9472C30.3061 24.1092 28.216 27.5159 26.4738 31.1132C26.4516 31.0996 26.1845 30.7637 25.6881 30.6518C25.484 30.6056 21.5565 29.7608 17.5717 31.8786C18.4938 27.4161 21.172 22.5193 24.8058 20.5745Z" fill="black"/>
<path d="M31.4824 67.6103L35.6802 63.411C36.2597 62.8312 36.2596 61.8913 35.6799 61.3118C35.1 60.7322 34.1601 60.7325 33.5806 61.3121L29.3828 65.5114C28.8033 66.0912 28.8034 67.0311 29.3831 67.6106C29.963 68.1901 30.9029 68.1901 31.4824 67.6103Z" fill="black"/>
<path d="M10.4888 46.6172L14.6881 42.4194C15.2679 41.8399 15.268 40.8999 14.6885 40.3202C14.109 39.7404 13.1693 39.7404 12.5893 40.3199L8.39004 44.5177C7.81024 45.0972 7.81009 46.0371 8.38959 46.6169C8.96894 47.1964 9.9087 47.197 10.4888 46.6172Z" fill="black"/>
<path d="M23.0847 63.4122L13.0296 73.4659C12.4498 74.0455 12.4498 74.9854 13.0294 75.5651C13.6088 76.1447 14.5488 76.145 15.1286 75.5652L25.1838 65.5116C25.7636 64.9319 25.7636 63.992 25.1839 63.4124C24.6046 62.8327 23.6645 62.8327 23.0847 63.4122Z" fill="black"/>
<path d="M11.2097 63.4122L1.15459 73.4659C0.574796 74.0455 0.574796 74.9854 1.15444 75.5651C1.73379 76.1447 2.67385 76.145 3.25364 75.5652L13.3088 65.5116C13.8886 64.9319 13.8886 63.992 13.3089 63.4124C12.7294 62.8327 11.7894 62.8327 11.2097 63.4122Z" fill="black"/>
<path d="M2.53504 62.9702L12.5887 52.915C13.1683 52.3353 13.1683 51.3955 12.5885 50.8157C12.009 50.2362 11.069 50.2362 10.4893 50.8158L0.435694 60.871C-0.143954 61.4508 -0.143954 62.3905 0.435842 62.9703C1.01549 63.55 1.95539 63.55 2.53504 62.9702Z" fill="black"/>
<path d="M44.077 34.0221L46.1759 31.9232C46.7556 31.3436 46.7556 30.4037 46.1759 29.8239C45.5961 29.2442 44.6565 29.2442 44.0766 29.8239L41.9777 31.9228C41.3981 32.5024 41.3981 33.4423 41.9777 34.0221C42.5575 34.6018 43.4973 34.6018 44.077 34.0221Z" fill="black"/>
</g>
<defs>
<clipPath id="clip0">
<rect width="76" height="76" fill="white"/>
</clipPath>
</defs>
</svg>
