<svg width="27" height="27" viewBox="0 0 27 27" fill="none" xmlns="http://www.w3.org/2000/svg">
<g clip-path="url(#clip0)">
<path d="M12.2598 20.5835C12.054 20.7891 12.054 21.123 12.2598 21.329C12.466 21.5348 12.7997 21.5348 13.0053 21.329C13.2115 21.123 13.2115 20.7891 13.0053 20.5835C12.7997 20.3773 12.466 20.3773 12.2598 20.5835Z" fill="#C5C5C5"/>
<path d="M25.7827 19.6675L21.779 16.2631C21.7605 16.2474 21.7409 16.233 21.7205 16.22C20.6702 15.5514 19.3215 15.6995 18.4409 16.5799L16.258 18.7626C16.1068 18.914 15.8812 18.9587 15.6835 18.8771C13.2186 17.8575 11.1936 16.3224 9.66497 14.315C8.49925 12.7843 8.07902 11.5679 8.02361 11.3965C8.01702 11.3598 8.00651 11.3233 7.99168 11.2877C7.9099 11.09 7.9546 10.8648 8.10621 10.7136L10.2889 8.53028C11.1695 7.64966 11.3174 6.30102 10.6488 5.25065C10.6434 5.24221 10.6379 5.23397 10.6321 5.22573L7.74078 1.20782C6.83111 -0.203439 4.84966 -0.416642 3.66046 0.772353L3.22334 1.20947C3.22313 1.20988 3.22272 1.2103 3.22231 1.2105L1.6617 2.77111C-0.199246 4.63226 -0.503704 7.42883 0.78149 10.859C1.88232 13.7973 4.08604 17.0131 6.98664 19.9137C9.95583 22.8829 13.2585 25.1274 16.2862 26.2338C19.283 27.3286 22.4708 27.4636 24.727 25.2071L26.1988 23.7355C27.3827 22.5514 27.1761 20.583 25.7827 19.6675ZM21.1256 17.0916L25.1258 20.4932C25.1442 20.5088 25.1637 20.5232 25.1841 20.5362C26.0386 21.0802 26.1679 22.275 25.4529 22.9898L25.3438 23.0992L18.521 17.9909L19.1866 17.3256C19.7067 16.8052 20.4994 16.7111 21.1256 17.0916ZM6.85974 1.78728C6.8651 1.79573 6.87066 1.80418 6.87643 1.81221L9.76652 5.82867C10.1591 6.45716 10.0683 7.2595 9.54322 7.78458L8.89826 8.42975L4.28235 1.64185L4.40615 1.51805C5.12404 0.800162 6.31778 0.935912 6.85974 1.78728ZM16.6479 25.2432C13.7616 24.1885 10.5952 22.0309 7.73233 19.168C4.93576 16.3716 2.81794 13.2893 1.76882 10.4891C0.981304 8.38711 0.45293 5.47127 2.4074 3.51701L3.52327 2.40094L8.13917 9.18884L7.36072 9.9677C6.91783 10.4098 6.77858 11.064 6.99961 11.6466C7.16606 12.3296 7.93194 13.7475 8.70462 14.7923C9.84171 16.3298 11.9056 18.4555 15.2804 19.8517C15.8734 20.097 16.5497 19.9623 17.0037 19.5085L17.7677 18.7443L24.5904 23.8525L23.9813 24.4614C21.8862 26.5568 18.837 26.043 16.6479 25.2432Z" fill="#C5C5C5"/>
<path d="M11.2704 19.3245C10.7134 18.8361 9.74992 17.996 9.24256 17.474C7.99836 16.1954 6.69298 14.6455 5.91679 13.5257C5.75097 13.2864 5.42241 13.2266 5.18304 13.3927C4.94368 13.5585 4.88415 13.8871 5.04997 14.1264C6.02885 15.5387 7.4671 17.1615 8.48656 18.2092C9.02215 18.7605 9.99382 19.6079 10.5749 20.1173C10.7935 20.3089 11.1266 20.2879 11.3192 20.0685C11.5112 19.8497 11.4893 19.5164 11.2704 19.3245Z" fill="#C5C5C5"/>
</g>
<defs>
<clipPath id="clip0">
<rect width="27" height="27" fill="white"/>
</clipPath>
</defs>
</svg>
