<svg width="14" height="14" viewBox="0 0 14 14" fill="none" xmlns="http://www.w3.org/2000/svg">
<g clip-path="url(#clip0)">
<path d="M10.5348 3.33373L4.77709 6.87994C4.45126 7.08108 4.29707 7.47836 4.40204 7.84581L5.0246 10.0333C5.07779 10.2198 5.24376 10.3438 5.43473 10.3438C5.44537 10.3438 5.45612 10.3434 5.46689 10.3426C5.67104 10.3278 5.83258 10.1757 5.85974 9.97307L6.02161 8.77361C6.04343 8.61223 6.1212 8.46211 6.24039 8.35115L10.9918 3.93447C11.1354 3.80134 11.1543 3.58333 11.036 3.42738C10.9175 3.27131 10.7022 3.23095 10.5348 3.33373ZM5.86048 7.94277C5.64698 8.1415 5.50788 8.41005 5.46883 8.69896L5.39033 9.28078L4.93842 7.69287C4.90169 7.56425 4.95578 7.42515 5.0698 7.35477L9.2878 4.75692L5.86048 7.94277Z" fill="#202020"/>
<path d="M13.7722 1.02216C13.5923 0.869693 13.3441 0.82772 13.1242 0.91265L0.412351 5.81653C0.160597 5.91363 -0.00127756 6.15067 7.59653e-06 6.42042C0.0013201 6.69041 0.165574 6.92614 0.418805 7.02103L3.38806 8.12924L4.54632 11.8541C4.60992 12.0589 4.77045 12.218 4.9757 12.2798C5.18083 12.3415 5.40237 12.2974 5.56796 12.1619L7.29445 10.7545C7.37735 10.6869 7.49575 10.6835 7.58232 10.7464L10.6963 13.0072C10.8083 13.0886 10.9405 13.1305 11.0743 13.1305C11.1526 13.1305 11.2315 13.1162 11.3072 13.0869C11.5119 13.0077 11.6607 12.8323 11.7053 12.6176L13.9866 1.64431C14.0345 1.41326 13.9524 1.17488 13.7722 1.02216ZM13.4404 1.53097L11.1592 12.5042C11.151 12.5439 11.1224 12.5604 11.1061 12.5667C11.0897 12.573 11.0573 12.5801 11.0242 12.5559L7.91006 10.295C7.77086 10.194 7.60718 10.1438 7.4438 10.1438C7.26557 10.1438 7.08759 10.2035 6.94212 10.322L5.21526 11.7298C5.18452 11.755 5.15261 11.7505 5.13637 11.7456C5.12002 11.7407 5.09084 11.7267 5.07897 11.6886L3.88009 7.83294C3.85447 7.75056 3.79212 7.68466 3.71129 7.65447L0.614203 6.49857C0.567828 6.4812 0.557957 6.44503 0.55782 6.41771C0.557684 6.39064 0.567199 6.35463 0.613137 6.33691L13.3251 1.43306C13.3251 1.43303 13.3252 1.433 13.3253 1.43297C13.3666 1.41703 13.3971 1.43535 13.4117 1.44766C13.4263 1.4601 13.4495 1.48744 13.4404 1.53097Z" fill="#202020"/>
<path d="M11.6888 6.89448C11.5383 6.86177 11.3898 6.95734 11.3571 7.10787L11.3148 7.3031C11.2821 7.45363 11.3776 7.60213 11.5281 7.63481C11.5481 7.63913 11.568 7.64121 11.5876 7.64121C11.716 7.64121 11.8315 7.55201 11.8599 7.42144L11.9023 7.22621C11.9349 7.07568 11.8393 6.92718 11.6888 6.89448Z" fill="#202020"/>
<path d="M11.41 8.17914C11.2593 8.14646 11.1109 8.242 11.0783 8.39253L10.4368 11.347C10.4042 11.4976 10.4997 11.6461 10.6502 11.6788C10.6702 11.6831 10.69 11.6852 10.7096 11.6852C10.838 11.6852 10.9535 11.596 10.9819 11.4654L11.6234 8.51084C11.6561 8.36031 11.5605 8.21181 11.41 8.17914Z" fill="#202020"/>
</g>
<defs>
<clipPath id="clip0">
<rect width="14" height="14" fill="white"/>
</clipPath>
</defs>
</svg>
