<svg width="14" height="14" viewBox="0 0 14 14" fill="none" xmlns="http://www.w3.org/2000/svg">
<path d="M10.7527 0H3.24752C1.49669 0 0.0722656 1.42442 0.0722656 3.17526V8.2268C0.0722656 9.97764 1.49669 11.4021 3.24752 11.4021H4.40216V13.7113C4.40216 13.8207 4.46391 13.9206 4.56173 13.9695C4.60258 13.99 4.6468 14 4.69079 14C4.75213 14 4.81307 13.9805 4.86402 13.9423L8.25095 11.4021H10.7527C12.5035 11.4021 13.9279 9.97764 13.9279 8.2268V3.17526C13.9279 1.42442 12.5035 0 10.7527 0ZM13.3506 8.2268C13.3506 9.65931 12.1852 10.8247 10.7527 10.8247H8.15474C8.09227 10.8247 8.03151 10.845 7.98154 10.8825L4.97948 13.134V11.1134C4.97948 10.954 4.85025 10.8247 4.69082 10.8247H3.24752C1.81502 10.8247 0.649585 9.65931 0.649585 8.2268V3.17526C0.649585 1.74275 1.81502 0.57732 3.24752 0.57732H10.7527C12.1852 0.57732 13.3506 1.74275 13.3506 3.17526V8.2268Z" fill="#202020"/>
<path d="M7.85669 6.73546C7.85574 6.73454 7.85482 6.73362 7.85386 6.73269C7.74383 6.62537 7.59909 6.56628 7.44633 6.56628C7.29222 6.56628 7.14731 6.62632 7.03837 6.73526L6.63035 7.14331L5.4051 5.92023L5.81275 5.51259C5.92172 5.40362 5.98173 5.25833 5.98173 5.10353C5.98173 4.94869 5.92169 4.80341 5.81275 4.69447L4.38391 3.26563C4.27494 3.15666 4.13018 3.09662 3.97627 3.09662C3.82235 3.09662 3.67759 3.15663 3.56865 3.2656L2.24082 4.59344C2.17763 4.65659 2.14726 4.74544 2.15858 4.83406C2.16574 4.8898 2.35556 6.22197 4.34211 8.20849C6.32628 10.1956 7.6617 10.3825 7.71759 10.3895C7.72954 10.391 7.74149 10.3917 7.75341 10.3917C7.82944 10.3917 7.90302 10.3617 7.95752 10.3072L8.26206 10.0026L9.2816 8.98311C9.39254 8.87406 9.45362 8.72857 9.45362 8.57319C9.45362 8.41774 9.39254 8.27226 9.28158 8.1632L7.85669 6.73546ZM8.87387 8.57437L7.6604 9.78784C7.3068 9.69206 6.24704 9.29917 4.75051 7.80039C3.26738 6.31728 2.86233 5.24456 2.76176 4.88891L3.97569 3.67379L5.40456 5.10431L4.7926 5.71629C4.73845 5.77045 4.70802 5.84391 4.70805 5.92052C4.70808 5.99713 4.73856 6.07059 4.7928 6.12469L6.42661 7.75562C6.53939 7.86817 6.72203 7.86811 6.83466 7.75544L7.44633 7.1436C7.44755 7.1436 7.44882 7.14421 7.45029 7.1455L8.87405 8.57212C8.87439 8.57244 8.87471 8.57278 8.87509 8.57316C8.87468 8.57356 8.87431 8.57397 8.87387 8.57437Z" fill="#202020"/>
<path d="M6.85547 2.8866V3.46392C8.28797 3.46392 9.45341 4.62935 9.45341 6.06185H10.0307C10.0307 4.31102 8.60631 2.8866 6.85547 2.8866Z" fill="#202020"/>
<path d="M8.15444 5.91749H8.73176C8.73176 4.8829 7.89006 4.0412 6.85547 4.0412V4.61852C7.57175 4.61852 8.15444 5.20124 8.15444 5.91749Z" fill="#202020"/>
<path d="M6.85547 1.73193V2.30925C9.00425 2.30925 10.7524 4.05741 10.7524 6.20616H11.3297C11.3297 3.73907 9.32259 1.73193 6.85547 1.73193Z" fill="#202020"/>
</svg>
