<svg width="20" height="20" viewBox="0 0 20 20" fill="none" xmlns="http://www.w3.org/2000/svg">
<path d="M15.361 0H4.63935C2.13816 0 0.103271 2.03489 0.103271 4.53608V11.7526C0.103271 14.2538 2.13816 16.2887 4.63935 16.2887H6.28884V19.5876C6.28884 19.7438 6.37705 19.8866 6.5168 19.9565C6.57515 19.9856 6.63832 20 6.70117 20C6.7888 20 6.87585 19.9721 6.94863 19.9175L11.7871 16.2887H15.361C17.8622 16.2887 19.8971 14.2538 19.8971 11.7526V4.53608C19.8971 2.03489 17.8622 0 15.361 0ZM19.0723 11.7526C19.0723 13.799 17.4074 15.4639 15.361 15.4639H11.6497C11.5604 15.4639 11.4736 15.4929 11.4022 15.5464L7.11358 18.7629V15.8763C7.11358 15.6485 6.92896 15.4639 6.70121 15.4639H4.63935C2.59292 15.4639 0.928014 13.799 0.928014 11.7526V4.53608C0.928014 2.48965 2.59292 0.824742 4.63935 0.824742H15.361C17.4074 0.824742 19.0723 2.48965 19.0723 4.53608V11.7526Z" fill="#202020"/>
<path d="M11.2238 9.62212C11.2225 9.6208 11.2211 9.61948 11.2198 9.61816C11.0626 9.46484 10.8558 9.38043 10.6376 9.38043C10.4174 9.38043 10.2104 9.4662 10.0548 9.62183L9.4719 10.2048L7.72154 8.4575L8.30389 7.87515C8.45956 7.71948 8.5453 7.51193 8.5453 7.29078C8.5453 7.06958 8.45952 6.86204 8.30389 6.70641L6.2627 4.66521C6.10703 4.50954 5.90022 4.42377 5.68035 4.42377C5.46047 4.42377 5.25367 4.5095 5.09804 4.66517L3.20113 6.56208C3.11086 6.6523 3.06748 6.77923 3.08365 6.90583C3.09387 6.98546 3.36505 8.88855 6.20299 11.7264C9.0375 14.5652 10.9453 14.8322 11.0251 14.8422C11.0422 14.8443 11.0592 14.8454 11.0763 14.8454C11.1849 14.8454 11.29 14.8024 11.3679 14.7246L11.8029 14.2895L13.2594 12.833C13.4179 12.6773 13.5051 12.4694 13.5051 12.2474C13.5051 12.0254 13.4179 11.8175 13.2594 11.6617L11.2238 9.62212ZM12.6769 12.2491L10.9434 13.9827C10.4382 13.8458 8.92431 13.2846 6.78641 11.1434C4.66765 9.02472 4.08901 7.49226 3.94534 6.98418L5.67952 5.2483L7.72076 7.29189L6.84653 8.16616C6.76917 8.24352 6.72571 8.34847 6.72575 8.45791C6.72579 8.56735 6.76934 8.6723 6.84682 8.74958L9.18084 11.0795C9.34196 11.2403 9.60286 11.2402 9.76377 11.0792L10.6376 10.2052C10.6393 10.2052 10.6411 10.206 10.6432 10.2079L12.6772 12.2459C12.6777 12.2464 12.6781 12.2469 12.6787 12.2474C12.6781 12.248 12.6775 12.2485 12.6769 12.2491Z" fill="#202020"/>
<path d="M9.7937 4.12372V4.94846C11.8401 4.94846 13.505 6.61337 13.505 8.6598H14.3298C14.3298 6.1586 12.2949 4.12372 9.7937 4.12372Z" fill="#202020"/>
<path d="M11.6494 8.45361H12.4741C12.4741 6.97563 11.2717 5.77319 9.7937 5.77319V6.59794C10.817 6.59794 11.6494 7.43039 11.6494 8.45361Z" fill="#202020"/>
<path d="M9.7937 2.47424V3.29899C12.8634 3.29899 15.3607 5.79635 15.3607 8.866H16.1855C16.1855 5.34158 13.3182 2.47424 9.7937 2.47424Z" fill="#202020"/>
</svg>
