<svg width="50" height="50" viewBox="0 0 50 50" fill="none" xmlns="http://www.w3.org/2000/svg">
<g clip-path="url(#clip0)">
<path d="M40.029 26.7483L49.97 11.7188H34.7243L34.4397 12.8216C33.7092 15.6529 32.3382 19.4901 29.9559 21.6927C29.6614 21.9647 29.3826 22.1832 29.1259 22.3583V11.7188H15.8473V14.6584H17.0879V21.3207C15.5994 20.0115 13.729 17.5133 13.2392 13.0291L13.0962 11.7188H0L0.449751 13.5407C2.06679 20.0928 4.49255 25.4604 7.66026 29.4944C10.2462 32.788 13.3262 35.2062 16.8144 36.6813C19.9294 37.9989 22.7977 38.322 24.8614 38.322C26.7596 38.322 27.9769 38.0485 28.0791 38.0248L29.1987 37.7639L29.2567 33.7257L34.2429 38.0634H50.0002L40.029 26.7483Z" fill="#7080E5"/>
<path d="M40.0288 26.7483L49.9699 11.7188H34.7241L34.4396 12.8216C33.7091 15.6529 32.3381 19.4901 29.9558 21.6927C29.6613 21.9647 29.3824 22.1832 29.1257 22.3583V11.7188H24.0781V38.3064C24.3501 38.317 24.6114 38.322 24.8613 38.322C26.7595 38.322 27.9767 38.0485 28.079 38.0248L29.1986 37.7639L29.2566 33.7257L34.2427 38.0634H50L40.0288 26.7483Z" fill="#4C60DE"/>
</g>
<defs>
<clipPath id="clip0">
<rect width="50" height="50" fill="white"/>
</clipPath>
</defs>
</svg>
