<svg width="76" height="76" viewBox="0 0 76 76" fill="none" xmlns="http://www.w3.org/2000/svg">
<g clip-path="url(#clip0)">
<path d="M64.8906 55.4595V69.6787C64.8906 70.2984 64.6444 70.8927 64.2063 71.3309C63.7681 71.769 63.1738 72.0152 62.5541 72.0152H9.5133C8.99244 72.0156 8.47661 71.9134 7.99528 71.7143C7.51395 71.5153 7.07656 71.2233 6.70811 70.8552C6.33966 70.487 6.04738 70.0498 5.84796 69.5687C5.64854 69.0875 5.5459 68.5717 5.5459 68.0509V21.2893L5.56336 21.3068C5.65756 22.9097 6.36172 24.4157 7.53131 25.5158C8.70091 26.6158 10.2472 27.2265 11.8529 27.2224H62.5551C63.1748 27.2224 63.7691 27.4686 64.2073 27.9068C64.6455 28.345 64.8916 28.9393 64.8916 29.5589V43.8695" fill="#E7AA6C"/>
<path d="M64.8914 29.5548V69.6807C64.8895 70.3002 64.6419 70.8936 64.2029 71.3307C63.7638 71.7678 63.1693 72.0129 62.5498 72.012H9.51413C8.46289 72.0115 7.45487 71.5937 6.71153 70.8503C5.96819 70.107 5.55035 69.099 5.5498 68.0477V67.832C5.60756 67.8409 5.66601 67.8443 5.7244 67.8423H58.7704C59.3882 67.841 59.9804 67.5949 60.4174 67.158C60.8543 66.7211 61.1003 66.1289 61.1017 65.511V27.2234H62.5457C62.8528 27.2225 63.1571 27.282 63.4412 27.3987C63.7253 27.5153 63.9836 27.6868 64.2014 27.9033C64.4192 28.1197 64.5923 28.377 64.7107 28.6604C64.8291 28.9437 64.8905 29.2476 64.8914 29.5548Z" fill="#D09865"/>
<path d="M5.14959 14.7173C5.04832 14.7171 4.94937 14.6869 4.86519 14.6306C4.78102 14.5743 4.71537 14.4943 4.67651 14.4008C4.63765 14.3073 4.62732 14.2043 4.6468 14.105C4.66629 14.0056 4.71473 13.9142 4.78602 13.8422C5.67555 12.9421 6.73564 12.2285 7.90429 11.743C9.07294 11.2575 10.3267 11.01 11.5921 11.0148H14.208C14.3442 11.0148 14.4748 11.0689 14.5711 11.1652C14.6674 11.2615 14.7215 11.3922 14.7215 11.5284C14.7215 11.6645 14.6674 11.7952 14.5711 11.8915C14.4748 11.9878 14.3442 12.0419 14.208 12.0419H11.5911C10.4611 12.0377 9.34157 12.2587 8.29798 12.6922C7.2544 13.1256 6.30768 13.7627 5.51316 14.5663C5.46547 14.6141 5.40881 14.6521 5.34642 14.678C5.28403 14.7039 5.21714 14.7173 5.14959 14.7173Z" fill="#323C6B"/>
<path d="M17.2997 12.0409H16.7225C16.5863 12.0409 16.4557 11.9868 16.3594 11.8905C16.2631 11.7942 16.209 11.6636 16.209 11.5274C16.209 11.3912 16.2631 11.2606 16.3594 11.1643C16.4557 11.068 16.5863 11.0139 16.7225 11.0139H17.3007C17.4369 11.0139 17.5675 11.068 17.6638 11.1643C17.7601 11.2606 17.8142 11.3912 17.8142 11.5274C17.8142 11.6636 17.7601 11.7942 17.6638 11.8905C17.5675 11.9868 17.4369 12.0409 17.3007 12.0409H17.2997Z" fill="#323C6B"/>
<path d="M48.8639 14.6084H56.6488C57.3722 14.6084 58.066 14.8958 58.5776 15.4074C59.0891 15.919 59.3765 16.6128 59.3765 17.3362V27.2224H11.856C10.2503 27.2265 8.70403 26.6158 7.53444 25.5157C6.36484 24.4156 5.66068 22.9096 5.56648 21.3067C5.54979 21.1433 5.54362 20.979 5.548 20.8148C5.52942 20.0084 5.6718 19.2065 5.96679 18.4558C6.26178 17.7051 6.70348 17.0208 7.26605 16.4429C7.82862 15.8649 8.50077 15.4049 9.2432 15.0897C9.98564 14.7746 10.7834 14.6106 11.59 14.6074H24.7359" fill="#D09865"/>
<path d="M59.3766 27.7359H11.856C10.1194 27.7399 8.44703 27.0791 7.18217 25.8891C5.9173 24.6991 5.15584 23.0701 5.05404 21.3365C5.03837 21.2001 5.0322 21.0629 5.03556 20.9257V20.823C5.02196 19.9325 5.18618 19.0482 5.5186 18.222C5.85103 17.3958 6.34497 16.6443 6.9715 16.0113C7.57564 15.4005 8.29556 14.9162 9.08913 14.587C9.8827 14.2577 10.734 14.0901 11.5931 14.0939H24.7391C24.8753 14.0939 25.0059 14.148 25.1022 14.2443C25.1985 14.3406 25.2526 14.4712 25.2526 14.6074C25.2526 14.7436 25.1985 14.8742 25.1022 14.9705C25.0059 15.0668 24.8753 15.1209 24.7391 15.1209H11.5931C10.8699 15.1181 10.1534 15.2594 9.48544 15.5366C8.81747 15.8138 8.21144 16.2213 7.70275 16.7354C7.17162 17.2713 6.75272 17.9077 6.47056 18.6075C6.1884 19.3072 6.04866 20.0562 6.0595 20.8106V20.9267C6.05667 21.0296 6.06113 21.1325 6.07285 21.2348C6.15083 22.7139 6.79425 24.1065 7.87007 25.1246C8.94588 26.1427 10.3718 26.7084 11.853 26.7047H58.8631V17.3362C58.8623 16.7492 58.6287 16.1865 58.2136 15.7714C57.7985 15.3563 57.2358 15.1227 56.6488 15.1219H48.8629C48.7267 15.1219 48.5961 15.0678 48.4998 14.9715C48.4035 14.8752 48.3494 14.7446 48.3494 14.6084C48.3494 14.4722 48.4035 14.3416 48.4998 14.2453C48.5961 14.149 48.7267 14.0949 48.8629 14.0949H56.6488C57.5081 14.096 58.3319 14.4378 58.9395 15.0455C59.5472 15.6531 59.889 16.4769 59.8901 17.3362V27.2224C59.8901 27.3586 59.836 27.4892 59.7397 27.5855C59.6434 27.6818 59.5128 27.7359 59.3766 27.7359Z" fill="#323C6B"/>
<path d="M52.0367 21.4289H12.8895C12.7533 21.4289 12.6227 21.3748 12.5264 21.2785C12.4301 21.1822 12.376 21.0516 12.376 20.9154C12.376 20.7792 12.4301 20.6486 12.5264 20.5523C12.6227 20.456 12.7533 20.4019 12.8895 20.4019H52.0367C52.1729 20.4019 52.3035 20.456 52.3998 20.5523C52.4961 20.6486 52.5502 20.7792 52.5502 20.9154C52.5502 21.0516 52.4961 21.1822 52.3998 21.2785C52.3035 21.3748 52.1729 21.4289 52.0367 21.4289Z" fill="#323C6B"/>
<path d="M44.2558 20.9093L50.0071 13.0453C50.2418 12.7241 50.3393 12.3229 50.2783 11.9299C50.2172 11.5368 50.0026 11.184 49.6816 10.9492L36.3857 1.2263C36.0645 0.991637 35.6633 0.894112 35.2702 0.955161C34.8771 1.01621 34.5244 1.23084 34.2895 1.55187L20.1299 20.9093H44.2558Z" fill="#27CCBC"/>
<path d="M44.2557 21.4228H20.1298C20.0353 21.4221 19.9429 21.3953 19.8626 21.3454C19.7823 21.2955 19.7174 21.2245 19.6749 21.1401C19.6324 21.0556 19.6141 20.9611 19.6219 20.867C19.6296 20.7728 19.6633 20.6826 19.719 20.6063L33.8745 1.24886C34.1901 0.818123 34.6636 0.53022 35.1913 0.44838C35.7189 0.36654 36.2574 0.497456 36.6886 0.812376L49.9834 10.5342C50.415 10.8498 50.7035 11.3239 50.7856 11.8522C50.8676 12.3805 50.7365 12.9197 50.421 13.3514L44.6696 21.2153C44.6217 21.2799 44.5593 21.3323 44.4874 21.3683C44.4155 21.4044 44.3361 21.423 44.2557 21.4228ZM21.1476 20.3957H43.9949L49.5922 12.7423C49.746 12.5309 49.8098 12.2672 49.7696 12.0088C49.7294 11.7505 49.5884 11.5186 49.3775 11.3641L36.0826 1.64324C35.8714 1.48867 35.6074 1.42434 35.3488 1.4644C35.0901 1.50447 34.8579 1.64564 34.7033 1.85686L21.1476 20.3957Z" fill="#323C6B"/>
<path d="M44.2557 21.4227H20.1298C20.0353 21.422 19.9429 21.3953 19.8626 21.3454C19.7823 21.2955 19.7174 21.2244 19.6749 21.14C19.6324 21.0556 19.6141 20.9611 19.6219 20.8669C19.6296 20.7727 19.6633 20.6825 19.719 20.6062L31.6028 4.35661C31.6426 4.30203 31.6928 4.25585 31.7506 4.22072C31.8083 4.1856 31.8724 4.16221 31.9392 4.15191C32.006 4.1416 32.0742 4.14458 32.1398 4.16067C32.2054 4.17677 32.2672 4.20566 32.3217 4.24569C33.3572 5.00301 34.6511 5.31799 35.9188 5.12134C37.1865 4.9247 38.3242 4.23253 39.0816 3.19709C39.1214 3.14244 39.1715 3.09617 39.2292 3.06094C39.2869 3.02572 39.351 3.00223 39.4178 2.99183C39.4846 2.98143 39.5528 2.98432 39.6184 3.00033C39.6841 3.01635 39.746 3.04517 39.8005 3.08515L46.8808 8.26239C46.9354 8.30224 46.9816 8.35247 47.0167 8.41021C47.0518 8.46794 47.0752 8.53204 47.0855 8.59883C47.0958 8.66561 47.0929 8.73378 47.0768 8.79942C47.0607 8.86505 47.0318 8.92686 46.9917 8.98131C46.2361 10.0172 45.9221 11.3105 46.1187 12.5775C46.3153 13.8446 47.0063 14.982 48.0403 15.7402C48.0949 15.78 48.1411 15.8303 48.1762 15.888C48.2114 15.9457 48.2347 16.0098 48.245 16.0766C48.2553 16.1434 48.2524 16.2116 48.2363 16.2772C48.2202 16.3428 48.1913 16.4046 48.1513 16.4591L44.6727 21.2153C44.6245 21.2803 44.5616 21.3329 44.4891 21.369C44.4166 21.405 44.3367 21.4234 44.2557 21.4227ZM21.1476 20.3957H43.9949L47.0287 16.2465C45.9928 15.3384 45.3094 14.0948 45.0981 12.7335C44.8869 11.3721 45.1613 9.9799 45.8733 8.80056L39.5869 4.20358C38.6817 5.24306 37.437 5.92762 36.0744 6.13542C34.7127 6.35092 33.3187 6.07576 32.1409 5.35899L21.1476 20.3957Z" fill="#323C6B"/>
<path d="M39.1297 20.9185C39.3988 20.0317 39.4565 19.0943 39.2981 18.1812C39.1398 17.2682 38.7698 16.4049 38.2178 15.6605C37.6658 14.9162 36.9472 14.3114 36.1195 13.8948C35.2918 13.4781 34.3779 13.261 33.4513 13.261C32.5246 13.261 31.6108 13.4781 30.783 13.8948C29.9553 14.3114 29.2367 14.9162 28.6847 15.6605C28.1327 16.4049 27.7627 17.2682 27.6044 18.1812C27.446 19.0943 27.5037 20.0317 27.7728 20.9185H39.1297Z" fill="#21B3A9"/>
<path d="M39.1301 21.432H27.7692C27.659 21.4321 27.5517 21.3969 27.4632 21.3314C27.3746 21.266 27.3094 21.1738 27.2772 21.0684C26.9861 20.1055 26.9245 19.0878 27.0972 18.0967C27.2698 17.1057 27.6721 16.1688 28.2718 15.3611C28.8714 14.5534 29.6518 13.8973 30.5504 13.4452C31.4491 12.9931 32.4411 12.7576 33.4471 12.7576C34.4531 12.7576 35.4451 12.9931 36.3437 13.4452C37.2424 13.8973 38.0228 14.5534 38.6224 15.3611C39.2221 16.1688 39.6243 17.1057 39.797 18.0967C39.9697 19.0878 39.908 20.1055 39.6169 21.0684C39.585 21.1729 39.5206 21.2645 39.4331 21.3299C39.3455 21.3953 39.2394 21.4311 39.1301 21.432ZM28.1677 20.4049H38.7358C38.9175 19.6109 38.9179 18.786 38.737 17.9918C38.556 17.1975 38.1984 16.4542 37.6907 15.8172C37.183 15.1802 36.5382 14.6658 35.8043 14.3122C35.0704 13.9587 34.2663 13.7751 33.4517 13.7751C32.6371 13.7751 31.833 13.9587 31.0991 14.3122C30.3652 14.6658 29.7204 15.1802 29.2127 15.8172C28.705 16.4542 28.3474 17.1975 28.1665 17.9918C27.9855 18.786 27.9859 19.6109 28.1677 20.4049Z" fill="#323C6B"/>
<path d="M39.6118 11.2798C39.5173 11.2791 39.4248 11.2524 39.3445 11.2025C39.2643 11.1526 39.1993 11.0816 39.1568 10.9971C39.1144 10.9127 39.096 10.8182 39.1038 10.724C39.1116 10.6298 39.1452 10.5396 39.201 10.4633L40.0544 9.28636C40.0935 9.23002 40.1434 9.18206 40.2012 9.14531C40.2591 9.10856 40.3237 9.08376 40.3913 9.07238C40.4589 9.061 40.528 9.06326 40.5947 9.07903C40.6614 9.0948 40.7243 9.12377 40.7796 9.16422C40.835 9.20467 40.8816 9.25579 40.9169 9.31456C40.9522 9.37333 40.9753 9.43857 40.985 9.50642C40.9946 9.57428 40.9906 9.64338 40.9731 9.70965C40.9557 9.77593 40.9251 9.83803 40.8832 9.89231L40.0226 11.0693C39.9753 11.134 39.9135 11.1868 39.8422 11.2233C39.7708 11.2599 39.6919 11.2792 39.6118 11.2798Z" fill="#323C6B"/>
<path d="M67.973 68.1113C67.8368 68.1113 67.7062 68.0572 67.6099 67.9609C67.5136 67.8646 67.4595 67.734 67.4595 67.5978V66.7639C67.4595 66.6277 67.5136 66.4971 67.6099 66.4008C67.7062 66.3045 67.8368 66.2504 67.973 66.2504C68.1092 66.2504 68.2398 66.3045 68.3361 66.4008C68.4324 66.4971 68.4865 66.6277 68.4865 66.7639V67.5988C68.4862 67.7349 68.432 67.8652 68.3357 67.9613C68.2395 68.0574 68.109 68.1113 67.973 68.1113Z" fill="#323C6B"/>
<path d="M62.5555 72.8717H9.51363C8.32574 72.8711 7.18663 72.3991 6.34647 71.5594C5.50631 70.7196 5.0338 69.5807 5.03271 68.3928V21.6323C5.03289 21.5296 5.06384 21.4293 5.12157 21.3444C5.17929 21.2595 5.26115 21.1939 5.35656 21.1559C5.45198 21.118 5.55657 21.1096 5.65683 21.1317C5.7571 21.1538 5.84843 21.2055 5.91904 21.28C6.00739 21.3737 6.06228 21.4939 6.07515 21.622C6.16224 23.0938 6.80929 24.4765 7.88354 25.4864C8.95778 26.4963 10.3778 27.0568 11.8522 27.0529H62.5555C63.311 27.0537 64.0353 27.3543 64.5695 27.8886C65.1036 28.423 65.4039 29.1474 65.4044 29.9029V44.2115C65.4044 44.3477 65.3503 44.4783 65.254 44.5746C65.1577 44.6709 65.0271 44.725 64.8909 44.725C64.7547 44.725 64.6241 44.6709 64.5278 44.5746C64.4315 44.4783 64.3774 44.3477 64.3774 44.2115V29.9009C64.3769 29.4177 64.1848 28.9545 63.8433 28.6128C63.5017 28.2711 63.0386 28.0787 62.5555 28.0779H11.8563C10.9598 28.0812 10.0715 27.9066 9.24296 27.5642C8.41439 27.2219 7.66197 26.7185 7.02926 26.0834C6.66096 25.7139 6.33571 25.3039 6.05974 24.8612V68.3928C6.06056 69.3076 6.42424 70.1847 7.071 70.8316C7.71775 71.4786 8.59474 71.8425 9.50953 71.8436H62.5555C63.0386 71.8428 63.5017 71.6504 63.8433 71.3087C64.1848 70.967 64.3769 70.5038 64.3774 70.0206V55.8015C64.3774 55.6653 64.4315 55.5347 64.5278 55.4383C64.6241 55.342 64.7547 55.2879 64.8909 55.2879C65.0271 55.2879 65.1577 55.342 65.254 55.4383C65.3503 55.5347 65.4044 55.6653 65.4044 55.8015V70.0217C65.4039 70.7772 65.1036 71.5016 64.5695 72.036C64.0353 72.5703 63.311 72.8709 62.5555 72.8717Z" fill="#323C6B"/>
<path d="M55.822 43.4709C54.9574 43.4712 54.1026 43.6525 53.3123 44.003C52.522 44.3536 51.8139 44.8657 51.2335 45.5064C50.6531 46.1471 50.2132 46.9022 49.9421 47.7231C49.6711 48.544 49.5749 49.4126 49.6598 50.2729C49.8539 51.8331 50.6179 53.2664 51.8049 54.2974C52.9919 55.3283 54.518 55.8841 56.09 55.8579H66.1292C66.7606 55.8579 67.3661 55.6071 67.8126 55.1606C68.259 54.7142 68.5098 54.1087 68.5098 53.4773V45.8516C68.5098 45.2202 68.259 44.6147 67.8126 44.1682C67.3661 43.7218 66.7606 43.4709 66.1292 43.4709H55.822Z" fill="#84879C"/>
<path d="M66.1274 56.3715H56.0882C54.39 56.3937 52.7431 55.7893 51.4625 54.6737C50.1819 53.5581 49.3573 52.0096 49.1465 50.3244C49.0515 49.3911 49.1549 48.4483 49.45 47.5578C49.745 46.6673 50.2251 45.8493 50.8586 45.1574C51.4878 44.4663 52.2541 43.9139 53.1088 43.5357C53.9634 43.1574 54.8876 42.9616 55.8222 42.9606H66.1274C66.8946 42.9617 67.6301 43.2669 68.1727 43.8095C68.7152 44.352 69.0205 45.0875 69.0216 45.8547V53.4794C69.0199 54.2463 68.7144 54.9813 68.1719 55.5233C67.6295 56.0654 66.8943 56.3704 66.1274 56.3715ZM55.8222 43.9845C55.0307 43.9854 54.2481 44.1512 53.5244 44.4714C52.8006 44.7917 52.1515 45.2593 51.6186 45.8445C51.082 46.4306 50.6754 47.1236 50.4257 47.878C50.1759 48.6324 50.0886 49.4311 50.1695 50.2217C50.3537 51.6538 51.0593 52.9677 52.1515 53.9122C53.2436 54.8567 54.6455 55.3656 56.0892 55.3414H66.1274C66.6224 55.3408 67.097 55.1439 67.4471 54.7939C67.7971 54.4439 67.994 53.9693 67.9945 53.4742V45.8527C67.994 45.3576 67.7971 44.8831 67.4471 44.533C67.097 44.183 66.6224 43.9861 66.1274 43.9855L55.8222 43.9845Z" fill="#323C6B"/>
<path d="M56.238 51.7939C57.4144 51.7939 58.368 50.8403 58.368 49.6639C58.368 48.4875 57.4144 47.5338 56.238 47.5338C55.0616 47.5338 54.1079 48.4875 54.1079 49.6639C54.1079 50.8403 55.0616 51.7939 56.238 51.7939Z" fill="#323C6B"/>
<path d="M63.5731 76.1674C63.4369 76.1674 63.3063 76.1133 63.21 76.017C63.1137 75.9207 63.0596 75.7901 63.0596 75.6539C63.0596 75.5177 63.1137 75.3871 63.21 75.2908C63.3063 75.1945 63.4369 75.1404 63.5731 75.1404C64.604 75.1393 65.5924 74.7293 66.3213 74.0003C67.0503 73.2713 67.4603 72.283 67.4614 71.252V70.0196C67.4614 69.8834 67.5155 69.7528 67.6118 69.6565C67.7081 69.5602 67.8387 69.5061 67.9749 69.5061C68.1111 69.5061 68.2417 69.5602 68.338 69.6565C68.4343 69.7528 68.4884 69.8834 68.4884 70.0196V71.252C68.4868 72.5552 67.9684 73.8045 67.047 74.7259C66.1255 75.6474 64.8762 76.1658 63.5731 76.1674Z" fill="#323C6B"/>
<path d="M28.585 32.2055H27.5128C27.3357 32.2055 27.1659 32.1352 27.0407 32.01C26.9155 31.8848 26.8452 31.715 26.8452 31.5379C26.8452 31.3609 26.9155 31.1911 27.0407 31.0659C27.1659 30.9407 27.3357 30.8704 27.5128 30.8704H28.585C28.7621 30.8704 28.9318 30.9407 29.057 31.0659C29.1822 31.1911 29.2526 31.3609 29.2526 31.5379C29.2526 31.715 29.1822 31.8848 29.057 32.01C28.9318 32.1352 28.7621 32.2055 28.585 32.2055Z" fill="white"/>
<path d="M42.1083 32.2055H31.4098C31.2327 32.2055 31.0629 32.1352 30.9377 32.01C30.8125 31.8848 30.7422 31.715 30.7422 31.5379C30.7422 31.3609 30.8125 31.1911 30.9377 31.0659C31.0629 30.9407 31.2327 30.8704 31.4098 30.8704H42.1083C42.2854 30.8704 42.4552 30.9407 42.5804 31.0659C42.7055 31.1911 42.7759 31.3609 42.7759 31.5379C42.7759 31.715 42.7055 31.8848 42.5804 32.01C42.4552 32.1352 42.2854 32.2055 42.1083 32.2055Z" fill="white"/>
</g>
<defs>
<clipPath id="clip0">
<rect width="76" height="76" fill="white"/>
</clipPath>
</defs>
</svg>
