<svg width="14" height="14" viewBox="0 0 14 14" fill="none" xmlns="http://www.w3.org/2000/svg">
<path d="M7 0C3.14004 0 0 3.14004 0 7C0 8.31681 0.365885 9.59512 1.05996 10.7052C0.783462 11.6738 0.284038 13.5062 0.278654 13.5253C0.252808 13.6201 0.280538 13.7213 0.351346 13.7895C0.422154 13.8576 0.524462 13.8818 0.617615 13.8533L3.39231 12.9998C4.47919 13.6546 5.72385 14 7 14C10.86 14 14 10.86 14 7C14 3.14004 10.86 0 7 0ZM7 13.4615C5.78335 13.4615 4.59819 13.1215 3.57242 12.4786C3.52908 12.4514 3.47927 12.4377 3.42946 12.4377C3.40281 12.4377 3.37615 12.4417 3.35031 12.4495L0.9275 13.1953C1.10546 12.5456 1.42531 11.3836 1.61081 10.7372C1.63235 10.6623 1.62023 10.5816 1.57796 10.5162C0.897885 9.46966 0.538462 8.25381 0.538462 7C0.538462 3.43727 3.43727 0.538462 7 0.538462C10.5627 0.538462 13.4615 3.43727 13.4615 7C13.4615 10.5627 10.5627 13.4615 7 13.4615Z" fill="#202020"/>
<path d="M11.5728 8.64931C11.0758 8.37335 10.6526 8.09658 10.3438 7.89466C10.108 7.74066 9.93753 7.62947 9.81261 7.56674C9.46341 7.39254 9.19876 7.51558 9.09807 7.61735C9.08541 7.63 9.07411 7.64374 9.06441 7.65827C8.70176 8.20239 8.22818 8.72281 8.08953 8.75081C7.92934 8.72577 7.17953 8.29958 6.4343 7.679C5.67345 7.04497 5.19476 6.43785 5.12449 6.02431C5.61261 5.52193 5.78841 5.20585 5.78841 4.84616C5.78841 4.47543 4.92365 2.92762 4.76722 2.7712C4.61026 2.6145 4.25676 2.59 3.71641 2.6977C3.66445 2.7082 3.61653 2.73377 3.57884 2.7712C3.51341 2.83662 1.98257 4.39735 2.71003 6.28897C3.50857 8.365 5.55822 10.7781 8.17138 11.1701C8.46834 11.2145 8.74672 11.2366 9.00734 11.2366C10.5446 11.2366 11.452 10.4631 11.7075 8.92877C11.7266 8.81651 11.6725 8.7045 11.5728 8.64931ZM8.25134 10.6376C5.48795 10.2232 3.74738 7.48543 3.21268 6.09566C2.6823 4.7172 3.66042 3.48816 3.90595 3.21031C4.10572 3.17639 4.31599 3.16212 4.40376 3.17585C4.58711 3.43081 5.22195 4.63024 5.24995 4.84616C5.24995 4.9875 5.20391 5.18431 4.65576 5.73273C4.60515 5.78308 4.57688 5.85147 4.57688 5.92308C4.57688 7.33277 7.55026 9.28847 8.07688 9.28847C8.53484 9.28847 9.13199 8.51874 9.47203 8.01716C9.49168 8.01797 9.5248 8.0247 9.57191 8.04839C9.66884 8.09712 9.83684 8.2067 10.0493 8.34562C10.3298 8.52897 10.7024 8.77235 11.1423 9.02462C10.9426 9.98577 10.3842 10.958 8.25134 10.6376Z" fill="#202020"/>
</svg>
