<svg width="20" height="20" viewBox="0 0 20 20" fill="none" xmlns="http://www.w3.org/2000/svg">
<path d="M10 0C4.48577 0 0 4.48577 0 10C0 11.8812 0.522692 13.7073 1.51423 15.2931C1.11923 16.6769 0.405769 19.2946 0.398077 19.3219C0.361154 19.4573 0.400769 19.6019 0.501923 19.6992C0.603077 19.7965 0.749231 19.8312 0.882308 19.7904L4.84615 18.5712C6.39885 19.5065 8.17692 20 10 20C15.5142 20 20 15.5142 20 10C20 4.48577 15.5142 0 10 0ZM10 19.2308C8.26192 19.2308 6.56885 18.745 5.10346 17.8265C5.04154 17.7877 4.97038 17.7681 4.89923 17.7681C4.86115 17.7681 4.82308 17.7738 4.78615 17.785L1.325 18.8504C1.57923 17.9223 2.03615 16.2623 2.30115 15.3388C2.33192 15.2319 2.31462 15.1165 2.25423 15.0231C1.28269 13.5281 0.769231 11.7912 0.769231 10C0.769231 4.91038 4.91038 0.769231 10 0.769231C15.0896 0.769231 19.2308 4.91038 19.2308 10C19.2308 15.0896 15.0896 19.2308 10 19.2308Z" fill="#202020"/>
<path d="M16.5327 12.3561C15.8227 11.9619 15.218 11.5665 14.7769 11.2781C14.44 11.0581 14.1965 10.8992 14.018 10.8096C13.5192 10.5608 13.1411 10.7365 12.9973 10.8819C12.9792 10.9 12.963 10.9196 12.9492 10.9404C12.4311 11.7177 11.7546 12.4611 11.5565 12.5011C11.3277 12.4654 10.2565 11.8565 9.19189 10.97C8.10497 10.0642 7.42112 9.1969 7.32074 8.60613C8.01804 7.88844 8.2692 7.4369 8.2692 6.92306C8.2692 6.39344 7.03381 4.18229 6.81035 3.95883C6.58612 3.73498 6.08112 3.69998 5.3092 3.85383C5.23497 3.86883 5.16651 3.90536 5.11266 3.95883C5.0192 4.05229 2.83228 6.2819 3.87151 8.98421C5.01228 11.95 7.94035 15.3973 11.6734 15.9573C12.0977 16.0208 12.4954 16.0523 12.8677 16.0523C15.0638 16.0523 16.36 14.9473 16.725 12.7554C16.7523 12.595 16.675 12.435 16.5327 12.3561ZM11.7877 15.1965C7.83997 14.6046 5.35343 10.6934 4.58958 8.70806C3.83189 6.73883 5.2292 4.98306 5.57997 4.58613C5.86535 4.53767 6.16574 4.51729 6.29112 4.5369C6.55304 4.90113 7.45997 6.6146 7.49997 6.92306C7.49997 7.12498 7.4342 7.40613 6.65112 8.1896C6.57881 8.26152 6.53843 8.35921 6.53843 8.46152C6.53843 10.4754 10.7861 13.2692 11.5384 13.2692C12.1927 13.2692 13.0457 12.1696 13.5315 11.4531C13.5596 11.4542 13.6069 11.4638 13.6742 11.4977C13.8127 11.5673 14.0527 11.7238 14.3561 11.9223C14.7569 12.1842 15.2892 12.5319 15.9177 12.8923C15.6323 14.2654 14.8346 15.6542 11.7877 15.1965Z" fill="#202020"/>
</svg>
